<?xml version="1.0" encoding="UTF-8" standalone="no"?>
<!-- Created with Inkscape (http://www.inkscape.org/) -->

<svg
   width="136.97371mm"
   height="112.46124mm"
   viewBox="0 0 136.97371 112.46124"
   version="1.1"
   id="svg1"
   xml:space="preserve"
   inkscape:export-filename="bitmap.png"
   inkscape:export-xdpi="96"
   inkscape:export-ydpi="96"
   xmlns:inkscape="http://www.inkscape.org/namespaces/inkscape"
   xmlns:sodipodi="http://sodipodi.sourceforge.net/DTD/sodipodi-0.dtd"
   xmlns="http://www.w3.org/2000/svg"
   xmlns:svg="http://www.w3.org/2000/svg"><sodipodi:namedview
     id="namedview1"
     pagecolor="#ffffff"
     bordercolor="#000000"
     borderopacity="0.25"
     inkscape:showpageshadow="2"
     inkscape:pageopacity="0.0"
     inkscape:pagecheckerboard="0"
     inkscape:deskcolor="#d1d1d1"
     inkscape:document-units="mm" /><defs
     id="defs1" /><g
     inkscape:label="Layer 1"
     inkscape:groupmode="layer"
     id="layer1"
     transform="translate(-53.031026,-40.046999)"><path
       id="path1"
       style="fill:#979797;fill-opacity:1;fill-rule:evenodd;stroke:none;stroke-width:2;stroke-linecap:round;stroke-linejoin:round;stroke-dasharray:none;stroke-opacity:1;paint-order:fill markers stroke"
       d="m 94.363682,49.84929 c -0.945083,0.0048 -1.936751,0.05796 -2.982247,0.172083 -22.624013,3.275708 -22.694127,21.847699 -28.951721,40.336039 -1.696733,6.316066 -8.246616,31.568868 -2.289783,42.401028 8.235159,14.97475 21.570559,2.6629 30.679265,-6.50968 2.53882,-2.41731 4.754044,-5.22318 7.687386,-7.18302 5.196338,-3.29789 13.261808,-4.62508 21.547518,-4.55838 21.25748,0.17705 25.23128,3.29826 42.10751,20.17448 13.65959,10.2517 20.02467,3.73368 22.54333,-4.09381 1.64807,-5.12188 1.89007,-8.37902 -0.0191,-23.88226 -3.29875,-26.788505 -11.27363,-58.655899 -36.3182,-56.098386 -7.01005,0.715856 -7.76483,2.426433 -17.54621,5.25911 -18.66647,5.405797 -22.08867,-6.072106 -36.457728,-6.017204 z m 1.307931,16.311666 c 10.053147,4.6e-5 18.202977,8.149364 18.203027,18.202507 -5e-5,10.053143 -8.14988,18.202977 -18.203027,18.203027 -10.053143,-5e-5 -18.202459,-8.149884 -18.202507,-18.203027 4.8e-5,-10.053143 8.149364,-18.202461 18.202507,-18.202507 z m 0,8.196916 c -5.526113,-1.2e-4 -9.463108,4.359072 -9.462989,9.885185 -1.43e-4,5.526112 3.936876,10.126632 9.462989,10.126513 5.526137,1.43e-4 9.584047,-4.479971 9.583907,-10.006107 1.2e-4,-5.526113 -4.0578,-10.005735 -9.583907,-10.005591 z"
       inkscape:export-filename="bitmap.png"
       inkscape:export-xdpi="96"
       inkscape:export-ydpi="96" /><ellipse
       style="fill:#4a4a4a;fill-opacity:1;fill-rule:evenodd;stroke:#6c6c6c;stroke-width:0.2;stroke-linecap:round;stroke-linejoin:round;stroke-dasharray:0.399999, 0.2;stroke-dashoffset:0.319999;stroke-opacity:1;paint-order:fill markers stroke"
       id="path14"
       cx="95.660667"
       cy="84.230682"
       rx="8.1672239"
       ry="8.3179102" /><rect
       style="opacity:1;fill:#4ee474;fill-opacity:1;fill-rule:evenodd;stroke:#e4fbfb;stroke-width:0.6;stroke-linecap:round;stroke-linejoin:round;stroke-dasharray:none;stroke-dashoffset:0;stroke-opacity:1;paint-order:fill markers stroke"
       id="rect52"
       width="10.261036"
       height="10.261036"
       x="148.1967"
       y="89.361191"
       rx="5.130518"
       ry="5.130518" /><rect
       style="opacity:1;fill:#e44950;fill-opacity:1;fill-rule:evenodd;stroke:#e4fbfb;stroke-width:0.6;stroke-linecap:round;stroke-linejoin:round;stroke-dasharray:none;stroke-dashoffset:0;stroke-opacity:1;paint-order:fill markers stroke"
       id="rect53"
       width="10.261036"
       height="10.261036"
       x="158.45775"
       y="79.100166"
       rx="5.130518"
       ry="5.130518" /><rect
       style="opacity:1;fill:#4d49e4;fill-opacity:1;fill-rule:evenodd;stroke:#e4fbfb;stroke-width:0.6;stroke-linecap:round;stroke-linejoin:round;stroke-dasharray:none;stroke-dashoffset:0;stroke-opacity:1;paint-order:fill markers stroke"
       id="rect54"
       width="10.261036"
       height="10.261036"
       x="137.93565"
       y="79.100159"
       rx="5.130518"
       ry="5.130518" /><rect
       style="opacity:1;fill:#e4e04a;fill-opacity:1;fill-rule:evenodd;stroke:#e4fbfb;stroke-width:0.6;stroke-linecap:round;stroke-linejoin:round;stroke-dasharray:none;stroke-dashoffset:0;stroke-opacity:1;paint-order:fill markers stroke"
       id="rect51"
       width="10.261036"
       height="10.261036"
       x="148.1967"
       y="68.839127"
       rx="5.130518"
       ry="5.130518" /></g></svg>
