<svg width="44" height="44" viewBox="0 0 44 44" fill="none" xmlns="http://www.w3.org/2000/svg">
<circle cx="18.5" cy="18.5" r="18.5" transform="matrix(-1 0 0 1 41 3)" fill="#C4E4FF"/>
<path d="M17.3058 31.0558L26.3588 22L17.3044 12.9442L19.25 11L30.25 22L19.25 33L17.3058 31.0558Z" fill="#402B3A"/>
<path d="M22 2.75C11.385 2.75 2.75 11.385 2.75 22C2.75 32.615 11.385 41.25 22 41.25C32.615 41.25 41.25 32.615 41.25 22C41.25 11.385 32.615 2.75 22 2.75ZM22 38.5C12.9016 38.5 5.5 31.0984 5.5 22C5.5 12.9016 12.9016 5.5 22 5.5C31.0984 5.5 38.5 12.9016 38.5 22C38.5 31.0984 31.0984 38.5 22 38.5Z" fill="#402B3A"/>
</svg>
