<svg width="130" height="37" viewBox="0 0 130 37" fill="none" xmlns="http://www.w3.org/2000/svg">
<path d="M4.048 4.572V12.96H13.192V15.66H4.048V24.3H14.272V27H0.772V1.872H14.272V4.572H4.048ZM28.085 27L23.405 19.656L18.905 27H15.485L21.857 17.208L15.485 7.272H19.193L23.873 14.58L28.337 7.272H31.757L25.421 17.028L31.793 27H28.085ZM36.8516 10.908C37.4996 9.78 38.4596 8.844 39.7316 8.1C41.0276 7.332 42.5276 6.948 44.2316 6.948C45.9836 6.948 47.5676 7.368 48.9836 8.208C50.4236 9.048 51.5516 10.236 52.3676 11.772C53.1836 13.284 53.5916 15.048 53.5916 17.064C53.5916 19.056 53.1836 20.832 52.3676 22.392C51.5516 23.952 50.4236 25.164 48.9836 26.028C47.5676 26.892 45.9836 27.324 44.2316 27.324C42.5516 27.324 41.0636 26.952 39.7676 26.208C38.4956 25.44 37.5236 24.492 36.8516 23.364V36.36H33.5756V7.272H36.8516V10.908ZM50.2436 17.064C50.2436 15.576 49.9436 14.28 49.3436 13.176C48.7436 12.072 47.9276 11.232 46.8956 10.656C45.8876 10.08 44.7716 9.792 43.5476 9.792C42.3476 9.792 41.2316 10.092 40.1996 10.692C39.1916 11.268 38.3756 12.12 37.7516 13.248C37.1516 14.352 36.8516 15.636 36.8516 17.1C36.8516 18.588 37.1516 19.896 37.7516 21.024C38.3756 22.128 39.1916 22.98 40.1996 23.58C41.2316 24.156 42.3476 24.444 43.5476 24.444C44.7716 24.444 45.8876 24.156 46.8956 23.58C47.9276 22.98 48.7436 22.128 49.3436 21.024C49.9436 19.896 50.2436 18.576 50.2436 17.064ZM59.7397 0.36V27H56.4637V0.36H59.7397ZM72.4871 27.324C70.6391 27.324 68.9591 26.904 67.4471 26.064C65.9591 25.224 64.7831 24.036 63.9191 22.5C63.0791 20.94 62.6591 19.14 62.6591 17.1C62.6591 15.084 63.0911 13.308 63.9551 11.772C64.8431 10.212 66.0431 9.024 67.5551 8.208C69.0671 7.368 70.7591 6.948 72.6311 6.948C74.5031 6.948 76.1951 7.368 77.7071 8.208C79.2191 9.024 80.4071 10.2 81.2711 11.736C82.1591 13.272 82.6031 15.06 82.6031 17.1C82.6031 19.14 82.1471 20.94 81.2351 22.5C80.3471 24.036 79.1351 25.224 77.5991 26.064C76.0631 26.904 74.3591 27.324 72.4871 27.324ZM72.4871 24.444C73.6631 24.444 74.7671 24.168 75.7991 23.616C76.8311 23.064 77.6591 22.236 78.2831 21.132C78.9311 20.028 79.2551 18.684 79.2551 17.1C79.2551 15.516 78.9431 14.172 78.3191 13.068C77.6951 11.964 76.8791 11.148 75.8711 10.62C74.8631 10.068 73.7711 9.792 72.5951 9.792C71.3951 9.792 70.2911 10.068 69.2831 10.62C68.2991 11.148 67.5071 11.964 66.9071 13.068C66.3071 14.172 66.0071 15.516 66.0071 17.1C66.0071 18.708 66.2951 20.064 66.8711 21.168C67.4711 22.272 68.2631 23.1 69.2471 23.652C70.2311 24.18 71.3111 24.444 72.4871 24.444ZM88.7464 10.476C89.3224 9.348 90.1384 8.472 91.1944 7.848C92.2744 7.224 93.5824 6.912 95.1184 6.912V10.296H94.2544C90.5824 10.296 88.7464 12.288 88.7464 16.272V27H85.4704V7.272H88.7464V10.476ZM96.2361 17.064C96.2361 15.048 96.6441 13.284 97.4601 11.772C98.2761 10.236 99.3921 9.048 100.808 8.208C102.248 7.368 103.844 6.948 105.596 6.948C107.324 6.948 108.824 7.32 110.096 8.064C111.368 8.808 112.316 9.744 112.94 10.872V7.272H116.252V27H112.94V23.328C112.292 24.48 111.32 25.44 110.024 26.208C108.752 26.952 107.264 27.324 105.56 27.324C103.808 27.324 102.224 26.892 100.808 26.028C99.3921 25.164 98.2761 23.952 97.4601 22.392C96.6441 20.832 96.2361 19.056 96.2361 17.064ZM112.94 17.1C112.94 15.612 112.64 14.316 112.04 13.212C111.44 12.108 110.624 11.268 109.592 10.692C108.584 10.092 107.468 9.792 106.244 9.792C105.02 9.792 103.904 10.08 102.896 10.656C101.888 11.232 101.084 12.072 100.484 13.176C99.8841 14.28 99.5841 15.576 99.5841 17.064C99.5841 18.576 99.8841 19.896 100.484 21.024C101.084 22.128 101.888 22.98 102.896 23.58C103.904 24.156 105.02 24.444 106.244 24.444C107.468 24.444 108.584 24.156 109.592 23.58C110.624 22.98 111.44 22.128 112.04 21.024C112.64 19.896 112.94 18.588 112.94 17.1ZM123.624 10.476C124.2 9.348 125.016 8.472 126.072 7.848C127.152 7.224 128.46 6.912 129.996 6.912V10.296H129.132C125.46 10.296 123.624 12.288 123.624 16.272V27H120.348V7.272H123.624V10.476Z" fill="#D20062"/>
</svg>
