<svg width="111" height="44" viewBox="0 0 111 44" fill="none" xmlns="http://www.w3.org/2000/svg">
<rect x="1.5" y="1.5" width="108" height="41" rx="20.5" fill="#C4E4FF" stroke="#D895DA" stroke-width="3"/>
<path d="M22.656 30L18.672 23.16H16.032V30H13.848V13.272H19.248C20.512 13.272 21.576 13.488 22.44 13.92C23.32 14.352 23.976 14.936 24.408 15.672C24.84 16.408 25.056 17.248 25.056 18.192C25.056 19.344 24.72 20.36 24.048 21.24C23.392 22.12 22.4 22.704 21.072 22.992L25.272 30H22.656ZM16.032 21.408H19.248C20.432 21.408 21.32 21.12 21.912 20.544C22.504 19.952 22.8 19.168 22.8 18.192C22.8 17.2 22.504 16.432 21.912 15.888C21.336 15.344 20.448 15.072 19.248 15.072H16.032V21.408ZM39.4896 22.92C39.4896 23.336 39.4656 23.776 39.4176 24.24H28.9056C28.9856 25.536 29.4256 26.552 30.2256 27.288C31.0416 28.008 32.0256 28.368 33.1776 28.368C34.1216 28.368 34.9056 28.152 35.5296 27.72C36.1696 27.272 36.6176 26.68 36.8736 25.944H39.2256C38.8736 27.208 38.1696 28.24 37.1136 29.04C36.0576 29.824 34.7456 30.216 33.1776 30.216C31.9296 30.216 30.8096 29.936 29.8176 29.376C28.8416 28.816 28.0736 28.024 27.5136 27C26.9536 25.96 26.6736 24.76 26.6736 23.4C26.6736 22.04 26.9456 20.848 27.4896 19.824C28.0336 18.8 28.7936 18.016 29.7696 17.472C30.7616 16.912 31.8976 16.632 33.1776 16.632C34.4256 16.632 35.5296 16.904 36.4896 17.448C37.4496 17.992 38.1856 18.744 38.6976 19.704C39.2256 20.648 39.4896 21.72 39.4896 22.92ZM37.2336 22.464C37.2336 21.632 37.0496 20.92 36.6816 20.328C36.3136 19.72 35.8096 19.264 35.1696 18.96C34.5456 18.64 33.8496 18.48 33.0816 18.48C31.9776 18.48 31.0336 18.832 30.2496 19.536C29.4816 20.24 29.0416 21.216 28.9296 22.464H37.2336ZM46.8364 16.632C47.9724 16.632 48.9644 16.88 49.8124 17.376C50.6764 17.872 51.3164 18.496 51.7324 19.248V16.848H53.9404V30.288C53.9404 31.488 53.6844 32.552 53.1724 33.48C52.6604 34.424 51.9244 35.16 50.9644 35.688C50.0204 36.216 48.9164 36.48 47.6524 36.48C45.9244 36.48 44.4844 36.072 43.3324 35.256C42.1804 34.44 41.5004 33.328 41.2924 31.92H43.4524C43.6924 32.72 44.1884 33.36 44.9404 33.84C45.6924 34.336 46.5964 34.584 47.6524 34.584C48.8524 34.584 49.8284 34.208 50.5804 33.456C51.3484 32.704 51.7324 31.648 51.7324 30.288V27.528C51.3004 28.296 50.6604 28.936 49.8124 29.448C48.9644 29.96 47.9724 30.216 46.8364 30.216C45.6684 30.216 44.6044 29.928 43.6444 29.352C42.7004 28.776 41.9564 27.968 41.4124 26.928C40.8684 25.888 40.5964 24.704 40.5964 23.376C40.5964 22.032 40.8684 20.856 41.4124 19.848C41.9564 18.824 42.7004 18.032 43.6444 17.472C44.6044 16.912 45.6684 16.632 46.8364 16.632ZM51.7324 23.4C51.7324 22.408 51.5324 21.544 51.1324 20.808C50.7324 20.072 50.1884 19.512 49.5004 19.128C48.8284 18.728 48.0844 18.528 47.2684 18.528C46.4524 18.528 45.7084 18.72 45.0364 19.104C44.3644 19.488 43.8284 20.048 43.4284 20.784C43.0284 21.52 42.8284 22.384 42.8284 23.376C42.8284 24.384 43.0284 25.264 43.4284 26.016C43.8284 26.752 44.3644 27.32 45.0364 27.72C45.7084 28.104 46.4524 28.296 47.2684 28.296C48.0844 28.296 48.8284 28.104 49.5004 27.72C50.1884 27.32 50.7324 26.752 51.1324 26.016C51.5324 25.264 51.7324 24.392 51.7324 23.4ZM57.7991 14.712C57.3831 14.712 57.0311 14.568 56.7431 14.28C56.4551 13.992 56.3111 13.64 56.3111 13.224C56.3111 12.808 56.4551 12.456 56.7431 12.168C57.0311 11.88 57.3831 11.736 57.7991 11.736C58.1991 11.736 58.5351 11.88 58.8071 12.168C59.0951 12.456 59.2391 12.808 59.2391 13.224C59.2391 13.64 59.0951 13.992 58.8071 14.28C58.5351 14.568 58.1991 14.712 57.7991 14.712ZM58.8551 16.848V30H56.6711V16.848H58.8551ZM66.2734 30.216C65.2654 30.216 64.3614 30.048 63.5614 29.712C62.7614 29.36 62.1294 28.88 61.6654 28.272C61.2014 27.648 60.9454 26.936 60.8974 26.136H63.1534C63.2174 26.792 63.5214 27.328 64.0654 27.744C64.6254 28.16 65.3534 28.368 66.2494 28.368C67.0814 28.368 67.7374 28.184 68.2174 27.816C68.6974 27.448 68.9374 26.984 68.9374 26.424C68.9374 25.848 68.6814 25.424 68.1694 25.152C67.6574 24.864 66.8654 24.584 65.7934 24.312C64.8174 24.056 64.0174 23.8 63.3934 23.544C62.7854 23.272 62.2574 22.88 61.8094 22.368C61.3774 21.84 61.1614 21.152 61.1614 20.304C61.1614 19.632 61.3614 19.016 61.7614 18.456C62.1614 17.896 62.7294 17.456 63.4654 17.136C64.2014 16.8 65.0414 16.632 65.9854 16.632C67.4414 16.632 68.6174 17 69.5134 17.736C70.4094 18.472 70.8894 19.48 70.9534 20.76H68.7694C68.7214 20.072 68.4414 19.52 67.9294 19.104C67.4334 18.688 66.7614 18.48 65.9134 18.48C65.1294 18.48 64.5054 18.648 64.0414 18.984C63.5774 19.32 63.3454 19.76 63.3454 20.304C63.3454 20.736 63.4814 21.096 63.7534 21.384C64.0414 21.656 64.3934 21.88 64.8094 22.056C65.2414 22.216 65.8334 22.4 66.5854 22.608C67.5294 22.864 68.2974 23.12 68.8894 23.376C69.4814 23.616 69.9854 23.984 70.4014 24.48C70.8334 24.976 71.0574 25.624 71.0734 26.424C71.0734 27.144 70.8734 27.792 70.4734 28.368C70.0734 28.944 69.5054 29.4 68.7694 29.736C68.0494 30.056 67.2174 30.216 66.2734 30.216ZM75.8604 18.648V26.4C75.8604 27.04 75.9964 27.496 76.2684 27.768C76.5404 28.024 77.0124 28.152 77.6844 28.152H79.2924V30H77.3244C76.1084 30 75.1964 29.72 74.5884 29.16C73.9804 28.6 73.6764 27.68 73.6764 26.4V18.648H71.9724V16.848H73.6764V13.536H75.8604V16.848H79.2924V18.648H75.8604ZM92.9786 22.92C92.9786 23.336 92.9546 23.776 92.9066 24.24H82.3946C82.4746 25.536 82.9146 26.552 83.7146 27.288C84.5306 28.008 85.5146 28.368 86.6666 28.368C87.6106 28.368 88.3946 28.152 89.0186 27.72C89.6586 27.272 90.1066 26.68 90.3626 25.944H92.7146C92.3626 27.208 91.6586 28.24 90.6026 29.04C89.5466 29.824 88.2346 30.216 86.6666 30.216C85.4186 30.216 84.2986 29.936 83.3066 29.376C82.3306 28.816 81.5626 28.024 81.0026 27C80.4426 25.96 80.1626 24.76 80.1626 23.4C80.1626 22.04 80.4346 20.848 80.9786 19.824C81.5226 18.8 82.2826 18.016 83.2586 17.472C84.2506 16.912 85.3866 16.632 86.6666 16.632C87.9146 16.632 89.0186 16.904 89.9786 17.448C90.9386 17.992 91.6746 18.744 92.1866 19.704C92.7146 20.648 92.9786 21.72 92.9786 22.92ZM90.7226 22.464C90.7226 21.632 90.5386 20.92 90.1706 20.328C89.8026 19.72 89.2986 19.264 88.6586 18.96C88.0346 18.64 87.3386 18.48 86.5706 18.48C85.4666 18.48 84.5226 18.832 83.7386 19.536C82.9706 20.24 82.5306 21.216 82.4186 22.464H90.7226ZM97.0854 18.984C97.4694 18.232 98.0134 17.648 98.7174 17.232C99.4374 16.816 100.309 16.608 101.333 16.608V18.864H100.757C98.3094 18.864 97.0854 20.192 97.0854 22.848V30H94.9014V16.848H97.0854V18.984Z" fill="#D20062"/>
</svg>
