<svg width="70" height="70" viewBox="0 0 70 70" fill="none" xmlns="http://www.w3.org/2000/svg">
<path d="M50.8 53.6V60H6V53.6C6 53.6 6 40.8001 28.4 40.8001C50.8 40.8001 50.8 53.6 50.8 53.6ZM39.6 23.2001C39.6 20.985 38.9431 18.8196 37.7125 16.9778C36.4818 15.1359 34.7326 13.7004 32.6861 12.8527C30.6395 12.005 28.3876 11.7832 26.215 12.2154C24.0424 12.6475 22.0468 13.7142 20.4804 15.2806C18.9141 16.8469 17.8474 18.8425 17.4152 21.0151C16.9831 23.1877 17.2048 25.4396 18.0526 27.4862C18.9003 29.5327 20.3358 31.2819 22.1776 32.5126C24.0194 33.7432 26.1848 34.4001 28.4 34.4001C31.3704 34.4001 34.2192 33.2201 36.3196 31.1197C38.42 29.0193 39.6 26.1705 39.6 23.2001ZM50.608 40.8001C52.5752 42.3225 54.1849 44.2574 55.3238 46.4689C56.4627 48.6803 57.1031 51.1144 57.2 53.6V60H70V53.6C70 53.6 70 41.9841 50.608 40.8001ZM47.6 12.0002C45.3974 11.9879 43.2433 12.6464 41.424 13.8882C43.3678 16.6041 44.413 19.8603 44.413 23.2001C44.413 26.54 43.3678 29.7961 41.424 32.5121C43.2433 33.7538 45.3974 34.4124 47.6 34.4001C50.5704 34.4001 53.4192 33.2201 55.5196 31.1197C57.62 29.0193 58.8 26.1705 58.8 23.2001C58.8 20.2297 57.62 17.381 55.5196 15.2806C53.4192 13.1802 50.5704 12.0002 47.6 12.0002Z" fill="#D6589F"/>
</svg>
