<svg width="60" height="42" viewBox="0 0 60 42" fill="none" xmlns="http://www.w3.org/2000/svg">
<path d="M18.6978 12.25C19.7041 12.25 20.5208 13.0667 20.5208 14.0729V19.5417H25.2603C25.7438 19.5417 26.2075 19.7337 26.5493 20.0756C26.8912 20.4175 27.0833 20.8811 27.0833 21.3646C27.0833 21.8481 26.8912 22.3117 26.5493 22.6536C26.2075 22.9955 25.7438 23.1875 25.2603 23.1875H20.5208V27.9271C20.5208 28.4106 20.3287 28.8742 19.9868 29.2161C19.645 29.558 19.1813 29.75 18.6978 29.75C18.2144 29.75 17.7507 29.558 17.4088 29.2161C17.067 28.8742 16.8749 28.4106 16.8749 27.9271V23.1875H11.4062C10.9227 23.1875 10.459 22.9955 10.1172 22.6536C9.77531 22.3117 9.58325 21.8481 9.58325 21.3646C9.58325 20.8811 9.77531 20.4175 10.1172 20.0756C10.459 19.7337 10.9227 19.5417 11.4062 19.5417H16.8749V14.0729C16.8749 13.0667 17.6916 12.25 18.6978 12.25ZM41.6666 26.1042C41.6666 27.0711 41.2825 27.9984 40.5987 28.6822C39.915 29.3659 38.9877 29.75 38.0208 29.75C37.0538 29.75 36.1265 29.3659 35.4428 28.6822C34.759 27.9984 34.3749 27.0711 34.3749 26.1042C34.3749 25.1372 34.759 24.2099 35.4428 23.5262C36.1265 22.8425 37.0538 22.4583 38.0208 22.4583C38.9877 22.4583 39.915 22.8425 40.5987 23.5262C41.2825 24.2099 41.6666 25.1372 41.6666 26.1042ZM43.8541 19.5417C44.821 19.5417 45.7484 19.1576 46.4321 18.4738C47.1158 17.7901 47.4999 16.8628 47.4999 15.8958C47.4999 14.9289 47.1158 14.0016 46.4321 13.3178C45.7484 12.6341 44.821 12.25 43.8541 12.25C42.8871 12.25 41.9598 12.6341 41.2761 13.3178C40.5924 14.0016 40.2083 14.9289 40.2083 15.8958C40.2083 16.8628 40.5924 17.7901 41.2761 18.4738C41.9598 19.1576 42.8871 19.5417 43.8541 19.5417ZM0.833252 21C0.833252 9.72418 9.97409 0.583344 21.2499 0.583344H38.7499C50.0258 0.583344 59.1666 9.72418 59.1666 21C59.1666 32.2758 50.0258 41.4167 38.7499 41.4167H21.2499C9.97409 41.4167 0.833252 32.2758 0.833252 21ZM21.2499 4.22918C11.988 4.22918 4.47909 11.7381 4.47909 21C4.47909 30.2619 11.988 37.7708 21.2499 37.7708H38.7499C48.0118 37.7708 55.5208 30.2619 55.5208 21C55.5208 11.7381 48.0118 4.22918 38.7499 4.22918H21.2499Z" fill="#D6589F"/>
</svg>
