<svg width="40" height="40" viewBox="0 0 40 40" fill="none" xmlns="http://www.w3.org/2000/svg">
<path d="M26.6667 10H13.3333C10.6812 10 8.13764 11.0536 6.26228 12.9289C4.38691 14.8043 3.33334 17.3478 3.33334 20C3.33334 22.6522 4.38691 25.1957 6.26228 27.0711C8.13764 28.9464 10.6812 30 13.3333 30H26.6667C29.3188 30 31.8624 28.9464 33.7377 27.0711C35.6131 25.1957 36.6667 22.6522 36.6667 20C36.6667 17.3478 35.6131 14.8043 33.7377 12.9289C31.8624 11.0536 29.3188 10 26.6667 10ZM18.3333 21.6667H15V25H11.6667V21.6667H8.33334V18.3333H11.6667V15H15V18.3333H18.3333V21.6667ZM24.1667 25C23.5036 25 22.8678 24.7366 22.3989 24.2678C21.9301 23.7989 21.6667 23.163 21.6667 22.5C21.6667 21.837 21.9301 21.2011 22.3989 20.7322C22.8678 20.2634 23.5036 20 24.1667 20C24.8297 20 25.4656 20.2634 25.9344 20.7322C26.4033 21.2011 26.6667 21.837 26.6667 22.5C26.6667 23.163 26.4033 23.7989 25.9344 24.2678C25.4656 24.7366 24.8297 25 24.1667 25ZM29.1667 20C28.5036 20 27.8678 19.7366 27.3989 19.2678C26.9301 18.7989 26.6667 18.163 26.6667 17.5C26.6667 16.837 26.9301 16.2011 27.3989 15.7322C27.8678 15.2634 28.5036 15 29.1667 15C29.8297 15 30.4656 15.2634 30.9344 15.7322C31.4033 16.2011 31.6667 16.837 31.6667 17.5C31.6667 18.163 31.4033 18.7989 30.9344 19.2678C30.4656 19.7366 29.8297 20 29.1667 20Z" fill="#D20062"/>
</svg>
