<svg width="253" height="58" viewBox="0 0 253 58" fill="none" xmlns="http://www.w3.org/2000/svg">
<rect x="18" y="5" width="213" height="49" fill="#C4E4FF"/>
<path fill-rule="evenodd" clip-rule="evenodd" d="M252.934 10C252.934 4.47715 248.457 0 242.934 0H10C4.47715 0 0 4.47715 0 10V47.9429C0 53.4657 4.47715 57.9429 10 57.9429H242.934C248.457 57.9429 252.934 53.4657 252.934 47.9429V10ZM32.44 41.96C34.7321 41.96 37.3698 41.5662 40.3529 40.7785C43.3917 39.976 45.3658 37.1744 45.6692 34.046C45.7515 33.1975 45.8416 32.4176 45.9394 31.7064C46.0663 30.784 46.6439 29.9701 47.5246 29.6677C47.7763 29.5813 48.0326 29.5042 48.2937 29.4366C48.7056 29.3299 49.075 29.0722 49.2072 28.6677C49.4532 27.9148 48.762 27.2687 47.9716 27.3214L44.392 27.56C43.3551 27.56 42.0531 27.4827 40.4861 27.3281C39.891 27.2693 39.2982 27.5686 39.1532 28.1487C38.9912 28.797 39.4796 29.3917 40.1318 29.5376L40.8175 29.691C41.8908 29.9311 42.6522 30.8967 42.5728 31.9937C42.5198 32.725 42.4464 33.4575 42.3524 34.1913C42.056 36.5065 39.9987 38.12 37.6645 38.12H33.7535C32.9449 38.12 32.1273 38.05 31.3805 37.7398C29.7561 37.0649 28.4612 35.8797 27.496 34.184C26.312 32.072 25.72 29.528 25.72 26.552C25.72 23.544 26.456 20.568 27.928 17.624C28.9918 15.4732 30.3733 13.7235 32.0723 12.375C33.3628 11.3506 35.0302 11 36.6778 11H40.1642C42.1983 11 44.4049 11.7193 44.5229 13.7499C44.5316 13.9001 44.536 14.0554 44.536 14.216C44.536 14.4206 44.5298 14.6198 44.5173 14.8135C44.4584 15.7315 45.1554 16.6626 46.0485 16.4421C46.4994 16.3308 46.7997 15.9536 46.8908 15.4982L46.936 15.272C47.0361 14.836 47.1417 14.4184 47.2529 14.0191C47.8853 11.7495 47.7185 9.33399 45.496 8.552C43.768 7.912 41.88 7.592 39.832 7.592C37.816 7.592 35.768 8.008 33.688 8.84C29.88 10.408 26.888 13.192 24.712 17.192C22.696 20.904 21.688 24.984 21.688 29.432C21.688 33.144 22.616 36.168 24.472 38.504C26.328 40.808 28.984 41.96 32.44 41.96ZM73.663 40.2841C74.1252 40.2144 74.5445 39.9407 74.6824 39.4941C74.9088 38.7607 74.2629 38.12 73.4953 38.12H72.9362C71.8089 38.12 70.9162 37.1662 70.9962 36.0417C71.3325 31.3136 71.6688 27.7024 72.0051 25.208C72.2544 23.5012 72.5382 21.8633 72.8565 20.2944C73.173 18.7341 71.9923 17.2515 70.4356 17.585C70.0808 17.6611 69.7217 17.7497 69.3585 17.8508C69.1263 17.9155 68.9642 18.0432 68.9275 18.2814C68.8557 18.7463 68.3265 19.0679 67.9084 18.8522C66.7554 18.2574 65.705 17.96 64.7571 17.96C61.1091 17.96 58.0531 19.496 55.5891 22.568C53.1251 25.64 51.8931 29.24 51.8931 33.368C51.8931 35.864 52.5651 37.848 53.9091 39.32C55.2531 40.76 56.9171 41.48 58.9011 41.48C60.8851 41.48 62.4851 40.696 63.7011 39.128C64.8702 37.5898 66.0245 35.46 67.1639 32.7387C67.2366 32.5651 67.4464 32.4952 67.6079 32.592C67.713 32.6551 67.7707 32.7747 67.7545 32.8963L66.8691 39.56C66.8691 40.296 67.0291 40.84 67.3491 41.192C67.9985 41.8414 69.0251 41.5112 69.8913 41.2063C71.0632 40.7938 72.3204 40.4864 73.663 40.2841ZM56.5011 35.864C55.8611 34.712 55.5411 33.432 55.5411 32.024C55.5411 29.624 56.1011 27.304 57.2211 25.064C58.2072 23.1191 59.2285 21.9246 60.285 21.4805C60.6291 21.3358 61.0088 21.32 61.3821 21.32H62.5357C65.706 21.32 68.1046 24.3725 67.7838 27.5266C67.7302 28.0532 67.63 28.2904 67.4218 28.777C65.1906 33.9896 63.2484 37.0282 61.5954 37.8929C61.1985 38.1006 60.7397 38.12 60.2917 38.12C59.2184 38.12 58.099 37.9234 57.3858 37.1212C57.0756 36.7724 56.7807 36.3533 56.5011 35.864ZM113.472 18.44C112.768 18.12 111.824 17.96 110.64 17.96C106.651 17.96 103.34 20.8742 100.707 26.7027C100.629 26.8762 100.416 26.9454 100.253 26.8474C100.147 26.7843 100.088 26.665 100.101 26.543C100.414 23.5126 100.606 21.4583 100.677 20.3801C100.699 20.049 100.656 19.7178 100.56 19.4C100.432 19.08 100.016 18.76 99.3122 18.44C98.6083 18.12 97.6643 17.96 96.4802 17.96C92.4898 17.96 89.1782 20.8755 86.5452 26.7065C86.4678 26.8779 86.2575 26.9464 86.0962 26.8496C85.9894 26.7855 85.9309 26.6641 85.9473 26.5406L86.8323 19.88C86.8323 19.24 86.6562 18.728 86.3043 18.344C85.7085 17.64 84.674 17.928 83.8079 18.2448C82.7249 18.641 81.6235 18.9394 80.5037 19.1399C80.0497 19.2212 79.6397 19.4942 79.5025 19.9345C79.2721 20.6737 79.9239 21.32 80.6981 21.32H81.004C81.981 21.32 82.7593 22.1392 82.7053 23.1148C82.4392 27.925 82.1348 31.6148 81.7923 34.184C81.5748 35.8148 81.3369 37.3275 81.0784 38.7223C80.7936 40.2588 81.8907 41.7201 83.4199 41.3987C84.3304 41.2073 85.0509 40.4154 85.175 39.4933C85.4479 37.466 85.6983 35.1546 85.9263 32.559C86.0216 31.4742 86.2731 30.4045 86.7459 29.4236C87.6707 27.5049 88.7075 25.7797 89.8562 24.248C91.3282 22.296 92.6882 21.32 93.9362 21.32C95.5208 21.32 96.7761 22.6618 96.6592 24.2421C96.2076 30.3427 95.732 34.6006 95.2323 37.016C95.1737 37.4696 95.075 38.0437 94.9362 38.7383C94.6308 40.2661 95.7099 41.7202 97.2348 41.4006C98.1496 41.2088 98.8676 40.4091 98.964 39.4795C99.1022 38.1468 99.2676 36.2416 99.4603 33.764C99.5546 32.5511 99.8539 31.3576 100.417 30.2789C101.446 28.3042 102.614 26.4379 103.92 24.68C105.584 22.44 106.976 21.32 108.096 21.32C109.681 21.32 110.936 22.6612 110.819 24.2415C110.382 30.1492 109.882 34.9983 109.318 38.7888C109.242 39.3029 109.165 39.8278 109.274 40.3361C109.35 40.6925 109.486 40.9778 109.68 41.192C110.33 41.8414 111.356 41.5112 112.222 41.2063C113.394 40.7938 114.652 40.4864 115.994 40.2841C116.456 40.2144 116.876 39.9407 117.014 39.4941C117.24 38.7607 116.594 38.12 115.826 38.12H115.337C114.268 38.12 113.414 37.229 113.468 36.1612C113.735 30.9768 114.18 25.7209 114.804 20.3934C114.843 20.0565 114.798 19.715 114.672 19.4C114.576 19.08 114.176 18.76 113.472 18.44ZM137.079 40.3474C137.492 40.2452 137.851 39.9723 137.984 39.5674C138.236 38.7972 137.553 38.12 136.742 38.12H129.666C124.74 37.4592 129.948 31.4741 134.471 29.4141C137.668 27.9583 139.266 25.5162 139.266 22.088C139.266 20.936 138.898 19.96 138.162 19.16C137.426 18.36 136.274 17.96 134.706 17.96C132.21 17.96 129.97 18.744 127.986 20.312C126.034 21.848 124.578 23.72 123.618 25.928C122.658 28.104 122.178 30.296 122.178 32.504C122.178 38.488 124.93 41.48 130.434 41.48C131.81 41.48 134.025 41.1025 137.079 40.3474ZM133.161 21.32C134.09 21.32 135.204 21.3234 135.652 22.1375C135.821 22.4454 135.906 22.8289 135.906 23.288C135.906 25.016 135.154 26.36 133.65 27.32C132.962 27.7445 132.046 28.0853 130.903 28.3424C128.326 28.9219 126.145 26.4228 127.41 24.104C127.775 23.42 128.172 22.8515 128.602 22.3985C129.465 21.4884 130.79 21.32 132.045 21.32H133.161ZM172.653 41.5128C173.226 41.5503 173.786 41.252 173.931 40.6961C174.105 40.0294 173.587 39.4229 172.909 39.3004L171.795 39.0991C170.754 38.911 169.91 38.1514 169.626 37.1328C167.81 30.6095 165.619 21.5994 163.053 10.1026C162.764 8.80551 161.599 7.83414 160.303 8.12675C159.917 8.21394 159.537 8.32423 159.164 8.45762C158.556 8.67508 158.256 9.33608 158.412 9.96267C158.487 10.2615 158.459 10.5757 158.332 10.8561C154.876 18.4614 150.332 27.2574 144.698 37.2441C144.355 37.8526 143.889 38.3937 143.275 38.728C142.847 38.9615 142.401 39.1602 141.937 39.3239C141.563 39.4561 141.232 39.7078 141.105 40.0835C140.842 40.8584 141.559 41.5248 142.375 41.4646L145.424 41.24C146.451 41.24 147.995 41.3242 150.056 41.4927C150.65 41.5412 151.235 41.237 151.38 40.6596C151.545 40.0055 151.055 39.4039 150.398 39.251L149.921 39.1402C148.627 38.8392 147.949 37.4129 148.532 36.2191L150.297 32.6088C151.115 30.9372 152.753 29.796 154.612 29.739C155.026 29.7263 155.419 29.72 155.792 29.72C156.43 29.72 157.417 29.7332 158.753 29.7597C161.387 29.8119 163.609 31.6679 164.118 34.2532C164.269 35.0181 164.438 35.8792 164.625 36.8366C164.823 37.8497 164.326 38.893 163.347 39.2184C163.214 39.2625 163.081 39.3044 162.946 39.3442C162.552 39.4606 162.203 39.7173 162.073 40.1072C161.818 40.8724 162.522 41.5305 163.327 41.4769L166.88 41.24C167.947 41.24 169.871 41.3309 172.653 41.5128ZM157.424 27.56C155.231 27.56 153.887 25.2475 154.873 23.2882C155.006 23.0226 155.138 22.7607 155.268 22.5024C156.748 19.5719 161.384 21.7588 162.135 24.9544C162.648 27.1349 160.652 27.5387 158.412 27.5561C158.076 27.5587 157.747 27.56 157.424 27.56ZM181.278 44.8921C181.46 42.7726 183.562 41.48 185.69 41.48C189.338 41.48 192.394 39.944 194.858 36.872C197.322 33.8 198.554 30.2 198.554 26.072C198.554 23.576 197.882 21.608 196.538 20.168C195.194 18.696 193.53 17.96 191.546 17.96C189.562 17.96 187.962 18.76 186.746 20.36C185.577 21.8675 184.422 23.9812 183.283 26.7013C183.21 26.8749 183 26.9448 182.839 26.848C182.734 26.7849 182.676 26.6653 182.692 26.5437L183.578 19.88C183.578 19.24 183.402 18.728 183.05 18.344C182.454 17.6399 181.42 17.928 180.553 18.2448C179.47 18.641 178.369 18.9394 177.249 19.1399C176.795 19.2212 176.385 19.4942 176.248 19.9345C176.018 20.6737 176.669 21.32 177.444 21.32H177.743C178.721 21.32 179.498 22.1435 179.439 23.1201C179.093 28.8353 178.761 33.4193 178.442 36.872C178.131 40.2102 177.644 43.9861 176.983 48.1997C176.815 49.2676 176.199 50.241 175.198 50.6475C174.856 50.7862 174.501 50.9099 174.132 51.0186C173.763 51.1274 173.436 51.3711 173.311 51.7353C173.245 51.927 173.193 52.1227 173.153 52.3223C173.06 52.798 173.499 53.1716 173.978 53.096C175.866 52.872 177.562 52.76 179.066 52.76C179.813 52.76 181.194 52.8797 183.21 53.119C183.804 53.1895 184.401 52.8927 184.545 52.3121C184.706 51.6667 184.217 51.0761 183.567 50.9362L182.835 50.7786C181.714 50.5373 180.932 49.5182 181.009 48.3737C181.081 47.3099 181.17 46.1494 181.278 44.8921ZM193.946 23.624C194.586 24.744 194.906 26.008 194.906 27.416C194.906 29.816 194.33 32.152 193.178 34.424C192.222 36.3355 191.22 37.5129 190.171 37.9564C189.821 38.1042 189.435 38.12 189.055 38.12H187.713C184.611 38.12 182.197 35.4234 182.54 32.34C182.592 31.8755 182.705 31.4189 182.882 30.9863C185.093 25.5798 187.079 22.4328 188.84 21.5453C189.246 21.3409 189.71 21.32 190.165 21.32C191.232 21.32 192.345 21.5164 193.048 22.3191C193.363 22.6787 193.662 23.1137 193.946 23.624ZM208.419 44.8921C208.601 42.7726 210.703 41.48 212.83 41.48C216.478 41.48 219.534 39.944 221.998 36.872C224.462 33.8 225.694 30.2 225.694 26.072C225.694 23.576 225.022 21.608 223.678 20.168C222.334 18.696 220.67 17.96 218.686 17.96C216.702 17.96 215.102 18.76 213.886 20.36C212.717 21.8675 211.563 23.9812 210.424 26.7013C210.351 26.8749 210.141 26.9448 209.98 26.848C209.874 26.7849 209.817 26.6653 209.833 26.5437L210.718 19.88C210.718 19.24 210.542 18.728 210.19 18.344C209.595 17.6399 208.56 17.928 207.694 18.2448C206.611 18.641 205.51 18.9394 204.39 19.1399C203.936 19.2212 203.526 19.4942 203.389 19.9345C203.158 20.6737 203.81 21.32 204.584 21.32H204.883C205.862 21.32 206.638 22.1435 206.579 23.1201C206.234 28.8353 205.902 33.4193 205.582 36.872C205.271 40.2102 204.785 43.9861 204.124 48.1997C203.956 49.2676 203.34 50.241 202.338 50.6475C201.996 50.7862 201.641 50.9099 201.273 51.0186C200.903 51.1274 200.576 51.3711 200.452 51.7353C200.386 51.927 200.333 52.1227 200.294 52.3223C200.2 52.798 200.64 53.1716 201.118 53.096C203.006 52.872 204.702 52.76 206.206 52.76C206.954 52.76 208.335 52.8797 210.351 53.119C210.945 53.1895 211.541 52.8927 211.686 52.3121C211.847 51.6667 211.358 51.0761 210.708 50.9362L209.976 50.7786C208.854 50.5373 208.072 49.5182 208.149 48.3737C208.221 47.3099 208.311 46.1494 208.419 44.8921ZM221.086 23.624C221.726 24.744 222.046 26.008 222.046 27.416C222.046 29.816 221.47 32.152 220.318 34.424C219.363 36.3355 218.36 37.5129 217.311 37.9564C216.962 38.1042 216.576 38.12 216.196 38.12H214.854C211.752 38.12 209.338 35.4234 209.681 32.34C209.732 31.8755 209.845 31.4189 210.022 30.9863C212.233 25.5798 214.22 22.4328 215.981 21.5453C216.387 21.3409 216.851 21.32 217.305 21.32C218.372 21.32 219.486 21.5164 220.189 22.3191C220.504 22.6787 220.803 23.1137 221.086 23.624Z" fill="url(#paint0_linear_101_953)"/>
<defs>
<linearGradient id="paint0_linear_101_953" x1="0" y1="28.9714" x2="252.934" y2="28.9714" gradientUnits="userSpaceOnUse">
<stop stop-color="#D20062"/>
<stop offset="0.295" stop-color="#D63484"/>
<stop offset="0.495" stop-color="#D6589F"/>
<stop offset="0.675" stop-color="#D63484"/>
<stop offset="1" stop-color="#D6589F"/>
</linearGradient>
</defs>
</svg>
