<svg width="120" height="120" viewBox="0 0 120 120" fill="none" xmlns="http://www.w3.org/2000/svg">
<path d="M118.5 93.913V26.087C118.5 12.5154 107.485 1.5 93.913 1.5H26.087C12.5154 1.5 1.5 12.5154 1.5 26.087V93.913C1.5 97.0343 2.0894 100.009 3.14765 102.765L118.5 93.913ZM118.5 93.913C118.5 97.0344 117.911 100.009 116.852 102.765M118.5 93.913L116.852 102.765M116.852 102.765C113.312 111.961 104.36 118.5 93.913 118.5M116.852 102.765L93.913 118.5M93.913 118.5H26.087M93.913 118.5H26.087M26.087 118.5C15.6405 118.5 6.68921 111.962 3.14817 102.767L26.087 118.5Z" fill="url(#paint0_linear_96_56)" stroke="#D895DA" stroke-width="3"/>
<path d="M116 101.5C114 108 105.5 117 95 117H26.5C22.1885 117.004 19.0862 116.356 15.5 114.5C9.86418 111.583 6.7957 107.962 4.5 102C12.5087 99.8348 18.8087 99.4696 28.6174 98.3217C38.4261 97.1739 48.9913 96.5217 60 96.5217C66.9392 96.5217 73.7479 96.7826 80.2696 97.2522C84.0783 97.5391 87.8087 97.9043 91.4087 98.3217C101 99 108.017 99.3609 116 101.5Z" fill="url(#paint1_linear_96_56)"/>
<path d="M106.956 60C106.956 61.3174 109.513 62.6217 109.411 63.913C108.861 70.9409 106.836 77.5722 103.643 83.4783C95.2956 99 78.8608 109.565 60 109.565C58.6956 109.565 57.4174 109.513 56.1391 109.409C31.8652 107.551 12.4852 88.1739 10.5861 63.913C10.4869 62.6217 13.0435 61.3174 13.0435 60H106.956Z" fill="white"/>
<path d="M109.565 60H10.4348C10.4348 32.6348 32.6348 10.4348 60 10.4348C87.3652 10.4348 109.565 32.6348 109.565 60Z" fill="url(#paint2_linear_96_56)"/>
<path d="M106.956 60H13.0435C13.0435 58.6826 10.4869 57.3783 10.5861 56.087C11.0556 50.0661 12.6026 44.3504 15.0522 39.1304C22.9043 22.1739 40.0956 10.4348 60 10.4348C61.3043 10.4348 62.5826 10.487 63.8608 10.5913C88.1348 12.4487 107.515 31.8261 109.414 56.087C109.513 57.3783 106.956 58.6826 106.956 60Z" fill="url(#paint3_linear_96_56)"/>
<path d="M109.565 60C109.565 61.3043 109.513 62.6348 109.409 63.913H80.4783C78.6522 73.5652 70.1739 80.8696 60 80.8696C49.8261 80.8696 41.3479 73.5652 39.5218 63.913H10.5913C10.487 62.6348 10.4348 61.3043 10.4348 60C10.4348 58.6956 10.487 57.3652 10.5913 56.087H39.5218C41.3479 46.4348 49.8261 39.1304 60 39.1304C70.1739 39.1304 78.6522 46.4348 80.4783 56.087H109.409C109.513 57.3652 109.565 58.6956 109.565 60Z" fill="url(#paint4_linear_96_56)"/>
<path d="M60 73.0435C67.2037 73.0435 73.0435 67.2037 73.0435 60C73.0435 52.7963 67.2037 46.9565 60 46.9565C52.7963 46.9565 46.9565 52.7963 46.9565 60C46.9565 67.2037 52.7963 73.0435 60 73.0435Z" fill="white"/>
<path d="M67.6513 17.0035C67.0461 19.3383 64.787 20.8696 62.3739 20.8696H40.4348C38.2748 20.8696 36.5217 22.6226 36.5217 24.7826C36.5217 26.9426 38.2748 28.6957 40.4348 28.6957H41.4235C44.0244 28.6957 46.4504 30.4565 46.8835 33.0235C47.4287 36.2817 44.9009 39.1304 41.7391 39.1304H15.0522C22.9044 22.1739 40.0957 10.4348 60 10.4348H62.6087C63.0522 10.4348 63.4696 10.487 63.8609 10.5913C66.5426 11.2696 68.4235 14.0243 67.6513 17.0035Z" fill="url(#paint5_linear_96_56)"/>
<path d="M103.643 83.4783C95.2956 99 78.8608 109.565 59.9999 109.565H57.3912C56.9478 109.565 56.5304 109.513 56.1391 109.409C53.6086 108.783 51.7826 106.304 52.2521 103.461C52.6695 100.904 55.0695 99.1304 57.6782 99.1304H76.9565C79.1217 99.1304 80.8695 97.3826 80.8695 95.2174C80.8695 93.0522 79.1217 91.3044 76.9565 91.3044H74.3478C72.1826 91.3044 70.4347 89.5565 70.4347 87.3913C70.4347 85.2261 72.1826 83.4783 74.3478 83.4783H103.643Z" fill="url(#paint6_linear_96_56)"/>
<defs>
<linearGradient id="paint0_linear_96_56" x1="60.1883" y1="19.7337" x2="60.1883" y2="96.6356" gradientUnits="userSpaceOnUse">
<stop stop-color="#005CE2"/>
<stop offset="0.301" stop-color="#0075E6"/>
<stop offset="0.89" stop-color="#00B0F1"/>
<stop offset="1" stop-color="#00B5F2"/>
</linearGradient>
<linearGradient id="paint1_linear_96_56" x1="60.1883" y1="117.194" x2="60.1883" y2="8.75162" gradientUnits="userSpaceOnUse">
<stop stop-color="#005CE2"/>
<stop offset="0.278" stop-color="#0080E8"/>
<stop offset="0.569" stop-color="#009CED"/>
<stop offset="0.82" stop-color="#00B0F1"/>
<stop offset="1" stop-color="#00B5F2"/>
</linearGradient>
<linearGradient id="paint2_linear_96_56" x1="60.1883" y1="71.259" x2="60.1883" y2="-72.961" gradientUnits="userSpaceOnUse">
<stop stop-color="#FF634D"/>
<stop offset="0.204" stop-color="#FE6464"/>
<stop offset="0.521" stop-color="#FC6581"/>
<stop offset="0.794" stop-color="#FA6694"/>
<stop offset="0.989" stop-color="#FA669A"/>
<stop offset="1" stop-color="#FA669A"/>
</linearGradient>
<linearGradient id="paint3_linear_96_56" x1="60.1883" y1="71.259" x2="60.1883" y2="-72.961" gradientUnits="userSpaceOnUse">
<stop stop-color="#FF634D"/>
<stop offset="0.204" stop-color="#FE6464"/>
<stop offset="0.521" stop-color="#FC6581"/>
<stop offset="0.794" stop-color="#FA6694"/>
<stop offset="0.989" stop-color="#FA669A"/>
<stop offset="1" stop-color="#FA669A"/>
</linearGradient>
<linearGradient id="paint4_linear_96_56" x1="60.1883" y1="46.9102" x2="60.1883" y2="107.366" gradientUnits="userSpaceOnUse">
<stop offset="0.096" stop-color="#5E6D7B"/>
<stop offset="0.577" stop-color="#5C6B79"/>
<stop offset="0.993" stop-color="#515C69"/>
</linearGradient>
<linearGradient id="paint5_linear_96_56" x1="46.1777" y1="55.799" x2="46.1777" y2="-19.9707" gradientUnits="userSpaceOnUse">
<stop stop-color="#FF7D5C"/>
<stop offset="0.214" stop-color="#FF7E72"/>
<stop offset="0.524" stop-color="#FC7E8C"/>
<stop offset="0.793" stop-color="#FA7F9C"/>
<stop offset="0.989" stop-color="#FA7FA2"/>
<stop offset="1" stop-color="#FA7FA2"/>
</linearGradient>
<linearGradient id="paint6_linear_96_56" x1="73.7086" y1="131.567" x2="73.7086" y2="79.1002" gradientUnits="userSpaceOnUse">
<stop stop-color="#DBDEE1"/>
<stop offset="0.99" stop-color="#F5F6F7"/>
<stop offset="1" stop-color="#F5F6F7"/>
</linearGradient>
</defs>
</svg>
