<svg width="400" height="800" viewBox="0 0 400 800" fill="none" xmlns="http://www.w3.org/2000/svg">
<rect width="400" height="800" fill="#402B3A"/>
<circle cx="24.5" cy="334.5" r="18.5" fill="#C4E4FF"/>
<path d="M29.6942 344.056L20.6412 335L29.6956 325.944L27.75 324L16.75 335L27.75 346L29.6942 344.056Z" fill="#402B3A"/>
<path d="M25 315.75C35.615 315.75 44.25 324.385 44.25 335C44.25 345.615 35.615 354.25 25 354.25C14.385 354.25 5.75 345.615 5.75 335C5.75 324.385 14.385 315.75 25 315.75ZM25 351.5C34.0984 351.5 41.5 344.098 41.5 335C41.5 325.902 34.0984 318.5 25 318.5C15.9016 318.5 8.5 325.902 8.5 335C8.5 344.098 15.9016 351.5 25 351.5Z" fill="#402B3A"/>
<circle cx="18.5" cy="18.5" r="18.5" transform="matrix(-1 0 0 1 394 319)" fill="#C4E4FF"/>
<path d="M370.306 347.056L379.359 338L370.304 328.944L372.25 327L383.25 338L372.25 349L370.306 347.056Z" fill="#402B3A"/>
<path d="M375 318.75C364.385 318.75 355.75 327.385 355.75 338C355.75 348.615 364.385 357.25 375 357.25C385.615 357.25 394.25 348.615 394.25 338C394.25 327.385 385.615 318.75 375 318.75ZM375 354.5C365.902 354.5 358.5 347.098 358.5 338C358.5 328.902 365.902 321.5 375 321.5C384.098 321.5 391.5 328.902 391.5 338C391.5 347.098 384.098 354.5 375 354.5Z" fill="#402B3A"/>
<rect x="52" y="187" width="296" height="296" rx="18" fill="#C4E4FF" stroke="#402B3A" stroke-width="4"/>
<rect x="121.5" y="581.5" width="153" height="57" rx="28.5" fill="#C4E4FF" stroke="#D895DA" stroke-width="3"/>
<path d="M137.048 600.572V608.96H146.192V611.66H137.048V620.3H147.272V623H133.772V597.872H147.272V600.572H137.048ZM161.085 623L156.405 615.656L151.905 623H148.485L154.857 613.208L148.485 603.272H152.193L156.873 610.58L161.337 603.272H164.757L158.421 613.028L164.793 623H161.085ZM169.852 606.908C170.5 605.78 171.46 604.844 172.732 604.1C174.028 603.332 175.528 602.948 177.232 602.948C178.984 602.948 180.568 603.368 181.984 604.208C183.424 605.048 184.552 606.236 185.368 607.772C186.184 609.284 186.592 611.048 186.592 613.064C186.592 615.056 186.184 616.832 185.368 618.392C184.552 619.952 183.424 621.164 181.984 622.028C180.568 622.892 178.984 623.324 177.232 623.324C175.552 623.324 174.064 622.952 172.768 622.208C171.496 621.44 170.524 620.492 169.852 619.364V632.36H166.576V603.272H169.852V606.908ZM183.244 613.064C183.244 611.576 182.944 610.28 182.344 609.176C181.744 608.072 180.928 607.232 179.896 606.656C178.888 606.08 177.772 605.792 176.548 605.792C175.348 605.792 174.232 606.092 173.2 606.692C172.192 607.268 171.376 608.12 170.752 609.248C170.152 610.352 169.852 611.636 169.852 613.1C169.852 614.588 170.152 615.896 170.752 617.024C171.376 618.128 172.192 618.98 173.2 619.58C174.232 620.156 175.348 620.444 176.548 620.444C177.772 620.444 178.888 620.156 179.896 619.58C180.928 618.98 181.744 618.128 182.344 617.024C182.944 615.896 183.244 614.576 183.244 613.064ZM192.74 596.36V623H189.464V596.36H192.74ZM205.487 623.324C203.639 623.324 201.959 622.904 200.447 622.064C198.959 621.224 197.783 620.036 196.919 618.5C196.079 616.94 195.659 615.14 195.659 613.1C195.659 611.084 196.091 609.308 196.955 607.772C197.843 606.212 199.043 605.024 200.555 604.208C202.067 603.368 203.759 602.948 205.631 602.948C207.503 602.948 209.195 603.368 210.707 604.208C212.219 605.024 213.407 606.2 214.271 607.736C215.159 609.272 215.603 611.06 215.603 613.1C215.603 615.14 215.147 616.94 214.235 618.5C213.347 620.036 212.135 621.224 210.599 622.064C209.063 622.904 207.359 623.324 205.487 623.324ZM205.487 620.444C206.663 620.444 207.767 620.168 208.799 619.616C209.831 619.064 210.659 618.236 211.283 617.132C211.931 616.028 212.255 614.684 212.255 613.1C212.255 611.516 211.943 610.172 211.319 609.068C210.695 607.964 209.879 607.148 208.871 606.62C207.863 606.068 206.771 605.792 205.595 605.792C204.395 605.792 203.291 606.068 202.283 606.62C201.299 607.148 200.507 607.964 199.907 609.068C199.307 610.172 199.007 611.516 199.007 613.1C199.007 614.708 199.295 616.064 199.871 617.168C200.471 618.272 201.263 619.1 202.247 619.652C203.231 620.18 204.311 620.444 205.487 620.444ZM221.746 606.476C222.322 605.348 223.138 604.472 224.194 603.848C225.274 603.224 226.582 602.912 228.118 602.912V606.296H227.254C223.582 606.296 221.746 608.288 221.746 612.272V623H218.47V603.272H221.746V606.476ZM229.236 613.064C229.236 611.048 229.644 609.284 230.46 607.772C231.276 606.236 232.392 605.048 233.808 604.208C235.248 603.368 236.844 602.948 238.596 602.948C240.324 602.948 241.824 603.32 243.096 604.064C244.368 604.808 245.316 605.744 245.94 606.872V603.272H249.252V623H245.94V619.328C245.292 620.48 244.32 621.44 243.024 622.208C241.752 622.952 240.264 623.324 238.56 623.324C236.808 623.324 235.224 622.892 233.808 622.028C232.392 621.164 231.276 619.952 230.46 618.392C229.644 616.832 229.236 615.056 229.236 613.064ZM245.94 613.1C245.94 611.612 245.64 610.316 245.04 609.212C244.44 608.108 243.624 607.268 242.592 606.692C241.584 606.092 240.468 605.792 239.244 605.792C238.02 605.792 236.904 606.08 235.896 606.656C234.888 607.232 234.084 608.072 233.484 609.176C232.884 610.28 232.584 611.576 232.584 613.064C232.584 614.576 232.884 615.896 233.484 617.024C234.084 618.128 234.888 618.98 235.896 619.58C236.904 620.156 238.02 620.444 239.244 620.444C240.468 620.444 241.584 620.156 242.592 619.58C243.624 618.98 244.44 618.128 245.04 617.024C245.64 615.896 245.94 614.588 245.94 613.1ZM256.624 606.476C257.2 605.348 258.016 604.472 259.072 603.848C260.152 603.224 261.46 602.912 262.996 602.912V606.296H262.132C258.46 606.296 256.624 608.288 256.624 612.272V623H253.348V603.272H256.624V606.476Z" fill="#D20062"/>
<rect x="50.5" y="185.5" width="299" height="299" rx="15.5" fill="#C4E4FF"/>
<rect x="50.5" y="185.5" width="299" height="299" rx="15.5" stroke="#D895DA"/>
<path fill-rule="evenodd" clip-rule="evenodd" d="M120.997 256.897L144.013 256.858L143.638 233.289L121.097 232.752L121.117 210.208L188.742 210L188.698 232.194L165.175 232.427L164.995 256.571L204.777 256.76L236.845 256.708L236.654 232.866L212.745 232.497L212.654 211.284L281.48 210.718L281.583 232.31L258.61 232.679L258.413 256.673L281.721 256.635L282.517 280.037L305.061 279.517L304.795 345.564L282.252 345.824L282.119 369.096L258.913 369.226L258.134 415.237L235.987 415.04L235.84 390.809L211.47 390.718L210.921 436.758H190.807L190.783 391.649L165.161 391.849L165.369 415.137H142.952L143.016 367.667L121.003 367.927L120.472 344.524L98.1941 345.044L97.929 280.038L120.472 279.778L120.997 256.897Z" fill="#1E0F3A" stroke="black" stroke-width="9.49999" stroke-linecap="round" stroke-linejoin="round"/>
<path d="M94.4839 345.022H78.7707C76.6882 345.022 75 346.677 75 348.718V386.188C75 388.23 76.6882 389.885 78.7707 389.885H94.4839C96.5664 389.885 98.2546 388.23 98.2546 386.188V348.718C98.2546 346.677 96.5664 345.022 94.4839 345.022Z" fill="#1E0F3A" stroke="black" stroke-width="9.49999" stroke-linecap="round" stroke-linejoin="round"/>
<path d="M139.18 415.136H123.467C121.384 415.136 119.696 416.792 119.696 418.833V456.303C119.696 458.345 121.384 460 123.467 460H139.18C141.262 460 142.95 458.345 142.95 456.303V418.833C142.95 416.792 141.262 415.136 139.18 415.136Z" fill="#1E0F3A" stroke="black" stroke-width="9.49999" stroke-linecap="round" stroke-linejoin="round"/>
<path d="M274.302 415.237H261.904C259.822 415.237 258.133 416.892 258.133 418.933V454.323C258.133 456.365 259.822 458.02 261.904 458.02H274.302C276.385 458.02 278.073 456.365 278.073 454.323V418.933C278.073 416.892 276.385 415.237 274.302 415.237Z" fill="#1E0F3A" stroke="black" stroke-width="9.49999" stroke-linecap="round" stroke-linejoin="round"/>
<path d="M321.229 345.564H308.566C306.484 345.564 304.795 347.219 304.795 349.261V384.39C304.795 386.432 306.484 388.087 308.566 388.087H321.229C323.312 388.087 325 386.432 325 384.39V349.261C325 347.219 323.312 345.564 321.229 345.564Z" fill="#1E0F3A" stroke="black" stroke-width="9.49999" stroke-linecap="round" stroke-linejoin="round"/>
<g filter="url(#filter0_f_96_3)">
<path d="M257.546 301.813H236.167V322.982H257.546V301.813Z" fill="#C4E4FF"/>
<path d="M257.546 301.813H236.167V322.982H257.546V301.813Z" stroke="black" stroke-width="9.49999" stroke-linecap="round" stroke-linejoin="round"/>
</g>
<g filter="url(#filter1_f_96_3)">
<path d="M165.454 301.813H144.075V322.982H165.454V301.813Z" fill="#C4E4FF"/>
<path d="M165.454 301.813H144.075V322.982H165.454V301.813Z" stroke="black" stroke-width="9.49999" stroke-linecap="round" stroke-linejoin="round"/>
</g>
<path d="M230.151 436.758H210.921V455.305H230.151V436.758Z" fill="#1E0F3A" stroke="black" stroke-width="9.49999" stroke-linecap="round" stroke-linejoin="round"/>
<rect x="92" y="50" width="213" height="49" fill="#C4E4FF"/>
<path fill-rule="evenodd" clip-rule="evenodd" d="M326.934 55C326.934 49.4772 322.457 45 316.934 45H84C78.4772 45 74 49.4771 74 55V92.9429C74 98.4657 78.4771 102.943 84 102.943H316.934C322.457 102.943 326.934 98.4657 326.934 92.9429V55ZM106.44 86.96C108.732 86.96 111.37 86.5662 114.353 85.7785C117.392 84.976 119.366 82.1744 119.669 79.046C119.752 78.1975 119.842 77.4176 119.939 76.7064C120.066 75.784 120.644 74.9701 121.525 74.6677C121.776 74.5813 122.033 74.5042 122.294 74.4366C122.706 74.3299 123.075 74.0722 123.207 73.6677C123.453 72.9148 122.762 72.2687 121.972 72.3214L118.392 72.56C117.355 72.56 116.053 72.4827 114.486 72.3281C113.891 72.2693 113.298 72.5686 113.153 73.1487C112.991 73.797 113.48 74.3917 114.132 74.5376L114.818 74.691C115.891 74.9311 116.652 75.8967 116.573 76.9937C116.52 77.725 116.446 78.4575 116.352 79.1913C116.056 81.5065 113.999 83.12 111.665 83.12H107.753C106.945 83.12 106.127 83.05 105.381 82.7398C103.756 82.0649 102.461 80.8797 101.496 79.184C100.312 77.072 99.72 74.528 99.72 71.552C99.72 68.544 100.456 65.568 101.928 62.624C102.992 60.4732 104.373 58.7235 106.072 57.375C107.363 56.3506 109.03 56 110.678 56H114.164C116.198 56 118.405 56.7193 118.523 58.7499C118.532 58.9001 118.536 59.0554 118.536 59.216C118.536 59.4206 118.53 59.6198 118.517 59.8135C118.458 60.7315 119.155 61.6626 120.049 61.4421C120.499 61.3308 120.8 60.9536 120.891 60.4982L120.936 60.272C121.036 59.836 121.142 59.4184 121.253 59.0191C121.885 56.7495 121.719 54.334 119.496 53.552C117.768 52.912 115.88 52.592 113.832 52.592C111.816 52.592 109.768 53.008 107.688 53.84C103.88 55.408 100.888 58.192 98.712 62.192C96.696 65.904 95.688 69.984 95.688 74.432C95.688 78.144 96.616 81.168 98.472 83.504C100.328 85.808 102.984 86.96 106.44 86.96ZM147.663 85.2841C148.125 85.2144 148.545 84.9407 148.682 84.4941C148.909 83.7607 148.263 83.12 147.495 83.12H146.936C145.809 83.12 144.916 82.1662 144.996 81.0417C145.332 76.3136 145.669 72.7024 146.005 70.208C146.254 68.5012 146.538 66.8633 146.857 65.2944C147.173 63.7341 145.992 62.2515 144.436 62.585C144.081 62.6611 143.722 62.7497 143.359 62.8508C143.126 62.9155 142.964 63.0432 142.927 63.2814C142.856 63.7463 142.327 64.0679 141.908 63.8522C140.755 63.2574 139.705 62.96 138.757 62.96C135.109 62.96 132.053 64.496 129.589 67.568C127.125 70.64 125.893 74.24 125.893 78.368C125.893 80.864 126.565 82.848 127.909 84.32C129.253 85.76 130.917 86.48 132.901 86.48C134.885 86.48 136.485 85.696 137.701 84.128C138.87 82.5898 140.024 80.46 141.164 77.7387C141.237 77.5651 141.446 77.4952 141.608 77.592C141.713 77.6551 141.771 77.7747 141.755 77.8963L140.869 84.56C140.869 85.296 141.029 85.84 141.349 86.192C141.998 86.8414 143.025 86.5112 143.891 86.2063C145.063 85.7938 146.32 85.4864 147.663 85.2841ZM130.501 80.864C129.861 79.712 129.541 78.432 129.541 77.024C129.541 74.624 130.101 72.304 131.221 70.064C132.207 68.1191 133.229 66.9246 134.285 66.4805C134.629 66.3358 135.009 66.32 135.382 66.32H136.536C139.706 66.32 142.105 69.3725 141.784 72.5266C141.73 73.0532 141.63 73.2904 141.422 73.777C139.191 78.9896 137.248 82.0282 135.595 82.8929C135.198 83.1006 134.74 83.12 134.292 83.12C133.218 83.12 132.099 82.9234 131.386 82.1212C131.076 81.7724 130.781 81.3533 130.501 80.864ZM187.472 63.44C186.768 63.12 185.824 62.96 184.64 62.96C180.651 62.96 177.34 65.8742 174.707 71.7027C174.629 71.8762 174.416 71.9454 174.253 71.8474C174.147 71.7843 174.088 71.665 174.101 71.543C174.414 68.5126 174.606 66.4583 174.677 65.3801C174.699 65.049 174.656 64.7178 174.56 64.4C174.432 64.08 174.016 63.76 173.312 63.44C172.608 63.12 171.664 62.96 170.48 62.96C166.49 62.96 163.178 65.8755 160.545 71.7065C160.468 71.8779 160.258 71.9464 160.096 71.8496C159.989 71.7855 159.931 71.6641 159.947 71.5406L160.832 64.88C160.832 64.24 160.656 63.728 160.304 63.344C159.709 62.64 158.674 62.928 157.808 63.2448C156.725 63.641 155.623 63.9394 154.504 64.1399C154.05 64.2212 153.64 64.4942 153.503 64.9345C153.272 65.6737 153.924 66.32 154.698 66.32H155.004C155.981 66.32 156.759 67.1392 156.705 68.1148C156.439 72.925 156.135 76.6148 155.792 79.184C155.575 80.8148 155.337 82.3275 155.078 83.7223C154.794 85.2588 155.891 86.7201 157.42 86.3987C158.33 86.2073 159.051 85.4154 159.175 84.4933C159.448 82.466 159.698 80.1546 159.926 77.559C160.022 76.4742 160.273 75.4045 160.746 74.4236C161.671 72.5049 162.707 70.7797 163.856 69.248C165.328 67.296 166.688 66.32 167.936 66.32C169.521 66.32 170.776 67.6618 170.659 69.2421C170.208 75.3427 169.732 79.6006 169.232 82.016C169.174 82.4696 169.075 83.0437 168.936 83.7383C168.631 85.2661 169.71 86.7202 171.235 86.4006C172.15 86.2088 172.868 85.4091 172.964 84.4795C173.102 83.1468 173.268 81.2416 173.46 78.764C173.555 77.5511 173.854 76.3576 174.417 75.2789C175.446 73.3042 176.614 71.4379 177.92 69.68C179.584 67.44 180.976 66.32 182.096 66.32C183.681 66.32 184.936 67.6612 184.819 69.2415C184.382 75.1492 183.882 79.9983 183.318 83.7888C183.242 84.3029 183.165 84.8278 183.274 85.3361C183.35 85.6925 183.486 85.9778 183.68 86.192C184.33 86.8414 185.356 86.5112 186.222 86.2063C187.394 85.7938 188.652 85.4864 189.994 85.2841C190.456 85.2144 190.876 84.9407 191.014 84.4941C191.24 83.7607 190.594 83.12 189.826 83.12H189.337C188.268 83.12 187.414 82.229 187.468 81.1612C187.735 75.9768 188.18 70.7209 188.804 65.3934C188.843 65.0565 188.798 64.715 188.672 64.4C188.576 64.08 188.176 63.76 187.472 63.44ZM211.079 85.3474C211.492 85.2452 211.851 84.9723 211.984 84.5674C212.236 83.7972 211.553 83.12 210.742 83.12H203.666C198.74 82.4592 203.948 76.4741 208.471 74.4141C211.668 72.9583 213.266 70.5162 213.266 67.088C213.266 65.936 212.898 64.96 212.162 64.16C211.426 63.36 210.274 62.96 208.706 62.96C206.21 62.96 203.97 63.744 201.986 65.312C200.034 66.848 198.578 68.72 197.618 70.928C196.658 73.104 196.178 75.296 196.178 77.504C196.178 83.488 198.93 86.48 204.434 86.48C205.81 86.48 208.025 86.1025 211.079 85.3474ZM207.161 66.32C208.09 66.32 209.204 66.3234 209.652 67.1375C209.821 67.4454 209.906 67.8289 209.906 68.288C209.906 70.016 209.154 71.36 207.65 72.32C206.962 72.7445 206.046 73.0853 204.903 73.3424C202.326 73.9219 200.145 71.4228 201.41 69.104C201.775 68.42 202.172 67.8515 202.602 67.3985C203.465 66.4884 204.79 66.32 206.045 66.32H207.161ZM246.653 86.5128C247.226 86.5503 247.786 86.252 247.931 85.6961C248.105 85.0294 247.587 84.4229 246.909 84.3004L245.795 84.0991C244.754 83.911 243.91 83.1514 243.626 82.1328C241.81 75.6095 239.619 66.5994 237.053 55.1026C236.764 53.8055 235.599 52.8341 234.303 53.1268C233.917 53.2139 233.537 53.3242 233.164 53.4576C232.556 53.6751 232.256 54.3361 232.412 54.9627C232.487 55.2615 232.459 55.5757 232.332 55.8561C228.876 63.4614 224.332 72.2574 218.698 82.2441C218.355 82.8526 217.889 83.3937 217.275 83.728C216.847 83.9615 216.401 84.1602 215.937 84.3239C215.563 84.4561 215.232 84.7078 215.105 85.0835C214.842 85.8584 215.559 86.5248 216.375 86.4646L219.424 86.24C220.451 86.24 221.995 86.3242 224.056 86.4927C224.65 86.5412 225.235 86.237 225.38 85.6596C225.545 85.0055 225.055 84.4039 224.398 84.251L223.921 84.1402C222.627 83.8392 221.949 82.4129 222.532 81.2191L224.297 77.6088C225.115 75.9372 226.753 74.796 228.612 74.739C229.026 74.7263 229.419 74.72 229.792 74.72C230.43 74.72 231.417 74.7332 232.753 74.7597C235.387 74.8119 237.609 76.6679 238.118 79.2532C238.269 80.0181 238.438 80.8792 238.625 81.8366C238.823 82.8497 238.326 83.893 237.347 84.2184C237.214 84.2625 237.081 84.3044 236.946 84.3442C236.552 84.4606 236.203 84.7173 236.073 85.1072C235.818 85.8724 236.522 86.5305 237.327 86.4769L240.88 86.24C241.947 86.24 243.871 86.3309 246.653 86.5128ZM231.424 72.56C229.231 72.56 227.887 70.2475 228.873 68.2882C229.006 68.0226 229.138 67.7607 229.268 67.5024C230.748 64.5719 235.384 66.7588 236.135 69.9544C236.648 72.1349 234.652 72.5387 232.412 72.5561C232.076 72.5587 231.747 72.56 231.424 72.56ZM255.278 89.8921C255.46 87.7726 257.562 86.48 259.69 86.48C263.338 86.48 266.394 84.944 268.858 81.872C271.322 78.8 272.554 75.2 272.554 71.072C272.554 68.576 271.882 66.608 270.538 65.168C269.194 63.696 267.53 62.96 265.546 62.96C263.562 62.96 261.962 63.76 260.746 65.36C259.577 66.8675 258.422 68.9812 257.283 71.7013C257.21 71.8749 257 71.9448 256.839 71.848C256.734 71.7849 256.676 71.6653 256.692 71.5437L257.578 64.88C257.578 64.24 257.402 63.728 257.05 63.344C256.454 62.6399 255.42 62.928 254.553 63.2448C253.47 63.641 252.369 63.9394 251.249 64.1399C250.795 64.2212 250.385 64.4942 250.248 64.9345C250.018 65.6737 250.669 66.32 251.444 66.32H251.743C252.721 66.32 253.498 67.1435 253.439 68.1201C253.093 73.8353 252.761 78.4193 252.442 81.872C252.131 85.2102 251.644 88.9861 250.983 93.1997C250.815 94.2676 250.199 95.241 249.198 95.6475C248.856 95.7862 248.501 95.9099 248.132 96.0186C247.763 96.1274 247.436 96.3711 247.311 96.7353C247.245 96.927 247.193 97.1227 247.153 97.3223C247.06 97.798 247.499 98.1716 247.978 98.096C249.866 97.872 251.562 97.76 253.066 97.76C253.813 97.76 255.194 97.8797 257.21 98.119C257.804 98.1895 258.401 97.8927 258.545 97.3121C258.706 96.6667 258.217 96.0761 257.567 95.9362L256.835 95.7786C255.714 95.5373 254.932 94.5182 255.009 93.3737C255.081 92.3099 255.17 91.1494 255.278 89.8921ZM267.946 68.624C268.586 69.744 268.906 71.008 268.906 72.416C268.906 74.816 268.33 77.152 267.178 79.424C266.222 81.3355 265.22 82.5129 264.171 82.9564C263.821 83.1042 263.435 83.12 263.055 83.12H261.713C258.611 83.12 256.197 80.4234 256.54 77.34C256.592 76.8755 256.705 76.4189 256.882 75.9863C259.093 70.5798 261.079 67.4328 262.84 66.5453C263.246 66.3409 263.71 66.32 264.165 66.32C265.232 66.32 266.345 66.5164 267.048 67.3191C267.363 67.6787 267.662 68.1137 267.946 68.624ZM282.419 89.8921C282.601 87.7726 284.703 86.48 286.83 86.48C290.478 86.48 293.534 84.944 295.998 81.872C298.462 78.8 299.694 75.2 299.694 71.072C299.694 68.576 299.022 66.608 297.678 65.168C296.334 63.696 294.67 62.96 292.686 62.96C290.702 62.96 289.102 63.76 287.886 65.36C286.717 66.8675 285.563 68.9812 284.424 71.7013C284.351 71.8749 284.141 71.9448 283.98 71.848C283.874 71.7849 283.817 71.6653 283.833 71.5437L284.718 64.88C284.718 64.24 284.542 63.728 284.19 63.344C283.595 62.6399 282.56 62.928 281.694 63.2448C280.611 63.641 279.51 63.9394 278.39 64.1399C277.936 64.2212 277.526 64.4942 277.389 64.9345C277.158 65.6737 277.81 66.32 278.584 66.32H278.883C279.862 66.32 280.638 67.1435 280.579 68.1201C280.234 73.8353 279.902 78.4193 279.582 81.872C279.271 85.2102 278.785 88.9861 278.124 93.1997C277.956 94.2676 277.34 95.241 276.338 95.6475C275.996 95.7862 275.641 95.9099 275.273 96.0186C274.903 96.1274 274.576 96.3711 274.452 96.7353C274.386 96.927 274.333 97.1227 274.294 97.3223C274.2 97.798 274.64 98.1716 275.118 98.096C277.006 97.872 278.702 97.76 280.206 97.76C280.954 97.76 282.335 97.8797 284.351 98.119C284.945 98.1895 285.541 97.8927 285.686 97.3121C285.847 96.6667 285.358 96.0761 284.708 95.9362L283.976 95.7786C282.854 95.5373 282.072 94.5182 282.149 93.3737C282.221 92.3099 282.311 91.1494 282.419 89.8921ZM295.086 68.624C295.726 69.744 296.046 71.008 296.046 72.416C296.046 74.816 295.47 77.152 294.318 79.424C293.363 81.3355 292.36 82.5129 291.311 82.9564C290.962 83.1042 290.576 83.12 290.196 83.12H288.854C285.752 83.12 283.338 80.4234 283.681 77.34C283.732 76.8755 283.845 76.4189 284.022 75.9863C286.233 70.5798 288.22 67.4328 289.981 66.5453C290.387 66.3409 290.851 66.32 291.305 66.32C292.372 66.32 293.486 66.5164 294.189 67.3191C294.504 67.6787 294.803 68.1137 295.086 68.624Z" fill="url(#paint0_linear_96_3)"/>
<defs>
<filter id="filter0_f_96_3" x="226.904" y="292.551" width="39.904" height="39.6941" filterUnits="userSpaceOnUse" color-interpolation-filters="sRGB">
<feFlood flood-opacity="0" result="BackgroundImageFix"/>
<feBlend mode="normal" in="SourceGraphic" in2="BackgroundImageFix" result="shape"/>
<feGaussianBlur stdDeviation="2.25619" result="effect1_foregroundBlur_96_3"/>
</filter>
<filter id="filter1_f_96_3" x="134.812" y="292.551" width="39.904" height="39.6941" filterUnits="userSpaceOnUse" color-interpolation-filters="sRGB">
<feFlood flood-opacity="0" result="BackgroundImageFix"/>
<feBlend mode="normal" in="SourceGraphic" in2="BackgroundImageFix" result="shape"/>
<feGaussianBlur stdDeviation="2.25619" result="effect1_foregroundBlur_96_3"/>
</filter>
<linearGradient id="paint0_linear_96_3" x1="74" y1="73.9714" x2="326.934" y2="73.9714" gradientUnits="userSpaceOnUse">
<stop stop-color="#D20062"/>
<stop offset="0.295" stop-color="#D63484"/>
<stop offset="0.495" stop-color="#D6589F"/>
<stop offset="0.675" stop-color="#D63484"/>
<stop offset="1" stop-color="#D6589F"/>
</linearGradient>
</defs>
</svg>
