<svg width="400" height="800" viewBox="0 0 400 800" fill="none" xmlns="http://www.w3.org/2000/svg">
<rect width="400" height="800" fill="#402B3A"/>
<path d="M348 87L380 55M380 87L348 55" stroke="#D6589F" stroke-width="4" stroke-linecap="round"/>
<rect x="47.5" y="174.5" width="37" height="37" rx="8.5" fill="#C4E4FF" stroke="#D895DA" stroke-width="3"/>
<path d="M61.875 180V183.875H76.375V203.25H61.875V207.125H80V180H61.875ZM65.5 187.75V191.625H51V195.5H65.5V199.375L72.75 193.562L65.5 187.75Z" fill="#402B3A"/>
<rect x="47.5" y="254.5" width="37" height="37" rx="8.5" fill="#C4E4FF" stroke="#D895DA" stroke-width="3"/>
<path d="M69.4064 273.998C64.4332 273.998 59.4599 278.367 59.4599 282.931V286.35H79.3529V282.931C79.3529 278.367 74.3797 273.998 69.4064 273.998ZM58.2166 269.256V264.128H55.7299V269.256H52V272.675H55.7299V277.803H58.2166V272.675H61.9465V269.256M69.4064 272.675C70.7254 272.675 71.9904 271.955 72.923 270.672C73.8557 269.39 74.3797 267.651 74.3797 265.838C74.3797 264.024 73.8557 262.285 72.923 261.003C71.9904 259.72 70.7254 259 69.4064 259C68.0874 259 66.8225 259.72 65.8898 261.003C64.9571 262.285 64.4332 264.024 64.4332 265.838C64.4332 267.651 64.9571 269.39 65.8898 270.672C66.8225 271.955 68.0874 272.675 69.4064 272.675Z" fill="#402B3A"/>
<rect x="47.5" y="334.5" width="37" height="37" rx="8.5" fill="#C4E4FF" stroke="#D895DA" stroke-width="3"/>
<path d="M52 339H57L57.5 365H52V339Z" fill="#402B3A" fill-opacity="0.92"/>
<path d="M59 345.5H64L63.5 364.5H59V345.5Z" fill="#4B3A4A"/>
<path d="M66.5 341L73 341.5L71.5 365H65L66.5 341Z" fill="#4B3A4A"/>
<path d="M74 346H80L78.5 365.5L73 365L74 346Z" fill="#4B3A4A"/>
<path d="M52 367H78.9718M57.6158 365.335L52.0791 365.486L52.2373 339L57.2203 339.076M57.6158 365.335L57.2203 339.076M57.6158 365.335L58.6441 364.957M57.2203 339.076L58.7232 341.649L58.8023 345.13M58.6441 364.957L58.8814 345.054L64.4181 345.205L63.7853 364.805L58.6441 364.957ZM74.7006 345.584C75.2103 344.845 75.8739 344.216 76.6496 343.734C77.4254 343.252 78.2967 342.929 79.209 342.784M66 340.816L64.8927 365.184L71.774 365.108L73.1186 341.195L66 340.816ZM73.9096 345.584L72.7232 365.486L78.8927 365.562L80 345.659L73.9096 345.584Z" stroke="#402B3A" stroke-linecap="round" stroke-linejoin="round"/>
<path d="M111.536 198.792H117.176V201H108.8V184.32H111.536V198.792ZM124.24 201.216C122.992 201.216 121.864 200.936 120.856 200.376C119.848 199.8 119.056 199 118.48 197.976C117.904 196.936 117.616 195.736 117.616 194.376C117.616 193.032 117.912 191.84 118.504 190.8C119.096 189.76 119.904 188.96 120.928 188.4C121.952 187.84 123.096 187.56 124.36 187.56C125.624 187.56 126.768 187.84 127.792 188.4C128.816 188.96 129.624 189.76 130.216 190.8C130.808 191.84 131.104 193.032 131.104 194.376C131.104 195.72 130.8 196.912 130.192 197.952C129.584 198.992 128.752 199.8 127.696 200.376C126.656 200.936 125.504 201.216 124.24 201.216ZM124.24 198.84C124.944 198.84 125.6 198.672 126.208 198.336C126.832 198 127.336 197.496 127.72 196.824C128.104 196.152 128.296 195.336 128.296 194.376C128.296 193.416 128.112 192.608 127.744 191.952C127.376 191.28 126.888 190.776 126.28 190.44C125.672 190.104 125.016 189.936 124.312 189.936C123.608 189.936 122.952 190.104 122.344 190.44C121.752 190.776 121.28 191.28 120.928 191.952C120.576 192.608 120.4 193.416 120.4 194.376C120.4 195.8 120.76 196.904 121.48 197.688C122.216 198.456 123.136 198.84 124.24 198.84ZM138.177 187.56C139.201 187.56 140.105 187.768 140.889 188.184C141.689 188.584 142.313 189.088 142.761 189.696V187.776H145.521V201.216C145.521 202.432 145.265 203.512 144.753 204.456C144.241 205.416 143.497 206.168 142.521 206.712C141.561 207.256 140.409 207.528 139.065 207.528C137.273 207.528 135.785 207.104 134.601 206.256C133.417 205.424 132.745 204.288 132.585 202.848H135.297C135.505 203.536 135.945 204.088 136.617 204.504C137.305 204.936 138.121 205.152 139.065 205.152C140.169 205.152 141.057 204.816 141.729 204.144C142.417 203.472 142.761 202.496 142.761 201.216V199.008C142.297 199.632 141.665 200.16 140.865 200.592C140.081 201.008 139.185 201.216 138.177 201.216C137.025 201.216 135.969 200.928 135.009 200.352C134.065 199.76 133.313 198.944 132.753 197.904C132.209 196.848 131.937 195.656 131.937 194.328C131.937 193 132.209 191.824 132.753 190.8C133.313 189.776 134.065 188.984 135.009 188.424C135.969 187.848 137.025 187.56 138.177 187.56ZM142.761 194.376C142.761 193.464 142.569 192.672 142.185 192C141.817 191.328 141.329 190.816 140.721 190.464C140.113 190.112 139.457 189.936 138.753 189.936C138.049 189.936 137.393 190.112 136.785 190.464C136.177 190.8 135.681 191.304 135.297 191.976C134.929 192.632 134.745 193.416 134.745 194.328C134.745 195.24 134.929 196.04 135.297 196.728C135.681 197.416 136.177 197.944 136.785 198.312C137.409 198.664 138.065 198.84 138.753 198.84C139.457 198.84 140.113 198.664 140.721 198.312C141.329 197.96 141.817 197.448 142.185 196.776C142.569 196.088 142.761 195.288 142.761 194.376ZM149.546 186.024C149.05 186.024 148.634 185.856 148.298 185.52C147.962 185.184 147.794 184.768 147.794 184.272C147.794 183.776 147.962 183.36 148.298 183.024C148.634 182.688 149.05 182.52 149.546 182.52C150.026 182.52 150.434 182.688 150.77 183.024C151.106 183.36 151.274 183.776 151.274 184.272C151.274 184.768 151.106 185.184 150.77 185.52C150.434 185.856 150.026 186.024 149.546 186.024ZM150.89 187.776V201H148.154V187.776H150.89ZM160.195 187.56C161.235 187.56 162.163 187.776 162.979 188.208C163.811 188.64 164.459 189.28 164.923 190.128C165.387 190.976 165.619 192 165.619 193.2V201H162.907V193.608C162.907 192.424 162.611 191.52 162.019 190.896C161.427 190.256 160.619 189.936 159.595 189.936C158.57 189.936 157.754 190.256 157.147 190.896C156.555 191.52 156.259 192.424 156.259 193.608V201H153.522V187.776H156.259V189.288C156.707 188.744 157.275 188.32 157.963 188.016C158.667 187.712 159.411 187.56 160.195 187.56Z" fill="#D63484"/>
<path d="M117.464 281L113.624 274.328H111.536V281H108.8V264.32H114.56C115.84 264.32 116.92 264.544 117.8 264.992C118.696 265.44 119.36 266.04 119.792 266.792C120.24 267.544 120.464 268.384 120.464 269.312C120.464 270.4 120.144 271.392 119.504 272.288C118.88 273.168 117.912 273.768 116.6 274.088L120.728 281H117.464ZM111.536 272.144H114.56C115.584 272.144 116.352 271.888 116.864 271.376C117.392 270.864 117.656 270.176 117.656 269.312C117.656 268.448 117.4 267.776 116.888 267.296C116.376 266.8 115.6 266.552 114.56 266.552H111.536V272.144ZM135.124 274.064C135.124 274.56 135.092 275.008 135.028 275.408H124.924C125.004 276.464 125.396 277.312 126.1 277.952C126.804 278.592 127.668 278.912 128.692 278.912C130.164 278.912 131.204 278.296 131.812 277.064H134.764C134.364 278.28 133.636 279.28 132.58 280.064C131.54 280.832 130.244 281.216 128.692 281.216C127.428 281.216 126.292 280.936 125.284 280.376C124.292 279.8 123.508 279 122.932 277.976C122.372 276.936 122.092 275.736 122.092 274.376C122.092 273.016 122.364 271.824 122.908 270.8C123.468 269.76 124.244 268.96 125.236 268.4C126.244 267.84 127.396 267.56 128.692 267.56C129.94 267.56 131.052 267.832 132.028 268.376C133.004 268.92 133.764 269.688 134.308 270.68C134.852 271.656 135.124 272.784 135.124 274.064ZM132.268 273.2C132.252 272.192 131.892 271.384 131.188 270.776C130.484 270.168 129.612 269.864 128.572 269.864C127.628 269.864 126.82 270.168 126.148 270.776C125.476 271.368 125.076 272.176 124.948 273.2H132.268ZM142.185 267.56C143.209 267.56 144.113 267.768 144.897 268.184C145.697 268.584 146.321 269.088 146.769 269.696V267.776H149.529V281.216C149.529 282.432 149.273 283.512 148.761 284.456C148.249 285.416 147.505 286.168 146.529 286.712C145.569 287.256 144.417 287.528 143.073 287.528C141.281 287.528 139.793 287.104 138.609 286.256C137.425 285.424 136.753 284.288 136.593 282.848H139.305C139.513 283.536 139.953 284.088 140.625 284.504C141.313 284.936 142.129 285.152 143.073 285.152C144.177 285.152 145.065 284.816 145.737 284.144C146.425 283.472 146.769 282.496 146.769 281.216V279.008C146.305 279.632 145.673 280.16 144.873 280.592C144.089 281.008 143.193 281.216 142.185 281.216C141.033 281.216 139.977 280.928 139.017 280.352C138.073 279.76 137.321 278.944 136.761 277.904C136.217 276.848 135.945 275.656 135.945 274.328C135.945 273 136.217 271.824 136.761 270.8C137.321 269.776 138.073 268.984 139.017 268.424C139.977 267.848 141.033 267.56 142.185 267.56ZM146.769 274.376C146.769 273.464 146.577 272.672 146.193 272C145.825 271.328 145.337 270.816 144.729 270.464C144.121 270.112 143.465 269.936 142.761 269.936C142.057 269.936 141.401 270.112 140.793 270.464C140.185 270.8 139.689 271.304 139.305 271.976C138.937 272.632 138.753 273.416 138.753 274.328C138.753 275.24 138.937 276.04 139.305 276.728C139.689 277.416 140.185 277.944 140.793 278.312C141.417 278.664 142.073 278.84 142.761 278.84C143.465 278.84 144.121 278.664 144.729 278.312C145.337 277.96 145.825 277.448 146.193 276.776C146.577 276.088 146.769 275.288 146.769 274.376ZM153.554 266.024C153.058 266.024 152.642 265.856 152.306 265.52C151.97 265.184 151.802 264.768 151.802 264.272C151.802 263.776 151.97 263.36 152.306 263.024C152.642 262.688 153.058 262.52 153.554 262.52C154.034 262.52 154.442 262.688 154.778 263.024C155.114 263.36 155.282 263.776 155.282 264.272C155.282 264.768 155.114 265.184 154.778 265.52C154.442 265.856 154.034 266.024 153.554 266.024ZM154.898 267.776V281H152.162V267.776H154.898ZM162.33 281.216C161.29 281.216 160.354 281.032 159.522 280.664C158.706 280.28 158.058 279.768 157.578 279.128C157.098 278.472 156.842 277.744 156.81 276.944H159.642C159.69 277.504 159.954 277.976 160.434 278.36C160.93 278.728 161.546 278.912 162.282 278.912C163.05 278.912 163.642 278.768 164.058 278.48C164.49 278.176 164.706 277.792 164.706 277.328C164.706 276.832 164.466 276.464 163.986 276.224C163.522 275.984 162.778 275.72 161.754 275.432C160.762 275.16 159.954 274.896 159.33 274.64C158.706 274.384 158.162 273.992 157.698 273.464C157.25 272.936 157.026 272.24 157.026 271.376C157.026 270.672 157.234 270.032 157.65 269.456C158.066 268.864 158.658 268.4 159.426 268.064C160.21 267.728 161.106 267.56 162.114 267.56C163.618 267.56 164.826 267.944 165.738 268.712C166.666 269.464 167.162 270.496 167.226 271.808H164.49C164.442 271.216 164.202 270.744 163.77 270.392C163.338 270.04 162.754 269.864 162.018 269.864C161.298 269.864 160.746 270 160.362 270.272C159.978 270.544 159.786 270.904 159.786 271.352C159.786 271.704 159.914 272 160.17 272.24C160.426 272.48 160.738 272.672 161.106 272.816C161.474 272.944 162.018 273.112 162.738 273.32C163.698 273.576 164.482 273.84 165.09 274.112C165.714 274.368 166.25 274.752 166.698 275.264C167.146 275.776 167.378 276.456 167.394 277.304C167.394 278.056 167.186 278.728 166.77 279.32C166.354 279.912 165.762 280.376 164.994 280.712C164.242 281.048 163.354 281.216 162.33 281.216ZM172.583 270.008V277.328C172.583 277.824 172.695 278.184 172.919 278.408C173.159 278.616 173.559 278.72 174.119 278.72H175.799V281H173.639C172.407 281 171.463 280.712 170.807 280.136C170.151 279.56 169.823 278.624 169.823 277.328V270.008H168.263V267.776H169.823V264.488H172.583V267.776H175.799V270.008H172.583ZM189.48 274.064C189.48 274.56 189.448 275.008 189.384 275.408H179.28C179.36 276.464 179.752 277.312 180.456 277.952C181.16 278.592 182.024 278.912 183.048 278.912C184.52 278.912 185.56 278.296 186.168 277.064H189.12C188.72 278.28 187.992 279.28 186.936 280.064C185.896 280.832 184.6 281.216 183.048 281.216C181.784 281.216 180.648 280.936 179.64 280.376C178.648 279.8 177.864 279 177.288 277.976C176.728 276.936 176.448 275.736 176.448 274.376C176.448 273.016 176.72 271.824 177.264 270.8C177.824 269.76 178.6 268.96 179.592 268.4C180.6 267.84 181.752 267.56 183.048 267.56C184.296 267.56 185.408 267.832 186.384 268.376C187.36 268.92 188.12 269.688 188.664 270.68C189.208 271.656 189.48 272.784 189.48 274.064ZM186.624 273.2C186.608 272.192 186.248 271.384 185.544 270.776C184.84 270.168 183.968 269.864 182.928 269.864C181.984 269.864 181.176 270.168 180.504 270.776C179.832 271.368 179.432 272.176 179.304 273.2H186.624ZM193.949 269.696C194.349 269.024 194.877 268.504 195.533 268.136C196.205 267.752 196.997 267.56 197.909 267.56V270.392H197.213C196.141 270.392 195.325 270.664 194.765 271.208C194.221 271.752 193.949 272.696 193.949 274.04V281H191.213V267.776H193.949V269.696Z" fill="#D63484"/>
<path d="M107.888 352.624C107.888 350.992 108.264 349.528 109.016 348.232C109.784 346.936 110.816 345.928 112.112 345.208C113.424 344.472 114.856 344.104 116.408 344.104C118.184 344.104 119.76 344.544 121.136 345.424C122.528 346.288 123.536 347.52 124.16 349.12H120.872C120.44 348.24 119.84 347.584 119.072 347.152C118.304 346.72 117.416 346.504 116.408 346.504C115.304 346.504 114.32 346.752 113.456 347.248C112.592 347.744 111.912 348.456 111.416 349.384C110.936 350.312 110.696 351.392 110.696 352.624C110.696 353.856 110.936 354.936 111.416 355.864C111.912 356.792 112.592 357.512 113.456 358.024C114.32 358.52 115.304 358.768 116.408 358.768C117.416 358.768 118.304 358.552 119.072 358.12C119.84 357.688 120.44 357.032 120.872 356.152H124.16C123.536 357.752 122.528 358.984 121.136 359.848C119.76 360.712 118.184 361.144 116.408 361.144C114.84 361.144 113.408 360.784 112.112 360.064C110.816 359.328 109.784 358.312 109.016 357.016C108.264 355.72 107.888 354.256 107.888 352.624ZM125.491 354.328C125.491 353 125.763 351.824 126.307 350.8C126.867 349.776 127.619 348.984 128.563 348.424C129.523 347.848 130.579 347.56 131.731 347.56C132.771 347.56 133.675 347.768 134.443 348.184C135.227 348.584 135.851 349.088 136.315 349.696V347.776H139.075V361H136.315V359.032C135.851 359.656 135.219 360.176 134.419 360.592C133.619 361.008 132.707 361.216 131.683 361.216C130.547 361.216 129.507 360.928 128.563 360.352C127.619 359.76 126.867 358.944 126.307 357.904C125.763 356.848 125.491 355.656 125.491 354.328ZM136.315 354.376C136.315 353.464 136.123 352.672 135.739 352C135.371 351.328 134.883 350.816 134.275 350.464C133.667 350.112 133.011 349.936 132.307 349.936C131.603 349.936 130.947 350.112 130.339 350.464C129.731 350.8 129.235 351.304 128.851 351.976C128.483 352.632 128.299 353.416 128.299 354.328C128.299 355.24 128.483 356.04 128.851 356.728C129.235 357.416 129.731 357.944 130.339 358.312C130.963 358.664 131.619 358.84 132.307 358.84C133.011 358.84 133.667 358.664 134.275 358.312C134.883 357.96 135.371 357.448 135.739 356.776C136.123 356.088 136.315 355.288 136.315 354.376ZM144.9 350.008V357.328C144.9 357.824 145.012 358.184 145.236 358.408C145.476 358.616 145.876 358.72 146.436 358.72H148.116V361H145.956C144.724 361 143.78 360.712 143.124 360.136C142.468 359.56 142.14 358.624 142.14 357.328V350.008H140.58V347.776H142.14V344.488H144.9V347.776H148.116V350.008H144.9ZM148.766 354.328C148.766 353 149.038 351.824 149.582 350.8C150.142 349.776 150.894 348.984 151.838 348.424C152.798 347.848 153.854 347.56 155.006 347.56C156.046 347.56 156.95 347.768 157.718 348.184C158.502 348.584 159.126 349.088 159.59 349.696V347.776H162.35V361H159.59V359.032C159.126 359.656 158.494 360.176 157.694 360.592C156.894 361.008 155.982 361.216 154.958 361.216C153.822 361.216 152.782 360.928 151.838 360.352C150.894 359.76 150.142 358.944 149.582 357.904C149.038 356.848 148.766 355.656 148.766 354.328ZM159.59 354.376C159.59 353.464 159.398 352.672 159.014 352C158.646 351.328 158.158 350.816 157.55 350.464C156.942 350.112 156.286 349.936 155.582 349.936C154.878 349.936 154.222 350.112 153.614 350.464C153.006 350.8 152.51 351.304 152.126 351.976C151.758 352.632 151.574 353.416 151.574 354.328C151.574 355.24 151.758 356.04 152.126 356.728C152.51 357.416 153.006 357.944 153.614 358.312C154.238 358.664 154.894 358.84 155.582 358.84C156.286 358.84 156.942 358.664 157.55 358.312C158.158 357.96 158.646 357.448 159.014 356.776C159.398 356.088 159.59 355.288 159.59 354.376ZM167.719 343.24V361H164.983V343.24H167.719ZM176.088 361.216C174.84 361.216 173.712 360.936 172.704 360.376C171.696 359.8 170.904 359 170.328 357.976C169.752 356.936 169.464 355.736 169.464 354.376C169.464 353.032 169.76 351.84 170.352 350.8C170.944 349.76 171.752 348.96 172.776 348.4C173.8 347.84 174.944 347.56 176.208 347.56C177.472 347.56 178.616 347.84 179.64 348.4C180.664 348.96 181.472 349.76 182.064 350.8C182.656 351.84 182.952 353.032 182.952 354.376C182.952 355.72 182.648 356.912 182.04 357.952C181.432 358.992 180.6 359.8 179.544 360.376C178.504 360.936 177.352 361.216 176.088 361.216ZM176.088 358.84C176.792 358.84 177.448 358.672 178.056 358.336C178.68 358 179.184 357.496 179.568 356.824C179.952 356.152 180.144 355.336 180.144 354.376C180.144 353.416 179.96 352.608 179.592 351.952C179.224 351.28 178.736 350.776 178.128 350.44C177.52 350.104 176.864 349.936 176.16 349.936C175.456 349.936 174.8 350.104 174.192 350.44C173.6 350.776 173.128 351.28 172.776 351.952C172.424 352.608 172.248 353.416 172.248 354.376C172.248 355.8 172.608 356.904 173.328 357.688C174.064 358.456 174.984 358.84 176.088 358.84ZM190.024 347.56C191.048 347.56 191.952 347.768 192.736 348.184C193.536 348.584 194.16 349.088 194.608 349.696V347.776H197.368V361.216C197.368 362.432 197.112 363.512 196.6 364.456C196.088 365.416 195.344 366.168 194.368 366.712C193.408 367.256 192.256 367.528 190.912 367.528C189.12 367.528 187.632 367.104 186.448 366.256C185.264 365.424 184.592 364.288 184.432 362.848H187.144C187.352 363.536 187.792 364.088 188.464 364.504C189.152 364.936 189.968 365.152 190.912 365.152C192.016 365.152 192.904 364.816 193.576 364.144C194.264 363.472 194.608 362.496 194.608 361.216V359.008C194.144 359.632 193.512 360.16 192.712 360.592C191.928 361.008 191.032 361.216 190.024 361.216C188.872 361.216 187.816 360.928 186.856 360.352C185.912 359.76 185.16 358.944 184.6 357.904C184.056 356.848 183.784 355.656 183.784 354.328C183.784 353 184.056 351.824 184.6 350.8C185.16 349.776 185.912 348.984 186.856 348.424C187.816 347.848 188.872 347.56 190.024 347.56ZM194.608 354.376C194.608 353.464 194.416 352.672 194.032 352C193.664 351.328 193.176 350.816 192.568 350.464C191.96 350.112 191.304 349.936 190.6 349.936C189.896 349.936 189.24 350.112 188.632 350.464C188.024 350.8 187.528 351.304 187.144 351.976C186.776 352.632 186.592 353.416 186.592 354.328C186.592 355.24 186.776 356.04 187.144 356.728C187.528 357.416 188.024 357.944 188.632 358.312C189.256 358.664 189.912 358.84 190.6 358.84C191.304 358.84 191.96 358.664 192.568 358.312C193.176 357.96 193.664 357.448 194.032 356.776C194.416 356.088 194.608 355.288 194.608 354.376ZM211.978 347.776V361H209.242V359.44C208.81 359.984 208.242 360.416 207.538 360.736C206.85 361.04 206.114 361.192 205.33 361.192C204.29 361.192 203.354 360.976 202.522 360.544C201.706 360.112 201.058 359.472 200.578 358.624C200.114 357.776 199.882 356.752 199.882 355.552V347.776H202.594V355.144C202.594 356.328 202.89 357.24 203.482 357.88C204.074 358.504 204.882 358.816 205.906 358.816C206.93 358.816 207.738 358.504 208.33 357.88C208.938 357.24 209.242 356.328 209.242 355.144V347.776H211.978ZM226.748 354.064C226.748 354.56 226.716 355.008 226.652 355.408H216.548C216.628 356.464 217.02 357.312 217.724 357.952C218.428 358.592 219.292 358.912 220.316 358.912C221.788 358.912 222.828 358.296 223.436 357.064H226.388C225.988 358.28 225.26 359.28 224.204 360.064C223.164 360.832 221.868 361.216 220.316 361.216C219.052 361.216 217.916 360.936 216.908 360.376C215.916 359.8 215.132 359 214.556 357.976C213.996 356.936 213.716 355.736 213.716 354.376C213.716 353.016 213.988 351.824 214.532 350.8C215.092 349.76 215.868 348.96 216.86 348.4C217.868 347.84 219.02 347.56 220.316 347.56C221.564 347.56 222.676 347.832 223.652 348.376C224.628 348.92 225.388 349.688 225.932 350.68C226.476 351.656 226.748 352.784 226.748 354.064ZM223.892 353.2C223.876 352.192 223.516 351.384 222.812 350.776C222.108 350.168 221.236 349.864 220.196 349.864C219.252 349.864 218.444 350.168 217.772 350.776C217.1 351.368 216.7 352.176 216.572 353.2H223.892Z" fill="#D63484"/>
<rect x="45" y="232" width="311" height="3" fill="#D895DA"/>
<rect x="45" y="152" width="311" height="3" fill="#D895DA"/>
<rect x="45" y="312" width="311" height="3" fill="#D895DA"/>
<rect x="45" y="392" width="311" height="3" fill="#D895DA"/>
<rect x="92" y="47" width="213" height="49" fill="#C4E4FF"/>
<path fill-rule="evenodd" clip-rule="evenodd" d="M326.934 52C326.934 46.4772 322.457 42 316.934 42H84C78.4772 42 74 46.4771 74 52V89.9429C74 95.4657 78.4771 99.9429 84 99.9429H316.934C322.457 99.9429 326.934 95.4657 326.934 89.9429V52ZM106.44 83.96C108.732 83.96 111.37 83.5662 114.353 82.7785C117.392 81.976 119.366 79.1744 119.669 76.046C119.752 75.1975 119.842 74.4176 119.939 73.7064C120.066 72.784 120.644 71.9701 121.525 71.6677C121.776 71.5813 122.033 71.5042 122.294 71.4366C122.706 71.3299 123.075 71.0722 123.207 70.6677C123.453 69.9148 122.762 69.2687 121.972 69.3214L118.392 69.56C117.355 69.56 116.053 69.4827 114.486 69.3281C113.891 69.2693 113.298 69.5686 113.153 70.1487C112.991 70.797 113.48 71.3917 114.132 71.5376L114.818 71.691C115.891 71.9311 116.652 72.8967 116.573 73.9937C116.52 74.725 116.446 75.4575 116.352 76.1913C116.056 78.5065 113.999 80.12 111.665 80.12H107.753C106.945 80.12 106.127 80.05 105.381 79.7398C103.756 79.0649 102.461 77.8797 101.496 76.184C100.312 74.072 99.72 71.528 99.72 68.552C99.72 65.544 100.456 62.568 101.928 59.624C102.992 57.4732 104.373 55.7235 106.072 54.375C107.363 53.3506 109.03 53 110.678 53H114.164C116.198 53 118.405 53.7193 118.523 55.7499C118.532 55.9001 118.536 56.0554 118.536 56.216C118.536 56.4206 118.53 56.6198 118.517 56.8135C118.458 57.7315 119.155 58.6626 120.049 58.4421C120.499 58.3308 120.8 57.9536 120.891 57.4982L120.936 57.272C121.036 56.836 121.142 56.4184 121.253 56.0191C121.885 53.7495 121.719 51.334 119.496 50.552C117.768 49.912 115.88 49.592 113.832 49.592C111.816 49.592 109.768 50.008 107.688 50.84C103.88 52.408 100.888 55.192 98.712 59.192C96.696 62.904 95.688 66.984 95.688 71.432C95.688 75.144 96.616 78.168 98.472 80.504C100.328 82.808 102.984 83.96 106.44 83.96ZM147.663 82.2841C148.125 82.2144 148.545 81.9407 148.682 81.4941C148.909 80.7607 148.263 80.12 147.495 80.12H146.936C145.809 80.12 144.916 79.1662 144.996 78.0417C145.332 73.3136 145.669 69.7024 146.005 67.208C146.254 65.5012 146.538 63.8633 146.857 62.2944C147.173 60.7341 145.992 59.2515 144.436 59.585C144.081 59.6611 143.722 59.7497 143.359 59.8508C143.126 59.9155 142.964 60.0432 142.927 60.2814C142.856 60.7463 142.327 61.0679 141.908 60.8522C140.755 60.2574 139.705 59.96 138.757 59.96C135.109 59.96 132.053 61.496 129.589 64.568C127.125 67.64 125.893 71.24 125.893 75.368C125.893 77.864 126.565 79.848 127.909 81.32C129.253 82.76 130.917 83.48 132.901 83.48C134.885 83.48 136.485 82.696 137.701 81.128C138.87 79.5898 140.024 77.46 141.164 74.7387C141.237 74.5651 141.446 74.4952 141.608 74.592C141.713 74.6551 141.771 74.7747 141.755 74.8963L140.869 81.56C140.869 82.296 141.029 82.84 141.349 83.192C141.998 83.8414 143.025 83.5112 143.891 83.2063C145.063 82.7938 146.32 82.4864 147.663 82.2841ZM130.501 77.864C129.861 76.712 129.541 75.432 129.541 74.024C129.541 71.624 130.101 69.304 131.221 67.064C132.207 65.1191 133.229 63.9246 134.285 63.4805C134.629 63.3358 135.009 63.32 135.382 63.32H136.536C139.706 63.32 142.105 66.3725 141.784 69.5266C141.73 70.0532 141.63 70.2904 141.422 70.777C139.191 75.9896 137.248 79.0282 135.595 79.8929C135.198 80.1006 134.74 80.12 134.292 80.12C133.218 80.12 132.099 79.9234 131.386 79.1212C131.076 78.7724 130.781 78.3533 130.501 77.864ZM187.472 60.44C186.768 60.12 185.824 59.96 184.64 59.96C180.651 59.96 177.34 62.8742 174.707 68.7027C174.629 68.8762 174.416 68.9454 174.253 68.8474C174.147 68.7843 174.088 68.665 174.101 68.543C174.414 65.5126 174.606 63.4583 174.677 62.3801C174.699 62.049 174.656 61.7178 174.56 61.4C174.432 61.08 174.016 60.76 173.312 60.44C172.608 60.12 171.664 59.96 170.48 59.96C166.49 59.96 163.178 62.8755 160.545 68.7065C160.468 68.8779 160.258 68.9464 160.096 68.8496C159.989 68.7855 159.931 68.6641 159.947 68.5406L160.832 61.88C160.832 61.24 160.656 60.728 160.304 60.344C159.709 59.64 158.674 59.928 157.808 60.2448C156.725 60.641 155.623 60.9394 154.504 61.1399C154.05 61.2212 153.64 61.4942 153.503 61.9345C153.272 62.6737 153.924 63.32 154.698 63.32H155.004C155.981 63.32 156.759 64.1392 156.705 65.1148C156.439 69.925 156.135 73.6148 155.792 76.184C155.575 77.8148 155.337 79.3275 155.078 80.7223C154.794 82.2588 155.891 83.7201 157.42 83.3987C158.33 83.2073 159.051 82.4154 159.175 81.4933C159.448 79.466 159.698 77.1546 159.926 74.559C160.022 73.4742 160.273 72.4045 160.746 71.4236C161.671 69.5049 162.707 67.7797 163.856 66.248C165.328 64.296 166.688 63.32 167.936 63.32C169.521 63.32 170.776 64.6618 170.659 66.2421C170.208 72.3427 169.732 76.6006 169.232 79.016C169.174 79.4696 169.075 80.0437 168.936 80.7383C168.631 82.2661 169.71 83.7202 171.235 83.4006C172.15 83.2088 172.868 82.4091 172.964 81.4795C173.102 80.1468 173.268 78.2416 173.46 75.764C173.555 74.5511 173.854 73.3576 174.417 72.2789C175.446 70.3042 176.614 68.4379 177.92 66.68C179.584 64.44 180.976 63.32 182.096 63.32C183.681 63.32 184.936 64.6612 184.819 66.2415C184.382 72.1492 183.882 76.9983 183.318 80.7888C183.242 81.3029 183.165 81.8278 183.274 82.3361C183.35 82.6925 183.486 82.9778 183.68 83.192C184.33 83.8414 185.356 83.5112 186.222 83.2063C187.394 82.7938 188.652 82.4864 189.994 82.2841C190.456 82.2144 190.876 81.9407 191.014 81.4941C191.24 80.7607 190.594 80.12 189.826 80.12H189.337C188.268 80.12 187.414 79.229 187.468 78.1612C187.735 72.9768 188.18 67.7209 188.804 62.3934C188.843 62.0565 188.798 61.715 188.672 61.4C188.576 61.08 188.176 60.76 187.472 60.44ZM211.079 82.3474C211.492 82.2452 211.851 81.9723 211.984 81.5674C212.236 80.7972 211.553 80.12 210.742 80.12H203.666C198.74 79.4592 203.948 73.4741 208.471 71.4141C211.668 69.9583 213.266 67.5162 213.266 64.088C213.266 62.936 212.898 61.96 212.162 61.16C211.426 60.36 210.274 59.96 208.706 59.96C206.21 59.96 203.97 60.744 201.986 62.312C200.034 63.848 198.578 65.72 197.618 67.928C196.658 70.104 196.178 72.296 196.178 74.504C196.178 80.488 198.93 83.48 204.434 83.48C205.81 83.48 208.025 83.1025 211.079 82.3474ZM207.161 63.32C208.09 63.32 209.204 63.3234 209.652 64.1375C209.821 64.4454 209.906 64.8289 209.906 65.288C209.906 67.016 209.154 68.36 207.65 69.32C206.962 69.7445 206.046 70.0853 204.903 70.3424C202.326 70.9219 200.145 68.4228 201.41 66.104C201.775 65.42 202.172 64.8515 202.602 64.3985C203.465 63.4884 204.79 63.32 206.045 63.32H207.161ZM246.653 83.5128C247.226 83.5503 247.786 83.252 247.931 82.6961C248.105 82.0294 247.587 81.4229 246.909 81.3004L245.795 81.0991C244.754 80.911 243.91 80.1514 243.626 79.1328C241.81 72.6095 239.619 63.5994 237.053 52.1026C236.764 50.8055 235.599 49.8341 234.303 50.1268C233.917 50.2139 233.537 50.3242 233.164 50.4576C232.556 50.6751 232.256 51.3361 232.412 51.9627C232.487 52.2615 232.459 52.5757 232.332 52.8561C228.876 60.4614 224.332 69.2574 218.698 79.2441C218.355 79.8526 217.889 80.3937 217.275 80.728C216.847 80.9615 216.401 81.1602 215.937 81.3239C215.563 81.4561 215.232 81.7078 215.105 82.0835C214.842 82.8584 215.559 83.5248 216.375 83.4646L219.424 83.24C220.451 83.24 221.995 83.3242 224.056 83.4927C224.65 83.5412 225.235 83.237 225.38 82.6596C225.545 82.0055 225.055 81.4039 224.398 81.251L223.921 81.1402C222.627 80.8392 221.949 79.4129 222.532 78.2191L224.297 74.6088C225.115 72.9372 226.753 71.796 228.612 71.739C229.026 71.7263 229.419 71.72 229.792 71.72C230.43 71.72 231.417 71.7332 232.753 71.7597C235.387 71.8119 237.609 73.6679 238.118 76.2532C238.269 77.0181 238.438 77.8792 238.625 78.8366C238.823 79.8497 238.326 80.893 237.347 81.2184C237.214 81.2625 237.081 81.3044 236.946 81.3442C236.552 81.4606 236.203 81.7173 236.073 82.1072C235.818 82.8724 236.522 83.5305 237.327 83.4769L240.88 83.24C241.947 83.24 243.871 83.3309 246.653 83.5128ZM231.424 69.56C229.231 69.56 227.887 67.2475 228.873 65.2882C229.006 65.0226 229.138 64.7607 229.268 64.5024C230.748 61.5719 235.384 63.7588 236.135 66.9544C236.648 69.1349 234.652 69.5387 232.412 69.5561C232.076 69.5587 231.747 69.56 231.424 69.56ZM255.278 86.8921C255.46 84.7726 257.562 83.48 259.69 83.48C263.338 83.48 266.394 81.944 268.858 78.872C271.322 75.8 272.554 72.2 272.554 68.072C272.554 65.576 271.882 63.608 270.538 62.168C269.194 60.696 267.53 59.96 265.546 59.96C263.562 59.96 261.962 60.76 260.746 62.36C259.577 63.8675 258.422 65.9812 257.283 68.7013C257.21 68.8749 257 68.9448 256.839 68.848C256.734 68.7849 256.676 68.6653 256.692 68.5437L257.578 61.88C257.578 61.24 257.402 60.728 257.05 60.344C256.454 59.6399 255.42 59.928 254.553 60.2448C253.47 60.641 252.369 60.9394 251.249 61.1399C250.795 61.2212 250.385 61.4942 250.248 61.9345C250.018 62.6737 250.669 63.32 251.444 63.32H251.743C252.721 63.32 253.498 64.1435 253.439 65.1201C253.093 70.8353 252.761 75.4193 252.442 78.872C252.131 82.2102 251.644 85.9861 250.983 90.1997C250.815 91.2676 250.199 92.241 249.198 92.6475C248.856 92.7862 248.501 92.9099 248.132 93.0186C247.763 93.1274 247.436 93.3711 247.311 93.7353C247.245 93.927 247.193 94.1227 247.153 94.3223C247.06 94.798 247.499 95.1716 247.978 95.096C249.866 94.872 251.562 94.76 253.066 94.76C253.813 94.76 255.194 94.8797 257.21 95.119C257.804 95.1895 258.401 94.8927 258.545 94.3121C258.706 93.6667 258.217 93.0761 257.567 92.9362L256.835 92.7786C255.714 92.5373 254.932 91.5182 255.009 90.3737C255.081 89.3099 255.17 88.1494 255.278 86.8921ZM267.946 65.624C268.586 66.744 268.906 68.008 268.906 69.416C268.906 71.816 268.33 74.152 267.178 76.424C266.222 78.3355 265.22 79.5129 264.171 79.9564C263.821 80.1042 263.435 80.12 263.055 80.12H261.713C258.611 80.12 256.197 77.4234 256.54 74.34C256.592 73.8755 256.705 73.4189 256.882 72.9863C259.093 67.5798 261.079 64.4328 262.84 63.5453C263.246 63.3409 263.71 63.32 264.165 63.32C265.232 63.32 266.345 63.5164 267.048 64.3191C267.363 64.6787 267.662 65.1137 267.946 65.624ZM282.419 86.8921C282.601 84.7726 284.703 83.48 286.83 83.48C290.478 83.48 293.534 81.944 295.998 78.872C298.462 75.8 299.694 72.2 299.694 68.072C299.694 65.576 299.022 63.608 297.678 62.168C296.334 60.696 294.67 59.96 292.686 59.96C290.702 59.96 289.102 60.76 287.886 62.36C286.717 63.8675 285.563 65.9812 284.424 68.7013C284.351 68.8749 284.141 68.9448 283.98 68.848C283.874 68.7849 283.817 68.6653 283.833 68.5437L284.718 61.88C284.718 61.24 284.542 60.728 284.19 60.344C283.595 59.6399 282.56 59.928 281.694 60.2448C280.611 60.641 279.51 60.9394 278.39 61.1399C277.936 61.2212 277.526 61.4942 277.389 61.9345C277.158 62.6737 277.81 63.32 278.584 63.32H278.883C279.862 63.32 280.638 64.1435 280.579 65.1201C280.234 70.8353 279.902 75.4193 279.582 78.872C279.271 82.2102 278.785 85.9861 278.124 90.1997C277.956 91.2676 277.34 92.241 276.338 92.6475C275.996 92.7862 275.641 92.9099 275.273 93.0186C274.903 93.1274 274.576 93.3711 274.452 93.7353C274.386 93.927 274.333 94.1227 274.294 94.3223C274.2 94.798 274.64 95.1716 275.118 95.096C277.006 94.872 278.702 94.76 280.206 94.76C280.954 94.76 282.335 94.8797 284.351 95.119C284.945 95.1895 285.541 94.8927 285.686 94.3121C285.847 93.6667 285.358 93.0761 284.708 92.9362L283.976 92.7786C282.854 92.5373 282.072 91.5182 282.149 90.3737C282.221 89.3099 282.311 88.1494 282.419 86.8921ZM295.086 65.624C295.726 66.744 296.046 68.008 296.046 69.416C296.046 71.816 295.47 74.152 294.318 76.424C293.363 78.3355 292.36 79.5129 291.311 79.9564C290.962 80.1042 290.576 80.12 290.196 80.12H288.854C285.752 80.12 283.338 77.4234 283.681 74.34C283.732 73.8755 283.845 73.4189 284.022 72.9863C286.233 67.5798 288.22 64.4328 289.981 63.5453C290.387 63.3409 290.851 63.32 291.305 63.32C292.372 63.32 293.486 63.5164 294.189 64.3191C294.504 64.6787 294.803 65.1137 295.086 65.624Z" fill="url(#paint0_linear_96_115)"/>
<defs>
<linearGradient id="paint0_linear_96_115" x1="74" y1="70.9714" x2="326.934" y2="70.9714" gradientUnits="userSpaceOnUse">
<stop stop-color="#D20062"/>
<stop offset="0.295" stop-color="#D63484"/>
<stop offset="0.495" stop-color="#D6589F"/>
<stop offset="0.675" stop-color="#D63484"/>
<stop offset="1" stop-color="#D6589F"/>
</linearGradient>
</defs>
</svg>
