<svg width="400" height="800" viewBox="0 0 400 800" fill="none" xmlns="http://www.w3.org/2000/svg">
<rect width="400" height="800" fill="#402B3A"/>
<path d="M125.072 84.584H136.352V89H119.6V55.64H125.072V84.584ZM150.48 89.432C147.984 89.432 145.728 88.872 143.712 87.752C141.696 86.6 140.112 85 138.96 82.952C137.808 80.872 137.232 78.472 137.232 75.752C137.232 73.064 137.824 70.68 139.008 68.6C140.192 66.52 141.808 64.92 143.856 63.8C145.904 62.68 148.192 62.12 150.72 62.12C153.248 62.12 155.536 62.68 157.584 63.8C159.632 64.92 161.248 66.52 162.432 68.6C163.616 70.68 164.208 73.064 164.208 75.752C164.208 78.44 163.6 80.824 162.384 82.904C161.168 84.984 159.504 86.6 157.392 87.752C155.312 88.872 153.008 89.432 150.48 89.432ZM150.48 84.68C151.888 84.68 153.2 84.344 154.416 83.672C155.664 83 156.672 81.992 157.44 80.648C158.208 79.304 158.592 77.672 158.592 75.752C158.592 73.832 158.224 72.216 157.488 70.904C156.752 69.56 155.776 68.552 154.56 67.88C153.344 67.208 152.032 66.872 150.624 66.872C149.216 66.872 147.904 67.208 146.688 67.88C145.504 68.552 144.56 69.56 143.856 70.904C143.152 72.216 142.8 73.832 142.8 75.752C142.8 78.6 143.52 80.808 144.96 82.376C146.432 83.912 148.272 84.68 150.48 84.68ZM178.354 62.12C180.402 62.12 182.21 62.536 183.778 63.368C185.378 64.168 186.626 65.176 187.522 66.392V62.552H193.042V89.432C193.042 91.864 192.53 94.024 191.506 95.912C190.482 97.832 188.994 99.336 187.042 100.424C185.122 101.512 182.818 102.056 180.13 102.056C176.546 102.056 173.57 101.208 171.201 99.512C168.833 97.848 167.489 95.576 167.169 92.696H172.593C173.01 94.072 173.89 95.176 175.234 96.008C176.61 96.872 178.242 97.304 180.13 97.304C182.338 97.304 184.114 96.632 185.458 95.288C186.834 93.944 187.522 91.992 187.522 89.432V85.016C186.594 86.264 185.33 87.32 183.73 88.184C182.162 89.016 180.37 89.432 178.354 89.432C176.05 89.432 173.938 88.856 172.018 87.704C170.13 86.52 168.626 84.888 167.505 82.808C166.417 80.696 165.873 78.312 165.873 75.656C165.873 73 166.417 70.648 167.505 68.6C168.626 66.552 170.13 64.968 172.018 63.848C173.938 62.696 176.05 62.12 178.354 62.12ZM187.522 75.752C187.522 73.928 187.138 72.344 186.37 71C185.634 69.656 184.658 68.632 183.442 67.928C182.226 67.224 180.914 66.872 179.506 66.872C178.098 66.872 176.786 67.224 175.57 67.928C174.354 68.6 173.362 69.608 172.593 70.952C171.858 72.264 171.49 73.832 171.49 75.656C171.49 77.48 171.858 79.08 172.593 80.456C173.362 81.832 174.354 82.888 175.57 83.624C176.818 84.328 178.13 84.68 179.506 84.68C180.914 84.68 182.226 84.328 183.442 83.624C184.658 82.92 185.634 81.896 186.37 80.552C187.138 79.176 187.522 77.576 187.522 75.752ZM201.093 59.048C200.101 59.048 199.269 58.712 198.597 58.04C197.925 57.368 197.589 56.536 197.589 55.544C197.589 54.552 197.925 53.72 198.597 53.048C199.269 52.376 200.101 52.04 201.093 52.04C202.053 52.04 202.869 52.376 203.541 53.048C204.213 53.72 204.549 54.552 204.549 55.544C204.549 56.536 204.213 57.368 203.541 58.04C202.869 58.712 202.053 59.048 201.093 59.048ZM203.781 62.552V89H198.309V62.552H203.781ZM222.389 62.12C224.469 62.12 226.325 62.552 227.957 63.416C229.621 64.28 230.917 65.56 231.845 67.256C232.773 68.952 233.237 71 233.237 73.4V89H227.813V74.216C227.813 71.848 227.221 70.04 226.037 68.792C224.853 67.512 223.237 66.872 221.189 66.872C219.141 66.872 217.509 67.512 216.293 68.792C215.109 70.04 214.517 71.848 214.517 74.216V89H209.045V62.552H214.517V65.576C215.413 64.488 216.549 63.64 217.925 63.032C219.333 62.424 220.821 62.12 222.389 62.12Z" fill="#D20062"/>
<path d="M86.78 143.94V148.02H91.58V149.88H86.78V154.14H92.18V156H84.5V142.08H92.18V143.94H86.78ZM107.528 144.8C108.395 144.8 109.168 144.98 109.848 145.34C110.542 145.7 111.082 146.233 111.468 146.94C111.868 147.647 112.068 148.5 112.068 149.5V156H109.808V149.84C109.808 148.853 109.562 148.1 109.068 147.58C108.575 147.047 107.902 146.78 107.048 146.78C106.195 146.78 105.515 147.047 105.008 147.58C104.515 148.1 104.268 148.853 104.268 149.84V156H102.008V149.84C102.008 148.853 101.762 148.1 101.268 147.58C100.775 147.047 100.102 146.78 99.2483 146.78C98.3949 146.78 97.7149 147.047 97.2083 147.58C96.7149 148.1 96.4683 148.853 96.4683 149.84V156H94.1883V144.98H96.4683V146.24C96.8416 145.787 97.3149 145.433 97.8883 145.18C98.4616 144.927 99.0749 144.8 99.7283 144.8C100.608 144.8 101.395 144.987 102.088 145.36C102.782 145.733 103.315 146.273 103.688 146.98C104.022 146.313 104.542 145.787 105.248 145.4C105.955 145 106.715 144.8 107.528 144.8ZM113.41 150.44C113.41 149.333 113.636 148.353 114.09 147.5C114.556 146.647 115.183 145.987 115.97 145.52C116.77 145.04 117.65 144.8 118.61 144.8C119.476 144.8 120.23 144.973 120.87 145.32C121.523 145.653 122.043 146.073 122.43 146.58V144.98H124.73V156H122.43V154.36C122.043 154.88 121.516 155.313 120.85 155.66C120.183 156.007 119.423 156.18 118.57 156.18C117.623 156.18 116.756 155.94 115.97 155.46C115.183 154.967 114.556 154.287 114.09 153.42C113.636 152.54 113.41 151.547 113.41 150.44ZM122.43 150.48C122.43 149.72 122.27 149.06 121.95 148.5C121.643 147.94 121.236 147.513 120.73 147.22C120.223 146.927 119.676 146.78 119.09 146.78C118.503 146.78 117.956 146.927 117.45 147.22C116.943 147.5 116.53 147.92 116.21 148.48C115.903 149.027 115.75 149.68 115.75 150.44C115.75 151.2 115.903 151.867 116.21 152.44C116.53 153.013 116.943 153.453 117.45 153.76C117.97 154.053 118.516 154.2 119.09 154.2C119.676 154.2 120.223 154.053 120.73 153.76C121.236 153.467 121.643 153.04 121.95 152.48C122.27 151.907 122.43 151.24 122.43 150.48ZM128.084 143.52C127.671 143.52 127.324 143.38 127.044 143.1C126.764 142.82 126.624 142.473 126.624 142.06C126.624 141.647 126.764 141.3 127.044 141.02C127.324 140.74 127.671 140.6 128.084 140.6C128.484 140.6 128.824 140.74 129.104 141.02C129.384 141.3 129.524 141.647 129.524 142.06C129.524 142.473 129.384 142.82 129.104 143.1C128.824 143.38 128.484 143.52 128.084 143.52ZM129.204 144.98V156H126.924V144.98H129.204ZM133.678 141.2V156H131.398V141.2H133.678ZM136.791 156.14C136.378 156.14 136.031 156 135.751 155.72C135.471 155.44 135.331 155.093 135.331 154.68C135.331 154.267 135.471 153.92 135.751 153.64C136.031 153.36 136.378 153.22 136.791 153.22C137.191 153.22 137.531 153.36 137.811 153.64C138.091 153.92 138.231 154.267 138.231 154.68C138.231 155.093 138.091 155.44 137.811 155.72C137.531 156 137.191 156.14 136.791 156.14ZM136.791 147.74C136.378 147.74 136.031 147.6 135.751 147.32C135.471 147.04 135.331 146.693 135.331 146.28C135.331 145.867 135.471 145.52 135.751 145.24C136.031 144.96 136.378 144.82 136.791 144.82C137.191 144.82 137.531 144.96 137.811 145.24C138.091 145.52 138.231 145.867 138.231 146.28C138.231 146.693 138.091 147.04 137.811 147.32C137.531 147.6 137.191 147.74 136.791 147.74Z" fill="#D63484"/>
<path d="M344.312 86.9375H383.688M344.312 71.9375H383.688M344.312 56.9375H383.688" stroke="#D6589F" stroke-width="4" stroke-linecap="round" stroke-linejoin="round"/>
<rect x="52.5" y="167.5" width="297" height="57" rx="28.5" fill="#C4E4FF" stroke="#D895DA" stroke-width="3"/>
<path d="M92.22 266.24C92.22 266.947 92.0533 267.613 91.72 268.24C91.3867 268.867 90.8533 269.38 90.12 269.78C89.3867 270.167 88.4467 270.36 87.3 270.36H84.78V276H82.5V262.1H87.3C88.3667 262.1 89.2667 262.287 90 262.66C90.7467 263.02 91.3 263.513 91.66 264.14C92.0333 264.767 92.22 265.467 92.22 266.24ZM87.3 268.5C88.1667 268.5 88.8133 268.307 89.24 267.92C89.6667 267.52 89.88 266.96 89.88 266.24C89.88 264.72 89.02 263.96 87.3 263.96H84.78V268.5H87.3ZM92.8345 270.44C92.8345 269.333 93.0612 268.353 93.5145 267.5C93.9812 266.647 94.6079 265.987 95.3945 265.52C96.1945 265.04 97.0745 264.8 98.0345 264.8C98.9012 264.8 99.6545 264.973 100.295 265.32C100.948 265.653 101.468 266.073 101.855 266.58V264.98H104.155V276H101.855V274.36C101.468 274.88 100.941 275.313 100.275 275.66C99.6079 276.007 98.8479 276.18 97.9945 276.18C97.0479 276.18 96.1812 275.94 95.3945 275.46C94.6079 274.967 93.9812 274.287 93.5145 273.42C93.0612 272.54 92.8345 271.547 92.8345 270.44ZM101.855 270.48C101.855 269.72 101.695 269.06 101.375 268.5C101.068 267.94 100.661 267.513 100.155 267.22C99.6479 266.927 99.1012 266.78 98.5145 266.78C97.9279 266.78 97.3812 266.927 96.8745 267.22C96.3679 267.5 95.9545 267.92 95.6345 268.48C95.3279 269.027 95.1745 269.68 95.1745 270.44C95.1745 271.2 95.3279 271.867 95.6345 272.44C95.9545 273.013 96.3679 273.453 96.8745 273.76C97.3945 274.053 97.9412 274.2 98.5145 274.2C99.1012 274.2 99.6479 274.053 100.155 273.76C100.661 273.467 101.068 273.04 101.375 272.48C101.695 271.907 101.855 271.24 101.855 270.48ZM110.349 276.18C109.483 276.18 108.703 276.027 108.009 275.72C107.329 275.4 106.789 274.973 106.389 274.44C105.989 273.893 105.776 273.287 105.749 272.62H108.109C108.149 273.087 108.369 273.48 108.769 273.8C109.183 274.107 109.696 274.26 110.309 274.26C110.949 274.26 111.443 274.14 111.789 273.9C112.149 273.647 112.329 273.327 112.329 272.94C112.329 272.527 112.129 272.22 111.729 272.02C111.343 271.82 110.723 271.6 109.869 271.36C109.043 271.133 108.369 270.913 107.849 270.7C107.329 270.487 106.876 270.16 106.489 269.72C106.116 269.28 105.929 268.7 105.929 267.98C105.929 267.393 106.103 266.86 106.449 266.38C106.796 265.887 107.289 265.5 107.929 265.22C108.583 264.94 109.329 264.8 110.169 264.8C111.423 264.8 112.429 265.12 113.189 265.76C113.963 266.387 114.376 267.247 114.429 268.34H112.149C112.109 267.847 111.909 267.453 111.549 267.16C111.189 266.867 110.703 266.72 110.089 266.72C109.489 266.72 109.029 266.833 108.709 267.06C108.389 267.287 108.229 267.587 108.229 267.96C108.229 268.253 108.336 268.5 108.549 268.7C108.763 268.9 109.023 269.06 109.329 269.18C109.636 269.287 110.089 269.427 110.689 269.6C111.489 269.813 112.143 270.033 112.649 270.26C113.169 270.473 113.616 270.793 113.989 271.22C114.363 271.647 114.556 272.213 114.569 272.92C114.569 273.547 114.396 274.107 114.049 274.6C113.703 275.093 113.209 275.48 112.569 275.76C111.943 276.04 111.203 276.18 110.349 276.18ZM120.233 276.18C119.366 276.18 118.586 276.027 117.893 275.72C117.213 275.4 116.673 274.973 116.273 274.44C115.873 273.893 115.659 273.287 115.633 272.62H117.993C118.033 273.087 118.253 273.48 118.653 273.8C119.066 274.107 119.579 274.26 120.193 274.26C120.833 274.26 121.326 274.14 121.673 273.9C122.033 273.647 122.213 273.327 122.213 272.94C122.213 272.527 122.013 272.22 121.613 272.02C121.226 271.82 120.606 271.6 119.753 271.36C118.926 271.133 118.253 270.913 117.733 270.7C117.213 270.487 116.759 270.16 116.373 269.72C115.999 269.28 115.813 268.7 115.813 267.98C115.813 267.393 115.986 266.86 116.333 266.38C116.679 265.887 117.173 265.5 117.813 265.22C118.466 264.94 119.213 264.8 120.053 264.8C121.306 264.8 122.313 265.12 123.073 265.76C123.846 266.387 124.259 267.247 124.313 268.34H122.033C121.993 267.847 121.793 267.453 121.433 267.16C121.073 266.867 120.586 266.72 119.973 266.72C119.373 266.72 118.913 266.833 118.593 267.06C118.273 267.287 118.113 267.587 118.113 267.96C118.113 268.253 118.219 268.5 118.433 268.7C118.646 268.9 118.906 269.06 119.213 269.18C119.519 269.287 119.973 269.427 120.573 269.6C121.373 269.813 122.026 270.033 122.533 270.26C123.053 270.473 123.499 270.793 123.873 271.22C124.246 271.647 124.439 272.213 124.453 272.92C124.453 273.547 124.279 274.107 123.933 274.6C123.586 275.093 123.093 275.48 122.453 275.76C121.826 276.04 121.086 276.18 120.233 276.18ZM140.916 264.98L137.496 276H135.096L132.876 267.86L130.656 276H128.256L124.816 264.98H127.136L129.436 273.84L131.776 264.98H134.156L136.396 273.8L138.676 264.98H140.916ZM146.6 276.18C145.56 276.18 144.62 275.947 143.78 275.48C142.94 275 142.28 274.333 141.8 273.48C141.32 272.613 141.08 271.613 141.08 270.48C141.08 269.36 141.327 268.367 141.82 267.5C142.314 266.633 142.987 265.967 143.84 265.5C144.694 265.033 145.647 264.8 146.7 264.8C147.754 264.8 148.707 265.033 149.56 265.5C150.414 265.967 151.087 266.633 151.58 267.5C152.074 268.367 152.32 269.36 152.32 270.48C152.32 271.6 152.067 272.593 151.56 273.46C151.054 274.327 150.36 275 149.48 275.48C148.614 275.947 147.654 276.18 146.6 276.18ZM146.6 274.2C147.187 274.2 147.734 274.06 148.24 273.78C148.76 273.5 149.18 273.08 149.5 272.52C149.82 271.96 149.98 271.28 149.98 270.48C149.98 269.68 149.827 269.007 149.52 268.46C149.214 267.9 148.807 267.48 148.3 267.2C147.794 266.92 147.247 266.78 146.66 266.78C146.074 266.78 145.527 266.92 145.02 267.2C144.527 267.48 144.134 267.9 143.84 268.46C143.547 269.007 143.4 269.68 143.4 270.48C143.4 271.667 143.7 272.587 144.3 273.24C144.914 273.88 145.68 274.2 146.6 274.2ZM156.054 266.58C156.388 266.02 156.828 265.587 157.374 265.28C157.934 264.96 158.594 264.8 159.354 264.8V267.16H158.774C157.881 267.16 157.201 267.387 156.734 267.84C156.281 268.293 156.054 269.08 156.054 270.2V276H153.774V264.98H156.054V266.58ZM159.89 270.44C159.89 269.333 160.117 268.353 160.57 267.5C161.037 266.647 161.663 265.987 162.45 265.52C163.25 265.04 164.137 264.8 165.11 264.8C165.83 264.8 166.537 264.96 167.23 265.28C167.937 265.587 168.497 266 168.91 266.52V261.2H171.21V276H168.91V274.34C168.537 274.873 168.017 275.313 167.35 275.66C166.697 276.007 165.943 276.18 165.09 276.18C164.13 276.18 163.25 275.94 162.45 275.46C161.663 274.967 161.037 274.287 160.57 273.42C160.117 272.54 159.89 271.547 159.89 270.44ZM168.91 270.48C168.91 269.72 168.75 269.06 168.43 268.5C168.123 267.94 167.717 267.513 167.21 267.22C166.703 266.927 166.157 266.78 165.57 266.78C164.983 266.78 164.437 266.927 163.93 267.22C163.423 267.5 163.01 267.92 162.69 268.48C162.383 269.027 162.23 269.68 162.23 270.44C162.23 271.2 162.383 271.867 162.69 272.44C163.01 273.013 163.423 273.453 163.93 273.76C164.45 274.053 164.997 274.2 165.57 274.2C166.157 274.2 166.703 274.053 167.21 273.76C167.717 273.467 168.123 273.04 168.43 272.48C168.75 271.907 168.91 271.24 168.91 270.48ZM174.325 276.14C173.911 276.14 173.565 276 173.285 275.72C173.005 275.44 172.865 275.093 172.865 274.68C172.865 274.267 173.005 273.92 173.285 273.64C173.565 273.36 173.911 273.22 174.325 273.22C174.725 273.22 175.065 273.36 175.345 273.64C175.625 273.92 175.765 274.267 175.765 274.68C175.765 275.093 175.625 275.44 175.345 275.72C175.065 276 174.725 276.14 174.325 276.14ZM174.325 267.74C173.911 267.74 173.565 267.6 173.285 267.32C173.005 267.04 172.865 266.693 172.865 266.28C172.865 265.867 173.005 265.52 173.285 265.24C173.565 264.96 173.911 264.82 174.325 264.82C174.725 264.82 175.065 264.96 175.345 265.24C175.625 265.52 175.765 265.867 175.765 266.28C175.765 266.693 175.625 267.04 175.345 267.32C175.065 267.6 174.725 267.74 174.325 267.74Z" fill="#D63484"/>
<path d="M118.536 483.848V485.032H113.688V488.792H117.624V489.976H113.688V495H112.232V483.848H118.536ZM123.479 495.144C122.657 495.144 121.911 494.957 121.239 494.584C120.577 494.211 120.055 493.683 119.671 493C119.297 492.307 119.111 491.507 119.111 490.6C119.111 489.704 119.303 488.915 119.687 488.232C120.081 487.539 120.615 487.011 121.287 486.648C121.959 486.275 122.711 486.088 123.543 486.088C124.375 486.088 125.127 486.275 125.799 486.648C126.471 487.011 126.999 487.533 127.383 488.216C127.777 488.899 127.975 489.693 127.975 490.6C127.975 491.507 127.772 492.307 127.367 493C126.972 493.683 126.433 494.211 125.751 494.584C125.068 494.957 124.311 495.144 123.479 495.144ZM123.479 493.864C124.001 493.864 124.492 493.741 124.951 493.496C125.409 493.251 125.777 492.883 126.055 492.392C126.343 491.901 126.487 491.304 126.487 490.6C126.487 489.896 126.348 489.299 126.071 488.808C125.793 488.317 125.431 487.955 124.983 487.72C124.535 487.475 124.049 487.352 123.527 487.352C122.993 487.352 122.503 487.475 122.055 487.72C121.617 487.955 121.265 488.317 120.999 488.808C120.732 489.299 120.599 489.896 120.599 490.6C120.599 491.315 120.727 491.917 120.983 492.408C121.249 492.899 121.601 493.267 122.039 493.512C122.476 493.747 122.956 493.864 123.479 493.864ZM130.705 487.656C130.961 487.155 131.324 486.765 131.793 486.488C132.273 486.211 132.854 486.072 133.537 486.072V487.576H133.153C131.521 487.576 130.705 488.461 130.705 490.232V495H129.249V486.232H130.705V487.656ZM138.194 486.088C138.951 486.088 139.612 486.253 140.178 486.584C140.754 486.915 141.18 487.331 141.458 487.832V486.232H142.93V495.192C142.93 495.992 142.759 496.701 142.418 497.32C142.076 497.949 141.586 498.44 140.946 498.792C140.316 499.144 139.58 499.32 138.738 499.32C137.586 499.32 136.626 499.048 135.858 498.504C135.09 497.96 134.636 497.219 134.498 496.28H135.938C136.098 496.813 136.428 497.24 136.93 497.56C137.431 497.891 138.034 498.056 138.738 498.056C139.538 498.056 140.188 497.805 140.69 497.304C141.202 496.803 141.458 496.099 141.458 495.192V493.352C141.17 493.864 140.743 494.291 140.178 494.632C139.612 494.973 138.951 495.144 138.194 495.144C137.415 495.144 136.706 494.952 136.066 494.568C135.436 494.184 134.94 493.645 134.578 492.952C134.215 492.259 134.034 491.469 134.034 490.584C134.034 489.688 134.215 488.904 134.578 488.232C134.94 487.549 135.436 487.021 136.066 486.648C136.706 486.275 137.415 486.088 138.194 486.088ZM141.458 490.6C141.458 489.939 141.324 489.363 141.058 488.872C140.791 488.381 140.428 488.008 139.97 487.752C139.522 487.485 139.026 487.352 138.482 487.352C137.938 487.352 137.442 487.48 136.994 487.736C136.546 487.992 136.188 488.365 135.922 488.856C135.655 489.347 135.522 489.923 135.522 490.584C135.522 491.256 135.655 491.843 135.922 492.344C136.188 492.835 136.546 493.213 136.994 493.48C137.442 493.736 137.938 493.864 138.482 493.864C139.026 493.864 139.522 493.736 139.97 493.48C140.428 493.213 140.791 492.835 141.058 492.344C141.324 491.843 141.458 491.261 141.458 490.6ZM148.574 495.144C147.753 495.144 147.006 494.957 146.334 494.584C145.673 494.211 145.15 493.683 144.766 493C144.393 492.307 144.206 491.507 144.206 490.6C144.206 489.704 144.398 488.915 144.782 488.232C145.177 487.539 145.71 487.011 146.382 486.648C147.054 486.275 147.806 486.088 148.638 486.088C149.47 486.088 150.222 486.275 150.894 486.648C151.566 487.011 152.094 487.533 152.478 488.216C152.873 488.899 153.07 489.693 153.07 490.6C153.07 491.507 152.867 492.307 152.462 493C152.067 493.683 151.529 494.211 150.846 494.584C150.163 494.957 149.406 495.144 148.574 495.144ZM148.574 493.864C149.097 493.864 149.587 493.741 150.046 493.496C150.505 493.251 150.873 492.883 151.15 492.392C151.438 491.901 151.582 491.304 151.582 490.6C151.582 489.896 151.443 489.299 151.166 488.808C150.889 488.317 150.526 487.955 150.078 487.72C149.63 487.475 149.145 487.352 148.622 487.352C148.089 487.352 147.598 487.475 147.15 487.72C146.713 487.955 146.361 488.317 146.094 488.808C145.827 489.299 145.694 489.896 145.694 490.6C145.694 491.315 145.822 491.917 146.078 492.408C146.345 492.899 146.697 493.267 147.134 493.512C147.571 493.747 148.051 493.864 148.574 493.864ZM156.12 487.432V492.6C156.12 493.027 156.211 493.331 156.392 493.512C156.574 493.683 156.888 493.768 157.336 493.768H158.408V495H157.096C156.286 495 155.678 494.813 155.272 494.44C154.867 494.067 154.664 493.453 154.664 492.6V487.432H153.528V486.232H154.664V484.024H156.12V486.232H158.408V487.432H156.12ZM170.71 486.232L165.43 499.128H163.926L165.654 494.904L162.118 486.232H163.734L166.486 493.336L169.206 486.232H170.71ZM175.358 495.144C174.537 495.144 173.79 494.957 173.118 494.584C172.457 494.211 171.934 493.683 171.55 493C171.177 492.307 170.99 491.507 170.99 490.6C170.99 489.704 171.182 488.915 171.566 488.232C171.961 487.539 172.494 487.011 173.166 486.648C173.838 486.275 174.59 486.088 175.422 486.088C176.254 486.088 177.006 486.275 177.678 486.648C178.35 487.011 178.878 487.533 179.262 488.216C179.657 488.899 179.854 489.693 179.854 490.6C179.854 491.507 179.651 492.307 179.246 493C178.851 493.683 178.313 494.211 177.63 494.584C176.947 494.957 176.19 495.144 175.358 495.144ZM175.358 493.864C175.881 493.864 176.371 493.741 176.83 493.496C177.289 493.251 177.657 492.883 177.934 492.392C178.222 491.901 178.366 491.304 178.366 490.6C178.366 489.896 178.227 489.299 177.95 488.808C177.673 488.317 177.31 487.955 176.862 487.72C176.414 487.475 175.929 487.352 175.406 487.352C174.873 487.352 174.382 487.475 173.934 487.72C173.497 487.955 173.145 488.317 172.878 488.808C172.611 489.299 172.478 489.896 172.478 490.6C172.478 491.315 172.606 491.917 172.862 492.408C173.129 492.899 173.481 493.267 173.918 493.512C174.355 493.747 174.835 493.864 175.358 493.864ZM188.904 486.232V495H187.448V493.704C187.171 494.152 186.782 494.504 186.28 494.76C185.79 495.005 185.246 495.128 184.648 495.128C183.966 495.128 183.352 494.989 182.808 494.712C182.264 494.424 181.832 493.997 181.512 493.432C181.203 492.867 181.048 492.179 181.048 491.368V486.232H182.488V491.176C182.488 492.04 182.707 492.707 183.144 493.176C183.582 493.635 184.179 493.864 184.936 493.864C185.715 493.864 186.328 493.624 186.776 493.144C187.224 492.664 187.448 491.965 187.448 491.048V486.232H188.904ZM192.179 487.656C192.435 487.155 192.797 486.765 193.267 486.488C193.747 486.211 194.328 486.072 195.011 486.072V487.576H194.627C192.995 487.576 192.179 488.461 192.179 490.232V495H190.723V486.232H192.179V487.656ZM201.133 487.848C201.421 487.347 201.848 486.931 202.413 486.6C202.989 486.259 203.656 486.088 204.413 486.088C205.192 486.088 205.896 486.275 206.525 486.648C207.165 487.021 207.666 487.549 208.029 488.232C208.392 488.904 208.573 489.688 208.573 490.584C208.573 491.469 208.392 492.259 208.029 492.952C207.666 493.645 207.165 494.184 206.525 494.568C205.896 494.952 205.192 495.144 204.413 495.144C203.666 495.144 203.005 494.979 202.429 494.648C201.864 494.307 201.432 493.885 201.133 493.384V499.16H199.677V486.232H201.133V487.848ZM207.085 490.584C207.085 489.923 206.952 489.347 206.685 488.856C206.418 488.365 206.056 487.992 205.597 487.736C205.149 487.48 204.653 487.352 204.109 487.352C203.576 487.352 203.08 487.485 202.621 487.752C202.173 488.008 201.81 488.387 201.533 488.888C201.266 489.379 201.133 489.949 201.133 490.6C201.133 491.261 201.266 491.843 201.533 492.344C201.81 492.835 202.173 493.213 202.621 493.48C203.08 493.736 203.576 493.864 204.109 493.864C204.653 493.864 205.149 493.736 205.597 493.48C206.056 493.213 206.418 492.835 206.685 492.344C206.952 491.843 207.085 491.256 207.085 490.584ZM209.306 490.584C209.306 489.688 209.487 488.904 209.85 488.232C210.212 487.549 210.708 487.021 211.338 486.648C211.978 486.275 212.687 486.088 213.466 486.088C214.234 486.088 214.9 486.253 215.466 486.584C216.031 486.915 216.452 487.331 216.73 487.832V486.232H218.202V495H216.73V493.368C216.442 493.88 216.01 494.307 215.434 494.648C214.868 494.979 214.207 495.144 213.45 495.144C212.671 495.144 211.967 494.952 211.338 494.568C210.708 494.184 210.212 493.645 209.85 492.952C209.487 492.259 209.306 491.469 209.306 490.584ZM216.73 490.6C216.73 489.939 216.596 489.363 216.33 488.872C216.063 488.381 215.7 488.008 215.242 487.752C214.794 487.485 214.298 487.352 213.754 487.352C213.21 487.352 212.714 487.48 212.266 487.736C211.818 487.992 211.46 488.365 211.194 488.856C210.927 489.347 210.794 489.923 210.794 490.584C210.794 491.256 210.927 491.843 211.194 492.344C211.46 492.835 211.818 493.213 212.266 493.48C212.714 493.736 213.21 493.864 213.754 493.864C214.298 493.864 214.794 493.736 215.242 493.48C215.7 493.213 216.063 492.835 216.33 492.344C216.596 491.843 216.73 491.261 216.73 490.6ZM223.126 495.144C222.454 495.144 221.851 495.032 221.318 494.808C220.785 494.573 220.363 494.253 220.054 493.848C219.745 493.432 219.574 492.957 219.542 492.424H221.046C221.089 492.861 221.291 493.219 221.654 493.496C222.027 493.773 222.513 493.912 223.11 493.912C223.665 493.912 224.102 493.789 224.422 493.544C224.742 493.299 224.902 492.989 224.902 492.616C224.902 492.232 224.731 491.949 224.39 491.768C224.049 491.576 223.521 491.389 222.806 491.208C222.155 491.037 221.622 490.867 221.206 490.696C220.801 490.515 220.449 490.253 220.15 489.912C219.862 489.56 219.718 489.101 219.718 488.536C219.718 488.088 219.851 487.677 220.118 487.304C220.385 486.931 220.763 486.637 221.254 486.424C221.745 486.2 222.305 486.088 222.934 486.088C223.905 486.088 224.689 486.333 225.286 486.824C225.883 487.315 226.203 487.987 226.246 488.84H224.79C224.758 488.381 224.571 488.013 224.23 487.736C223.899 487.459 223.451 487.32 222.886 487.32C222.363 487.32 221.947 487.432 221.638 487.656C221.329 487.88 221.174 488.173 221.174 488.536C221.174 488.824 221.265 489.064 221.446 489.256C221.638 489.437 221.873 489.587 222.15 489.704C222.438 489.811 222.833 489.933 223.334 490.072C223.963 490.243 224.475 490.413 224.87 490.584C225.265 490.744 225.601 490.989 225.878 491.32C226.166 491.651 226.315 492.083 226.326 492.616C226.326 493.096 226.193 493.528 225.926 493.912C225.659 494.296 225.281 494.6 224.79 494.824C224.31 495.037 223.755 495.144 223.126 495.144ZM230.845 495.144C230.173 495.144 229.571 495.032 229.037 494.808C228.504 494.573 228.083 494.253 227.773 493.848C227.464 493.432 227.293 492.957 227.261 492.424H228.765C228.808 492.861 229.011 493.219 229.373 493.496C229.747 493.773 230.232 493.912 230.829 493.912C231.384 493.912 231.821 493.789 232.141 493.544C232.461 493.299 232.621 492.989 232.621 492.616C232.621 492.232 232.451 491.949 232.109 491.768C231.768 491.576 231.24 491.389 230.525 491.208C229.875 491.037 229.341 490.867 228.925 490.696C228.52 490.515 228.168 490.253 227.869 489.912C227.581 489.56 227.437 489.101 227.437 488.536C227.437 488.088 227.571 487.677 227.837 487.304C228.104 486.931 228.483 486.637 228.973 486.424C229.464 486.2 230.024 486.088 230.653 486.088C231.624 486.088 232.408 486.333 233.005 486.824C233.603 487.315 233.923 487.987 233.965 488.84H232.509C232.477 488.381 232.291 488.013 231.949 487.736C231.619 487.459 231.171 487.32 230.605 487.32C230.083 487.32 229.667 487.432 229.357 487.656C229.048 487.88 228.893 488.173 228.893 488.536C228.893 488.824 228.984 489.064 229.165 489.256C229.357 489.437 229.592 489.587 229.869 489.704C230.157 489.811 230.552 489.933 231.053 490.072C231.683 490.243 232.195 490.413 232.589 490.584C232.984 490.744 233.32 490.989 233.597 491.32C233.885 491.651 234.035 492.083 234.045 492.616C234.045 493.096 233.912 493.528 233.645 493.912C233.379 494.296 233 494.6 232.509 494.824C232.029 495.037 231.475 495.144 230.845 495.144ZM247.141 486.232L244.405 495H242.901L240.789 488.04L238.677 495H237.173L234.421 486.232H235.909L237.925 493.592L240.101 486.232H241.589L243.717 493.608L245.701 486.232H247.141ZM251.77 495.144C250.948 495.144 250.202 494.957 249.53 494.584C248.868 494.211 248.346 493.683 247.962 493C247.588 492.307 247.402 491.507 247.402 490.6C247.402 489.704 247.594 488.915 247.978 488.232C248.372 487.539 248.906 487.011 249.578 486.648C250.25 486.275 251.002 486.088 251.834 486.088C252.666 486.088 253.418 486.275 254.09 486.648C254.762 487.011 255.29 487.533 255.674 488.216C256.068 488.899 256.266 489.693 256.266 490.6C256.266 491.507 256.063 492.307 255.658 493C255.263 493.683 254.724 494.211 254.042 494.584C253.359 494.957 252.602 495.144 251.77 495.144ZM251.77 493.864C252.292 493.864 252.783 493.741 253.242 493.496C253.7 493.251 254.068 492.883 254.346 492.392C254.634 491.901 254.778 491.304 254.778 490.6C254.778 489.896 254.639 489.299 254.362 488.808C254.084 488.317 253.722 487.955 253.274 487.72C252.826 487.475 252.34 487.352 251.818 487.352C251.284 487.352 250.794 487.475 250.346 487.72C249.908 487.955 249.556 488.317 249.29 488.808C249.023 489.299 248.89 489.896 248.89 490.6C248.89 491.315 249.018 491.917 249.274 492.408C249.54 492.899 249.892 493.267 250.33 493.512C250.767 493.747 251.247 493.864 251.77 493.864ZM258.996 487.656C259.252 487.155 259.615 486.765 260.084 486.488C260.564 486.211 261.145 486.072 261.828 486.072V487.576H261.444C259.812 487.576 258.996 488.461 258.996 490.232V495H257.54V486.232H258.996V487.656ZM262.325 490.584C262.325 489.688 262.506 488.904 262.869 488.232C263.232 487.549 263.728 487.021 264.357 486.648C264.997 486.275 265.712 486.088 266.501 486.088C267.184 486.088 267.818 486.248 268.405 486.568C268.992 486.877 269.44 487.288 269.749 487.8V483.16H271.221V495H269.749V493.352C269.461 493.875 269.034 494.307 268.469 494.648C267.904 494.979 267.242 495.144 266.485 495.144C265.706 495.144 264.997 494.952 264.357 494.568C263.728 494.184 263.232 493.645 262.869 492.952C262.506 492.259 262.325 491.469 262.325 490.584ZM269.749 490.6C269.749 489.939 269.616 489.363 269.349 488.872C269.082 488.381 268.72 488.008 268.261 487.752C267.813 487.485 267.317 487.352 266.773 487.352C266.229 487.352 265.733 487.48 265.285 487.736C264.837 487.992 264.48 488.365 264.213 488.856C263.946 489.347 263.813 489.923 263.813 490.584C263.813 491.256 263.946 491.843 264.213 492.344C264.48 492.835 264.837 493.213 265.285 493.48C265.733 493.736 266.229 493.864 266.773 493.864C267.317 493.864 267.813 493.736 268.261 493.48C268.72 493.213 269.082 492.835 269.349 492.344C269.616 491.843 269.749 491.261 269.749 490.6ZM275.889 483.704C276.945 483.704 277.799 484.003 278.449 484.6C279.1 485.197 279.425 485.997 279.425 487C279.425 488.12 279.079 488.952 278.385 489.496C277.692 490.029 276.753 490.296 275.569 490.296L275.521 491.816H274.257L274.193 489.288H274.657C275.713 489.288 276.54 489.128 277.137 488.808C277.735 488.488 278.033 487.885 278.033 487C278.033 486.36 277.841 485.853 277.457 485.48C277.073 485.107 276.556 484.92 275.905 484.92C275.244 484.92 274.721 485.101 274.337 485.464C273.964 485.816 273.777 486.301 273.777 486.92H272.401C272.401 486.28 272.545 485.72 272.833 485.24C273.121 484.749 273.527 484.371 274.049 484.104C274.583 483.837 275.196 483.704 275.889 483.704ZM274.881 495.096C274.604 495.096 274.369 495 274.177 494.808C273.985 494.616 273.889 494.381 273.889 494.104C273.889 493.827 273.985 493.592 274.177 493.4C274.369 493.208 274.604 493.112 274.881 493.112C275.148 493.112 275.372 493.208 275.553 493.4C275.745 493.592 275.841 493.827 275.841 494.104C275.841 494.381 275.745 494.616 275.553 494.808C275.372 495 275.148 495.096 274.881 495.096Z" fill="#C4E4FF"/>
<path d="M111 496.6H280.193V497.4H111V496.6Z" fill="#C4E4FF"/>
<rect x="52.5" y="287.5" width="297" height="57" rx="28.5" fill="#C4E4FF" stroke="#D895DA" stroke-width="3"/>
<path d="M82.16 189.318C81.908 189.318 81.692 189.228 81.512 189.048C81.332 188.868 81.242 188.646 81.242 188.382C81.242 188.118 81.332 187.902 81.512 187.734C81.692 187.554 81.908 187.464 82.16 187.464C82.412 187.464 82.622 187.554 82.79 187.734C82.97 187.902 83.06 188.118 83.06 188.382C83.06 188.646 82.97 188.868 82.79 189.048C82.622 189.228 82.412 189.318 82.16 189.318ZM82.772 203.322C82.772 204.114 82.574 204.696 82.178 205.068C81.782 205.452 81.188 205.644 80.396 205.644H79.514V204.564H80.198C80.666 204.564 81.002 204.462 81.206 204.258C81.41 204.066 81.512 203.736 81.512 203.268V191.172H82.772V203.322ZM89.2408 201.144C88.3168 201.144 87.4828 200.94 86.7388 200.532C86.0068 200.112 85.4248 199.524 84.9928 198.768C84.5728 198 84.3627 197.106 84.3627 196.086C84.3627 195.066 84.5788 194.178 85.0108 193.422C85.4428 192.654 86.0308 192.066 86.7748 191.658C87.5188 191.238 88.3528 191.028 89.2768 191.028C90.2008 191.028 91.0348 191.238 91.7788 191.658C92.5348 192.066 93.1228 192.654 93.5428 193.422C93.9748 194.178 94.1908 195.066 94.1908 196.086C94.1908 197.094 93.9748 197.982 93.5428 198.75C93.1108 199.518 92.5168 200.112 91.7608 200.532C91.0048 200.94 90.1648 201.144 89.2408 201.144ZM89.2408 200.046C89.8888 200.046 90.4888 199.902 91.0408 199.614C91.5928 199.314 92.0368 198.87 92.3728 198.282C92.7208 197.682 92.8948 196.95 92.8948 196.086C92.8948 195.222 92.7268 194.496 92.3908 193.908C92.0548 193.308 91.6108 192.864 91.0588 192.576C90.5068 192.276 89.9068 192.126 89.2588 192.126C88.6108 192.126 88.0108 192.276 87.4588 192.576C86.9068 192.864 86.4628 193.308 86.1268 193.908C85.8028 194.496 85.6408 195.222 85.6408 196.086C85.6408 196.95 85.8028 197.682 86.1268 198.282C86.4628 198.87 86.9008 199.314 87.4408 199.614C87.9928 199.902 88.5928 200.046 89.2408 200.046ZM100.448 190.992C101.192 190.992 101.858 191.148 102.446 191.46C103.046 191.772 103.514 192.252 103.85 192.9C104.198 193.536 104.372 194.316 104.372 195.24V201H103.13V195.384C103.13 194.316 102.86 193.5 102.32 192.936C101.792 192.372 101.066 192.09 100.142 192.09C99.1936 192.09 98.4376 192.39 97.8736 192.99C97.3096 193.59 97.0276 194.472 97.0276 195.636V201H95.7676V187.68H97.0276V192.846C97.3396 192.258 97.7956 191.802 98.3956 191.478C99.0076 191.154 99.6916 190.992 100.448 190.992ZM111.046 190.992C112.222 190.992 113.182 191.358 113.926 192.09C114.67 192.81 115.042 193.86 115.042 195.24V201H113.8V195.384C113.8 194.316 113.53 193.5 112.99 192.936C112.462 192.372 111.736 192.09 110.812 192.09C109.864 192.09 109.108 192.39 108.544 192.99C107.98 193.59 107.698 194.472 107.698 195.636V201H106.438V191.172H107.698V192.846C108.01 192.246 108.46 191.79 109.048 191.478C109.636 191.154 110.302 190.992 111.046 190.992ZM130.069 191.172L126.991 201H125.731L123.013 192.756L120.295 201H119.017L115.939 191.172H117.217L119.665 199.722L122.419 191.172H123.679L126.397 199.74L128.827 191.172H130.069ZM131.697 189.318C131.445 189.318 131.229 189.228 131.049 189.048C130.869 188.868 130.779 188.646 130.779 188.382C130.779 188.118 130.869 187.902 131.049 187.734C131.229 187.554 131.445 187.464 131.697 187.464C131.949 187.464 132.165 187.554 132.345 187.734C132.525 187.902 132.615 188.118 132.615 188.382C132.615 188.646 132.525 188.868 132.345 189.048C132.165 189.228 131.949 189.318 131.697 189.318ZM132.327 191.172V201H131.067V191.172H132.327ZM133.884 196.086C133.884 195.066 134.088 194.178 134.496 193.422C134.904 192.654 135.468 192.066 136.188 191.658C136.908 191.238 137.73 191.028 138.654 191.028C139.866 191.028 140.862 191.328 141.642 191.928C142.434 192.528 142.944 193.344 143.172 194.376H141.822C141.654 193.668 141.288 193.116 140.724 192.72C140.172 192.312 139.482 192.108 138.654 192.108C137.994 192.108 137.4 192.258 136.872 192.558C136.344 192.858 135.924 193.308 135.612 193.908C135.312 194.496 135.162 195.222 135.162 196.086C135.162 196.95 135.312 197.682 135.612 198.282C135.924 198.882 136.344 199.332 136.872 199.632C137.4 199.932 137.994 200.082 138.654 200.082C139.482 200.082 140.172 199.884 140.724 199.488C141.288 199.08 141.654 198.516 141.822 197.796H143.172C142.944 198.804 142.434 199.614 141.642 200.226C140.85 200.838 139.854 201.144 138.654 201.144C137.73 201.144 136.908 200.94 136.188 200.532C135.468 200.112 134.904 199.524 134.496 198.768C134.088 198 133.884 197.106 133.884 196.086ZM150.089 201L146.039 196.59V201H144.779V187.68H146.039V195.564L149.999 191.172H151.763L147.101 196.068L151.799 201H150.089ZM161.473 189.552C162.769 189.552 163.909 189.804 164.893 190.308C165.877 190.812 166.633 191.52 167.161 192.432C167.689 193.332 167.953 194.37 167.953 195.546C167.953 196.482 167.803 197.376 167.503 198.228C167.203 199.08 166.771 199.776 166.207 200.316C165.643 200.844 164.983 201.108 164.227 201.108C163.639 201.108 163.189 200.952 162.877 200.64C162.577 200.316 162.415 199.878 162.391 199.326C162.019 199.878 161.545 200.316 160.969 200.64C160.393 200.952 159.781 201.108 159.133 201.108C158.221 201.108 157.507 200.832 156.991 200.28C156.487 199.728 156.235 198.978 156.235 198.03C156.235 197.142 156.421 196.314 156.793 195.546C157.165 194.766 157.681 194.142 158.341 193.674C159.001 193.206 159.751 192.972 160.591 192.972C161.191 192.972 161.695 193.104 162.103 193.368C162.523 193.632 162.823 194.016 163.003 194.52L163.237 193.188H164.335L163.417 198.426C163.381 198.642 163.363 198.84 163.363 199.02C163.363 199.824 163.711 200.226 164.407 200.226C164.923 200.226 165.367 199.992 165.739 199.524C166.123 199.056 166.411 198.468 166.603 197.76C166.807 197.04 166.909 196.326 166.909 195.618C166.909 194.562 166.681 193.65 166.225 192.882C165.781 192.102 165.139 191.508 164.299 191.1C163.459 190.68 162.463 190.47 161.311 190.47C159.871 190.47 158.569 190.824 157.405 191.532C156.241 192.24 155.329 193.2 154.669 194.412C154.009 195.624 153.679 196.962 153.679 198.426C153.667 200.058 154.159 201.324 155.155 202.224C156.151 203.136 157.513 203.592 159.241 203.592C160.333 203.592 161.323 203.388 162.211 202.98L162.409 203.862C161.353 204.294 160.207 204.51 158.971 204.51C157.711 204.51 156.601 204.264 155.641 203.772C154.681 203.292 153.937 202.602 153.409 201.702C152.881 200.802 152.617 199.752 152.617 198.552C152.617 196.884 152.995 195.366 153.751 193.998C154.519 192.618 155.575 191.532 156.919 190.74C158.275 189.948 159.793 189.552 161.473 189.552ZM159.493 200.118C160.033 200.118 160.531 199.974 160.987 199.686C161.443 199.398 161.815 198.996 162.103 198.48C162.403 197.964 162.589 197.376 162.661 196.716C162.685 196.5 162.697 196.344 162.697 196.248C162.697 195.576 162.511 195.03 162.139 194.61C161.779 194.178 161.263 193.962 160.591 193.962C159.955 193.962 159.397 194.148 158.917 194.52C158.437 194.892 158.065 195.378 157.801 195.978C157.537 196.566 157.405 197.19 157.405 197.85C157.405 198.546 157.585 199.098 157.945 199.506C158.305 199.914 158.821 200.118 159.493 200.118ZM174.144 191.028C175.068 191.028 175.872 191.244 176.556 191.676C177.24 192.108 177.732 192.654 178.032 193.314V191.172H179.292V201.252C179.292 202.152 179.094 202.95 178.698 203.646C178.314 204.342 177.774 204.876 177.078 205.248C176.382 205.632 175.59 205.824 174.702 205.824C173.442 205.824 172.392 205.524 171.552 204.924C170.724 204.324 170.208 203.508 170.004 202.476H171.246C171.462 203.16 171.87 203.706 172.47 204.114C173.082 204.522 173.826 204.726 174.702 204.726C175.338 204.726 175.908 204.588 176.412 204.312C176.916 204.048 177.312 203.652 177.6 203.124C177.888 202.596 178.032 201.972 178.032 201.252V198.822C177.72 199.494 177.222 200.052 176.538 200.496C175.866 200.928 175.068 201.144 174.144 201.144C173.244 201.144 172.434 200.934 171.714 200.514C171.006 200.094 170.448 199.5 170.04 198.732C169.644 197.964 169.446 197.076 169.446 196.068C169.446 195.06 169.644 194.178 170.04 193.422C170.448 192.654 171.006 192.066 171.714 191.658C172.434 191.238 173.244 191.028 174.144 191.028ZM178.032 196.086C178.032 195.294 177.87 194.598 177.546 193.998C177.222 193.398 176.778 192.936 176.214 192.612C175.662 192.288 175.05 192.126 174.378 192.126C173.682 192.126 173.058 192.282 172.506 192.594C171.954 192.906 171.516 193.362 171.192 193.962C170.88 194.55 170.724 195.252 170.724 196.068C170.724 196.872 170.88 197.58 171.192 198.192C171.516 198.792 171.954 199.254 172.506 199.578C173.058 199.89 173.682 200.046 174.378 200.046C175.05 200.046 175.662 199.884 176.214 199.56C176.778 199.236 177.222 198.774 177.546 198.174C177.87 197.574 178.032 196.878 178.032 196.086ZM193.149 190.992C194.301 190.992 195.237 191.358 195.957 192.09C196.689 192.81 197.055 193.86 197.055 195.24V201H195.813V195.384C195.813 194.316 195.555 193.5 195.039 192.936C194.523 192.372 193.821 192.09 192.933 192.09C192.009 192.09 191.271 192.396 190.719 193.008C190.167 193.62 189.891 194.508 189.891 195.672V201H188.649V195.384C188.649 194.316 188.391 193.5 187.875 192.936C187.359 192.372 186.651 192.09 185.751 192.09C184.827 192.09 184.089 192.396 183.537 193.008C182.985 193.62 182.709 194.508 182.709 195.672V201H181.449V191.172H182.709V192.864C183.021 192.252 183.465 191.79 184.041 191.478C184.617 191.154 185.259 190.992 185.967 190.992C186.819 190.992 187.563 191.196 188.199 191.604C188.847 192.012 189.315 192.612 189.603 193.404C189.867 192.624 190.317 192.03 190.953 191.622C191.601 191.202 192.333 190.992 193.149 190.992ZM198.557 196.068C198.557 195.06 198.755 194.178 199.151 193.422C199.559 192.654 200.117 192.066 200.825 191.658C201.545 191.238 202.355 191.028 203.255 191.028C204.191 191.028 204.995 191.244 205.667 191.676C206.351 192.108 206.843 192.66 207.143 193.332V191.172H208.403V201H207.143V198.822C206.831 199.494 206.333 200.052 205.649 200.496C204.977 200.928 204.173 201.144 203.237 201.144C202.349 201.144 201.545 200.934 200.825 200.514C200.117 200.094 199.559 199.5 199.151 198.732C198.755 197.964 198.557 197.076 198.557 196.068ZM207.143 196.086C207.143 195.294 206.981 194.598 206.657 193.998C206.333 193.398 205.889 192.936 205.325 192.612C204.773 192.288 204.161 192.126 203.489 192.126C202.793 192.126 202.169 192.282 201.617 192.594C201.065 192.906 200.627 193.362 200.303 193.962C199.991 194.55 199.835 195.252 199.835 196.068C199.835 196.872 199.991 197.58 200.303 198.192C200.627 198.792 201.065 199.254 201.617 199.578C202.169 199.89 202.793 200.046 203.489 200.046C204.161 200.046 204.773 199.884 205.325 199.56C205.889 199.236 206.333 198.774 206.657 198.174C206.981 197.574 207.143 196.878 207.143 196.086ZM211.19 189.318C210.938 189.318 210.722 189.228 210.542 189.048C210.362 188.868 210.272 188.646 210.272 188.382C210.272 188.118 210.362 187.902 210.542 187.734C210.722 187.554 210.938 187.464 211.19 187.464C211.442 187.464 211.658 187.554 211.838 187.734C212.018 187.902 212.108 188.118 212.108 188.382C212.108 188.646 212.018 188.868 211.838 189.048C211.658 189.228 211.442 189.318 211.19 189.318ZM211.82 191.172V201H210.56V191.172H211.82ZM215.213 187.68V201H213.953V187.68H215.213ZM217.562 201.09C217.298 201.09 217.076 201 216.896 200.82C216.728 200.64 216.644 200.418 216.644 200.154C216.644 199.89 216.728 199.674 216.896 199.506C217.076 199.326 217.298 199.236 217.562 199.236C217.814 199.236 218.024 199.326 218.192 199.506C218.372 199.674 218.462 199.89 218.462 200.154C218.462 200.418 218.372 200.64 218.192 200.82C218.024 201 217.814 201.09 217.562 201.09ZM219.32 196.086C219.32 195.066 219.524 194.178 219.932 193.422C220.34 192.654 220.904 192.066 221.624 191.658C222.344 191.238 223.166 191.028 224.09 191.028C225.302 191.028 226.298 191.328 227.078 191.928C227.87 192.528 228.38 193.344 228.608 194.376H227.258C227.09 193.668 226.724 193.116 226.16 192.72C225.608 192.312 224.918 192.108 224.09 192.108C223.43 192.108 222.836 192.258 222.308 192.558C221.78 192.858 221.36 193.308 221.048 193.908C220.748 194.496 220.598 195.222 220.598 196.086C220.598 196.95 220.748 197.682 221.048 198.282C221.36 198.882 221.78 199.332 222.308 199.632C222.836 199.932 223.43 200.082 224.09 200.082C224.918 200.082 225.608 199.884 226.16 199.488C226.724 199.08 227.09 198.516 227.258 197.796H228.608C228.38 198.804 227.87 199.614 227.078 200.226C226.286 200.838 225.29 201.144 224.09 201.144C223.166 201.144 222.344 200.94 221.624 200.532C220.904 200.112 220.34 199.524 219.932 198.768C219.524 198 219.32 197.106 219.32 196.086ZM234.517 201.144C233.593 201.144 232.759 200.94 232.015 200.532C231.283 200.112 230.701 199.524 230.269 198.768C229.849 198 229.639 197.106 229.639 196.086C229.639 195.066 229.855 194.178 230.287 193.422C230.719 192.654 231.307 192.066 232.051 191.658C232.795 191.238 233.629 191.028 234.553 191.028C235.477 191.028 236.311 191.238 237.055 191.658C237.811 192.066 238.399 192.654 238.819 193.422C239.251 194.178 239.467 195.066 239.467 196.086C239.467 197.094 239.251 197.982 238.819 198.75C238.387 199.518 237.793 200.112 237.037 200.532C236.281 200.94 235.441 201.144 234.517 201.144ZM234.517 200.046C235.165 200.046 235.765 199.902 236.317 199.614C236.869 199.314 237.313 198.87 237.649 198.282C237.997 197.682 238.171 196.95 238.171 196.086C238.171 195.222 238.003 194.496 237.667 193.908C237.331 193.308 236.887 192.864 236.335 192.576C235.783 192.276 235.183 192.126 234.535 192.126C233.887 192.126 233.287 192.276 232.735 192.576C232.183 192.864 231.739 193.308 231.403 193.908C231.079 194.496 230.917 195.222 230.917 196.086C230.917 196.95 231.079 197.682 231.403 198.282C231.739 198.87 232.177 199.314 232.717 199.614C233.269 199.902 233.869 200.046 234.517 200.046ZM252.744 190.992C253.896 190.992 254.832 191.358 255.552 192.09C256.284 192.81 256.65 193.86 256.65 195.24V201H255.408V195.384C255.408 194.316 255.15 193.5 254.634 192.936C254.118 192.372 253.416 192.09 252.528 192.09C251.604 192.09 250.866 192.396 250.314 193.008C249.762 193.62 249.486 194.508 249.486 195.672V201H248.244V195.384C248.244 194.316 247.986 193.5 247.47 192.936C246.954 192.372 246.246 192.09 245.346 192.09C244.422 192.09 243.684 192.396 243.132 193.008C242.58 193.62 242.304 194.508 242.304 195.672V201H241.044V191.172H242.304V192.864C242.616 192.252 243.06 191.79 243.636 191.478C244.212 191.154 244.854 190.992 245.562 190.992C246.414 190.992 247.158 191.196 247.794 191.604C248.442 192.012 248.91 192.612 249.198 193.404C249.462 192.624 249.912 192.03 250.548 191.622C251.196 191.202 251.928 190.992 252.744 190.992Z" fill="#402B3A" fill-opacity="0.65"/>
<path d="M87.876 314.084L88.38 315.002L85.842 316.154L88.398 317.306L87.876 318.242L85.554 316.694L85.77 319.52H84.726L84.924 316.694L82.602 318.26L82.062 317.306L84.618 316.154L82.08 315.02L82.602 314.084L84.942 315.65L84.726 312.824H85.788L85.554 315.65L87.876 314.084ZM95.5935 314.084L96.0975 315.002L93.5595 316.154L96.1155 317.306L95.5935 318.242L93.2715 316.694L93.4875 319.52H92.4435L92.6415 316.694L90.3195 318.26L89.7795 317.306L92.3355 316.154L89.7975 315.02L90.3195 314.084L92.6595 315.65L92.4435 312.824H93.5055L93.2715 315.65L95.5935 314.084ZM103.311 314.084L103.815 315.002L101.277 316.154L103.833 317.306L103.311 318.242L100.989 316.694L101.205 319.52H100.161L100.359 316.694L98.037 318.26L97.497 317.306L100.053 316.154L97.515 315.02L98.037 314.084L100.377 315.65L100.161 312.824H101.223L100.989 315.65L103.311 314.084ZM111.029 314.084L111.533 315.002L108.995 316.154L111.551 317.306L111.029 318.242L108.707 316.694L108.923 319.52H107.879L108.077 316.694L105.755 318.26L105.215 317.306L107.771 316.154L105.233 315.02L105.755 314.084L108.095 315.65L107.879 312.824H108.941L108.707 315.65L111.029 314.084ZM118.746 314.084L119.25 315.002L116.712 316.154L119.268 317.306L118.746 318.242L116.424 316.694L116.64 319.52H115.596L115.794 316.694L113.472 318.26L112.932 317.306L115.488 316.154L112.95 315.02L113.472 314.084L115.812 315.65L115.596 312.824H116.658L116.424 315.65L118.746 314.084ZM126.464 314.084L126.968 315.002L124.43 316.154L126.986 317.306L126.464 318.242L124.142 316.694L124.358 319.52H123.314L123.512 316.694L121.19 318.26L120.65 317.306L123.206 316.154L120.668 315.02L121.19 314.084L123.53 315.65L123.314 312.824H124.376L124.142 315.65L126.464 314.084ZM134.181 314.084L134.685 315.002L132.147 316.154L134.703 317.306L134.181 318.242L131.859 316.694L132.075 319.52H131.031L131.229 316.694L128.907 318.26L128.367 317.306L130.923 316.154L128.385 315.02L128.907 314.084L131.247 315.65L131.031 312.824H132.093L131.859 315.65L134.181 314.084ZM141.898 314.084L142.402 315.002L139.864 316.154L142.42 317.306L141.898 318.242L139.576 316.694L139.792 319.52H138.748L138.946 316.694L136.624 318.26L136.084 317.306L138.64 316.154L136.102 315.02L136.624 314.084L138.964 315.65L138.748 312.824H139.81L139.576 315.65L141.898 314.084ZM149.616 314.084L150.12 315.002L147.582 316.154L150.138 317.306L149.616 318.242L147.294 316.694L147.51 319.52H146.466L146.664 316.694L144.342 318.26L143.802 317.306L146.358 316.154L143.82 315.02L144.342 314.084L146.682 315.65L146.466 312.824H147.528L147.294 315.65L149.616 314.084ZM157.333 314.084L157.837 315.002L155.299 316.154L157.855 317.306L157.333 318.242L155.011 316.694L155.227 319.52H154.183L154.381 316.694L152.059 318.26L151.519 317.306L154.075 316.154L151.537 315.02L152.059 314.084L154.399 315.65L154.183 312.824H155.245L155.011 315.65L157.333 314.084ZM165.051 314.084L165.555 315.002L163.017 316.154L165.573 317.306L165.051 318.242L162.729 316.694L162.945 319.52H161.901L162.099 316.694L159.777 318.26L159.237 317.306L161.793 316.154L159.255 315.02L159.777 314.084L162.117 315.65L161.901 312.824H162.963L162.729 315.65L165.051 314.084ZM172.769 314.084L173.273 315.002L170.735 316.154L173.291 317.306L172.769 318.242L170.447 316.694L170.663 319.52H169.619L169.817 316.694L167.495 318.26L166.955 317.306L169.511 316.154L166.973 315.02L167.495 314.084L169.835 315.65L169.619 312.824H170.681L170.447 315.65L172.769 314.084ZM180.486 314.084L180.99 315.002L178.452 316.154L181.008 317.306L180.486 318.242L178.164 316.694L178.38 319.52H177.336L177.534 316.694L175.212 318.26L174.672 317.306L177.228 316.154L174.69 315.02L175.212 314.084L177.552 315.65L177.336 312.824H178.398L178.164 315.65L180.486 314.084ZM188.203 314.084L188.707 315.002L186.169 316.154L188.725 317.306L188.203 318.242L185.881 316.694L186.097 319.52H185.053L185.251 316.694L182.929 318.26L182.389 317.306L184.945 316.154L182.407 315.02L182.929 314.084L185.269 315.65L185.053 312.824H186.115L185.881 315.65L188.203 314.084ZM195.921 314.084L196.425 315.002L193.887 316.154L196.443 317.306L195.921 318.242L193.599 316.694L193.815 319.52H192.771L192.969 316.694L190.647 318.26L190.107 317.306L192.663 316.154L190.125 315.02L190.647 314.084L192.987 315.65L192.771 312.824H193.833L193.599 315.65L195.921 314.084Z" fill="#402B3A" fill-opacity="0.65"/>
<rect x="147.5" y="410.5" width="104" height="39" rx="19.5" fill="#C4E4FF" stroke="#D895DA" stroke-width="3"/>
<path d="M175.032 436.224H180.888V438H172.848V421.272H175.032V436.224ZM187.983 438.216C186.751 438.216 185.631 437.936 184.623 437.376C183.631 436.816 182.847 436.024 182.271 435C181.711 433.96 181.431 432.76 181.431 431.4C181.431 430.056 181.719 428.872 182.295 427.848C182.887 426.808 183.687 426.016 184.695 425.472C185.703 424.912 186.831 424.632 188.079 424.632C189.327 424.632 190.455 424.912 191.463 425.472C192.471 426.016 193.263 426.8 193.839 427.824C194.431 428.848 194.727 430.04 194.727 431.4C194.727 432.76 194.423 433.96 193.815 435C193.223 436.024 192.415 436.816 191.391 437.376C190.367 437.936 189.231 438.216 187.983 438.216ZM187.983 436.296C188.767 436.296 189.503 436.112 190.191 435.744C190.879 435.376 191.431 434.824 191.847 434.088C192.279 433.352 192.495 432.456 192.495 431.4C192.495 430.344 192.287 429.448 191.871 428.712C191.455 427.976 190.911 427.432 190.239 427.08C189.567 426.712 188.839 426.528 188.055 426.528C187.255 426.528 186.519 426.712 185.847 427.08C185.191 427.432 184.663 427.976 184.263 428.712C183.863 429.448 183.663 430.344 183.663 431.4C183.663 432.472 183.855 433.376 184.239 434.112C184.639 434.848 185.167 435.4 185.823 435.768C186.479 436.12 187.199 436.296 187.983 436.296ZM202.063 424.632C203.199 424.632 204.191 424.88 205.039 425.376C205.903 425.872 206.543 426.496 206.959 427.248V424.848H209.167V438.288C209.167 439.488 208.911 440.552 208.399 441.48C207.887 442.424 207.151 443.16 206.191 443.688C205.247 444.216 204.143 444.48 202.879 444.48C201.151 444.48 199.711 444.072 198.559 443.256C197.407 442.44 196.727 441.328 196.519 439.92H198.679C198.919 440.72 199.415 441.36 200.167 441.84C200.919 442.336 201.823 442.584 202.879 442.584C204.079 442.584 205.055 442.208 205.807 441.456C206.575 440.704 206.959 439.648 206.959 438.288V435.528C206.527 436.296 205.887 436.936 205.039 437.448C204.191 437.96 203.199 438.216 202.063 438.216C200.895 438.216 199.831 437.928 198.871 437.352C197.927 436.776 197.183 435.968 196.639 434.928C196.095 433.888 195.823 432.704 195.823 431.376C195.823 430.032 196.095 428.856 196.639 427.848C197.183 426.824 197.927 426.032 198.871 425.472C199.831 424.912 200.895 424.632 202.063 424.632ZM206.959 431.4C206.959 430.408 206.759 429.544 206.359 428.808C205.959 428.072 205.415 427.512 204.727 427.128C204.055 426.728 203.311 426.528 202.495 426.528C201.679 426.528 200.935 426.72 200.263 427.104C199.591 427.488 199.055 428.048 198.655 428.784C198.255 429.52 198.055 430.384 198.055 431.376C198.055 432.384 198.255 433.264 198.655 434.016C199.055 434.752 199.591 435.32 200.263 435.72C200.935 436.104 201.679 436.296 202.495 436.296C203.311 436.296 204.055 436.104 204.727 435.72C205.415 435.32 205.959 434.752 206.359 434.016C206.759 433.264 206.959 432.392 206.959 431.4ZM213.026 422.712C212.61 422.712 212.258 422.568 211.97 422.28C211.682 421.992 211.538 421.64 211.538 421.224C211.538 420.808 211.682 420.456 211.97 420.168C212.258 419.88 212.61 419.736 213.026 419.736C213.426 419.736 213.762 419.88 214.034 420.168C214.322 420.456 214.466 420.808 214.466 421.224C214.466 421.64 214.322 421.992 214.034 422.28C213.762 422.568 213.426 422.712 213.026 422.712ZM214.082 424.848V438H211.898V424.848H214.082ZM223.252 424.608C224.852 424.608 226.148 425.096 227.14 426.072C228.132 427.032 228.628 428.424 228.628 430.248V438H226.468V430.56C226.468 429.248 226.14 428.248 225.484 427.56C224.828 426.856 223.932 426.504 222.796 426.504C221.644 426.504 220.724 426.864 220.036 427.584C219.364 428.304 219.028 429.352 219.028 430.728V438H216.844V424.848H219.028V426.72C219.46 426.048 220.044 425.528 220.78 425.16C221.532 424.792 222.356 424.608 223.252 424.608Z" fill="#D20062"/>
<path d="M324 332.667C321.811 332.667 319.644 332.236 317.622 331.398C315.6 330.56 313.763 329.333 312.215 327.785C309.089 324.66 307.333 320.42 307.333 316C307.333 311.58 309.089 307.341 312.215 304.215C315.341 301.089 319.58 299.333 324 299.333C326.189 299.333 328.356 299.764 330.378 300.602C332.4 301.44 334.238 302.667 335.785 304.215C337.333 305.763 338.56 307.6 339.398 309.622C340.236 311.644 340.667 313.811 340.667 316C340.667 320.42 338.911 324.66 335.785 327.785C332.66 330.911 328.42 332.667 324 332.667ZM324 329.333C327.536 329.333 330.928 327.929 333.428 325.428C335.929 322.928 337.333 319.536 337.333 316C337.333 312.464 335.929 309.072 333.428 306.572C330.928 304.071 327.536 302.667 324 302.667C320.464 302.667 317.072 304.071 314.572 306.572C312.071 309.072 310.667 312.464 310.667 316C310.667 319.536 312.071 322.928 314.572 325.428C317.072 327.929 320.464 329.333 324 329.333ZM324 314.333C324.442 314.333 324.866 314.509 325.179 314.821C325.491 315.134 325.667 315.558 325.667 316C325.667 316.442 325.491 316.866 325.179 317.179C324.866 317.491 324.442 317.667 324 317.667C323.558 317.667 323.134 317.491 322.822 317.179C322.509 316.866 322.333 316.442 322.333 316C322.333 315.558 322.509 315.134 322.822 314.821C323.134 314.509 323.558 314.333 324 314.333ZM324 309.333C328.383 309.333 332.333 311.95 334 316C332.893 318.651 330.78 320.754 328.124 321.848C325.467 322.941 322.486 322.936 319.833 321.833C317.198 320.731 315.102 318.636 314 316C315.667 311.95 319.617 309.333 324 309.333ZM324 311.833C322.895 311.833 321.835 312.272 321.054 313.054C320.272 313.835 319.833 314.895 319.833 316C319.833 317.105 320.272 318.165 321.054 318.946C321.835 319.728 322.895 320.167 324 320.167C325.105 320.167 326.165 319.728 326.946 318.946C327.728 318.165 328.167 317.105 328.167 316C328.167 314.895 327.728 313.835 326.946 313.054C326.165 312.272 325.105 311.833 324 311.833Z" fill="#402B3A"/>
<rect x="49" y="135" width="28" height="28" rx="9" fill="#C4E4FF" stroke="#B27BB2" stroke-width="2"/>
<path d="M72.3334 139.667H53.6667C52.3834 139.667 51.345 140.717 51.345 142L51.3334 156C51.3334 157.283 52.3834 158.333 53.6667 158.333H72.3334C73.6167 158.333 74.6667 157.283 74.6667 156V142C74.6667 140.717 73.6167 139.667 72.3334 139.667ZM72.3334 144.333L63 150.167L53.6667 144.333V142L63 147.833L72.3334 142V144.333Z" fill="#402B3A"/>
<rect x="49" y="255" width="28" height="28" rx="9" fill="#C4E4FF" stroke="#D895DA" stroke-width="2"/>
<path d="M63 274.833C63.6188 274.833 64.2123 274.587 64.6499 274.15C65.0875 273.712 65.3333 273.119 65.3333 272.5C65.3333 271.881 65.0875 271.288 64.6499 270.85C64.2123 270.412 63.6188 270.167 63 270.167C62.3811 270.167 61.7876 270.412 61.35 270.85C60.9125 271.288 60.6666 271.881 60.6666 272.5C60.6666 273.119 60.9125 273.712 61.35 274.15C61.7876 274.587 62.3811 274.833 63 274.833ZM70 264.333C70.6188 264.333 71.2123 264.579 71.6499 265.017C72.0875 265.454 72.3333 266.048 72.3333 266.667V278.333C72.3333 278.952 72.0875 279.546 71.6499 279.983C71.2123 280.421 70.6188 280.667 70 280.667H56C55.3811 280.667 54.7876 280.421 54.35 279.983C53.9125 279.546 53.6666 278.952 53.6666 278.333V266.667C53.6666 266.048 53.9125 265.454 54.35 265.017C54.7876 264.579 55.3811 264.333 56 264.333H57.1666V262C57.1666 260.453 57.7812 258.969 58.8752 257.875C59.9691 256.781 61.4529 256.167 63 256.167C63.766 256.167 64.5245 256.318 65.2323 256.611C65.94 256.904 66.5831 257.334 67.1247 257.875C67.6664 258.417 68.0961 259.06 68.3893 259.768C68.6824 260.475 68.8333 261.234 68.8333 262V264.333H70ZM63 258.5C62.0717 258.5 61.1815 258.869 60.5251 259.525C59.8687 260.181 59.5 261.072 59.5 262V264.333H66.5V262C66.5 261.072 66.1312 260.181 65.4748 259.525C64.8185 258.869 63.9282 258.5 63 258.5Z" fill="#402B3A"/>
</svg>
