<svg width="400" height="800" viewBox="0 0 400 800" fill="none" xmlns="http://www.w3.org/2000/svg">
<rect width="400" height="800" fill="#402B3A"/>
<path d="M88.496 55.64C92.048 55.64 95.152 56.328 97.808 57.704C100.496 59.048 102.56 61 104 63.56C105.472 66.088 106.208 69.048 106.208 72.44C106.208 75.832 105.472 78.776 104 81.272C102.56 83.768 100.496 85.688 97.808 87.032C95.152 88.344 92.048 89 88.496 89H77.6V55.64H88.496ZM88.496 84.536C92.4 84.536 95.392 83.48 97.472 81.368C99.552 79.256 100.592 76.28 100.592 72.44C100.592 68.568 99.552 65.544 97.472 63.368C95.392 61.192 92.4 60.104 88.496 60.104H83.072V84.536H88.496ZM107.887 75.656C107.887 73 108.431 70.648 109.519 68.6C110.639 66.552 112.143 64.968 114.031 63.848C115.951 62.696 118.063 62.12 120.367 62.12C122.447 62.12 124.255 62.536 125.791 63.368C127.359 64.168 128.607 65.176 129.535 66.392V62.552H135.055V89H129.535V85.064C128.607 86.312 127.343 87.352 125.743 88.184C124.143 89.016 122.319 89.432 120.271 89.432C117.999 89.432 115.919 88.856 114.031 87.704C112.143 86.52 110.639 84.888 109.519 82.808C108.431 80.696 107.887 78.312 107.887 75.656ZM129.535 75.752C129.535 73.928 129.151 72.344 128.383 71C127.647 69.656 126.671 68.632 125.455 67.928C124.239 67.224 122.927 66.872 121.519 66.872C120.111 66.872 118.799 67.224 117.583 67.928C116.367 68.6 115.375 69.608 114.607 70.952C113.871 72.264 113.503 73.832 113.503 75.656C113.503 77.48 113.871 79.08 114.607 80.456C115.375 81.832 116.367 82.888 117.583 83.624C118.831 84.328 120.143 84.68 121.519 84.68C122.927 84.68 124.239 84.328 125.455 83.624C126.671 82.92 127.647 81.896 128.383 80.552C129.151 79.176 129.535 77.576 129.535 75.752ZM149.923 89.432C147.843 89.432 145.971 89.064 144.307 88.328C142.675 87.56 141.379 86.536 140.419 85.256C139.459 83.944 138.946 82.488 138.882 80.888H144.546C144.643 82.008 145.171 82.952 146.131 83.72C147.123 84.456 148.355 84.824 149.826 84.824C151.363 84.824 152.547 84.536 153.378 83.96C154.243 83.352 154.675 82.584 154.675 81.656C154.675 80.664 154.195 79.928 153.235 79.448C152.307 78.968 150.819 78.44 148.771 77.864C146.787 77.32 145.171 76.792 143.923 76.28C142.675 75.768 141.587 74.984 140.658 73.928C139.762 72.872 139.314 71.48 139.314 69.752C139.314 68.344 139.73 67.064 140.563 65.912C141.395 64.728 142.579 63.8 144.115 63.128C145.683 62.456 147.475 62.12 149.49 62.12C152.499 62.12 154.915 62.888 156.739 64.424C158.595 65.928 159.587 67.992 159.715 70.616H154.243C154.147 69.432 153.667 68.488 152.803 67.784C151.939 67.08 150.771 66.728 149.299 66.728C147.859 66.728 146.755 67 145.987 67.544C145.219 68.088 144.835 68.808 144.835 69.704C144.835 70.408 145.091 71 145.602 71.48C146.115 71.96 146.739 72.344 147.475 72.632C148.211 72.888 149.299 73.224 150.739 73.64C152.659 74.152 154.227 74.68 155.443 75.224C156.691 75.736 157.763 76.504 158.659 77.528C159.555 78.552 160.019 79.912 160.051 81.608C160.051 83.112 159.635 84.456 158.803 85.64C157.971 86.824 156.787 87.752 155.251 88.424C153.747 89.096 151.971 89.432 149.923 89.432ZM177.723 62.12C179.739 62.12 181.531 62.552 183.099 63.416C184.699 64.28 185.947 65.56 186.843 67.256C187.771 68.952 188.235 71 188.235 73.4V89H182.811V74.216C182.811 71.848 182.219 70.04 181.035 68.792C179.851 67.512 178.235 66.872 176.187 66.872C174.139 66.872 172.507 67.512 171.291 68.792C170.107 70.04 169.515 71.848 169.515 74.216V89H164.043V53.48H169.515V65.624C170.443 64.504 171.611 63.64 173.019 63.032C174.459 62.424 176.027 62.12 177.723 62.12ZM198.767 66.488C199.695 65.208 200.959 64.168 202.559 63.368C204.191 62.536 205.999 62.12 207.983 62.12C210.319 62.12 212.431 62.68 214.319 63.8C216.207 64.92 217.695 66.52 218.783 68.6C219.871 70.648 220.415 73 220.415 75.656C220.415 78.312 219.871 80.696 218.783 82.808C217.695 84.888 216.191 86.52 214.271 87.704C212.383 88.856 210.287 89.432 207.983 89.432C205.935 89.432 204.111 89.032 202.511 88.232C200.943 87.432 199.695 86.408 198.767 85.16V89H193.295V53.48H198.767V66.488ZM214.847 75.656C214.847 73.832 214.463 72.264 213.695 70.952C212.959 69.608 211.967 68.6 210.719 67.928C209.503 67.224 208.191 66.872 206.783 66.872C205.407 66.872 204.095 67.224 202.847 67.928C201.631 68.632 200.639 69.656 199.871 71C199.135 72.344 198.767 73.928 198.767 75.752C198.767 77.576 199.135 79.176 199.871 80.552C200.639 81.896 201.631 82.92 202.847 83.624C204.095 84.328 205.407 84.68 206.783 84.68C208.191 84.68 209.503 84.328 210.719 83.624C211.967 82.888 212.959 81.832 213.695 80.456C214.463 79.08 214.847 77.48 214.847 75.656ZM235.378 89.432C232.882 89.432 230.626 88.872 228.61 87.752C226.594 86.6 225.01 85 223.858 82.952C222.706 80.872 222.13 78.472 222.13 75.752C222.13 73.064 222.722 70.68 223.906 68.6C225.09 66.52 226.706 64.92 228.754 63.8C230.802 62.68 233.09 62.12 235.618 62.12C238.146 62.12 240.434 62.68 242.482 63.8C244.53 64.92 246.146 66.52 247.33 68.6C248.514 70.68 249.106 73.064 249.106 75.752C249.106 78.44 248.498 80.824 247.282 82.904C246.066 84.984 244.402 86.6 242.29 87.752C240.21 88.872 237.906 89.432 235.378 89.432ZM235.378 84.68C236.786 84.68 238.098 84.344 239.314 83.672C240.562 83 241.57 81.992 242.338 80.648C243.106 79.304 243.49 77.672 243.49 75.752C243.49 73.832 243.122 72.216 242.386 70.904C241.65 69.56 240.674 68.552 239.458 67.88C238.242 67.208 236.93 66.872 235.522 66.872C234.114 66.872 232.802 67.208 231.586 67.88C230.402 68.552 229.458 69.56 228.754 70.904C228.05 72.216 227.698 73.832 227.698 75.752C227.698 78.6 228.418 80.808 229.858 82.376C231.33 83.912 233.17 84.68 235.378 84.68ZM250.772 75.656C250.772 73 251.316 70.648 252.404 68.6C253.524 66.552 255.028 64.968 256.916 63.848C258.836 62.696 260.948 62.12 263.252 62.12C265.332 62.12 267.14 62.536 268.676 63.368C270.244 64.168 271.492 65.176 272.42 66.392V62.552H277.94V89H272.42V85.064C271.492 86.312 270.228 87.352 268.628 88.184C267.028 89.016 265.204 89.432 263.156 89.432C260.884 89.432 258.804 88.856 256.916 87.704C255.028 86.52 253.524 84.888 252.404 82.808C251.316 80.696 250.772 78.312 250.772 75.656ZM272.42 75.752C272.42 73.928 272.036 72.344 271.268 71C270.532 69.656 269.556 68.632 268.34 67.928C267.124 67.224 265.812 66.872 264.404 66.872C262.996 66.872 261.684 67.224 260.468 67.928C259.252 68.6 258.26 69.608 257.492 70.952C256.756 72.264 256.388 73.832 256.388 75.656C256.388 77.48 256.756 79.08 257.492 80.456C258.26 81.832 259.252 82.888 260.468 83.624C261.716 84.328 263.028 84.68 264.404 84.68C265.812 84.68 267.124 84.328 268.34 83.624C269.556 82.92 270.532 81.896 271.268 80.552C272.036 79.176 272.42 77.576 272.42 75.752ZM288.679 66.392C289.479 65.048 290.535 64.008 291.847 63.272C293.191 62.504 294.775 62.12 296.599 62.12V67.784H295.207C293.063 67.784 291.431 68.328 290.311 69.416C289.223 70.504 288.679 72.392 288.679 75.08V89H283.207V62.552H288.679V66.392ZM297.885 75.656C297.885 73 298.429 70.648 299.517 68.6C300.637 66.552 302.141 64.968 304.029 63.848C305.949 62.696 308.077 62.12 310.413 62.12C312.141 62.12 313.837 62.504 315.501 63.272C317.197 64.008 318.541 65 319.533 66.248V53.48H325.053V89H319.533V85.016C318.637 86.296 317.389 87.352 315.789 88.184C314.221 89.016 312.413 89.432 310.365 89.432C308.061 89.432 305.949 88.856 304.029 87.704C302.141 86.52 300.637 84.888 299.517 82.808C298.429 80.696 297.885 78.312 297.885 75.656ZM319.533 75.752C319.533 73.928 319.149 72.344 318.381 71C317.645 69.656 316.669 68.632 315.453 67.928C314.237 67.224 312.925 66.872 311.517 66.872C310.109 66.872 308.797 67.224 307.581 67.928C306.365 68.6 305.373 69.608 304.605 70.952C303.869 72.264 303.501 73.832 303.501 75.656C303.501 77.48 303.869 79.08 304.605 80.456C305.373 81.832 306.365 82.888 307.581 83.624C308.829 84.328 310.141 84.68 311.517 84.68C312.925 84.68 314.237 84.328 315.453 83.624C316.669 82.92 317.645 81.896 318.381 80.552C319.149 79.176 319.533 77.576 319.533 75.752Z" fill="#D20062"/>
<path d="M344.312 86.9375H383.688M344.312 71.9375H383.688M344.312 56.9375H383.688" stroke="#D6589F" stroke-width="4" stroke-linecap="round" stroke-linejoin="round"/>
<rect x="50" y="166" width="300" height="120" rx="20" fill="#C4E4FF"/>
<path d="M145.734 220.58V233H144.474V223.082L140.046 233H139.128L134.7 223.118V233H133.44V220.58H134.772L139.578 231.344L144.384 220.58H145.734ZM152.174 233.144C151.25 233.144 150.416 232.94 149.672 232.532C148.94 232.112 148.358 231.524 147.926 230.768C147.506 230 147.296 229.106 147.296 228.086C147.296 227.066 147.512 226.178 147.944 225.422C148.376 224.654 148.964 224.066 149.708 223.658C150.452 223.238 151.286 223.028 152.21 223.028C153.134 223.028 153.968 223.238 154.712 223.658C155.468 224.066 156.056 224.654 156.476 225.422C156.908 226.178 157.124 227.066 157.124 228.086C157.124 229.094 156.908 229.982 156.476 230.75C156.044 231.518 155.45 232.112 154.694 232.532C153.938 232.94 153.098 233.144 152.174 233.144ZM152.174 232.046C152.822 232.046 153.422 231.902 153.974 231.614C154.526 231.314 154.97 230.87 155.306 230.282C155.654 229.682 155.828 228.95 155.828 228.086C155.828 227.222 155.66 226.496 155.324 225.908C154.988 225.308 154.544 224.864 153.992 224.576C153.44 224.276 152.84 224.126 152.192 224.126C151.544 224.126 150.944 224.276 150.392 224.576C149.84 224.864 149.396 225.308 149.06 225.908C148.736 226.496 148.574 227.222 148.574 228.086C148.574 228.95 148.736 229.682 149.06 230.282C149.396 230.87 149.834 231.314 150.374 231.614C150.926 231.902 151.526 232.046 152.174 232.046ZM158.125 228.068C158.125 227.06 158.329 226.178 158.737 225.422C159.145 224.654 159.703 224.066 160.411 223.658C161.131 223.238 161.941 223.028 162.841 223.028C163.705 223.028 164.485 223.238 165.181 223.658C165.877 224.078 166.387 224.624 166.711 225.296V219.68H167.971V233H166.711V230.804C166.411 231.488 165.919 232.052 165.235 232.496C164.551 232.928 163.747 233.144 162.823 233.144C161.923 233.144 161.113 232.934 160.393 232.514C159.685 232.094 159.127 231.5 158.719 230.732C158.323 229.964 158.125 229.076 158.125 228.068ZM166.711 228.086C166.711 227.294 166.549 226.598 166.225 225.998C165.901 225.398 165.457 224.936 164.893 224.612C164.341 224.288 163.729 224.126 163.057 224.126C162.361 224.126 161.737 224.282 161.185 224.594C160.633 224.906 160.195 225.362 159.871 225.962C159.559 226.55 159.403 227.252 159.403 228.068C159.403 228.872 159.559 229.58 159.871 230.192C160.195 230.792 160.633 231.254 161.185 231.578C161.737 231.89 162.361 232.046 163.057 232.046C163.729 232.046 164.341 231.884 164.893 231.56C165.457 231.236 165.901 230.774 166.225 230.174C166.549 229.574 166.711 228.878 166.711 228.086ZM178.642 223.172V233H177.382V231.272C177.094 231.884 176.65 232.352 176.05 232.676C175.45 233 174.778 233.162 174.034 233.162C172.858 233.162 171.898 232.802 171.154 232.082C170.41 231.35 170.038 230.294 170.038 228.914V223.172H171.28V228.77C171.28 229.838 171.544 230.654 172.072 231.218C172.612 231.782 173.344 232.064 174.268 232.064C175.216 232.064 175.972 231.764 176.536 231.164C177.1 230.564 177.382 229.682 177.382 228.518V223.172H178.642ZM182.058 219.68V233H180.798V219.68H182.058ZM193.084 227.582C193.084 228.014 193.072 228.344 193.048 228.572H184.894C184.93 229.316 185.11 229.952 185.434 230.48C185.758 231.008 186.184 231.41 186.712 231.686C187.24 231.95 187.816 232.082 188.44 232.082C189.256 232.082 189.94 231.884 190.492 231.488C191.056 231.092 191.428 230.558 191.608 229.886H192.94C192.7 230.846 192.184 231.632 191.392 232.244C190.612 232.844 189.628 233.144 188.44 233.144C187.516 233.144 186.688 232.94 185.956 232.532C185.224 232.112 184.648 231.524 184.228 230.768C183.82 230 183.616 229.106 183.616 228.086C183.616 227.066 183.82 226.172 184.228 225.404C184.636 224.636 185.206 224.048 185.938 223.64C186.67 223.232 187.504 223.028 188.44 223.028C189.376 223.028 190.192 223.232 190.888 223.64C191.596 224.048 192.136 224.6 192.508 225.296C192.892 225.98 193.084 226.742 193.084 227.582ZM191.806 227.546C191.818 226.814 191.668 226.19 191.356 225.674C191.056 225.158 190.642 224.768 190.114 224.504C189.586 224.24 189.01 224.108 188.386 224.108C187.45 224.108 186.652 224.408 185.992 225.008C185.332 225.608 184.966 226.454 184.894 227.546H191.806ZM194.885 233.09C194.621 233.09 194.399 233 194.219 232.82C194.051 232.64 193.967 232.418 193.967 232.154C193.967 231.89 194.051 231.674 194.219 231.506C194.399 231.326 194.621 231.236 194.885 231.236C195.137 231.236 195.347 231.326 195.515 231.506C195.695 231.674 195.785 231.89 195.785 232.154C195.785 232.418 195.695 232.64 195.515 232.82C195.347 233 195.137 233.09 194.885 233.09ZM194.885 225.26C194.621 225.26 194.399 225.17 194.219 224.99C194.051 224.81 193.967 224.588 193.967 224.324C193.967 224.06 194.051 223.844 194.219 223.676C194.399 223.496 194.621 223.406 194.885 223.406C195.137 223.406 195.347 223.496 195.515 223.676C195.695 223.844 195.785 224.06 195.785 224.324C195.785 224.588 195.695 224.81 195.515 224.99C195.347 225.17 195.137 225.26 194.885 225.26Z" fill="#402B3A"/>
<path d="M206.512 217.32V227.952C206.512 229.216 206.84 230.168 207.496 230.808C208.168 231.448 209.096 231.768 210.28 231.768C211.48 231.768 212.408 231.448 213.064 230.808C213.736 230.168 214.072 229.216 214.072 227.952V217.32H216.808V227.904C216.808 229.264 216.512 230.416 215.92 231.36C215.328 232.304 214.536 233.008 213.544 233.472C212.552 233.936 211.456 234.168 210.256 234.168C209.056 234.168 207.96 233.936 206.968 233.472C205.992 233.008 205.216 232.304 204.64 231.36C204.064 230.416 203.776 229.264 203.776 227.904V217.32H206.512ZM224.906 234.168C223.786 234.168 222.778 233.976 221.882 233.592C220.986 233.192 220.282 232.632 219.77 231.912C219.258 231.192 219.002 230.352 219.002 229.392H221.93C221.994 230.112 222.274 230.704 222.77 231.168C223.282 231.632 223.994 231.864 224.906 231.864C225.85 231.864 226.586 231.64 227.114 231.192C227.642 230.728 227.906 230.136 227.906 229.416C227.906 228.856 227.738 228.4 227.402 228.048C227.082 227.696 226.674 227.424 226.178 227.232C225.698 227.04 225.026 226.832 224.162 226.608C223.074 226.32 222.186 226.032 221.498 225.744C220.826 225.44 220.25 224.976 219.77 224.352C219.29 223.728 219.05 222.896 219.05 221.856C219.05 220.896 219.29 220.056 219.77 219.336C220.25 218.616 220.922 218.064 221.786 217.68C222.65 217.296 223.65 217.104 224.786 217.104C226.402 217.104 227.722 217.512 228.746 218.328C229.786 219.128 230.362 220.232 230.474 221.64H227.45C227.402 221.032 227.114 220.512 226.586 220.08C226.058 219.648 225.362 219.432 224.498 219.432C223.714 219.432 223.074 219.632 222.578 220.032C222.082 220.432 221.834 221.008 221.834 221.76C221.834 222.272 221.986 222.696 222.29 223.032C222.61 223.352 223.01 223.608 223.49 223.8C223.97 223.992 224.626 224.2 225.458 224.424C226.562 224.728 227.458 225.032 228.146 225.336C228.85 225.64 229.442 226.112 229.922 226.752C230.418 227.376 230.666 228.216 230.666 229.272C230.666 230.12 230.434 230.92 229.97 231.672C229.522 232.424 228.858 233.032 227.978 233.496C227.114 233.944 226.09 234.168 224.906 234.168ZM235.671 219.528V224.424H241.431V226.656H235.671V231.768H242.151V234H232.935V217.296H242.151V219.528H235.671ZM253.225 234L249.385 227.328H247.297V234H244.561V217.32H250.321C251.601 217.32 252.681 217.544 253.561 217.992C254.457 218.44 255.121 219.04 255.553 219.792C256.001 220.544 256.225 221.384 256.225 222.312C256.225 223.4 255.905 224.392 255.265 225.288C254.641 226.168 253.673 226.768 252.361 227.088L256.489 234H253.225ZM247.297 225.144H250.321C251.345 225.144 252.113 224.888 252.625 224.376C253.153 223.864 253.417 223.176 253.417 222.312C253.417 221.448 253.161 220.776 252.649 220.296C252.137 219.8 251.361 219.552 250.321 219.552H247.297V225.144ZM264.261 234.168C263.141 234.168 262.133 233.976 261.237 233.592C260.341 233.192 259.637 232.632 259.125 231.912C258.613 231.192 258.357 230.352 258.357 229.392H261.285C261.349 230.112 261.629 230.704 262.125 231.168C262.637 231.632 263.349 231.864 264.261 231.864C265.205 231.864 265.941 231.64 266.469 231.192C266.997 230.728 267.261 230.136 267.261 229.416C267.261 228.856 267.093 228.4 266.757 228.048C266.437 227.696 266.029 227.424 265.533 227.232C265.053 227.04 264.381 226.832 263.517 226.608C262.429 226.32 261.541 226.032 260.853 225.744C260.181 225.44 259.605 224.976 259.125 224.352C258.645 223.728 258.405 222.896 258.405 221.856C258.405 220.896 258.645 220.056 259.125 219.336C259.605 218.616 260.277 218.064 261.141 217.68C262.005 217.296 263.005 217.104 264.141 217.104C265.757 217.104 267.077 217.512 268.101 218.328C269.141 219.128 269.717 220.232 269.829 221.64H266.805C266.757 221.032 266.469 220.512 265.941 220.08C265.413 219.648 264.717 219.432 263.853 219.432C263.069 219.432 262.429 219.632 261.933 220.032C261.437 220.432 261.189 221.008 261.189 221.76C261.189 222.272 261.341 222.696 261.645 223.032C261.965 223.352 262.365 223.608 262.845 223.8C263.325 223.992 263.981 224.2 264.813 224.424C265.917 224.728 266.813 225.032 267.501 225.336C268.205 225.64 268.797 226.112 269.277 226.752C269.773 227.376 270.021 228.216 270.021 229.272C270.021 230.12 269.789 230.92 269.325 231.672C268.877 232.424 268.213 233.032 267.333 233.496C266.469 233.944 265.445 234.168 264.261 234.168Z" fill="#C3337B"/>
<path d="M109.8 243.6V250H65V243.6C65 243.6 65 230.8 87.4 230.8C109.8 230.8 109.8 243.6 109.8 243.6ZM98.6 213.2C98.6 210.985 97.9431 208.82 96.7125 206.978C95.4818 205.136 93.7326 203.7 91.6861 202.853C89.6395 202.005 87.3876 201.783 85.215 202.215C83.0424 202.648 81.0468 203.714 79.4804 205.281C77.9141 206.847 76.8474 208.843 76.4152 211.015C75.9831 213.188 76.2048 215.44 77.0526 217.486C77.9003 219.533 79.3358 221.282 81.1776 222.513C83.0194 223.743 85.1848 224.4 87.4 224.4C90.3704 224.4 93.2192 223.22 95.3196 221.12C97.42 219.019 98.6 216.171 98.6 213.2ZM109.608 230.8C111.575 232.322 113.185 234.257 114.324 236.469C115.463 238.68 116.103 241.114 116.2 243.6V250H129V243.6C129 243.6 129 231.984 109.608 230.8ZM106.6 202C104.397 201.988 102.243 202.646 100.424 203.888C102.368 206.604 103.413 209.86 103.413 213.2C103.413 216.54 102.368 219.796 100.424 222.512C102.243 223.754 104.397 224.412 106.6 224.4C109.57 224.4 112.419 223.22 114.52 221.12C116.62 219.019 117.8 216.171 117.8 213.2C117.8 210.23 116.62 207.381 114.52 205.281C112.419 203.18 109.57 202 106.6 202Z" fill="#D6589F"/>
<rect x="255" y="248" width="89" height="30" rx="15" fill="#402B3A"/>
<path d="M286.058 267.488L289.118 259.136H290.864L286.994 269H285.086L281.216 259.136H282.98L286.058 267.488ZM292.602 257.534C292.29 257.534 292.026 257.426 291.81 257.21C291.594 256.994 291.486 256.73 291.486 256.418C291.486 256.106 291.594 255.842 291.81 255.626C292.026 255.41 292.29 255.302 292.602 255.302C292.902 255.302 293.154 255.41 293.358 255.626C293.574 255.842 293.682 256.106 293.682 256.418C293.682 256.73 293.574 256.994 293.358 257.21C293.154 257.426 292.902 257.534 292.602 257.534ZM293.394 259.136V269H291.756V259.136H293.394ZM304.466 263.69C304.466 264.002 304.448 264.332 304.412 264.68H296.528C296.588 265.652 296.918 266.414 297.518 266.966C298.13 267.506 298.868 267.776 299.732 267.776C300.44 267.776 301.028 267.614 301.496 267.29C301.976 266.954 302.312 266.51 302.504 265.958H304.268C304.004 266.906 303.476 267.68 302.684 268.28C301.892 268.868 300.908 269.162 299.732 269.162C298.796 269.162 297.956 268.952 297.212 268.532C296.48 268.112 295.904 267.518 295.484 266.75C295.064 265.97 294.854 265.07 294.854 264.05C294.854 263.03 295.058 262.136 295.466 261.368C295.874 260.6 296.444 260.012 297.176 259.604C297.92 259.184 298.772 258.974 299.732 258.974C300.668 258.974 301.496 259.178 302.216 259.586C302.936 259.994 303.488 260.558 303.872 261.278C304.268 261.986 304.466 262.79 304.466 263.69ZM302.774 263.348C302.774 262.724 302.636 262.19 302.36 261.746C302.084 261.29 301.706 260.948 301.226 260.72C300.758 260.48 300.236 260.36 299.66 260.36C298.832 260.36 298.124 260.624 297.536 261.152C296.96 261.68 296.63 262.412 296.546 263.348H302.774ZM319.048 259.136L315.97 269H314.278L311.902 261.17L309.526 269H307.834L304.738 259.136H306.412L308.68 267.416L311.128 259.136H312.802L315.196 267.434L317.428 259.136H319.048Z" fill="#C4E4FF"/>
<path d="M68.16 267.12C70.3893 265.659 72.144 264.347 73.424 263.184C74.704 262.011 75.44 260.875 75.632 259.776C75.6747 259.499 75.696 259.291 75.696 259.152C75.696 258.619 75.536 258.192 75.216 257.872C74.9067 257.552 74.4 257.392 73.696 257.392C72.8853 257.392 72.2133 257.648 71.68 258.16C71.1467 258.661 70.784 259.328 70.592 260.16H69.504C69.7707 258.976 70.2933 258.059 71.072 257.408C71.8613 256.757 72.7947 256.432 73.872 256.432C74.7787 256.432 75.4933 256.656 76.016 257.104C76.5493 257.541 76.816 258.171 76.816 258.992C76.816 259.259 76.7947 259.504 76.752 259.728C76.528 260.997 75.776 262.235 74.496 263.44C73.216 264.635 71.6907 265.813 69.92 266.976H75.824L75.664 267.92H68.016L68.16 267.12ZM77.7802 262.24C78.1002 260.416 78.6282 258.997 79.3642 257.984C80.1109 256.971 81.2149 256.464 82.6762 256.464C83.7856 256.464 84.5803 256.768 85.0603 257.376C85.5509 257.984 85.7963 258.837 85.7963 259.936C85.7963 260.565 85.7163 261.333 85.5562 262.24C85.2362 264.064 84.7029 265.488 83.9563 266.512C83.2096 267.525 82.1056 268.032 80.6442 268.032C79.5349 268.032 78.7402 267.733 78.2602 267.136C77.7802 266.528 77.5402 265.675 77.5402 264.576C77.5402 263.947 77.6202 263.168 77.7802 262.24ZM84.4523 262.24C84.6123 261.355 84.6923 260.619 84.6923 260.032C84.6923 259.221 84.5216 258.597 84.1803 258.16C83.8496 257.712 83.2896 257.488 82.5002 257.488C81.7322 257.488 81.1082 257.696 80.6282 258.112C80.1482 258.517 79.7802 259.061 79.5242 259.744C79.2682 260.427 79.0549 261.259 78.8842 262.24C78.7136 263.211 78.6282 263.963 78.6282 264.496C78.6282 265.296 78.7936 265.915 79.1242 266.352C79.4549 266.789 80.0202 267.008 80.8203 267.008C81.5883 267.008 82.2122 266.805 82.6922 266.4C83.1722 265.984 83.5402 265.435 83.7962 264.752C84.0523 264.069 84.2709 263.232 84.4523 262.24ZM92.6464 261.008C92.9984 260.4 93.457 259.931 94.0224 259.6C94.5877 259.269 95.2437 259.104 95.9904 259.104L95.7824 260.272H95.4624C94.6944 260.272 94.033 260.469 93.4784 260.864C92.9237 261.259 92.5397 261.909 92.3264 262.816L91.4144 268H90.2944L91.8304 259.264H92.9504L92.6464 261.008ZM99.2913 268.128C98.5659 268.128 97.9259 267.984 97.3713 267.696C96.8166 267.397 96.3846 266.981 96.0753 266.448C95.7766 265.904 95.6273 265.269 95.6273 264.544C95.6273 263.563 95.8513 262.661 96.2993 261.84C96.7473 261.008 97.3713 260.352 98.1713 259.872C98.9713 259.381 99.8619 259.136 100.843 259.136C101.569 259.136 102.209 259.285 102.763 259.584C103.318 259.872 103.75 260.288 104.059 260.832C104.369 261.365 104.523 261.995 104.523 262.72C104.523 263.712 104.294 264.619 103.835 265.44C103.377 266.261 102.747 266.917 101.947 267.408C101.158 267.888 100.273 268.128 99.2913 268.128ZM99.4193 267.184C100.177 267.184 100.854 266.981 101.451 266.576C102.059 266.171 102.529 265.632 102.859 264.96C103.201 264.288 103.371 263.563 103.371 262.784C103.371 261.909 103.115 261.243 102.603 260.784C102.102 260.325 101.462 260.096 100.683 260.096C99.9259 260.096 99.2486 260.299 98.6513 260.704C98.0646 261.109 97.6059 261.648 97.2753 262.32C96.9446 262.992 96.7793 263.717 96.7793 264.496C96.7793 265.36 97.0299 266.027 97.5313 266.496C98.0326 266.955 98.6619 267.184 99.4193 267.184ZM118.133 259.264L113.861 268H112.741L111.621 260.688L107.893 268H106.773L105.573 259.264H106.725L107.573 266.816L111.333 259.264H112.469L113.541 266.832L117.029 259.264H118.133ZM120.396 268.128C119.51 268.128 118.79 267.925 118.236 267.52C117.681 267.104 117.404 266.539 117.404 265.824C117.404 265.696 117.409 265.6 117.42 265.536H118.508C118.465 266.048 118.614 266.459 118.956 266.768C119.297 267.077 119.798 267.232 120.46 267.232C121.132 267.232 121.67 267.093 122.076 266.816C122.481 266.528 122.684 266.149 122.684 265.68C122.684 265.403 122.598 265.168 122.428 264.976C122.257 264.784 122.044 264.629 121.788 264.512C121.542 264.384 121.196 264.24 120.748 264.08C120.193 263.877 119.745 263.691 119.404 263.52C119.073 263.339 118.785 263.093 118.54 262.784C118.305 262.464 118.188 262.064 118.188 261.584C118.188 261.104 118.326 260.677 118.604 260.304C118.881 259.931 119.26 259.643 119.74 259.44C120.23 259.237 120.785 259.136 121.404 259.136C122.268 259.136 122.972 259.349 123.516 259.776C124.07 260.203 124.348 260.768 124.348 261.472C124.348 261.621 124.342 261.733 124.332 261.808H123.276C123.286 261.765 123.292 261.696 123.292 261.6C123.292 261.131 123.105 260.752 122.732 260.464C122.369 260.176 121.9 260.032 121.324 260.032C120.748 260.032 120.268 260.171 119.884 260.448C119.51 260.715 119.324 261.077 119.324 261.536C119.324 261.845 119.414 262.107 119.596 262.32C119.777 262.523 120.001 262.688 120.268 262.816C120.534 262.944 120.892 263.093 121.34 263.264C121.873 263.467 122.3 263.653 122.62 263.824C122.95 263.995 123.228 264.229 123.452 264.528C123.676 264.827 123.788 265.2 123.788 265.648C123.788 266.405 123.473 267.008 122.844 267.456C122.214 267.904 121.398 268.128 120.396 268.128Z" fill="#D6589F"/>
<rect x="50" y="316" width="300" height="120" rx="20" fill="#C4E4FF"/>
<path d="M145.734 363.58V376H144.474V366.082L140.046 376H139.128L134.7 366.118V376H133.44V363.58H134.772L139.578 374.344L144.384 363.58H145.734ZM152.174 376.144C151.25 376.144 150.416 375.94 149.672 375.532C148.94 375.112 148.358 374.524 147.926 373.768C147.506 373 147.296 372.106 147.296 371.086C147.296 370.066 147.512 369.178 147.944 368.422C148.376 367.654 148.964 367.066 149.708 366.658C150.452 366.238 151.286 366.028 152.21 366.028C153.134 366.028 153.968 366.238 154.712 366.658C155.468 367.066 156.056 367.654 156.476 368.422C156.908 369.178 157.124 370.066 157.124 371.086C157.124 372.094 156.908 372.982 156.476 373.75C156.044 374.518 155.45 375.112 154.694 375.532C153.938 375.94 153.098 376.144 152.174 376.144ZM152.174 375.046C152.822 375.046 153.422 374.902 153.974 374.614C154.526 374.314 154.97 373.87 155.306 373.282C155.654 372.682 155.828 371.95 155.828 371.086C155.828 370.222 155.66 369.496 155.324 368.908C154.988 368.308 154.544 367.864 153.992 367.576C153.44 367.276 152.84 367.126 152.192 367.126C151.544 367.126 150.944 367.276 150.392 367.576C149.84 367.864 149.396 368.308 149.06 368.908C148.736 369.496 148.574 370.222 148.574 371.086C148.574 371.95 148.736 372.682 149.06 373.282C149.396 373.87 149.834 374.314 150.374 374.614C150.926 374.902 151.526 375.046 152.174 375.046ZM158.125 371.068C158.125 370.06 158.329 369.178 158.737 368.422C159.145 367.654 159.703 367.066 160.411 366.658C161.131 366.238 161.941 366.028 162.841 366.028C163.705 366.028 164.485 366.238 165.181 366.658C165.877 367.078 166.387 367.624 166.711 368.296V362.68H167.971V376H166.711V373.804C166.411 374.488 165.919 375.052 165.235 375.496C164.551 375.928 163.747 376.144 162.823 376.144C161.923 376.144 161.113 375.934 160.393 375.514C159.685 375.094 159.127 374.5 158.719 373.732C158.323 372.964 158.125 372.076 158.125 371.068ZM166.711 371.086C166.711 370.294 166.549 369.598 166.225 368.998C165.901 368.398 165.457 367.936 164.893 367.612C164.341 367.288 163.729 367.126 163.057 367.126C162.361 367.126 161.737 367.282 161.185 367.594C160.633 367.906 160.195 368.362 159.871 368.962C159.559 369.55 159.403 370.252 159.403 371.068C159.403 371.872 159.559 372.58 159.871 373.192C160.195 373.792 160.633 374.254 161.185 374.578C161.737 374.89 162.361 375.046 163.057 375.046C163.729 375.046 164.341 374.884 164.893 374.56C165.457 374.236 165.901 373.774 166.225 373.174C166.549 372.574 166.711 371.878 166.711 371.086ZM178.642 366.172V376H177.382V374.272C177.094 374.884 176.65 375.352 176.05 375.676C175.45 376 174.778 376.162 174.034 376.162C172.858 376.162 171.898 375.802 171.154 375.082C170.41 374.35 170.038 373.294 170.038 371.914V366.172H171.28V371.77C171.28 372.838 171.544 373.654 172.072 374.218C172.612 374.782 173.344 375.064 174.268 375.064C175.216 375.064 175.972 374.764 176.536 374.164C177.1 373.564 177.382 372.682 177.382 371.518V366.172H178.642ZM182.058 362.68V376H180.798V362.68H182.058ZM193.084 370.582C193.084 371.014 193.072 371.344 193.048 371.572H184.894C184.93 372.316 185.11 372.952 185.434 373.48C185.758 374.008 186.184 374.41 186.712 374.686C187.24 374.95 187.816 375.082 188.44 375.082C189.256 375.082 189.94 374.884 190.492 374.488C191.056 374.092 191.428 373.558 191.608 372.886H192.94C192.7 373.846 192.184 374.632 191.392 375.244C190.612 375.844 189.628 376.144 188.44 376.144C187.516 376.144 186.688 375.94 185.956 375.532C185.224 375.112 184.648 374.524 184.228 373.768C183.82 373 183.616 372.106 183.616 371.086C183.616 370.066 183.82 369.172 184.228 368.404C184.636 367.636 185.206 367.048 185.938 366.64C186.67 366.232 187.504 366.028 188.44 366.028C189.376 366.028 190.192 366.232 190.888 366.64C191.596 367.048 192.136 367.6 192.508 368.296C192.892 368.98 193.084 369.742 193.084 370.582ZM191.806 370.546C191.818 369.814 191.668 369.19 191.356 368.674C191.056 368.158 190.642 367.768 190.114 367.504C189.586 367.24 189.01 367.108 188.386 367.108C187.45 367.108 186.652 367.408 185.992 368.008C185.332 368.608 184.966 369.454 184.894 370.546H191.806ZM194.885 376.09C194.621 376.09 194.399 376 194.219 375.82C194.051 375.64 193.967 375.418 193.967 375.154C193.967 374.89 194.051 374.674 194.219 374.506C194.399 374.326 194.621 374.236 194.885 374.236C195.137 374.236 195.347 374.326 195.515 374.506C195.695 374.674 195.785 374.89 195.785 375.154C195.785 375.418 195.695 375.64 195.515 375.82C195.347 376 195.137 376.09 194.885 376.09ZM194.885 368.26C194.621 368.26 194.399 368.17 194.219 367.99C194.051 367.81 193.967 367.588 193.967 367.324C193.967 367.06 194.051 366.844 194.219 366.676C194.399 366.496 194.621 366.406 194.885 366.406C195.137 366.406 195.347 366.496 195.515 366.676C195.695 366.844 195.785 367.06 195.785 367.324C195.785 367.588 195.695 367.81 195.515 367.99C195.347 368.17 195.137 368.26 194.885 368.26Z" fill="#402B3A"/>
<path d="M202.888 368.624C202.888 366.992 203.264 365.528 204.016 364.232C204.784 362.936 205.816 361.928 207.112 361.208C208.424 360.472 209.856 360.104 211.408 360.104C213.184 360.104 214.76 360.544 216.136 361.424C217.528 362.288 218.536 363.52 219.16 365.12H215.872C215.44 364.24 214.84 363.584 214.072 363.152C213.304 362.72 212.416 362.504 211.408 362.504C210.304 362.504 209.32 362.752 208.456 363.248C207.592 363.744 206.912 364.456 206.416 365.384C205.936 366.312 205.696 367.392 205.696 368.624C205.696 369.856 205.936 370.936 206.416 371.864C206.912 372.792 207.592 373.512 208.456 374.024C209.32 374.52 210.304 374.768 211.408 374.768C212.416 374.768 213.304 374.552 214.072 374.12C214.84 373.688 215.44 373.032 215.872 372.152H219.16C218.536 373.752 217.528 374.984 216.136 375.848C214.76 376.712 213.184 377.144 211.408 377.144C209.84 377.144 208.408 376.784 207.112 376.064C205.816 375.328 204.784 374.312 204.016 373.016C203.264 371.72 202.888 370.256 202.888 368.624ZM231.459 373.592H224.475L223.275 377H220.419L226.395 360.296H229.563L235.539 377H232.659L231.459 373.592ZM230.691 371.36L227.979 363.608L225.243 371.36H230.691ZM247.953 360.32V362.552H243.513V377H240.777V362.552H236.313V360.32H247.953ZM252.5 362.528V367.424H258.26V369.656H252.5V374.768H258.98V377H249.764V360.296H258.98V362.528H252.5ZM273.462 365.12C273.03 364.288 272.43 363.664 271.662 363.248C270.894 362.816 270.006 362.6 268.998 362.6C267.894 362.6 266.91 362.848 266.046 363.344C265.182 363.84 264.502 364.544 264.006 365.456C263.526 366.368 263.286 367.424 263.286 368.624C263.286 369.824 263.526 370.888 264.006 371.816C264.502 372.728 265.182 373.432 266.046 373.928C266.91 374.424 267.894 374.672 268.998 374.672C270.486 374.672 271.694 374.256 272.622 373.424C273.55 372.592 274.118 371.464 274.326 370.04H268.062V367.856H277.254V369.992C277.078 371.288 276.614 372.48 275.862 373.568C275.126 374.656 274.158 375.528 272.958 376.184C271.774 376.824 270.454 377.144 268.998 377.144C267.43 377.144 265.998 376.784 264.702 376.064C263.406 375.328 262.374 374.312 261.606 373.016C260.854 371.72 260.478 370.256 260.478 368.624C260.478 366.992 260.854 365.528 261.606 364.232C262.374 362.936 263.406 361.928 264.702 361.208C266.014 360.472 267.446 360.104 268.998 360.104C270.774 360.104 272.35 360.544 273.726 361.424C275.118 362.288 276.126 363.52 276.75 365.12H273.462ZM286.6 377.168C285.048 377.168 283.616 376.808 282.304 376.088C281.008 375.352 279.976 374.336 279.208 373.04C278.456 371.728 278.08 370.256 278.08 368.624C278.08 366.992 278.456 365.528 279.208 364.232C279.976 362.936 281.008 361.928 282.304 361.208C283.616 360.472 285.048 360.104 286.6 360.104C288.168 360.104 289.6 360.472 290.896 361.208C292.208 361.928 293.24 362.936 293.992 364.232C294.744 365.528 295.12 366.992 295.12 368.624C295.12 370.256 294.744 371.728 293.992 373.04C293.24 374.336 292.208 375.352 290.896 376.088C289.6 376.808 288.168 377.168 286.6 377.168ZM286.6 374.792C287.704 374.792 288.688 374.544 289.552 374.048C290.416 373.536 291.088 372.816 291.568 371.888C292.064 370.944 292.312 369.856 292.312 368.624C292.312 367.392 292.064 366.312 291.568 365.384C291.088 364.456 290.416 363.744 289.552 363.248C288.688 362.752 287.704 362.504 286.6 362.504C285.496 362.504 284.512 362.752 283.648 363.248C282.784 363.744 282.104 364.456 281.608 365.384C281.128 366.312 280.888 367.392 280.888 368.624C280.888 369.856 281.128 370.944 281.608 371.888C282.104 372.816 282.784 373.536 283.648 374.048C284.512 374.544 285.496 374.792 286.6 374.792ZM305.516 377L301.676 370.328H299.588V377H296.852V360.32H302.612C303.892 360.32 304.972 360.544 305.852 360.992C306.748 361.44 307.412 362.04 307.844 362.792C308.292 363.544 308.516 364.384 308.516 365.312C308.516 366.4 308.196 367.392 307.556 368.288C306.932 369.168 305.964 369.768 304.652 370.088L308.78 377H305.516ZM299.588 368.144H302.612C303.636 368.144 304.404 367.888 304.916 367.376C305.444 366.864 305.708 366.176 305.708 365.312C305.708 364.448 305.452 363.776 304.94 363.296C304.428 362.8 303.652 362.552 302.612 362.552H299.588V368.144ZM313.793 360.32V377H311.057V360.32H313.793ZM319.161 362.528V367.424H324.921V369.656H319.161V374.768H325.641V377H316.425V360.296H325.641V362.528H319.161ZM333.547 377.168C332.427 377.168 331.419 376.976 330.523 376.592C329.627 376.192 328.923 375.632 328.411 374.912C327.899 374.192 327.643 373.352 327.643 372.392H330.571C330.635 373.112 330.915 373.704 331.411 374.168C331.923 374.632 332.635 374.864 333.547 374.864C334.491 374.864 335.227 374.64 335.755 374.192C336.283 373.728 336.547 373.136 336.547 372.416C336.547 371.856 336.379 371.4 336.043 371.048C335.723 370.696 335.315 370.424 334.819 370.232C334.339 370.04 333.667 369.832 332.803 369.608C331.715 369.32 330.827 369.032 330.139 368.744C329.467 368.44 328.891 367.976 328.411 367.352C327.931 366.728 327.691 365.896 327.691 364.856C327.691 363.896 327.931 363.056 328.411 362.336C328.891 361.616 329.563 361.064 330.427 360.68C331.291 360.296 332.291 360.104 333.427 360.104C335.043 360.104 336.363 360.512 337.387 361.328C338.427 362.128 339.003 363.232 339.115 364.64H336.091C336.043 364.032 335.755 363.512 335.227 363.08C334.699 362.648 334.003 362.432 333.139 362.432C332.355 362.432 331.715 362.632 331.219 363.032C330.723 363.432 330.475 364.008 330.475 364.76C330.475 365.272 330.627 365.696 330.931 366.032C331.251 366.352 331.651 366.608 332.131 366.8C332.611 366.992 333.267 367.2 334.099 367.424C335.203 367.728 336.099 368.032 336.787 368.336C337.491 368.64 338.083 369.112 338.563 369.752C339.059 370.376 339.307 371.216 339.307 372.272C339.307 373.12 339.075 373.92 338.611 374.672C338.163 375.424 337.499 376.032 336.619 376.496C335.755 376.944 334.731 377.168 333.547 377.168Z" fill="#CC3380"/>
<rect x="255" y="398" width="89" height="30" rx="15" fill="#402B3A"/>
<path d="M286.058 417.488L289.118 409.136H290.864L286.994 419H285.086L281.216 409.136H282.98L286.058 417.488ZM292.602 407.534C292.29 407.534 292.026 407.426 291.81 407.21C291.594 406.994 291.486 406.73 291.486 406.418C291.486 406.106 291.594 405.842 291.81 405.626C292.026 405.41 292.29 405.302 292.602 405.302C292.902 405.302 293.154 405.41 293.358 405.626C293.574 405.842 293.682 406.106 293.682 406.418C293.682 406.73 293.574 406.994 293.358 407.21C293.154 407.426 292.902 407.534 292.602 407.534ZM293.394 409.136V419H291.756V409.136H293.394ZM304.466 413.69C304.466 414.002 304.448 414.332 304.412 414.68H296.528C296.588 415.652 296.918 416.414 297.518 416.966C298.13 417.506 298.868 417.776 299.732 417.776C300.44 417.776 301.028 417.614 301.496 417.29C301.976 416.954 302.312 416.51 302.504 415.958H304.268C304.004 416.906 303.476 417.68 302.684 418.28C301.892 418.868 300.908 419.162 299.732 419.162C298.796 419.162 297.956 418.952 297.212 418.532C296.48 418.112 295.904 417.518 295.484 416.75C295.064 415.97 294.854 415.07 294.854 414.05C294.854 413.03 295.058 412.136 295.466 411.368C295.874 410.6 296.444 410.012 297.176 409.604C297.92 409.184 298.772 408.974 299.732 408.974C300.668 408.974 301.496 409.178 302.216 409.586C302.936 409.994 303.488 410.558 303.872 411.278C304.268 411.986 304.466 412.79 304.466 413.69ZM302.774 413.348C302.774 412.724 302.636 412.19 302.36 411.746C302.084 411.29 301.706 410.948 301.226 410.72C300.758 410.48 300.236 410.36 299.66 410.36C298.832 410.36 298.124 410.624 297.536 411.152C296.96 411.68 296.63 412.412 296.546 413.348H302.774ZM319.048 409.136L315.97 419H314.278L311.902 411.17L309.526 419H307.834L304.738 409.136H306.412L308.68 417.416L311.128 409.136H312.802L315.196 417.434L317.428 409.136H319.048Z" fill="#C4E4FF"/>
<path d="M77.352 409.328C77.3627 408.656 77.1973 408.144 76.856 407.792C76.5253 407.429 76.008 407.248 75.304 407.248C74.2587 407.248 73.4053 407.659 72.744 408.48C72.0827 409.291 71.608 410.613 71.32 412.448C71.64 411.808 72.136 411.307 72.808 410.944C73.48 410.571 74.2107 410.384 75 410.384C75.96 410.384 76.7067 410.64 77.24 411.152C77.7733 411.664 78.04 412.379 78.04 413.296C78.04 413.595 78.008 413.915 77.944 414.256C77.8267 414.96 77.5813 415.6 77.208 416.176C76.8347 416.741 76.3333 417.195 75.704 417.536C75.0853 417.877 74.3653 418.048 73.544 418.048C72.3173 418.048 71.4427 417.744 70.92 417.136C70.408 416.517 70.152 415.643 70.152 414.512C70.152 413.829 70.2267 413.067 70.376 412.224C71.0693 408.277 72.7707 406.304 75.48 406.304C76.504 406.304 77.256 406.587 77.736 407.152C78.2267 407.707 78.4507 408.432 78.408 409.328H77.352ZM74.616 411.344C74.1147 411.344 73.6187 411.445 73.128 411.648C72.648 411.851 72.2267 412.16 71.864 412.576C71.512 412.981 71.288 413.483 71.192 414.08C71.1493 414.293 71.128 414.523 71.128 414.768C71.128 415.461 71.336 416.027 71.752 416.464C72.1787 416.891 72.8133 417.104 73.656 417.104C74.4773 417.104 75.176 416.853 75.752 416.352C76.3387 415.851 76.7067 415.168 76.856 414.304C76.9093 414.005 76.936 413.744 76.936 413.52C76.936 412.827 76.7333 412.293 76.328 411.92C75.9333 411.536 75.3627 411.344 74.616 411.344ZM85.3333 411.008C85.6853 410.4 86.1439 409.931 86.7093 409.6C87.2746 409.269 87.9306 409.104 88.6773 409.104L88.4693 410.272H88.1493C87.3813 410.272 86.7199 410.469 86.1653 410.864C85.6106 411.259 85.2266 411.909 85.0133 412.816L84.1013 418H82.9813L84.5173 409.264H85.6373L85.3333 411.008ZM91.9781 418.128C91.2528 418.128 90.6128 417.984 90.0581 417.696C89.5035 417.397 89.0715 416.981 88.7621 416.448C88.4635 415.904 88.3141 415.269 88.3141 414.544C88.3141 413.563 88.5381 412.661 88.9861 411.84C89.4341 411.008 90.0581 410.352 90.8581 409.872C91.6581 409.381 92.5488 409.136 93.5301 409.136C94.2555 409.136 94.8955 409.285 95.4501 409.584C96.0048 409.872 96.4368 410.288 96.7461 410.832C97.0555 411.365 97.2101 411.995 97.2101 412.72C97.2101 413.712 96.9808 414.619 96.5221 415.44C96.0635 416.261 95.4341 416.917 94.6341 417.408C93.8448 417.888 92.9595 418.128 91.9781 418.128ZM92.1061 417.184C92.8635 417.184 93.5408 416.981 94.1381 416.576C94.7461 416.171 95.2155 415.632 95.5461 414.96C95.8875 414.288 96.0581 413.563 96.0581 412.784C96.0581 411.909 95.8021 411.243 95.2901 410.784C94.7888 410.325 94.1488 410.096 93.3701 410.096C92.6128 410.096 91.9355 410.299 91.3381 410.704C90.7515 411.109 90.2928 411.648 89.9621 412.32C89.6315 412.992 89.4661 413.717 89.4661 414.496C89.4661 415.36 89.7168 416.027 90.2181 416.496C90.7195 416.955 91.3488 417.184 92.1061 417.184ZM110.82 409.264L106.548 418H105.428L104.308 410.688L100.58 418H99.4598L98.2598 409.264H99.4118L100.26 416.816L104.02 409.264H105.156L106.228 416.832L109.716 409.264H110.82ZM113.083 418.128C112.197 418.128 111.477 417.925 110.923 417.52C110.368 417.104 110.091 416.539 110.091 415.824C110.091 415.696 110.096 415.6 110.107 415.536H111.195C111.152 416.048 111.301 416.459 111.643 416.768C111.984 417.077 112.485 417.232 113.147 417.232C113.819 417.232 114.357 417.093 114.763 416.816C115.168 416.528 115.371 416.149 115.371 415.68C115.371 415.403 115.285 415.168 115.115 414.976C114.944 414.784 114.731 414.629 114.475 414.512C114.229 414.384 113.883 414.24 113.435 414.08C112.88 413.877 112.432 413.691 112.091 413.52C111.76 413.339 111.472 413.093 111.227 412.784C110.992 412.464 110.875 412.064 110.875 411.584C110.875 411.104 111.013 410.677 111.291 410.304C111.568 409.931 111.947 409.643 112.427 409.44C112.917 409.237 113.472 409.136 114.091 409.136C114.955 409.136 115.659 409.349 116.203 409.776C116.757 410.203 117.035 410.768 117.035 411.472C117.035 411.621 117.029 411.733 117.019 411.808H115.963C115.973 411.765 115.979 411.696 115.979 411.6C115.979 411.131 115.792 410.752 115.419 410.464C115.056 410.176 114.587 410.032 114.011 410.032C113.435 410.032 112.955 410.171 112.571 410.448C112.197 410.715 112.011 411.077 112.011 411.536C112.011 411.845 112.101 412.107 112.283 412.32C112.464 412.523 112.688 412.688 112.955 412.816C113.221 412.944 113.579 413.093 114.027 413.264C114.56 413.467 114.987 413.653 115.307 413.824C115.637 413.995 115.915 414.229 116.139 414.528C116.363 414.827 116.475 415.2 116.475 415.648C116.475 416.405 116.16 417.008 115.531 417.456C114.901 417.904 114.085 418.128 113.083 418.128Z" fill="#D6589F"/>
<path d="M78 367.071L94 341L109.867 367.071H78Z" fill="#D895DA"/>
<rect x="67" y="374" width="24" height="24" fill="#D63484"/>
<circle cx="110.5" cy="386.5" r="13.5" fill="#D6589F"/>
<rect x="50" y="466" width="300" height="120" rx="20" fill="#C4E4FF"/>
<path d="M145.734 520.58V533H144.474V523.082L140.046 533H139.128L134.7 523.118V533H133.44V520.58H134.772L139.578 531.344L144.384 520.58H145.734ZM152.174 533.144C151.25 533.144 150.416 532.94 149.672 532.532C148.94 532.112 148.358 531.524 147.926 530.768C147.506 530 147.296 529.106 147.296 528.086C147.296 527.066 147.512 526.178 147.944 525.422C148.376 524.654 148.964 524.066 149.708 523.658C150.452 523.238 151.286 523.028 152.21 523.028C153.134 523.028 153.968 523.238 154.712 523.658C155.468 524.066 156.056 524.654 156.476 525.422C156.908 526.178 157.124 527.066 157.124 528.086C157.124 529.094 156.908 529.982 156.476 530.75C156.044 531.518 155.45 532.112 154.694 532.532C153.938 532.94 153.098 533.144 152.174 533.144ZM152.174 532.046C152.822 532.046 153.422 531.902 153.974 531.614C154.526 531.314 154.97 530.87 155.306 530.282C155.654 529.682 155.828 528.95 155.828 528.086C155.828 527.222 155.66 526.496 155.324 525.908C154.988 525.308 154.544 524.864 153.992 524.576C153.44 524.276 152.84 524.126 152.192 524.126C151.544 524.126 150.944 524.276 150.392 524.576C149.84 524.864 149.396 525.308 149.06 525.908C148.736 526.496 148.574 527.222 148.574 528.086C148.574 528.95 148.736 529.682 149.06 530.282C149.396 530.87 149.834 531.314 150.374 531.614C150.926 531.902 151.526 532.046 152.174 532.046ZM158.125 528.068C158.125 527.06 158.329 526.178 158.737 525.422C159.145 524.654 159.703 524.066 160.411 523.658C161.131 523.238 161.941 523.028 162.841 523.028C163.705 523.028 164.485 523.238 165.181 523.658C165.877 524.078 166.387 524.624 166.711 525.296V519.68H167.971V533H166.711V530.804C166.411 531.488 165.919 532.052 165.235 532.496C164.551 532.928 163.747 533.144 162.823 533.144C161.923 533.144 161.113 532.934 160.393 532.514C159.685 532.094 159.127 531.5 158.719 530.732C158.323 529.964 158.125 529.076 158.125 528.068ZM166.711 528.086C166.711 527.294 166.549 526.598 166.225 525.998C165.901 525.398 165.457 524.936 164.893 524.612C164.341 524.288 163.729 524.126 163.057 524.126C162.361 524.126 161.737 524.282 161.185 524.594C160.633 524.906 160.195 525.362 159.871 525.962C159.559 526.55 159.403 527.252 159.403 528.068C159.403 528.872 159.559 529.58 159.871 530.192C160.195 530.792 160.633 531.254 161.185 531.578C161.737 531.89 162.361 532.046 163.057 532.046C163.729 532.046 164.341 531.884 164.893 531.56C165.457 531.236 165.901 530.774 166.225 530.174C166.549 529.574 166.711 528.878 166.711 528.086ZM178.642 523.172V533H177.382V531.272C177.094 531.884 176.65 532.352 176.05 532.676C175.45 533 174.778 533.162 174.034 533.162C172.858 533.162 171.898 532.802 171.154 532.082C170.41 531.35 170.038 530.294 170.038 528.914V523.172H171.28V528.77C171.28 529.838 171.544 530.654 172.072 531.218C172.612 531.782 173.344 532.064 174.268 532.064C175.216 532.064 175.972 531.764 176.536 531.164C177.1 530.564 177.382 529.682 177.382 528.518V523.172H178.642ZM182.058 519.68V533H180.798V519.68H182.058ZM193.084 527.582C193.084 528.014 193.072 528.344 193.048 528.572H184.894C184.93 529.316 185.11 529.952 185.434 530.48C185.758 531.008 186.184 531.41 186.712 531.686C187.24 531.95 187.816 532.082 188.44 532.082C189.256 532.082 189.94 531.884 190.492 531.488C191.056 531.092 191.428 530.558 191.608 529.886H192.94C192.7 530.846 192.184 531.632 191.392 532.244C190.612 532.844 189.628 533.144 188.44 533.144C187.516 533.144 186.688 532.94 185.956 532.532C185.224 532.112 184.648 531.524 184.228 530.768C183.82 530 183.616 529.106 183.616 528.086C183.616 527.066 183.82 526.172 184.228 525.404C184.636 524.636 185.206 524.048 185.938 523.64C186.67 523.232 187.504 523.028 188.44 523.028C189.376 523.028 190.192 523.232 190.888 523.64C191.596 524.048 192.136 524.6 192.508 525.296C192.892 525.98 193.084 526.742 193.084 527.582ZM191.806 527.546C191.818 526.814 191.668 526.19 191.356 525.674C191.056 525.158 190.642 524.768 190.114 524.504C189.586 524.24 189.01 524.108 188.386 524.108C187.45 524.108 186.652 524.408 185.992 525.008C185.332 525.608 184.966 526.454 184.894 527.546H191.806ZM194.885 533.09C194.621 533.09 194.399 533 194.219 532.82C194.051 532.64 193.967 532.418 193.967 532.154C193.967 531.89 194.051 531.674 194.219 531.506C194.399 531.326 194.621 531.236 194.885 531.236C195.137 531.236 195.347 531.326 195.515 531.506C195.695 531.674 195.785 531.89 195.785 532.154C195.785 532.418 195.695 532.64 195.515 532.82C195.347 533 195.137 533.09 194.885 533.09ZM194.885 525.26C194.621 525.26 194.399 525.17 194.219 524.99C194.051 524.81 193.967 524.588 193.967 524.324C193.967 524.06 194.051 523.844 194.219 523.676C194.399 523.496 194.621 523.406 194.885 523.406C195.137 523.406 195.347 523.496 195.515 523.676C195.695 523.844 195.785 524.06 195.785 524.324C195.785 524.588 195.695 524.81 195.515 524.99C195.347 525.17 195.137 525.26 194.885 525.26Z" fill="#402B3A"/>
<path d="M215.872 522.12C215.44 521.288 214.84 520.664 214.072 520.248C213.304 519.816 212.416 519.6 211.408 519.6C210.304 519.6 209.32 519.848 208.456 520.344C207.592 520.84 206.912 521.544 206.416 522.456C205.936 523.368 205.696 524.424 205.696 525.624C205.696 526.824 205.936 527.888 206.416 528.816C206.912 529.728 207.592 530.432 208.456 530.928C209.32 531.424 210.304 531.672 211.408 531.672C212.896 531.672 214.104 531.256 215.032 530.424C215.96 529.592 216.528 528.464 216.736 527.04H210.472V524.856H219.664V526.992C219.488 528.288 219.024 529.48 218.272 530.568C217.536 531.656 216.568 532.528 215.368 533.184C214.184 533.824 212.864 534.144 211.408 534.144C209.84 534.144 208.408 533.784 207.112 533.064C205.816 532.328 204.784 531.312 204.016 530.016C203.264 528.72 202.888 527.256 202.888 525.624C202.888 523.992 203.264 522.528 204.016 521.232C204.784 519.936 205.816 518.928 207.112 518.208C208.424 517.472 209.856 517.104 211.408 517.104C213.184 517.104 214.76 517.544 216.136 518.424C217.528 519.288 218.536 520.52 219.16 522.12H215.872ZM231.459 530.592H224.475L223.275 534H220.419L226.395 517.296H229.563L235.539 534H232.659L231.459 530.592ZM230.691 528.36L227.979 520.608L225.243 528.36H230.691ZM254.745 517.32V534H252.009V522.576L246.921 534H245.025L239.913 522.576V534H237.177V517.32H240.129L245.985 530.4L251.817 517.32H254.745ZM260.117 519.528V524.424H265.877V526.656H260.117V531.768H266.597V534H257.381V517.296H266.597V519.528H260.117ZM274.503 534.168C273.383 534.168 272.375 533.976 271.479 533.592C270.583 533.192 269.879 532.632 269.367 531.912C268.855 531.192 268.599 530.352 268.599 529.392H271.527C271.591 530.112 271.871 530.704 272.367 531.168C272.879 531.632 273.591 531.864 274.503 531.864C275.447 531.864 276.183 531.64 276.711 531.192C277.239 530.728 277.503 530.136 277.503 529.416C277.503 528.856 277.335 528.4 276.999 528.048C276.679 527.696 276.271 527.424 275.775 527.232C275.295 527.04 274.623 526.832 273.759 526.608C272.671 526.32 271.783 526.032 271.095 525.744C270.423 525.44 269.847 524.976 269.367 524.352C268.887 523.728 268.647 522.896 268.647 521.856C268.647 520.896 268.887 520.056 269.367 519.336C269.847 518.616 270.519 518.064 271.383 517.68C272.247 517.296 273.247 517.104 274.383 517.104C275.999 517.104 277.319 517.512 278.343 518.328C279.383 519.128 279.959 520.232 280.071 521.64H277.047C276.999 521.032 276.711 520.512 276.183 520.08C275.655 519.648 274.959 519.432 274.095 519.432C273.311 519.432 272.671 519.632 272.175 520.032C271.679 520.432 271.431 521.008 271.431 521.76C271.431 522.272 271.583 522.696 271.887 523.032C272.207 523.352 272.607 523.608 273.087 523.8C273.567 523.992 274.223 524.2 275.055 524.424C276.159 524.728 277.055 525.032 277.743 525.336C278.447 525.64 279.039 526.112 279.519 526.752C280.015 527.376 280.263 528.216 280.263 529.272C280.263 530.12 280.031 530.92 279.567 531.672C279.119 532.424 278.455 533.032 277.575 533.496C276.711 533.944 275.687 534.168 274.503 534.168Z" fill="#CC3380"/>
<path d="M65.224 565.28L65.368 564.432L72.584 556.592H73.912L72.552 564.304H74.264L74.088 565.28H72.376L71.896 568H70.792L71.272 565.28H65.224ZM72.632 557.824L66.696 564.304H71.496L72.632 557.824ZM75.4365 562.24C75.7565 560.416 76.2845 558.997 77.0205 557.984C77.7672 556.971 78.8712 556.464 80.3325 556.464C81.4418 556.464 82.2365 556.768 82.7165 557.376C83.2072 557.984 83.4525 558.837 83.4525 559.936C83.4525 560.565 83.3725 561.333 83.2125 562.24C82.8925 564.064 82.3592 565.488 81.6125 566.512C80.8658 567.525 79.7618 568.032 78.3005 568.032C77.1912 568.032 76.3965 567.733 75.9165 567.136C75.4365 566.528 75.1965 565.675 75.1965 564.576C75.1965 563.947 75.2765 563.168 75.4365 562.24ZM82.1085 562.24C82.2685 561.355 82.3485 560.619 82.3485 560.032C82.3485 559.221 82.1778 558.597 81.8365 558.16C81.5058 557.712 80.9458 557.488 80.1565 557.488C79.3885 557.488 78.7645 557.696 78.2845 558.112C77.8045 558.517 77.4365 559.061 77.1805 559.744C76.9245 560.427 76.7112 561.259 76.5405 562.24C76.3698 563.211 76.2845 563.963 76.2845 564.496C76.2845 565.296 76.4498 565.915 76.7805 566.352C77.1112 566.789 77.6765 567.008 78.4765 567.008C79.2445 567.008 79.8685 566.805 80.3485 566.4C80.8285 565.984 81.1965 565.435 81.4525 564.752C81.7085 564.069 81.9272 563.232 82.1085 562.24ZM90.3026 561.008C90.6546 560.4 91.1133 559.931 91.6786 559.6C92.244 559.269 92.9 559.104 93.6466 559.104L93.4386 560.272H93.1186C92.3506 560.272 91.6893 560.469 91.1346 560.864C90.58 561.259 90.196 561.909 89.9826 562.816L89.0706 568H87.9506L89.4866 559.264H90.6066L90.3026 561.008ZM96.9475 568.128C96.2222 568.128 95.5822 567.984 95.0275 567.696C94.4728 567.397 94.0408 566.981 93.7315 566.448C93.4328 565.904 93.2835 565.269 93.2835 564.544C93.2835 563.563 93.5075 562.661 93.9555 561.84C94.4035 561.008 95.0275 560.352 95.8275 559.872C96.6275 559.381 97.5182 559.136 98.4995 559.136C99.2248 559.136 99.8648 559.285 100.42 559.584C100.974 559.872 101.406 560.288 101.716 560.832C102.025 561.365 102.18 561.995 102.18 562.72C102.18 563.712 101.95 564.619 101.492 565.44C101.033 566.261 100.404 566.917 99.6035 567.408C98.8142 567.888 97.9288 568.128 96.9475 568.128ZM97.0755 567.184C97.8328 567.184 98.5102 566.981 99.1075 566.576C99.7155 566.171 100.185 565.632 100.516 564.96C100.857 564.288 101.028 563.563 101.028 562.784C101.028 561.909 100.772 561.243 100.26 560.784C99.7582 560.325 99.1182 560.096 98.3395 560.096C97.5822 560.096 96.9048 560.299 96.3075 560.704C95.7208 561.109 95.2622 561.648 94.9315 562.32C94.6008 562.992 94.4355 563.717 94.4355 564.496C94.4355 565.36 94.6862 566.027 95.1875 566.496C95.6888 566.955 96.3182 567.184 97.0755 567.184ZM115.789 559.264L111.517 568H110.397L109.277 560.688L105.549 568H104.429L103.229 559.264H104.381L105.229 566.816L108.989 559.264H110.125L111.197 566.832L114.685 559.264H115.789ZM118.052 568.128C117.167 568.128 116.447 567.925 115.892 567.52C115.337 567.104 115.06 566.539 115.06 565.824C115.06 565.696 115.065 565.6 115.076 565.536H116.164C116.121 566.048 116.271 566.459 116.612 566.768C116.953 567.077 117.455 567.232 118.116 567.232C118.788 567.232 119.327 567.093 119.732 566.816C120.137 566.528 120.34 566.149 120.34 565.68C120.34 565.403 120.255 565.168 120.084 564.976C119.913 564.784 119.7 564.629 119.444 564.512C119.199 564.384 118.852 564.24 118.404 564.08C117.849 563.877 117.401 563.691 117.06 563.52C116.729 563.339 116.441 563.093 116.196 562.784C115.961 562.464 115.844 562.064 115.844 561.584C115.844 561.104 115.983 560.677 116.26 560.304C116.537 559.931 116.916 559.643 117.396 559.44C117.887 559.237 118.441 559.136 119.06 559.136C119.924 559.136 120.628 559.349 121.172 559.776C121.727 560.203 122.004 560.768 122.004 561.472C122.004 561.621 121.999 561.733 121.988 561.808H120.932C120.943 561.765 120.948 561.696 120.948 561.6C120.948 561.131 120.761 560.752 120.388 560.464C120.025 560.176 119.556 560.032 118.98 560.032C118.404 560.032 117.924 560.171 117.54 560.448C117.167 560.715 116.98 561.077 116.98 561.536C116.98 561.845 117.071 562.107 117.252 562.32C117.433 562.523 117.657 562.688 117.924 562.816C118.191 562.944 118.548 563.093 118.996 563.264C119.529 563.467 119.956 563.653 120.276 563.824C120.607 563.995 120.884 564.229 121.108 564.528C121.332 564.827 121.444 565.2 121.444 565.648C121.444 566.405 121.129 567.008 120.5 567.456C119.871 567.904 119.055 568.128 118.052 568.128Z" fill="#D6589F"/>
<rect x="255" y="548" width="89" height="30" rx="15" fill="#402B3A"/>
<path d="M286.058 567.488L289.118 559.136H290.864L286.994 569H285.086L281.216 559.136H282.98L286.058 567.488ZM292.602 557.534C292.29 557.534 292.026 557.426 291.81 557.21C291.594 556.994 291.486 556.73 291.486 556.418C291.486 556.106 291.594 555.842 291.81 555.626C292.026 555.41 292.29 555.302 292.602 555.302C292.902 555.302 293.154 555.41 293.358 555.626C293.574 555.842 293.682 556.106 293.682 556.418C293.682 556.73 293.574 556.994 293.358 557.21C293.154 557.426 292.902 557.534 292.602 557.534ZM293.394 559.136V569H291.756V559.136H293.394ZM304.466 563.69C304.466 564.002 304.448 564.332 304.412 564.68H296.528C296.588 565.652 296.918 566.414 297.518 566.966C298.13 567.506 298.868 567.776 299.732 567.776C300.44 567.776 301.028 567.614 301.496 567.29C301.976 566.954 302.312 566.51 302.504 565.958H304.268C304.004 566.906 303.476 567.68 302.684 568.28C301.892 568.868 300.908 569.162 299.732 569.162C298.796 569.162 297.956 568.952 297.212 568.532C296.48 568.112 295.904 567.518 295.484 566.75C295.064 565.97 294.854 565.07 294.854 564.05C294.854 563.03 295.058 562.136 295.466 561.368C295.874 560.6 296.444 560.012 297.176 559.604C297.92 559.184 298.772 558.974 299.732 558.974C300.668 558.974 301.496 559.178 302.216 559.586C302.936 559.994 303.488 560.558 303.872 561.278C304.268 561.986 304.466 562.79 304.466 563.69ZM302.774 563.348C302.774 562.724 302.636 562.19 302.36 561.746C302.084 561.29 301.706 560.948 301.226 560.72C300.758 560.48 300.236 560.36 299.66 560.36C298.832 560.36 298.124 560.624 297.536 561.152C296.96 561.68 296.63 562.412 296.546 563.348H302.774ZM319.048 559.136L315.97 569H314.278L311.902 561.17L309.526 569H307.834L304.738 559.136H306.412L308.68 567.416L311.128 559.136H312.802L315.196 567.434L317.428 559.136H319.048Z" fill="#C4E4FF"/>
<path d="M82.6978 518.25C83.7041 518.25 84.5208 519.067 84.5208 520.073V525.542H89.2603C89.7438 525.542 90.2075 525.734 90.5493 526.076C90.8912 526.417 91.0833 526.881 91.0833 527.365C91.0833 527.848 90.8912 528.312 90.5493 528.654C90.2075 528.995 89.7438 529.188 89.2603 529.188H84.5208V533.927C84.5208 534.411 84.3287 534.874 83.9868 535.216C83.645 535.558 83.1813 535.75 82.6978 535.75C82.2144 535.75 81.7507 535.558 81.4088 535.216C81.067 534.874 80.8749 534.411 80.8749 533.927V529.188H75.4062C74.9227 529.188 74.459 528.995 74.1172 528.654C73.7753 528.312 73.5833 527.848 73.5833 527.365C73.5833 526.881 73.7753 526.417 74.1172 526.076C74.459 525.734 74.9227 525.542 75.4062 525.542H80.8749V520.073C80.8749 519.067 81.6916 518.25 82.6978 518.25ZM105.667 532.104C105.667 533.071 105.282 533.998 104.599 534.682C103.915 535.366 102.988 535.75 102.021 535.75C101.054 535.75 100.126 535.366 99.4428 534.682C98.759 533.998 98.3749 533.071 98.3749 532.104C98.3749 531.137 98.759 530.21 99.4428 529.526C100.126 528.842 101.054 528.458 102.021 528.458C102.988 528.458 103.915 528.842 104.599 529.526C105.282 530.21 105.667 531.137 105.667 532.104ZM107.854 525.542C108.821 525.542 109.748 525.158 110.432 524.474C111.116 523.79 111.5 522.863 111.5 521.896C111.5 520.929 111.116 520.002 110.432 519.318C109.748 518.634 108.821 518.25 107.854 518.25C106.887 518.25 105.96 518.634 105.276 519.318C104.592 520.002 104.208 520.929 104.208 521.896C104.208 522.863 104.592 523.79 105.276 524.474C105.96 525.158 106.887 525.542 107.854 525.542ZM64.8333 527C64.8333 515.724 73.9741 506.583 85.2499 506.583H102.75C114.026 506.583 123.167 515.724 123.167 527C123.167 538.276 114.026 547.417 102.75 547.417H85.2499C73.9741 547.417 64.8333 538.276 64.8333 527ZM85.2499 510.229C75.988 510.229 68.4791 517.738 68.4791 527C68.4791 536.262 75.988 543.771 85.2499 543.771H102.75C112.012 543.771 119.521 536.262 119.521 527C119.521 517.738 112.012 510.229 102.75 510.229H85.2499Z" fill="#D6589F"/>
</svg>
