<svg width="400" height="800" viewBox="0 0 400 800" fill="none" xmlns="http://www.w3.org/2000/svg">
<rect width="400" height="800" fill="#402B3A"/>
<path d="M86.496 48.64C90.048 48.64 93.152 49.328 95.808 50.704C98.496 52.048 100.56 54 102 56.56C103.472 59.088 104.208 62.048 104.208 65.44C104.208 68.832 103.472 71.776 102 74.272C100.56 76.768 98.496 78.688 95.808 80.032C93.152 81.344 90.048 82 86.496 82H75.6V48.64H86.496ZM86.496 77.536C90.4 77.536 93.392 76.48 95.472 74.368C97.552 72.256 98.592 69.28 98.592 65.44C98.592 61.568 97.552 58.544 95.472 56.368C93.392 54.192 90.4 53.104 86.496 53.104H81.072V77.536H86.496ZM105.887 68.656C105.887 66 106.431 63.648 107.519 61.6C108.639 59.552 110.143 57.968 112.031 56.848C113.951 55.696 116.063 55.12 118.367 55.12C120.447 55.12 122.255 55.536 123.791 56.368C125.359 57.168 126.607 58.176 127.535 59.392V55.552H133.055V82H127.535V78.064C126.607 79.312 125.343 80.352 123.743 81.184C122.143 82.016 120.319 82.432 118.271 82.432C115.999 82.432 113.919 81.856 112.031 80.704C110.143 79.52 108.639 77.888 107.519 75.808C106.431 73.696 105.887 71.312 105.887 68.656ZM127.535 68.752C127.535 66.928 127.151 65.344 126.383 64C125.647 62.656 124.671 61.632 123.455 60.928C122.239 60.224 120.927 59.872 119.519 59.872C118.111 59.872 116.799 60.224 115.583 60.928C114.367 61.6 113.375 62.608 112.607 63.952C111.871 65.264 111.503 66.832 111.503 68.656C111.503 70.48 111.871 72.08 112.607 73.456C113.375 74.832 114.367 75.888 115.583 76.624C116.831 77.328 118.143 77.68 119.519 77.68C120.927 77.68 122.239 77.328 123.455 76.624C124.671 75.92 125.647 74.896 126.383 73.552C127.151 72.176 127.535 70.576 127.535 68.752ZM147.923 82.432C145.843 82.432 143.971 82.064 142.307 81.328C140.675 80.56 139.379 79.536 138.419 78.256C137.459 76.944 136.946 75.488 136.882 73.888H142.546C142.643 75.008 143.171 75.952 144.131 76.72C145.123 77.456 146.355 77.824 147.826 77.824C149.363 77.824 150.547 77.536 151.378 76.96C152.243 76.352 152.675 75.584 152.675 74.656C152.675 73.664 152.195 72.928 151.235 72.448C150.307 71.968 148.819 71.44 146.771 70.864C144.787 70.32 143.171 69.792 141.923 69.28C140.675 68.768 139.587 67.984 138.658 66.928C137.762 65.872 137.314 64.48 137.314 62.752C137.314 61.344 137.73 60.064 138.563 58.912C139.395 57.728 140.579 56.8 142.115 56.128C143.683 55.456 145.475 55.12 147.49 55.12C150.499 55.12 152.915 55.888 154.739 57.424C156.595 58.928 157.587 60.992 157.715 63.616H152.243C152.147 62.432 151.667 61.488 150.803 60.784C149.939 60.08 148.771 59.728 147.299 59.728C145.859 59.728 144.755 60 143.987 60.544C143.219 61.088 142.835 61.808 142.835 62.704C142.835 63.408 143.091 64 143.602 64.48C144.115 64.96 144.739 65.344 145.475 65.632C146.211 65.888 147.299 66.224 148.739 66.64C150.659 67.152 152.227 67.68 153.443 68.224C154.691 68.736 155.763 69.504 156.659 70.528C157.555 71.552 158.019 72.912 158.051 74.608C158.051 76.112 157.635 77.456 156.803 78.64C155.971 79.824 154.787 80.752 153.251 81.424C151.747 82.096 149.971 82.432 147.923 82.432ZM175.723 55.12C177.739 55.12 179.531 55.552 181.099 56.416C182.699 57.28 183.947 58.56 184.843 60.256C185.771 61.952 186.235 64 186.235 66.4V82H180.811V67.216C180.811 64.848 180.219 63.04 179.035 61.792C177.851 60.512 176.235 59.872 174.187 59.872C172.139 59.872 170.507 60.512 169.291 61.792C168.107 63.04 167.515 64.848 167.515 67.216V82H162.043V46.48H167.515V58.624C168.443 57.504 169.611 56.64 171.019 56.032C172.459 55.424 174.027 55.12 175.723 55.12ZM196.767 59.488C197.695 58.208 198.959 57.168 200.559 56.368C202.191 55.536 203.999 55.12 205.983 55.12C208.319 55.12 210.431 55.68 212.319 56.8C214.207 57.92 215.695 59.52 216.783 61.6C217.871 63.648 218.415 66 218.415 68.656C218.415 71.312 217.871 73.696 216.783 75.808C215.695 77.888 214.191 79.52 212.271 80.704C210.383 81.856 208.287 82.432 205.983 82.432C203.935 82.432 202.111 82.032 200.511 81.232C198.943 80.432 197.695 79.408 196.767 78.16V82H191.295V46.48H196.767V59.488ZM212.847 68.656C212.847 66.832 212.463 65.264 211.695 63.952C210.959 62.608 209.967 61.6 208.719 60.928C207.503 60.224 206.191 59.872 204.783 59.872C203.407 59.872 202.095 60.224 200.847 60.928C199.631 61.632 198.639 62.656 197.871 64C197.135 65.344 196.767 66.928 196.767 68.752C196.767 70.576 197.135 72.176 197.871 73.552C198.639 74.896 199.631 75.92 200.847 76.624C202.095 77.328 203.407 77.68 204.783 77.68C206.191 77.68 207.503 77.328 208.719 76.624C209.967 75.888 210.959 74.832 211.695 73.456C212.463 72.08 212.847 70.48 212.847 68.656ZM233.378 82.432C230.882 82.432 228.626 81.872 226.61 80.752C224.594 79.6 223.01 78 221.858 75.952C220.706 73.872 220.13 71.472 220.13 68.752C220.13 66.064 220.722 63.68 221.906 61.6C223.09 59.52 224.706 57.92 226.754 56.8C228.802 55.68 231.09 55.12 233.618 55.12C236.146 55.12 238.434 55.68 240.482 56.8C242.53 57.92 244.146 59.52 245.33 61.6C246.514 63.68 247.106 66.064 247.106 68.752C247.106 71.44 246.498 73.824 245.282 75.904C244.066 77.984 242.402 79.6 240.29 80.752C238.21 81.872 235.906 82.432 233.378 82.432ZM233.378 77.68C234.786 77.68 236.098 77.344 237.314 76.672C238.562 76 239.57 74.992 240.338 73.648C241.106 72.304 241.49 70.672 241.49 68.752C241.49 66.832 241.122 65.216 240.386 63.904C239.65 62.56 238.674 61.552 237.458 60.88C236.242 60.208 234.93 59.872 233.522 59.872C232.114 59.872 230.802 60.208 229.586 60.88C228.402 61.552 227.458 62.56 226.754 63.904C226.05 65.216 225.698 66.832 225.698 68.752C225.698 71.6 226.418 73.808 227.858 75.376C229.33 76.912 231.17 77.68 233.378 77.68ZM248.772 68.656C248.772 66 249.316 63.648 250.404 61.6C251.524 59.552 253.028 57.968 254.916 56.848C256.836 55.696 258.948 55.12 261.252 55.12C263.332 55.12 265.14 55.536 266.676 56.368C268.244 57.168 269.492 58.176 270.42 59.392V55.552H275.94V82H270.42V78.064C269.492 79.312 268.228 80.352 266.628 81.184C265.028 82.016 263.204 82.432 261.156 82.432C258.884 82.432 256.804 81.856 254.916 80.704C253.028 79.52 251.524 77.888 250.404 75.808C249.316 73.696 248.772 71.312 248.772 68.656ZM270.42 68.752C270.42 66.928 270.036 65.344 269.268 64C268.532 62.656 267.556 61.632 266.34 60.928C265.124 60.224 263.812 59.872 262.404 59.872C260.996 59.872 259.684 60.224 258.468 60.928C257.252 61.6 256.26 62.608 255.492 63.952C254.756 65.264 254.388 66.832 254.388 68.656C254.388 70.48 254.756 72.08 255.492 73.456C256.26 74.832 257.252 75.888 258.468 76.624C259.716 77.328 261.028 77.68 262.404 77.68C263.812 77.68 265.124 77.328 266.34 76.624C267.556 75.92 268.532 74.896 269.268 73.552C270.036 72.176 270.42 70.576 270.42 68.752ZM286.679 59.392C287.479 58.048 288.535 57.008 289.847 56.272C291.191 55.504 292.775 55.12 294.599 55.12V60.784H293.207C291.063 60.784 289.431 61.328 288.311 62.416C287.223 63.504 286.679 65.392 286.679 68.08V82H281.207V55.552H286.679V59.392ZM295.885 68.656C295.885 66 296.429 63.648 297.517 61.6C298.637 59.552 300.141 57.968 302.029 56.848C303.949 55.696 306.077 55.12 308.413 55.12C310.141 55.12 311.837 55.504 313.501 56.272C315.197 57.008 316.541 58 317.533 59.248V46.48H323.053V82H317.533V78.016C316.637 79.296 315.389 80.352 313.789 81.184C312.221 82.016 310.413 82.432 308.365 82.432C306.061 82.432 303.949 81.856 302.029 80.704C300.141 79.52 298.637 77.888 297.517 75.808C296.429 73.696 295.885 71.312 295.885 68.656ZM317.533 68.752C317.533 66.928 317.149 65.344 316.381 64C315.645 62.656 314.669 61.632 313.453 60.928C312.237 60.224 310.925 59.872 309.517 59.872C308.109 59.872 306.797 60.224 305.581 60.928C304.365 61.6 303.373 62.608 302.605 63.952C301.869 65.264 301.501 66.832 301.501 68.656C301.501 70.48 301.869 72.08 302.605 73.456C303.373 74.832 304.365 75.888 305.581 76.624C306.829 77.328 308.141 77.68 309.517 77.68C310.925 77.68 312.237 77.328 313.453 76.624C314.669 75.92 315.645 74.896 316.381 73.552C317.149 72.176 317.533 70.576 317.533 68.752Z" fill="#D20062"/>
<path d="M350.312 80.9375H389.688M350.312 65.9375H389.688M350.312 50.9375H389.688" stroke="#D6589F" stroke-width="4" stroke-linecap="round" stroke-linejoin="round"/>
<rect x="50" y="166" width="300" height="120" rx="20" fill="#C4E4FF"/>
<path d="M151.368 217.32V234H148.632V222.576L143.544 234H141.648L136.536 222.576V234H133.8V217.32H136.752L142.608 230.4L148.44 217.32H151.368ZM165.908 220.776L157.796 240.216H154.964L157.652 233.784L152.444 220.776H155.492L159.212 230.856L163.076 220.776H165.908ZM183.951 222.288C183.951 223.136 183.751 223.936 183.351 224.688C182.951 225.44 182.311 226.056 181.431 226.536C180.551 227 179.423 227.232 178.047 227.232H175.023V234H172.287V217.32H178.047C179.327 217.32 180.407 217.544 181.287 217.992C182.183 218.424 182.847 219.016 183.279 219.768C183.727 220.52 183.951 221.36 183.951 222.288ZM178.047 225C179.087 225 179.863 224.768 180.375 224.304C180.887 223.824 181.143 223.152 181.143 222.288C181.143 220.464 180.111 219.552 178.047 219.552H175.023V225H178.047ZM188.337 222.696C188.737 222.024 189.265 221.504 189.921 221.136C190.593 220.752 191.385 220.56 192.297 220.56V223.392H191.601C190.529 223.392 189.713 223.664 189.153 224.208C188.609 224.752 188.337 225.696 188.337 227.04V234H185.601V220.776H188.337V222.696ZM199.588 234.216C198.34 234.216 197.212 233.936 196.204 233.376C195.196 232.8 194.404 232 193.828 230.976C193.252 229.936 192.964 228.736 192.964 227.376C192.964 226.032 193.26 224.84 193.852 223.8C194.444 222.76 195.252 221.96 196.276 221.4C197.3 220.84 198.444 220.56 199.708 220.56C200.972 220.56 202.116 220.84 203.14 221.4C204.164 221.96 204.972 222.76 205.564 223.8C206.156 224.84 206.452 226.032 206.452 227.376C206.452 228.72 206.148 229.912 205.54 230.952C204.932 231.992 204.1 232.8 203.044 233.376C202.004 233.936 200.852 234.216 199.588 234.216ZM199.588 231.84C200.292 231.84 200.948 231.672 201.556 231.336C202.18 231 202.684 230.496 203.068 229.824C203.452 229.152 203.644 228.336 203.644 227.376C203.644 226.416 203.46 225.608 203.092 224.952C202.724 224.28 202.236 223.776 201.628 223.44C201.02 223.104 200.364 222.936 199.66 222.936C198.956 222.936 198.3 223.104 197.692 223.44C197.1 223.776 196.628 224.28 196.276 224.952C195.924 225.608 195.748 226.416 195.748 227.376C195.748 228.8 196.108 229.904 196.828 230.688C197.564 231.456 198.484 231.84 199.588 231.84ZM213.74 223.008H211.292V234H208.532V223.008H206.972V220.776H208.532V219.84C208.532 218.32 208.932 217.216 209.732 216.528C210.548 215.824 211.82 215.472 213.548 215.472V217.752C212.716 217.752 212.132 217.912 211.796 218.232C211.46 218.536 211.292 219.072 211.292 219.84V220.776H213.74V223.008ZM216.597 219.024C216.101 219.024 215.685 218.856 215.349 218.52C215.013 218.184 214.845 217.768 214.845 217.272C214.845 216.776 215.013 216.36 215.349 216.024C215.685 215.688 216.101 215.52 216.597 215.52C217.077 215.52 217.485 215.688 217.821 216.024C218.157 216.36 218.325 216.776 218.325 217.272C218.325 217.768 218.157 218.184 217.821 218.52C217.485 218.856 217.077 219.024 216.597 219.024ZM217.941 220.776V234H215.205V220.776H217.941ZM223.309 216.24V234H220.573V216.24H223.309ZM238.061 227.064C238.061 227.56 238.029 228.008 237.965 228.408H227.861C227.941 229.464 228.333 230.312 229.037 230.952C229.741 231.592 230.605 231.912 231.629 231.912C233.101 231.912 234.141 231.296 234.749 230.064H237.701C237.301 231.28 236.573 232.28 235.517 233.064C234.477 233.832 233.181 234.216 231.629 234.216C230.365 234.216 229.229 233.936 228.221 233.376C227.229 232.8 226.445 232 225.869 230.976C225.309 229.936 225.029 228.736 225.029 227.376C225.029 226.016 225.301 224.824 225.845 223.8C226.405 222.76 227.181 221.96 228.173 221.4C229.181 220.84 230.333 220.56 231.629 220.56C232.877 220.56 233.989 220.832 234.965 221.376C235.941 221.92 236.701 222.688 237.245 223.68C237.789 224.656 238.061 225.784 238.061 227.064ZM235.205 226.2C235.189 225.192 234.829 224.384 234.125 223.776C233.421 223.168 232.549 222.864 231.509 222.864C230.565 222.864 229.757 223.168 229.085 223.776C228.413 224.368 228.013 225.176 227.885 226.2H235.205Z" fill="#402B3A"/>
<path d="M93.335 202C96.4294 202 99.3971 203.229 101.585 205.417C103.773 207.605 105.002 210.573 105.002 213.667C105.002 216.762 103.773 219.73 101.585 221.918C99.3971 224.106 96.4294 225.335 93.335 225.335C90.2406 225.335 87.2729 224.106 85.0848 221.918C82.8968 219.73 81.6675 216.762 81.6675 213.667C81.6675 210.573 82.8968 207.605 85.0848 205.417C87.2729 203.229 90.2406 202 93.335 202ZM93.335 227.116C106.228 227.116 116.67 236.39 116.67 242.836V248.67H70V242.836C70 236.39 80.4424 227.116 93.335 227.116Z" fill="#D6589F"/>
<rect x="255" y="248" width="89" height="30" rx="15" fill="#402B3A"/>
<path d="M286.058 267.488L289.118 259.136H290.864L286.994 269H285.086L281.216 259.136H282.98L286.058 267.488ZM292.602 257.534C292.29 257.534 292.026 257.426 291.81 257.21C291.594 256.994 291.486 256.73 291.486 256.418C291.486 256.106 291.594 255.842 291.81 255.626C292.026 255.41 292.29 255.302 292.602 255.302C292.902 255.302 293.154 255.41 293.358 255.626C293.574 255.842 293.682 256.106 293.682 256.418C293.682 256.73 293.574 256.994 293.358 257.21C293.154 257.426 292.902 257.534 292.602 257.534ZM293.394 259.136V269H291.756V259.136H293.394ZM304.466 263.69C304.466 264.002 304.448 264.332 304.412 264.68H296.528C296.588 265.652 296.918 266.414 297.518 266.966C298.13 267.506 298.868 267.776 299.732 267.776C300.44 267.776 301.028 267.614 301.496 267.29C301.976 266.954 302.312 266.51 302.504 265.958H304.268C304.004 266.906 303.476 267.68 302.684 268.28C301.892 268.868 300.908 269.162 299.732 269.162C298.796 269.162 297.956 268.952 297.212 268.532C296.48 268.112 295.904 267.518 295.484 266.75C295.064 265.97 294.854 265.07 294.854 264.05C294.854 263.03 295.058 262.136 295.466 261.368C295.874 260.6 296.444 260.012 297.176 259.604C297.92 259.184 298.772 258.974 299.732 258.974C300.668 258.974 301.496 259.178 302.216 259.586C302.936 259.994 303.488 260.558 303.872 261.278C304.268 261.986 304.466 262.79 304.466 263.69ZM302.774 263.348C302.774 262.724 302.636 262.19 302.36 261.746C302.084 261.29 301.706 260.948 301.226 260.72C300.758 260.48 300.236 260.36 299.66 260.36C298.832 260.36 298.124 260.624 297.536 261.152C296.96 261.68 296.63 262.412 296.546 263.348H302.774ZM319.048 259.136L315.97 269H314.278L311.902 261.17L309.526 269H307.834L304.738 259.136H306.412L308.68 267.416L311.128 259.136H312.802L315.196 267.434L317.428 259.136H319.048Z" fill="#C4E4FF"/>
<rect x="50" y="316" width="300" height="120" rx="20" fill="#C4E4FF"/>
<path d="M151.368 360.32V377H148.632V365.576L143.544 377H141.648L136.536 365.576V377H133.8V360.32H136.752L142.608 373.4L148.44 360.32H151.368ZM165.908 363.776L157.796 383.216H154.964L157.652 376.784L152.444 363.776H155.492L159.212 373.856L163.076 363.776H165.908ZM171.375 368.624C171.375 366.992 171.751 365.528 172.503 364.232C173.271 362.936 174.303 361.928 175.599 361.208C176.911 360.472 178.343 360.104 179.895 360.104C181.671 360.104 183.247 360.544 184.623 361.424C186.015 362.288 187.023 363.52 187.647 365.12H184.359C183.927 364.24 183.327 363.584 182.559 363.152C181.791 362.72 180.903 362.504 179.895 362.504C178.791 362.504 177.807 362.752 176.943 363.248C176.079 363.744 175.399 364.456 174.903 365.384C174.423 366.312 174.183 367.392 174.183 368.624C174.183 369.856 174.423 370.936 174.903 371.864C175.399 372.792 176.079 373.512 176.943 374.024C177.807 374.52 178.791 374.768 179.895 374.768C180.903 374.768 181.791 374.552 182.559 374.12C183.327 373.688 183.927 373.032 184.359 372.152H187.647C187.023 373.752 186.015 374.984 184.623 375.848C183.247 376.712 181.671 377.144 179.895 377.144C178.327 377.144 176.895 376.784 175.599 376.064C174.303 375.328 173.271 374.312 172.503 373.016C171.751 371.72 171.375 370.256 171.375 368.624ZM195.626 377.216C194.378 377.216 193.25 376.936 192.242 376.376C191.234 375.8 190.442 375 189.866 373.976C189.29 372.936 189.002 371.736 189.002 370.376C189.002 369.032 189.298 367.84 189.89 366.8C190.482 365.76 191.29 364.96 192.314 364.4C193.338 363.84 194.482 363.56 195.746 363.56C197.01 363.56 198.154 363.84 199.178 364.4C200.202 364.96 201.01 365.76 201.602 366.8C202.194 367.84 202.49 369.032 202.49 370.376C202.49 371.72 202.186 372.912 201.578 373.952C200.97 374.992 200.138 375.8 199.082 376.376C198.042 376.936 196.89 377.216 195.626 377.216ZM195.626 374.84C196.33 374.84 196.986 374.672 197.594 374.336C198.218 374 198.722 373.496 199.106 372.824C199.49 372.152 199.682 371.336 199.682 370.376C199.682 369.416 199.498 368.608 199.13 367.952C198.762 367.28 198.274 366.776 197.666 366.44C197.058 366.104 196.402 365.936 195.698 365.936C194.994 365.936 194.338 366.104 193.73 366.44C193.138 366.776 192.666 367.28 192.314 367.952C191.962 368.608 191.786 369.416 191.786 370.376C191.786 371.8 192.146 372.904 192.866 373.688C193.602 374.456 194.522 374.84 195.626 374.84ZM206.97 359.24V377H204.234V359.24H206.97ZM212.338 359.24V377H209.602V359.24H212.338ZM227.091 370.064C227.091 370.56 227.059 371.008 226.995 371.408H216.891C216.971 372.464 217.363 373.312 218.067 373.952C218.771 374.592 219.635 374.912 220.659 374.912C222.131 374.912 223.171 374.296 223.779 373.064H226.731C226.331 374.28 225.603 375.28 224.547 376.064C223.507 376.832 222.211 377.216 220.659 377.216C219.395 377.216 218.259 376.936 217.251 376.376C216.259 375.8 215.475 375 214.899 373.976C214.339 372.936 214.059 371.736 214.059 370.376C214.059 369.016 214.331 367.824 214.875 366.8C215.435 365.76 216.211 364.96 217.203 364.4C218.211 363.84 219.363 363.56 220.659 363.56C221.907 363.56 223.019 363.832 223.995 364.376C224.971 364.92 225.731 365.688 226.275 366.68C226.819 367.656 227.091 368.784 227.091 370.064ZM224.235 369.2C224.219 368.192 223.859 367.384 223.155 366.776C222.451 366.168 221.579 365.864 220.539 365.864C219.595 365.864 218.787 366.168 218.115 366.776C217.443 367.368 217.043 368.176 216.915 369.2H224.235ZM227.911 370.376C227.911 369.016 228.183 367.824 228.727 366.8C229.287 365.76 230.055 364.96 231.031 364.4C232.007 363.84 233.127 363.56 234.391 363.56C235.991 363.56 237.311 363.944 238.351 364.712C239.407 365.464 240.119 366.544 240.487 367.952H237.535C237.295 367.296 236.911 366.784 236.383 366.416C235.855 366.048 235.191 365.864 234.391 365.864C233.271 365.864 232.375 366.264 231.703 367.064C231.047 367.848 230.719 368.952 230.719 370.376C230.719 371.8 231.047 372.912 231.703 373.712C232.375 374.512 233.271 374.912 234.391 374.912C235.975 374.912 237.023 374.216 237.535 372.824H240.487C240.103 374.168 239.383 375.24 238.327 376.04C237.271 376.824 235.959 377.216 234.391 377.216C233.127 377.216 232.007 376.936 231.031 376.376C230.055 375.8 229.287 375 228.727 373.976C228.183 372.936 227.911 371.736 227.911 370.376ZM245.446 366.008V373.328C245.446 373.824 245.558 374.184 245.782 374.408C246.022 374.616 246.422 374.72 246.982 374.72H248.662V377H246.502C245.27 377 244.326 376.712 243.67 376.136C243.014 375.56 242.686 374.624 242.686 373.328V366.008H241.126V363.776H242.686V360.488H245.446V363.776H248.662V366.008H245.446ZM251.615 362.024C251.119 362.024 250.703 361.856 250.367 361.52C250.031 361.184 249.863 360.768 249.863 360.272C249.863 359.776 250.031 359.36 250.367 359.024C250.703 358.688 251.119 358.52 251.615 358.52C252.095 358.52 252.503 358.688 252.839 359.024C253.175 359.36 253.343 359.776 253.343 360.272C253.343 360.768 253.175 361.184 252.839 361.52C252.503 361.856 252.095 362.024 251.615 362.024ZM252.959 363.776V377H250.223V363.776H252.959ZM261.328 377.216C260.08 377.216 258.952 376.936 257.944 376.376C256.936 375.8 256.144 375 255.568 373.976C254.992 372.936 254.704 371.736 254.704 370.376C254.704 369.032 255 367.84 255.592 366.8C256.184 365.76 256.992 364.96 258.016 364.4C259.04 363.84 260.184 363.56 261.448 363.56C262.712 363.56 263.856 363.84 264.88 364.4C265.904 364.96 266.712 365.76 267.304 366.8C267.896 367.84 268.192 369.032 268.192 370.376C268.192 371.72 267.888 372.912 267.28 373.952C266.672 374.992 265.84 375.8 264.784 376.376C263.744 376.936 262.592 377.216 261.328 377.216ZM261.328 374.84C262.032 374.84 262.688 374.672 263.296 374.336C263.92 374 264.424 373.496 264.808 372.824C265.192 372.152 265.384 371.336 265.384 370.376C265.384 369.416 265.2 368.608 264.832 367.952C264.464 367.28 263.976 366.776 263.368 366.44C262.76 366.104 262.104 365.936 261.4 365.936C260.696 365.936 260.04 366.104 259.432 366.44C258.84 366.776 258.368 367.28 258.016 367.952C257.664 368.608 257.488 369.416 257.488 370.376C257.488 371.8 257.848 372.904 258.568 373.688C259.304 374.456 260.224 374.84 261.328 374.84ZM276.608 363.56C277.648 363.56 278.576 363.776 279.392 364.208C280.224 364.64 280.872 365.28 281.336 366.128C281.8 366.976 282.032 368 282.032 369.2V377H279.32V369.608C279.32 368.424 279.024 367.52 278.432 366.896C277.84 366.256 277.032 365.936 276.008 365.936C274.984 365.936 274.168 366.256 273.56 366.896C272.968 367.52 272.672 368.424 272.672 369.608V377H269.936V363.776H272.672V365.288C273.12 364.744 273.688 364.32 274.376 364.016C275.08 363.712 275.824 363.56 276.608 363.56Z" fill="#402B3A"/>
<rect x="255" y="398" width="89" height="30" rx="15" fill="#402B3A"/>
<path d="M286.058 417.488L289.118 409.136H290.864L286.994 419H285.086L281.216 409.136H282.98L286.058 417.488ZM292.602 407.534C292.29 407.534 292.026 407.426 291.81 407.21C291.594 406.994 291.486 406.73 291.486 406.418C291.486 406.106 291.594 405.842 291.81 405.626C292.026 405.41 292.29 405.302 292.602 405.302C292.902 405.302 293.154 405.41 293.358 405.626C293.574 405.842 293.682 406.106 293.682 406.418C293.682 406.73 293.574 406.994 293.358 407.21C293.154 407.426 292.902 407.534 292.602 407.534ZM293.394 409.136V419H291.756V409.136H293.394ZM304.466 413.69C304.466 414.002 304.448 414.332 304.412 414.68H296.528C296.588 415.652 296.918 416.414 297.518 416.966C298.13 417.506 298.868 417.776 299.732 417.776C300.44 417.776 301.028 417.614 301.496 417.29C301.976 416.954 302.312 416.51 302.504 415.958H304.268C304.004 416.906 303.476 417.68 302.684 418.28C301.892 418.868 300.908 419.162 299.732 419.162C298.796 419.162 297.956 418.952 297.212 418.532C296.48 418.112 295.904 417.518 295.484 416.75C295.064 415.97 294.854 415.07 294.854 414.05C294.854 413.03 295.058 412.136 295.466 411.368C295.874 410.6 296.444 410.012 297.176 409.604C297.92 409.184 298.772 408.974 299.732 408.974C300.668 408.974 301.496 409.178 302.216 409.586C302.936 409.994 303.488 410.558 303.872 411.278C304.268 411.986 304.466 412.79 304.466 413.69ZM302.774 413.348C302.774 412.724 302.636 412.19 302.36 411.746C302.084 411.29 301.706 410.948 301.226 410.72C300.758 410.48 300.236 410.36 299.66 410.36C298.832 410.36 298.124 410.624 297.536 411.152C296.96 411.68 296.63 412.412 296.546 413.348H302.774ZM319.048 409.136L315.97 419H314.278L311.902 411.17L309.526 419H307.834L304.738 409.136H306.412L308.68 417.416L311.128 409.136H312.802L315.196 417.434L317.428 409.136H319.048Z" fill="#C4E4FF"/>
<rect x="71" y="375" width="43" height="26" fill="#D6589F"/>
<path d="M113.417 370.167H72.5833C69.3663 370.167 66.75 372.783 66.75 376V399.333C66.75 402.55 69.3663 405.167 72.5833 405.167H113.417C116.634 405.167 119.25 402.55 119.25 399.333V376C119.25 372.783 116.634 370.167 113.417 370.167ZM72.5833 399.333V376H113.417L113.423 399.333H72.5833ZM72.5833 358.5H113.417V364.333H72.5833V358.5ZM78.4167 346.833H107.583V352.667H78.4167V346.833Z" fill="#D6589F"/>
</svg>
