<svg width="400" height="800" viewBox="0 0 400 800" fill="none" xmlns="http://www.w3.org/2000/svg">
<rect width="400" height="800" fill="#402B3A"/>
<path d="M344.312 77.9375H383.688M344.312 62.9375H383.688M344.312 47.9375H383.688" stroke="#D6589F" stroke-width="4" stroke-linecap="round" stroke-linejoin="round"/>
<path d="M76.776 63.248C76.776 59.984 77.528 57.056 79.032 54.464C80.568 51.872 82.632 49.856 85.224 48.416C87.848 46.944 90.712 46.208 93.816 46.208C97.368 46.208 100.52 47.088 103.272 48.848C106.056 50.576 108.072 53.04 109.32 56.24H102.744C101.88 54.48 100.68 53.168 99.144 52.304C97.608 51.44 95.832 51.008 93.816 51.008C91.608 51.008 89.64 51.504 87.912 52.496C86.184 53.488 84.824 54.912 83.832 56.768C82.872 58.624 82.392 60.784 82.392 63.248C82.392 65.712 82.872 67.872 83.832 69.728C84.824 71.584 86.184 73.024 87.912 74.048C89.64 75.04 91.608 75.536 93.816 75.536C95.832 75.536 97.608 75.104 99.144 74.24C100.68 73.376 101.88 72.064 102.744 70.304H109.32C108.072 73.504 106.056 75.968 103.272 77.696C100.52 79.424 97.368 80.288 93.816 80.288C90.68 80.288 87.816 79.568 85.224 78.128C82.632 76.656 80.568 74.624 79.032 72.032C77.528 69.44 76.776 66.512 76.776 63.248ZM111.981 66.656C111.981 64 112.525 61.648 113.613 59.6C114.733 57.552 116.237 55.968 118.125 54.848C120.045 53.696 122.157 53.12 124.461 53.12C126.541 53.12 128.349 53.536 129.885 54.368C131.453 55.168 132.701 56.176 133.629 57.392V53.552H139.149V80H133.629V76.064C132.701 77.312 131.437 78.352 129.837 79.184C128.237 80.016 126.413 80.432 124.365 80.432C122.093 80.432 120.013 79.856 118.125 78.704C116.237 77.52 114.733 75.888 113.613 73.808C112.525 71.696 111.981 69.312 111.981 66.656ZM133.629 66.752C133.629 64.928 133.245 63.344 132.477 62C131.741 60.656 130.765 59.632 129.549 58.928C128.333 58.224 127.021 57.872 125.613 57.872C124.205 57.872 122.893 58.224 121.677 58.928C120.461 59.6 119.469 60.608 118.701 61.952C117.965 63.264 117.597 64.832 117.597 66.656C117.597 68.48 117.965 70.08 118.701 71.456C119.469 72.832 120.461 73.888 121.677 74.624C122.925 75.328 124.237 75.68 125.613 75.68C127.021 75.68 128.333 75.328 129.549 74.624C130.765 73.92 131.741 72.896 132.477 71.552C133.245 70.176 133.629 68.576 133.629 66.752ZM150.8 58.016V72.656C150.8 73.648 151.024 74.368 151.472 74.816C151.952 75.232 152.752 75.44 153.872 75.44H157.232V80H152.912C150.448 80 148.56 79.424 147.248 78.272C145.936 77.12 145.28 75.248 145.28 72.656V58.016H142.16V53.552H145.28V46.976H150.8V53.552H157.232V58.016H150.8ZM184.596 66.128C184.596 67.12 184.532 68.016 184.404 68.816H164.196C164.356 70.928 165.14 72.624 166.548 73.904C167.956 75.184 169.684 75.824 171.732 75.824C174.676 75.824 176.756 74.592 177.972 72.128H183.876C183.076 74.56 181.62 76.56 179.508 78.128C177.428 79.664 174.836 80.432 171.732 80.432C169.204 80.432 166.932 79.872 164.916 78.752C162.932 77.6 161.364 76 160.212 73.952C159.092 71.872 158.532 69.472 158.532 66.752C158.532 64.032 159.076 61.648 160.164 59.6C161.284 57.52 162.836 55.92 164.82 54.8C166.836 53.68 169.14 53.12 171.732 53.12C174.228 53.12 176.452 53.664 178.404 54.752C180.356 55.84 181.876 57.376 182.964 59.36C184.052 61.312 184.596 63.568 184.596 66.128ZM178.884 64.4C178.852 62.384 178.132 60.768 176.724 59.552C175.316 58.336 173.572 57.728 171.492 57.728C169.604 57.728 167.988 58.336 166.644 59.552C165.3 60.736 164.5 62.352 164.244 64.4H178.884ZM198.717 53.12C200.765 53.12 202.573 53.536 204.141 54.368C205.741 55.168 206.989 56.176 207.885 57.392V53.552H213.405V80.432C213.405 82.864 212.893 85.024 211.869 86.912C210.845 88.832 209.357 90.336 207.405 91.424C205.485 92.512 203.181 93.056 200.493 93.056C196.909 93.056 193.933 92.208 191.565 90.512C189.197 88.848 187.853 86.576 187.533 83.696H192.957C193.373 85.072 194.253 86.176 195.597 87.008C196.973 87.872 198.605 88.304 200.493 88.304C202.701 88.304 204.477 87.632 205.821 86.288C207.197 84.944 207.885 82.992 207.885 80.432V76.016C206.957 77.264 205.693 78.32 204.093 79.184C202.525 80.016 200.733 80.432 198.717 80.432C196.413 80.432 194.301 79.856 192.381 78.704C190.493 77.52 188.989 75.888 187.869 73.808C186.781 71.696 186.237 69.312 186.237 66.656C186.237 64 186.781 61.648 187.869 59.6C188.989 57.552 190.493 55.968 192.381 54.848C194.301 53.696 196.413 53.12 198.717 53.12ZM207.885 66.752C207.885 64.928 207.501 63.344 206.733 62C205.997 60.656 205.021 59.632 203.805 58.928C202.589 58.224 201.277 57.872 199.869 57.872C198.461 57.872 197.149 58.224 195.933 58.928C194.717 59.6 193.725 60.608 192.957 61.952C192.221 63.264 191.853 64.832 191.853 66.656C191.853 68.48 192.221 70.08 192.957 71.456C193.725 72.832 194.717 73.888 195.933 74.624C197.181 75.328 198.493 75.68 199.869 75.68C201.277 75.68 202.589 75.328 203.805 74.624C205.021 73.92 205.997 72.896 206.733 71.552C207.501 70.176 207.885 68.576 207.885 66.752ZM230.144 80.432C227.648 80.432 225.392 79.872 223.376 78.752C221.36 77.6 219.776 76 218.624 73.952C217.472 71.872 216.896 69.472 216.896 66.752C216.896 64.064 217.488 61.68 218.672 59.6C219.856 57.52 221.472 55.92 223.52 54.8C225.568 53.68 227.856 53.12 230.384 53.12C232.912 53.12 235.2 53.68 237.248 54.8C239.296 55.92 240.912 57.52 242.096 59.6C243.28 61.68 243.872 64.064 243.872 66.752C243.872 69.44 243.264 71.824 242.048 73.904C240.832 75.984 239.168 77.6 237.056 78.752C234.976 79.872 232.672 80.432 230.144 80.432ZM230.144 75.68C231.552 75.68 232.864 75.344 234.08 74.672C235.328 74 236.336 72.992 237.104 71.648C237.872 70.304 238.256 68.672 238.256 66.752C238.256 64.832 237.888 63.216 237.152 61.904C236.416 60.56 235.44 59.552 234.224 58.88C233.008 58.208 231.696 57.872 230.288 57.872C228.88 57.872 227.568 58.208 226.352 58.88C225.168 59.552 224.224 60.56 223.52 61.904C222.816 63.216 222.464 64.832 222.464 66.752C222.464 69.6 223.184 71.808 224.624 73.376C226.096 74.912 227.936 75.68 230.144 75.68ZM252.833 57.392C253.633 56.048 254.689 55.008 256.001 54.272C257.345 53.504 258.929 53.12 260.753 53.12V58.784H259.361C257.217 58.784 255.585 59.328 254.465 60.416C253.377 61.504 252.833 63.392 252.833 66.08V80H247.361V53.552H252.833V57.392ZM266.647 50.048C265.655 50.048 264.823 49.712 264.151 49.04C263.479 48.368 263.143 47.536 263.143 46.544C263.143 45.552 263.479 44.72 264.151 44.048C264.823 43.376 265.655 43.04 266.647 43.04C267.607 43.04 268.423 43.376 269.095 44.048C269.767 44.72 270.103 45.552 270.103 46.544C270.103 47.536 269.767 48.368 269.095 49.04C268.423 49.712 267.607 50.048 266.647 50.048ZM269.335 53.552V80H263.863V53.552H269.335ZM298.839 66.128C298.839 67.12 298.775 68.016 298.647 68.816H278.439C278.599 70.928 279.383 72.624 280.791 73.904C282.199 75.184 283.927 75.824 285.975 75.824C288.919 75.824 290.999 74.592 292.215 72.128H298.119C297.319 74.56 295.863 76.56 293.751 78.128C291.671 79.664 289.079 80.432 285.975 80.432C283.447 80.432 281.175 79.872 279.159 78.752C277.175 77.6 275.607 76 274.455 73.952C273.335 71.872 272.775 69.472 272.775 66.752C272.775 64.032 273.319 61.648 274.407 59.6C275.527 57.52 277.079 55.92 279.063 54.8C281.079 53.68 283.383 53.12 285.975 53.12C288.471 53.12 290.695 53.664 292.647 54.752C294.599 55.84 296.119 57.376 297.207 59.36C298.295 61.312 298.839 63.568 298.839 66.128ZM293.127 64.4C293.095 62.384 292.375 60.768 290.967 59.552C289.559 58.336 287.815 57.728 285.735 57.728C283.847 57.728 282.231 58.336 280.887 59.552C279.543 60.736 278.743 62.352 278.487 64.4H293.127ZM311.904 80.432C309.824 80.432 307.952 80.064 306.288 79.328C304.656 78.56 303.36 77.536 302.4 76.256C301.44 74.944 300.928 73.488 300.864 71.888H306.528C306.624 73.008 307.152 73.952 308.112 74.72C309.104 75.456 310.336 75.824 311.808 75.824C313.344 75.824 314.528 75.536 315.36 74.96C316.224 74.352 316.656 73.584 316.656 72.656C316.656 71.664 316.176 70.928 315.216 70.448C314.288 69.968 312.8 69.44 310.752 68.864C308.768 68.32 307.152 67.792 305.904 67.28C304.656 66.768 303.568 65.984 302.64 64.928C301.744 63.872 301.296 62.48 301.296 60.752C301.296 59.344 301.712 58.064 302.544 56.912C303.376 55.728 304.56 54.8 306.096 54.128C307.664 53.456 309.456 53.12 311.472 53.12C314.48 53.12 316.896 53.888 318.72 55.424C320.576 56.928 321.568 58.992 321.696 61.616H316.224C316.128 60.432 315.648 59.488 314.784 58.784C313.92 58.08 312.752 57.728 311.28 57.728C309.84 57.728 308.736 58 307.968 58.544C307.2 59.088 306.816 59.808 306.816 60.704C306.816 61.408 307.072 62 307.584 62.48C308.096 62.96 308.72 63.344 309.456 63.632C310.192 63.888 311.28 64.224 312.72 64.64C314.64 65.152 316.208 65.68 317.424 66.224C318.672 66.736 319.744 67.504 320.64 68.528C321.536 69.552 322 70.912 322.032 72.608C322.032 74.112 321.616 75.456 320.784 76.64C319.952 77.824 318.768 78.752 317.232 79.424C315.728 80.096 313.952 80.432 311.904 80.432Z" fill="#D20062"/>
<path d="M19.5 62H54.5M19.5 62L34.5 77M19.5 62L34.5 47" stroke="#D6589F" stroke-width="4" stroke-linecap="round" stroke-linejoin="round"/>
<path d="M190.032 165.376C190.032 164.032 190.304 162.856 190.848 161.848C191.392 160.824 192.136 160.032 193.08 159.472C194.04 158.912 195.104 158.632 196.272 158.632C197.424 158.632 198.424 158.88 199.272 159.376C200.12 159.872 200.752 160.496 201.168 161.248V158.848H203.376V172H201.168V169.552C200.736 170.32 200.088 170.96 199.224 171.472C198.376 171.968 197.384 172.216 196.248 172.216C195.08 172.216 194.024 171.928 193.08 171.352C192.136 170.776 191.392 169.968 190.848 168.928C190.304 167.888 190.032 166.704 190.032 165.376ZM201.168 165.4C201.168 164.408 200.968 163.544 200.568 162.808C200.168 162.072 199.624 161.512 198.936 161.128C198.264 160.728 197.52 160.528 196.704 160.528C195.888 160.528 195.144 160.72 194.472 161.104C193.8 161.488 193.264 162.048 192.864 162.784C192.464 163.52 192.264 164.384 192.264 165.376C192.264 166.384 192.464 167.264 192.864 168.016C193.264 168.752 193.8 169.32 194.472 169.72C195.144 170.104 195.888 170.296 196.704 170.296C197.52 170.296 198.264 170.104 198.936 169.72C199.624 169.32 200.168 168.752 200.568 168.016C200.968 167.264 201.168 166.392 201.168 165.4ZM205.291 165.376C205.291 164.032 205.563 162.856 206.107 161.848C206.651 160.824 207.395 160.032 208.339 159.472C209.299 158.912 210.371 158.632 211.555 158.632C212.579 158.632 213.531 158.872 214.411 159.352C215.291 159.816 215.963 160.432 216.427 161.2V154.24H218.635V172H216.427V169.528C215.995 170.312 215.355 170.96 214.507 171.472C213.659 171.968 212.667 172.216 211.531 172.216C210.363 172.216 209.299 171.928 208.339 171.352C207.395 170.776 206.651 169.968 206.107 168.928C205.563 167.888 205.291 166.704 205.291 165.376ZM216.427 165.4C216.427 164.408 216.227 163.544 215.827 162.808C215.427 162.072 214.883 161.512 214.195 161.128C213.523 160.728 212.779 160.528 211.963 160.528C211.147 160.528 210.403 160.72 209.731 161.104C209.059 161.488 208.523 162.048 208.123 162.784C207.723 163.52 207.523 164.384 207.523 165.376C207.523 166.384 207.723 167.264 208.123 168.016C208.523 168.752 209.059 169.32 209.731 169.72C210.403 170.104 211.147 170.296 211.963 170.296C212.779 170.296 213.523 170.104 214.195 169.72C214.883 169.32 215.427 168.752 215.827 168.016C216.227 167.264 216.427 166.392 216.427 165.4ZM220.549 165.376C220.549 164.032 220.822 162.856 221.366 161.848C221.91 160.824 222.654 160.032 223.597 159.472C224.558 158.912 225.63 158.632 226.814 158.632C227.838 158.632 228.79 158.872 229.67 159.352C230.55 159.816 231.222 160.432 231.686 161.2V154.24H233.894V172H231.686V169.528C231.254 170.312 230.614 170.96 229.766 171.472C228.918 171.968 227.926 172.216 226.789 172.216C225.622 172.216 224.558 171.928 223.597 171.352C222.654 170.776 221.91 169.968 221.366 168.928C220.822 167.888 220.549 166.704 220.549 165.376ZM231.686 165.4C231.686 164.408 231.486 163.544 231.086 162.808C230.686 162.072 230.142 161.512 229.454 161.128C228.782 160.728 228.038 160.528 227.222 160.528C226.406 160.528 225.662 160.72 224.99 161.104C224.318 161.488 223.782 162.048 223.382 162.784C222.982 163.52 222.782 164.384 222.782 165.376C222.782 166.384 222.982 167.264 223.382 168.016C223.782 168.752 224.318 169.32 224.99 169.72C225.662 170.104 226.406 170.296 227.222 170.296C228.038 170.296 228.782 170.104 229.454 169.72C230.142 169.32 230.686 168.752 231.086 168.016C231.486 167.264 231.686 166.392 231.686 165.4Z" fill="#D20062"/>
<path d="M172 165.331H165.333V171.997C165.333 172.351 165.193 172.69 164.943 172.94C164.693 173.19 164.354 173.331 164 173.331C163.646 173.331 163.307 173.19 163.057 172.94C162.807 172.69 162.667 172.351 162.667 171.997V165.331H156C155.646 165.331 155.307 165.19 155.057 164.94C154.807 164.69 154.667 164.351 154.667 163.997C154.667 163.644 154.807 163.305 155.057 163.055C155.307 162.804 155.646 162.664 156 162.664H162.667V155.997C162.667 155.644 162.807 155.305 163.057 155.055C163.307 154.804 163.646 154.664 164 154.664C164.354 154.664 164.693 154.804 164.943 155.055C165.193 155.305 165.333 155.644 165.333 155.997V162.664H172C172.354 162.664 172.693 162.804 172.943 163.055C173.193 163.305 173.333 163.644 173.333 163.997C173.333 164.351 173.193 164.69 172.943 164.94C172.693 165.19 172.354 165.331 172 165.331Z" fill="#D20062"/>
<rect x="126.5" y="135.5" width="147" height="57" rx="28.5" fill="#C4E4FF" stroke="#D895DA" stroke-width="3"/>
<path d="M202.736 168.28H195.44L194.096 172H191.792L197.84 155.368H200.36L206.384 172H204.08L202.736 168.28ZM202.112 166.504L199.088 158.056L196.064 166.504H202.112ZM207.244 165.376C207.244 164.032 207.516 162.856 208.06 161.848C208.604 160.824 209.348 160.032 210.292 159.472C211.252 158.912 212.324 158.632 213.508 158.632C214.532 158.632 215.484 158.872 216.364 159.352C217.244 159.816 217.916 160.432 218.38 161.2V154.24H220.588V172H218.38V169.528C217.948 170.312 217.308 170.96 216.46 171.472C215.612 171.968 214.62 172.216 213.484 172.216C212.316 172.216 211.252 171.928 210.292 171.352C209.348 170.776 208.604 169.968 208.06 168.928C207.516 167.888 207.244 166.704 207.244 165.376ZM218.38 165.4C218.38 164.408 218.18 163.544 217.78 162.808C217.38 162.072 216.836 161.512 216.148 161.128C215.476 160.728 214.732 160.528 213.916 160.528C213.1 160.528 212.356 160.72 211.684 161.104C211.012 161.488 210.476 162.048 210.076 162.784C209.676 163.52 209.476 164.384 209.476 165.376C209.476 166.384 209.676 167.264 210.076 168.016C210.476 168.752 211.012 169.32 211.684 169.72C212.356 170.104 213.1 170.296 213.916 170.296C214.732 170.296 215.476 170.104 216.148 169.72C216.836 169.32 217.38 168.752 217.78 168.016C218.18 167.264 218.38 166.392 218.38 165.4ZM222.503 165.376C222.503 164.032 222.775 162.856 223.319 161.848C223.863 160.824 224.607 160.032 225.551 159.472C226.511 158.912 227.583 158.632 228.767 158.632C229.791 158.632 230.743 158.872 231.623 159.352C232.503 159.816 233.175 160.432 233.639 161.2V154.24H235.847V172H233.639V169.528C233.207 170.312 232.567 170.96 231.719 171.472C230.871 171.968 229.879 172.216 228.743 172.216C227.575 172.216 226.511 171.928 225.551 171.352C224.607 170.776 223.863 169.968 223.319 168.928C222.775 167.888 222.503 166.704 222.503 165.376ZM233.639 165.4C233.639 164.408 233.439 163.544 233.039 162.808C232.639 162.072 232.095 161.512 231.407 161.128C230.735 160.728 229.991 160.528 229.175 160.528C228.359 160.528 227.615 160.72 226.943 161.104C226.271 161.488 225.735 162.048 225.335 162.784C224.935 163.52 224.735 164.384 224.735 165.376C224.735 166.384 224.935 167.264 225.335 168.016C225.735 168.752 226.271 169.32 226.943 169.72C227.615 170.104 228.359 170.296 229.175 170.296C229.991 170.296 230.735 170.104 231.407 169.72C232.095 169.32 232.639 168.752 233.039 168.016C233.439 167.264 233.639 166.392 233.639 165.4Z" fill="#D20062"/>
<path d="M183 165.331H176.333V171.997C176.333 172.351 176.193 172.69 175.943 172.94C175.693 173.19 175.354 173.331 175 173.331C174.646 173.331 174.307 173.19 174.057 172.94C173.807 172.69 173.667 172.351 173.667 171.997V165.331H167C166.646 165.331 166.307 165.19 166.057 164.94C165.807 164.69 165.667 164.351 165.667 163.997C165.667 163.644 165.807 163.305 166.057 163.055C166.307 162.804 166.646 162.664 167 162.664H173.667V155.997C173.667 155.644 173.807 155.305 174.057 155.055C174.307 154.804 174.646 154.664 175 154.664C175.354 154.664 175.693 154.804 175.943 155.055C176.193 155.305 176.333 155.644 176.333 155.997V162.664H183C183.354 162.664 183.693 162.804 183.943 163.055C184.193 163.305 184.333 163.644 184.333 163.997C184.333 164.351 184.193 164.69 183.943 164.94C183.693 165.19 183.354 165.331 183 165.331Z" fill="#D20062"/>
<rect x="30" y="228" width="340" height="100" rx="20" fill="#C4E4FF"/>
<path d="M74.75 242.186C77.3799 240.667 80.6201 240.667 83.25 242.186L107.891 256.412C110.521 257.931 112.141 260.737 112.141 263.774V292.226C112.141 295.263 110.521 298.069 107.891 299.588L83.25 313.814C80.6201 315.333 77.3799 315.333 74.75 313.814L50.109 299.588C47.4791 298.069 45.859 295.263 45.859 292.226V263.774C45.859 260.737 47.4791 257.931 50.109 256.412L74.75 242.186Z" fill="#C4E4FF" stroke="#402B3A" stroke-width="3"/>
<path d="M67.5 274L79 255L90.5 274H67.5Z" fill="#D895DA"/>
<rect x="60" y="279" width="17" height="17" fill="#D63484"/>
<circle cx="90.5" cy="287.5" r="9.5" fill="#D6589F"/>
<path d="M129.098 262.216C129.098 262.852 128.948 263.452 128.648 264.016C128.348 264.58 127.868 265.042 127.208 265.402C126.548 265.75 125.702 265.924 124.67 265.924H122.402V271H120.35V258.49H124.67C125.63 258.49 126.44 258.658 127.1 258.994C127.772 259.318 128.27 259.762 128.594 260.326C128.93 260.89 129.098 261.52 129.098 262.216ZM124.67 264.25C125.45 264.25 126.032 264.076 126.416 263.728C126.8 263.368 126.992 262.864 126.992 262.216C126.992 260.848 126.218 260.164 124.67 260.164H122.402V264.25H124.67ZM132.387 257.68V271H130.335V257.68H132.387ZM133.677 265.996C133.677 265 133.881 264.118 134.289 263.35C134.709 262.582 135.273 261.988 135.981 261.568C136.701 261.136 137.493 260.92 138.357 260.92C139.137 260.92 139.815 261.076 140.391 261.388C140.979 261.688 141.447 262.066 141.795 262.522V261.082H143.865V271H141.795V269.524C141.447 269.992 140.973 270.382 140.373 270.694C139.773 271.006 139.089 271.162 138.321 271.162C137.469 271.162 136.689 270.946 135.981 270.514C135.273 270.07 134.709 269.458 134.289 268.678C133.881 267.886 133.677 266.992 133.677 265.996ZM141.795 266.032C141.795 265.348 141.651 264.754 141.363 264.25C141.087 263.746 140.721 263.362 140.265 263.098C139.809 262.834 139.317 262.702 138.789 262.702C138.261 262.702 137.769 262.834 137.313 263.098C136.857 263.35 136.485 263.728 136.197 264.232C135.921 264.724 135.783 265.312 135.783 265.996C135.783 266.68 135.921 267.28 136.197 267.796C136.485 268.312 136.857 268.708 137.313 268.984C137.781 269.248 138.273 269.38 138.789 269.38C139.317 269.38 139.809 269.248 140.265 268.984C140.721 268.72 141.087 268.336 141.363 267.832C141.651 267.316 141.795 266.716 141.795 266.032ZM154.768 261.082L148.684 275.662H146.56L148.576 270.838L144.67 261.082H146.956L149.746 268.642L152.644 261.082H154.768ZM163.675 271.126C162.835 271.126 162.079 270.982 161.407 270.694C160.735 270.394 160.207 269.974 159.823 269.434C159.439 268.894 159.247 268.264 159.247 267.544H161.443C161.491 268.084 161.701 268.528 162.073 268.876C162.457 269.224 162.991 269.398 163.675 269.398C164.383 269.398 164.935 269.23 165.331 268.894C165.727 268.546 165.925 268.102 165.925 267.562C165.925 267.142 165.799 266.8 165.547 266.536C165.307 266.272 165.001 266.068 164.629 265.924C164.269 265.78 163.765 265.624 163.117 265.456C162.301 265.24 161.635 265.024 161.119 264.808C160.615 264.58 160.183 264.232 159.823 263.764C159.463 263.296 159.283 262.672 159.283 261.892C159.283 261.172 159.463 260.542 159.823 260.002C160.183 259.462 160.687 259.048 161.335 258.76C161.983 258.472 162.733 258.328 163.585 258.328C164.797 258.328 165.787 258.634 166.555 259.246C167.335 259.846 167.767 260.674 167.851 261.73H165.583C165.547 261.274 165.331 260.884 164.935 260.56C164.539 260.236 164.017 260.074 163.369 260.074C162.781 260.074 162.301 260.224 161.929 260.524C161.557 260.824 161.371 261.256 161.371 261.82C161.371 262.204 161.485 262.522 161.713 262.774C161.953 263.014 162.253 263.206 162.613 263.35C162.973 263.494 163.465 263.65 164.089 263.818C164.917 264.046 165.589 264.274 166.105 264.502C166.633 264.73 167.077 265.084 167.437 265.564C167.809 266.032 167.995 266.662 167.995 267.454C167.995 268.09 167.821 268.69 167.473 269.254C167.137 269.818 166.639 270.274 165.979 270.622C165.331 270.958 164.563 271.126 163.675 271.126ZM172.09 262.756V268.246C172.09 268.618 172.174 268.888 172.342 269.056C172.522 269.212 172.822 269.29 173.242 269.29H174.502V271H172.882C171.958 271 171.25 270.784 170.758 270.352C170.266 269.92 170.02 269.218 170.02 268.246V262.756H168.85V261.082H170.02V258.616H172.09V261.082H174.502V262.756H172.09ZM174.989 265.996C174.989 265 175.193 264.118 175.601 263.35C176.021 262.582 176.585 261.988 177.293 261.568C178.013 261.136 178.805 260.92 179.669 260.92C180.449 260.92 181.127 261.076 181.703 261.388C182.291 261.688 182.759 262.066 183.107 262.522V261.082H185.177V271H183.107V269.524C182.759 269.992 182.285 270.382 181.685 270.694C181.085 271.006 180.401 271.162 179.633 271.162C178.781 271.162 178.001 270.946 177.293 270.514C176.585 270.07 176.021 269.458 175.601 268.678C175.193 267.886 174.989 266.992 174.989 265.996ZM183.107 266.032C183.107 265.348 182.963 264.754 182.675 264.25C182.399 263.746 182.033 263.362 181.577 263.098C181.121 262.834 180.629 262.702 180.101 262.702C179.573 262.702 179.081 262.834 178.625 263.098C178.169 263.35 177.797 263.728 177.509 264.232C177.233 264.724 177.095 265.312 177.095 265.996C177.095 266.68 177.233 267.28 177.509 267.796C177.797 268.312 178.169 268.708 178.625 268.984C179.093 269.248 179.585 269.38 180.101 269.38C180.629 269.38 181.121 269.248 181.577 268.984C182.033 268.72 182.399 268.336 182.675 267.832C182.963 267.316 183.107 266.716 183.107 266.032ZM189.546 262.756V268.246C189.546 268.618 189.63 268.888 189.798 269.056C189.978 269.212 190.278 269.29 190.698 269.29H191.958V271H190.338C189.414 271 188.706 270.784 188.214 270.352C187.722 269.92 187.476 269.218 187.476 268.246V262.756H186.306V261.082H187.476V258.616H189.546V261.082H191.958V262.756H189.546ZM194.174 259.768C193.802 259.768 193.49 259.642 193.238 259.39C192.986 259.138 192.86 258.826 192.86 258.454C192.86 258.082 192.986 257.77 193.238 257.518C193.49 257.266 193.802 257.14 194.174 257.14C194.534 257.14 194.84 257.266 195.092 257.518C195.344 257.77 195.47 258.082 195.47 258.454C195.47 258.826 195.344 259.138 195.092 259.39C194.84 259.642 194.534 259.768 194.174 259.768ZM195.182 261.082V271H193.13V261.082H195.182ZM201.458 271.162C200.522 271.162 199.676 270.952 198.92 270.532C198.164 270.1 197.57 269.5 197.138 268.732C196.706 267.952 196.49 267.052 196.49 266.032C196.49 265.024 196.712 264.13 197.156 263.35C197.6 262.57 198.206 261.97 198.974 261.55C199.742 261.13 200.6 260.92 201.548 260.92C202.496 260.92 203.354 261.13 204.122 261.55C204.89 261.97 205.496 262.57 205.94 263.35C206.384 264.13 206.606 265.024 206.606 266.032C206.606 267.04 206.378 267.934 205.922 268.714C205.466 269.494 204.842 270.1 204.05 270.532C203.27 270.952 202.406 271.162 201.458 271.162ZM201.458 269.38C201.986 269.38 202.478 269.254 202.934 269.002C203.402 268.75 203.78 268.372 204.068 267.868C204.356 267.364 204.5 266.752 204.5 266.032C204.5 265.312 204.362 264.706 204.086 264.214C203.81 263.71 203.444 263.332 202.988 263.08C202.532 262.828 202.04 262.702 201.512 262.702C200.984 262.702 200.492 262.828 200.036 263.08C199.592 263.332 199.238 263.71 198.974 264.214C198.71 264.706 198.578 265.312 198.578 266.032C198.578 267.1 198.848 267.928 199.388 268.516C199.94 269.092 200.63 269.38 201.458 269.38ZM212.918 260.92C213.698 260.92 214.394 261.082 215.006 261.406C215.63 261.73 216.116 262.21 216.464 262.846C216.812 263.482 216.986 264.25 216.986 265.15V271H214.952V265.456C214.952 264.568 214.73 263.89 214.286 263.422C213.842 262.942 213.236 262.702 212.468 262.702C211.7 262.702 211.088 262.942 210.632 263.422C210.188 263.89 209.966 264.568 209.966 265.456V271H207.914V261.082H209.966V262.216C210.302 261.808 210.728 261.49 211.244 261.262C211.772 261.034 212.33 260.92 212.918 260.92ZM222.534 261.118C222.606 260.002 223.032 259.132 223.812 258.508C224.604 257.884 225.612 257.572 226.836 257.572C227.676 257.572 228.402 257.722 229.014 258.022C229.626 258.322 230.088 258.73 230.4 259.246C230.712 259.762 230.868 260.344 230.868 260.992C230.868 261.736 230.67 262.372 230.274 262.9C229.878 263.428 229.404 263.782 228.852 263.962V264.034C229.56 264.25 230.112 264.646 230.508 265.222C230.904 265.786 231.102 266.512 231.102 267.4C231.102 268.108 230.94 268.738 230.616 269.29C230.292 269.842 229.812 270.28 229.176 270.604C228.54 270.916 227.778 271.072 226.89 271.072C225.594 271.072 224.526 270.742 223.686 270.082C222.858 269.41 222.414 268.45 222.354 267.202H224.334C224.382 267.838 224.628 268.36 225.072 268.768C225.516 269.164 226.116 269.362 226.872 269.362C227.604 269.362 228.168 269.164 228.564 268.768C228.96 268.36 229.158 267.838 229.158 267.202C229.158 266.362 228.888 265.768 228.348 265.42C227.82 265.06 227.004 264.88 225.9 264.88H225.432V263.188H225.918C226.89 263.176 227.628 263.014 228.132 262.702C228.648 262.39 228.906 261.898 228.906 261.226C228.906 260.65 228.72 260.194 228.348 259.858C227.976 259.51 227.448 259.336 226.764 259.336C226.092 259.336 225.57 259.51 225.198 259.858C224.826 260.194 224.604 260.614 224.532 261.118H222.534Z" fill="#402B3A"/>
<path d="M124.364 292.126C123.536 292.126 122.792 291.982 122.132 291.694C121.484 291.394 120.974 290.986 120.602 290.47C120.23 289.942 120.038 289.336 120.026 288.652H121.772C121.832 289.24 122.072 289.738 122.492 290.146C122.924 290.542 123.548 290.74 124.364 290.74C125.144 290.74 125.756 290.548 126.2 290.164C126.656 289.768 126.884 289.264 126.884 288.652C126.884 288.172 126.752 287.782 126.488 287.482C126.224 287.182 125.894 286.954 125.498 286.798C125.102 286.642 124.568 286.474 123.896 286.294C123.068 286.078 122.402 285.862 121.898 285.646C121.406 285.43 120.98 285.094 120.62 284.638C120.272 284.17 120.098 283.546 120.098 282.766C120.098 282.082 120.272 281.476 120.62 280.948C120.968 280.42 121.454 280.012 122.078 279.724C122.714 279.436 123.44 279.292 124.256 279.292C125.432 279.292 126.392 279.586 127.136 280.174C127.892 280.762 128.318 281.542 128.414 282.514H126.614C126.554 282.034 126.302 281.614 125.858 281.254C125.414 280.882 124.826 280.696 124.094 280.696C123.41 280.696 122.852 280.876 122.42 281.236C121.988 281.584 121.772 282.076 121.772 282.712C121.772 283.168 121.898 283.54 122.15 283.828C122.414 284.116 122.732 284.338 123.104 284.494C123.488 284.638 124.022 284.806 124.706 284.998C125.534 285.226 126.2 285.454 126.704 285.682C127.208 285.898 127.64 286.24 128 286.708C128.36 287.164 128.54 287.788 128.54 288.58C128.54 289.192 128.378 289.768 128.054 290.308C127.73 290.848 127.25 291.286 126.614 291.622C125.978 291.958 125.228 292.126 124.364 292.126ZM134.532 292.162C133.608 292.162 132.768 291.952 132.012 291.532C131.268 291.112 130.68 290.518 130.248 289.75C129.828 288.97 129.618 288.07 129.618 287.05C129.618 286.042 129.834 285.154 130.266 284.386C130.71 283.606 131.31 283.012 132.066 282.604C132.822 282.184 133.668 281.974 134.604 281.974C135.54 281.974 136.386 282.184 137.142 282.604C137.898 283.012 138.492 283.6 138.924 284.368C139.368 285.136 139.59 286.03 139.59 287.05C139.59 288.07 139.362 288.97 138.906 289.75C138.462 290.518 137.856 291.112 137.088 291.532C136.32 291.952 135.468 292.162 134.532 292.162ZM134.532 290.722C135.12 290.722 135.672 290.584 136.188 290.308C136.704 290.032 137.118 289.618 137.43 289.066C137.754 288.514 137.916 287.842 137.916 287.05C137.916 286.258 137.76 285.586 137.448 285.034C137.136 284.482 136.728 284.074 136.224 283.81C135.72 283.534 135.174 283.396 134.586 283.396C133.986 283.396 133.434 283.534 132.93 283.81C132.438 284.074 132.042 284.482 131.742 285.034C131.442 285.586 131.292 286.258 131.292 287.05C131.292 287.854 131.436 288.532 131.724 289.084C132.024 289.636 132.42 290.05 132.912 290.326C133.404 290.59 133.944 290.722 134.532 290.722ZM145.83 281.956C147.03 281.956 148.002 282.322 148.746 283.054C149.49 283.774 149.862 284.818 149.862 286.186V292H148.242V286.42C148.242 285.436 147.996 284.686 147.504 284.17C147.012 283.642 146.34 283.378 145.488 283.378C144.624 283.378 143.934 283.648 143.418 284.188C142.914 284.728 142.662 285.514 142.662 286.546V292H141.024V282.136H142.662V283.54C142.986 283.036 143.424 282.646 143.976 282.37C144.54 282.094 145.158 281.956 145.83 281.956ZM160.314 282.136L154.374 296.644H152.682L154.626 291.892L150.648 282.136H152.466L155.562 290.128L158.622 282.136H160.314Z" fill="#D6589F"/>
<rect x="242" y="281" width="120" height="40" rx="20" fill="#402B3A"/>
<rect x="283" y="281" width="1" height="40" fill="#C4E4FF"/>
<rect x="324" y="281" width="1" height="40" fill="#C4E4FF"/>
<path d="M267.5 303H266.71L266.43 302.73C267.444 301.554 268.001 300.053 268 298.5C268 297.214 267.619 295.958 266.905 294.889C266.19 293.82 265.175 292.987 263.987 292.495C262.8 292.003 261.493 291.874 260.232 292.125C258.971 292.376 257.813 292.995 256.904 293.904C255.995 294.813 255.376 295.971 255.125 297.232C254.874 298.493 255.003 299.8 255.495 300.987C255.987 302.175 256.82 303.19 257.889 303.905C258.958 304.619 260.214 305 261.5 305C263.11 305 264.59 304.41 265.73 303.43L266 303.71V304.5L271 309.49L272.49 308L267.5 303ZM261.5 303C259.01 303 257 300.99 257 298.5C257 296.01 259.01 294 261.5 294C263.99 294 266 296.01 266 298.5C266 300.99 263.99 303 261.5 303Z" fill="#D20062"/>
<path d="M307.06 298L308 298.94L298.92 308H298V307.08L307.06 298ZM310.66 292C310.41 292 310.15 292.1 309.96 292.29L308.13 294.12L311.88 297.87L313.71 296.04C314.1 295.65 314.1 295 313.71 294.63L311.37 292.29C311.17 292.09 310.92 292 310.66 292ZM307.06 295.19L296 306.25V310H299.75L310.81 298.94L307.06 295.19Z" fill="#D20062"/>
<path d="M349.25 293.5H345.5V292.75C345.5 292.153 345.263 291.581 344.841 291.159C344.419 290.737 343.847 290.5 343.25 290.5H338.75C338.153 290.5 337.581 290.737 337.159 291.159C336.737 291.581 336.5 292.153 336.5 292.75V293.5H332.75C332.551 293.5 332.36 293.579 332.22 293.72C332.079 293.86 332 294.051 332 294.25C332 294.449 332.079 294.64 332.22 294.78C332.36 294.921 332.551 295 332.75 295H333.5V308.5C333.5 308.898 333.658 309.279 333.939 309.561C334.221 309.842 334.602 310 335 310H347C347.398 310 347.779 309.842 348.061 309.561C348.342 309.279 348.5 308.898 348.5 308.5V295H349.25C349.449 295 349.64 294.921 349.78 294.78C349.921 294.64 350 294.449 350 294.25C350 294.051 349.921 293.86 349.78 293.72C349.64 293.579 349.449 293.5 349.25 293.5ZM338 292.75C338 292.551 338.079 292.36 338.22 292.22C338.36 292.079 338.551 292 338.75 292H343.25C343.449 292 343.64 292.079 343.78 292.22C343.921 292.36 344 292.551 344 292.75V293.5H338V292.75ZM347 308.5H335V295H347V308.5ZM339.5 298.75V304.75C339.5 304.949 339.421 305.14 339.28 305.28C339.14 305.421 338.949 305.5 338.75 305.5C338.551 305.5 338.36 305.421 338.22 305.28C338.079 305.14 338 304.949 338 304.75V298.75C338 298.551 338.079 298.36 338.22 298.22C338.36 298.079 338.551 298 338.75 298C338.949 298 339.14 298.079 339.28 298.22C339.421 298.36 339.5 298.551 339.5 298.75ZM344 298.75V304.75C344 304.949 343.921 305.14 343.78 305.28C343.64 305.421 343.449 305.5 343.25 305.5C343.051 305.5 342.86 305.421 342.72 305.28C342.579 305.14 342.5 304.949 342.5 304.75V298.75C342.5 298.551 342.579 298.36 342.72 298.22C342.86 298.079 343.051 298 343.25 298C343.449 298 343.64 298.079 343.78 298.22C343.921 298.36 344 298.551 344 298.75Z" fill="#D20062"/>
<rect x="30" y="348" width="340" height="100" rx="20" fill="#A3B6CE"/>
<path d="M74.75 362.186C77.3799 360.667 80.6201 360.667 83.25 362.186L107.891 376.412C110.521 377.931 112.141 380.737 112.141 383.774V412.226C112.141 415.263 110.521 418.069 107.891 419.588L83.25 433.814C80.6201 435.333 77.3799 435.333 74.75 433.814L50.109 419.588C47.4791 418.069 45.859 415.263 45.859 412.226V383.774C45.859 380.737 47.4791 377.931 50.109 376.412L74.75 362.186Z" fill="#A3B6CE" stroke="#402B3A" stroke-width="3"/>
<path d="M126.092 384.754L129.98 391H127.676L124.85 386.464L122.204 391H119.918L123.806 384.754L119.9 378.49H122.204L125.048 383.062L127.712 378.49H129.998L126.092 384.754ZM133.565 382.558C133.913 382.078 134.387 381.688 134.987 381.388C135.599 381.076 136.277 380.92 137.021 380.92C137.897 380.92 138.689 381.13 139.397 381.55C140.105 381.97 140.663 382.57 141.071 383.35C141.479 384.118 141.683 385 141.683 385.996C141.683 386.992 141.479 387.886 141.071 388.678C140.663 389.458 140.099 390.07 139.379 390.514C138.671 390.946 137.885 391.162 137.021 391.162C136.253 391.162 135.569 391.012 134.969 390.712C134.381 390.412 133.913 390.028 133.565 389.56V391H131.513V377.68H133.565V382.558ZM139.595 385.996C139.595 385.312 139.451 384.724 139.163 384.232C138.887 383.728 138.515 383.35 138.047 383.098C137.591 382.834 137.099 382.702 136.571 382.702C136.055 382.702 135.563 382.834 135.095 383.098C134.639 383.362 134.267 383.746 133.979 384.25C133.703 384.754 133.565 385.348 133.565 386.032C133.565 386.716 133.703 387.316 133.979 387.832C134.267 388.336 134.639 388.72 135.095 388.984C135.563 389.248 136.055 389.38 136.571 389.38C137.099 389.38 137.591 389.248 138.047 388.984C138.515 388.708 138.887 388.312 139.163 387.796C139.451 387.28 139.595 386.68 139.595 385.996ZM147.294 391.162C146.358 391.162 145.512 390.952 144.756 390.532C144 390.1 143.406 389.5 142.974 388.732C142.542 387.952 142.326 387.052 142.326 386.032C142.326 385.024 142.548 384.13 142.992 383.35C143.436 382.57 144.042 381.97 144.81 381.55C145.578 381.13 146.436 380.92 147.384 380.92C148.332 380.92 149.19 381.13 149.958 381.55C150.726 381.97 151.332 382.57 151.776 383.35C152.22 384.13 152.442 385.024 152.442 386.032C152.442 387.04 152.214 387.934 151.758 388.714C151.302 389.494 150.678 390.1 149.886 390.532C149.106 390.952 148.242 391.162 147.294 391.162ZM147.294 389.38C147.822 389.38 148.314 389.254 148.77 389.002C149.238 388.75 149.616 388.372 149.904 387.868C150.192 387.364 150.336 386.752 150.336 386.032C150.336 385.312 150.198 384.706 149.922 384.214C149.646 383.71 149.28 383.332 148.824 383.08C148.368 382.828 147.876 382.702 147.348 382.702C146.82 382.702 146.328 382.828 145.872 383.08C145.428 383.332 145.074 383.71 144.81 384.214C144.546 384.706 144.414 385.312 144.414 386.032C144.414 387.1 144.684 387.928 145.224 388.516C145.776 389.092 146.466 389.38 147.294 389.38ZM157.999 385.978L161.203 391H158.881L156.739 387.634L154.723 391H152.581L155.785 386.122L152.581 381.082H154.903L157.045 384.448L159.061 381.082H161.203L157.999 385.978ZM170.091 391.126C169.251 391.126 168.495 390.982 167.823 390.694C167.151 390.394 166.623 389.974 166.239 389.434C165.855 388.894 165.663 388.264 165.663 387.544H167.859C167.907 388.084 168.117 388.528 168.489 388.876C168.873 389.224 169.407 389.398 170.091 389.398C170.799 389.398 171.351 389.23 171.747 388.894C172.143 388.546 172.341 388.102 172.341 387.562C172.341 387.142 172.215 386.8 171.963 386.536C171.723 386.272 171.417 386.068 171.045 385.924C170.685 385.78 170.181 385.624 169.533 385.456C168.717 385.24 168.051 385.024 167.535 384.808C167.031 384.58 166.599 384.232 166.239 383.764C165.879 383.296 165.699 382.672 165.699 381.892C165.699 381.172 165.879 380.542 166.239 380.002C166.599 379.462 167.103 379.048 167.751 378.76C168.399 378.472 169.149 378.328 170.001 378.328C171.213 378.328 172.203 378.634 172.971 379.246C173.751 379.846 174.183 380.674 174.267 381.73H171.999C171.963 381.274 171.747 380.884 171.351 380.56C170.955 380.236 170.433 380.074 169.785 380.074C169.197 380.074 168.717 380.224 168.345 380.524C167.973 380.824 167.787 381.256 167.787 381.82C167.787 382.204 167.901 382.522 168.129 382.774C168.369 383.014 168.669 383.206 169.029 383.35C169.389 383.494 169.881 383.65 170.505 383.818C171.333 384.046 172.005 384.274 172.521 384.502C173.049 384.73 173.493 385.084 173.853 385.564C174.225 386.032 174.411 386.662 174.411 387.454C174.411 388.09 174.237 388.69 173.889 389.254C173.553 389.818 173.055 390.274 172.395 390.622C171.747 390.958 170.979 391.126 170.091 391.126ZM185.202 385.798C185.202 386.17 185.178 386.506 185.13 386.806H177.552C177.612 387.598 177.906 388.234 178.434 388.714C178.962 389.194 179.61 389.434 180.378 389.434C181.482 389.434 182.262 388.972 182.718 388.048H184.932C184.632 388.96 184.086 389.71 183.294 390.298C182.514 390.874 181.542 391.162 180.378 391.162C179.43 391.162 178.578 390.952 177.822 390.532C177.078 390.1 176.49 389.5 176.058 388.732C175.638 387.952 175.428 387.052 175.428 386.032C175.428 385.012 175.632 384.118 176.04 383.35C176.46 382.57 177.042 381.97 177.786 381.55C178.542 381.13 179.406 380.92 180.378 380.92C181.314 380.92 182.148 381.124 182.88 381.532C183.612 381.94 184.182 382.516 184.59 383.26C184.998 383.992 185.202 384.838 185.202 385.798ZM183.06 385.15C183.048 384.394 182.778 383.788 182.25 383.332C181.722 382.876 181.068 382.648 180.288 382.648C179.58 382.648 178.974 382.876 178.47 383.332C177.966 383.776 177.666 384.382 177.57 385.15H183.06ZM188.553 382.522C188.853 382.018 189.249 381.628 189.741 381.352C190.245 381.064 190.839 380.92 191.523 380.92V383.044H191.001C190.197 383.044 189.585 383.248 189.165 383.656C188.757 384.064 188.553 384.772 188.553 385.78V391H186.501V381.082H188.553V382.522ZM193.734 379.768C193.362 379.768 193.05 379.642 192.798 379.39C192.546 379.138 192.42 378.826 192.42 378.454C192.42 378.082 192.546 377.77 192.798 377.518C193.05 377.266 193.362 377.14 193.734 377.14C194.094 377.14 194.4 377.266 194.652 377.518C194.904 377.77 195.03 378.082 195.03 378.454C195.03 378.826 194.904 379.138 194.652 379.39C194.4 379.642 194.094 379.768 193.734 379.768ZM194.742 381.082V391H192.69V381.082H194.742ZM205.806 385.798C205.806 386.17 205.782 386.506 205.734 386.806H198.156C198.216 387.598 198.51 388.234 199.038 388.714C199.566 389.194 200.214 389.434 200.982 389.434C202.086 389.434 202.866 388.972 203.322 388.048H205.536C205.236 388.96 204.69 389.71 203.898 390.298C203.118 390.874 202.146 391.162 200.982 391.162C200.034 391.162 199.182 390.952 198.426 390.532C197.682 390.1 197.094 389.5 196.662 388.732C196.242 387.952 196.032 387.052 196.032 386.032C196.032 385.012 196.236 384.118 196.644 383.35C197.064 382.57 197.646 381.97 198.39 381.55C199.146 381.13 200.01 380.92 200.982 380.92C201.918 380.92 202.752 381.124 203.484 381.532C204.216 381.94 204.786 382.516 205.194 383.26C205.602 383.992 205.806 384.838 205.806 385.798ZM203.664 385.15C203.652 384.394 203.382 383.788 202.854 383.332C202.326 382.876 201.672 382.648 200.892 382.648C200.184 382.648 199.578 382.876 199.074 383.332C198.57 383.776 198.27 384.382 198.174 385.15H203.664ZM210.705 391.162C209.925 391.162 209.223 391.024 208.599 390.748C207.987 390.46 207.501 390.076 207.141 389.596C206.781 389.104 206.589 388.558 206.565 387.958H208.689C208.725 388.378 208.923 388.732 209.283 389.02C209.655 389.296 210.117 389.434 210.669 389.434C211.245 389.434 211.689 389.326 212.001 389.11C212.325 388.882 212.487 388.594 212.487 388.246C212.487 387.874 212.307 387.598 211.947 387.418C211.599 387.238 211.041 387.04 210.273 386.824C209.529 386.62 208.923 386.422 208.455 386.23C207.987 386.038 207.579 385.744 207.231 385.348C206.895 384.952 206.727 384.43 206.727 383.782C206.727 383.254 206.883 382.774 207.195 382.342C207.507 381.898 207.951 381.55 208.527 381.298C209.115 381.046 209.787 380.92 210.543 380.92C211.671 380.92 212.577 381.208 213.261 381.784C213.957 382.348 214.329 383.122 214.377 384.106H212.325C212.289 383.662 212.109 383.308 211.785 383.044C211.461 382.78 211.023 382.648 210.471 382.648C209.931 382.648 209.517 382.75 209.229 382.954C208.941 383.158 208.797 383.428 208.797 383.764C208.797 384.028 208.893 384.25 209.085 384.43C209.277 384.61 209.511 384.754 209.787 384.862C210.063 384.958 210.471 385.084 211.011 385.24C211.731 385.432 212.319 385.63 212.775 385.834C213.243 386.026 213.645 386.314 213.981 386.698C214.317 387.082 214.491 387.592 214.503 388.228C214.503 388.792 214.347 389.296 214.035 389.74C213.723 390.184 213.279 390.532 212.703 390.784C212.139 391.036 211.473 391.162 210.705 391.162ZM225.698 384.754L229.586 391H227.282L224.456 386.464L221.81 391H219.524L223.412 384.754L219.506 378.49H221.81L224.654 383.062L227.318 378.49H229.604L225.698 384.754Z" fill="#402B3A"/>
<path d="M133.112 399.544V412H131.474V402.712L127.334 412H126.182L122.024 402.694V412H120.386V399.544H122.15L126.758 409.84L131.366 399.544H133.112ZM136.016 400.534C135.704 400.534 135.44 400.426 135.224 400.21C135.008 399.994 134.9 399.73 134.9 399.418C134.9 399.106 135.008 398.842 135.224 398.626C135.44 398.41 135.704 398.302 136.016 398.302C136.316 398.302 136.568 398.41 136.772 398.626C136.988 398.842 137.096 399.106 137.096 399.418C137.096 399.73 136.988 399.994 136.772 400.21C136.568 400.426 136.316 400.534 136.016 400.534ZM136.808 402.136V412H135.17V402.136H136.808ZM138.268 407.05C138.268 406.03 138.472 405.142 138.88 404.386C139.288 403.618 139.852 403.024 140.572 402.604C141.304 402.184 142.138 401.974 143.074 401.974C144.286 401.974 145.282 402.268 146.062 402.856C146.854 403.444 147.376 404.26 147.628 405.304H145.864C145.696 404.704 145.366 404.23 144.874 403.882C144.394 403.534 143.794 403.36 143.074 403.36C142.138 403.36 141.382 403.684 140.806 404.332C140.23 404.968 139.942 405.874 139.942 407.05C139.942 408.238 140.23 409.156 140.806 409.804C141.382 410.452 142.138 410.776 143.074 410.776C143.794 410.776 144.394 410.608 144.874 410.272C145.354 409.936 145.684 409.456 145.864 408.832H147.628C147.364 409.84 146.836 410.65 146.044 411.262C145.252 411.862 144.262 412.162 143.074 412.162C142.138 412.162 141.304 411.952 140.572 411.532C139.852 411.112 139.288 410.518 138.88 409.75C138.472 408.982 138.268 408.082 138.268 407.05ZM150.731 403.738C151.019 403.174 151.427 402.736 151.955 402.424C152.495 402.112 153.149 401.956 153.917 401.956V403.648H153.485C151.649 403.648 150.731 404.644 150.731 406.636V412H149.093V402.136H150.731V403.738ZM159.39 412.162C158.466 412.162 157.626 411.952 156.87 411.532C156.126 411.112 155.538 410.518 155.106 409.75C154.686 408.97 154.476 408.07 154.476 407.05C154.476 406.042 154.692 405.154 155.124 404.386C155.568 403.606 156.168 403.012 156.924 402.604C157.68 402.184 158.526 401.974 159.462 401.974C160.398 401.974 161.244 402.184 162 402.604C162.756 403.012 163.35 403.6 163.782 404.368C164.226 405.136 164.448 406.03 164.448 407.05C164.448 408.07 164.22 408.97 163.764 409.75C163.32 410.518 162.714 411.112 161.946 411.532C161.178 411.952 160.326 412.162 159.39 412.162ZM159.39 410.722C159.978 410.722 160.53 410.584 161.046 410.308C161.562 410.032 161.976 409.618 162.288 409.066C162.612 408.514 162.774 407.842 162.774 407.05C162.774 406.258 162.618 405.586 162.306 405.034C161.994 404.482 161.586 404.074 161.082 403.81C160.578 403.534 160.032 403.396 159.444 403.396C158.844 403.396 158.292 403.534 157.788 403.81C157.296 404.074 156.9 404.482 156.6 405.034C156.3 405.586 156.15 406.258 156.15 407.05C156.15 407.854 156.294 408.532 156.582 409.084C156.882 409.636 157.278 410.05 157.77 410.326C158.262 410.59 158.802 410.722 159.39 410.722ZM169.374 412.162C168.618 412.162 167.94 412.036 167.34 411.784C166.74 411.52 166.266 411.16 165.918 410.704C165.57 410.236 165.378 409.702 165.342 409.102H167.034C167.082 409.594 167.31 409.996 167.718 410.308C168.138 410.62 168.684 410.776 169.356 410.776C169.98 410.776 170.472 410.638 170.832 410.362C171.192 410.086 171.372 409.738 171.372 409.318C171.372 408.886 171.18 408.568 170.796 408.364C170.412 408.148 169.818 407.938 169.014 407.734C168.282 407.542 167.682 407.35 167.214 407.158C166.758 406.954 166.362 406.66 166.026 406.276C165.702 405.88 165.54 405.364 165.54 404.728C165.54 404.224 165.69 403.762 165.99 403.342C166.29 402.922 166.716 402.592 167.268 402.352C167.82 402.1 168.45 401.974 169.158 401.974C170.25 401.974 171.132 402.25 171.804 402.802C172.476 403.354 172.836 404.11 172.884 405.07H171.246C171.21 404.554 171 404.14 170.616 403.828C170.244 403.516 169.74 403.36 169.104 403.36C168.516 403.36 168.048 403.486 167.7 403.738C167.352 403.99 167.178 404.32 167.178 404.728C167.178 405.052 167.28 405.322 167.484 405.538C167.7 405.742 167.964 405.91 168.276 406.042C168.6 406.162 169.044 406.3 169.608 406.456C170.316 406.648 170.892 406.84 171.336 407.032C171.78 407.212 172.158 407.488 172.47 407.86C172.794 408.232 172.962 408.718 172.974 409.318C172.974 409.858 172.824 410.344 172.524 410.776C172.224 411.208 171.798 411.55 171.246 411.802C170.706 412.042 170.082 412.162 169.374 412.162ZM178.868 412.162C177.944 412.162 177.104 411.952 176.348 411.532C175.604 411.112 175.016 410.518 174.584 409.75C174.164 408.97 173.954 408.07 173.954 407.05C173.954 406.042 174.17 405.154 174.602 404.386C175.046 403.606 175.646 403.012 176.402 402.604C177.158 402.184 178.004 401.974 178.94 401.974C179.876 401.974 180.722 402.184 181.478 402.604C182.234 403.012 182.828 403.6 183.26 404.368C183.704 405.136 183.926 406.03 183.926 407.05C183.926 408.07 183.698 408.97 183.242 409.75C182.798 410.518 182.192 411.112 181.424 411.532C180.656 411.952 179.804 412.162 178.868 412.162ZM178.868 410.722C179.456 410.722 180.008 410.584 180.524 410.308C181.04 410.032 181.454 409.618 181.766 409.066C182.09 408.514 182.252 407.842 182.252 407.05C182.252 406.258 182.096 405.586 181.784 405.034C181.472 404.482 181.064 404.074 180.56 403.81C180.056 403.534 179.51 403.396 178.922 403.396C178.322 403.396 177.77 403.534 177.266 403.81C176.774 404.074 176.378 404.482 176.078 405.034C175.778 405.586 175.628 406.258 175.628 407.05C175.628 407.854 175.772 408.532 176.06 409.084C176.36 409.636 176.756 410.05 177.248 410.326C177.74 410.59 178.28 410.722 178.868 410.722ZM189.374 403.486H187.304V412H185.666V403.486H184.388V402.136H185.666V401.434C185.666 400.33 185.948 399.526 186.512 399.022C187.088 398.506 188.006 398.248 189.266 398.248V399.616C188.546 399.616 188.036 399.76 187.736 400.048C187.448 400.324 187.304 400.786 187.304 401.434V402.136H189.374V403.486ZM192.561 403.486V409.3C192.561 409.78 192.663 410.122 192.867 410.326C193.071 410.518 193.425 410.614 193.929 410.614H195.135V412H193.659C192.747 412 192.063 411.79 191.607 411.37C191.151 410.95 190.923 410.26 190.923 409.3V403.486H189.645V402.136H190.923V399.652H192.561V402.136H195.135V403.486H192.561Z" fill="#D6589F"/>
<rect x="242" y="401" width="120" height="40" rx="20" fill="#402B3A"/>
<rect x="283" y="401" width="1" height="40" fill="#A3B6CE"/>
<rect x="324" y="401" width="1" height="40" fill="#D9D9D9"/>
<path d="M267.5 423H266.71L266.43 422.73C267.444 421.554 268.001 420.053 268 418.5C268 417.214 267.619 415.958 266.905 414.889C266.19 413.82 265.175 412.987 263.987 412.495C262.8 412.003 261.493 411.874 260.232 412.125C258.971 412.376 257.813 412.995 256.904 413.904C255.995 414.813 255.376 415.971 255.125 417.232C254.874 418.493 255.003 419.8 255.495 420.987C255.987 422.175 256.82 423.19 257.889 423.905C258.958 424.619 260.214 425 261.5 425C263.11 425 264.59 424.41 265.73 423.43L266 423.71V424.5L271 429.49L272.49 428L267.5 423ZM261.5 423C259.01 423 257 420.99 257 418.5C257 416.01 259.01 414 261.5 414C263.99 414 266 416.01 266 418.5C266 420.99 263.99 423 261.5 423Z" fill="#D20062" fill-opacity="0.75"/>
<path d="M307.06 418L308 418.94L298.92 428H298V427.08L307.06 418ZM310.66 412C310.41 412 310.15 412.1 309.96 412.29L308.13 414.12L311.88 417.87L313.71 416.04C314.1 415.65 314.1 415 313.71 414.63L311.37 412.29C311.17 412.09 310.92 412 310.66 412ZM307.06 415.19L296 426.25V430H299.75L310.81 418.94L307.06 415.19Z" fill="#D20062" fill-opacity="0.75"/>
<path d="M349.25 413.5H345.5V412.75C345.5 412.153 345.263 411.581 344.841 411.159C344.419 410.737 343.847 410.5 343.25 410.5H338.75C338.153 410.5 337.581 410.737 337.159 411.159C336.737 411.581 336.5 412.153 336.5 412.75V413.5H332.75C332.551 413.5 332.36 413.579 332.22 413.72C332.079 413.86 332 414.051 332 414.25C332 414.449 332.079 414.64 332.22 414.78C332.36 414.921 332.551 415 332.75 415H333.5V428.5C333.5 428.898 333.658 429.279 333.939 429.561C334.221 429.842 334.602 430 335 430H347C347.398 430 347.779 429.842 348.061 429.561C348.342 429.279 348.5 428.898 348.5 428.5V415H349.25C349.449 415 349.64 414.921 349.78 414.78C349.921 414.64 350 414.449 350 414.25C350 414.051 349.921 413.86 349.78 413.72C349.64 413.579 349.449 413.5 349.25 413.5ZM338 412.75C338 412.551 338.079 412.36 338.22 412.22C338.36 412.079 338.551 412 338.75 412H343.25C343.449 412 343.64 412.079 343.78 412.22C343.921 412.36 344 412.551 344 412.75V413.5H338V412.75ZM347 428.5H335V415H347V428.5ZM339.5 418.75V424.75C339.5 424.949 339.421 425.14 339.28 425.28C339.14 425.421 338.949 425.5 338.75 425.5C338.551 425.5 338.36 425.421 338.22 425.28C338.079 425.14 338 424.949 338 424.75V418.75C338 418.551 338.079 418.36 338.22 418.22C338.36 418.079 338.551 418 338.75 418C338.949 418 339.14 418.079 339.28 418.22C339.421 418.36 339.5 418.551 339.5 418.75ZM344 418.75V424.75C344 424.949 343.921 425.14 343.78 425.28C343.64 425.421 343.449 425.5 343.25 425.5C343.051 425.5 342.86 425.421 342.72 425.28C342.579 425.14 342.5 424.949 342.5 424.75V418.75C342.5 418.551 342.579 418.36 342.72 418.22C342.86 418.079 343.051 418 343.25 418C343.449 418 343.64 418.079 343.78 418.22C343.921 418.36 344 418.551 344 418.75Z" fill="#D20062" fill-opacity="0.75"/>
<path d="M67.5 393L79 374L90.5 393H67.5Z" fill="#D895DA"/>
<rect x="60" y="398" width="17" height="17" fill="#D63484"/>
<circle cx="90.5" cy="406.5" r="9.5" fill="#D6589F"/>
<rect x="30" y="468" width="340" height="100" rx="20" fill="#C4E4FF"/>
<path d="M74.75 482.186C77.3799 480.667 80.6201 480.667 83.25 482.186L107.891 496.412C110.521 497.931 112.141 500.737 112.141 503.774V532.226C112.141 535.263 110.521 538.069 107.891 539.588L83.25 553.814C80.6201 555.333 77.3799 555.333 74.75 553.814L50.109 539.588C47.4791 538.069 45.859 535.263 45.859 532.226V503.774C45.859 500.737 47.4791 497.931 50.109 496.412L74.75 482.186Z" fill="#C4E4FF" stroke="#402B3A" stroke-width="3"/>
<path d="M129.098 502.216C129.098 502.852 128.948 503.452 128.648 504.016C128.348 504.58 127.868 505.042 127.208 505.402C126.548 505.75 125.702 505.924 124.67 505.924H122.402V511H120.35V498.49H124.67C125.63 498.49 126.44 498.658 127.1 498.994C127.772 499.318 128.27 499.762 128.594 500.326C128.93 500.89 129.098 501.52 129.098 502.216ZM124.67 504.25C125.45 504.25 126.032 504.076 126.416 503.728C126.8 503.368 126.992 502.864 126.992 502.216C126.992 500.848 126.218 500.164 124.67 500.164H122.402V504.25H124.67ZM132.387 497.68V511H130.335V497.68H132.387ZM133.677 505.996C133.677 505 133.881 504.118 134.289 503.35C134.709 502.582 135.273 501.988 135.981 501.568C136.701 501.136 137.493 500.92 138.357 500.92C139.137 500.92 139.815 501.076 140.391 501.388C140.979 501.688 141.447 502.066 141.795 502.522V501.082H143.865V511H141.795V509.524C141.447 509.992 140.973 510.382 140.373 510.694C139.773 511.006 139.089 511.162 138.321 511.162C137.469 511.162 136.689 510.946 135.981 510.514C135.273 510.07 134.709 509.458 134.289 508.678C133.881 507.886 133.677 506.992 133.677 505.996ZM141.795 506.032C141.795 505.348 141.651 504.754 141.363 504.25C141.087 503.746 140.721 503.362 140.265 503.098C139.809 502.834 139.317 502.702 138.789 502.702C138.261 502.702 137.769 502.834 137.313 503.098C136.857 503.35 136.485 503.728 136.197 504.232C135.921 504.724 135.783 505.312 135.783 505.996C135.783 506.68 135.921 507.28 136.197 507.796C136.485 508.312 136.857 508.708 137.313 508.984C137.781 509.248 138.273 509.38 138.789 509.38C139.317 509.38 139.809 509.248 140.265 508.984C140.721 508.72 141.087 508.336 141.363 507.832C141.651 507.316 141.795 506.716 141.795 506.032ZM154.768 501.082L148.684 515.662H146.56L148.576 510.838L144.67 501.082H146.956L149.746 508.642L152.644 501.082H154.768ZM163.675 511.126C162.835 511.126 162.079 510.982 161.407 510.694C160.735 510.394 160.207 509.974 159.823 509.434C159.439 508.894 159.247 508.264 159.247 507.544H161.443C161.491 508.084 161.701 508.528 162.073 508.876C162.457 509.224 162.991 509.398 163.675 509.398C164.383 509.398 164.935 509.23 165.331 508.894C165.727 508.546 165.925 508.102 165.925 507.562C165.925 507.142 165.799 506.8 165.547 506.536C165.307 506.272 165.001 506.068 164.629 505.924C164.269 505.78 163.765 505.624 163.117 505.456C162.301 505.24 161.635 505.024 161.119 504.808C160.615 504.58 160.183 504.232 159.823 503.764C159.463 503.296 159.283 502.672 159.283 501.892C159.283 501.172 159.463 500.542 159.823 500.002C160.183 499.462 160.687 499.048 161.335 498.76C161.983 498.472 162.733 498.328 163.585 498.328C164.797 498.328 165.787 498.634 166.555 499.246C167.335 499.846 167.767 500.674 167.851 501.73H165.583C165.547 501.274 165.331 500.884 164.935 500.56C164.539 500.236 164.017 500.074 163.369 500.074C162.781 500.074 162.301 500.224 161.929 500.524C161.557 500.824 161.371 501.256 161.371 501.82C161.371 502.204 161.485 502.522 161.713 502.774C161.953 503.014 162.253 503.206 162.613 503.35C162.973 503.494 163.465 503.65 164.089 503.818C164.917 504.046 165.589 504.274 166.105 504.502C166.633 504.73 167.077 505.084 167.437 505.564C167.809 506.032 167.995 506.662 167.995 507.454C167.995 508.09 167.821 508.69 167.473 509.254C167.137 509.818 166.639 510.274 165.979 510.622C165.331 510.958 164.563 511.126 163.675 511.126ZM172.09 502.756V508.246C172.09 508.618 172.174 508.888 172.342 509.056C172.522 509.212 172.822 509.29 173.242 509.29H174.502V511H172.882C171.958 511 171.25 510.784 170.758 510.352C170.266 509.92 170.02 509.218 170.02 508.246V502.756H168.85V501.082H170.02V498.616H172.09V501.082H174.502V502.756H172.09ZM174.989 505.996C174.989 505 175.193 504.118 175.601 503.35C176.021 502.582 176.585 501.988 177.293 501.568C178.013 501.136 178.805 500.92 179.669 500.92C180.449 500.92 181.127 501.076 181.703 501.388C182.291 501.688 182.759 502.066 183.107 502.522V501.082H185.177V511H183.107V509.524C182.759 509.992 182.285 510.382 181.685 510.694C181.085 511.006 180.401 511.162 179.633 511.162C178.781 511.162 178.001 510.946 177.293 510.514C176.585 510.07 176.021 509.458 175.601 508.678C175.193 507.886 174.989 506.992 174.989 505.996ZM183.107 506.032C183.107 505.348 182.963 504.754 182.675 504.25C182.399 503.746 182.033 503.362 181.577 503.098C181.121 502.834 180.629 502.702 180.101 502.702C179.573 502.702 179.081 502.834 178.625 503.098C178.169 503.35 177.797 503.728 177.509 504.232C177.233 504.724 177.095 505.312 177.095 505.996C177.095 506.68 177.233 507.28 177.509 507.796C177.797 508.312 178.169 508.708 178.625 508.984C179.093 509.248 179.585 509.38 180.101 509.38C180.629 509.38 181.121 509.248 181.577 508.984C182.033 508.72 182.399 508.336 182.675 507.832C182.963 507.316 183.107 506.716 183.107 506.032ZM189.546 502.756V508.246C189.546 508.618 189.63 508.888 189.798 509.056C189.978 509.212 190.278 509.29 190.698 509.29H191.958V511H190.338C189.414 511 188.706 510.784 188.214 510.352C187.722 509.92 187.476 509.218 187.476 508.246V502.756H186.306V501.082H187.476V498.616H189.546V501.082H191.958V502.756H189.546ZM194.174 499.768C193.802 499.768 193.49 499.642 193.238 499.39C192.986 499.138 192.86 498.826 192.86 498.454C192.86 498.082 192.986 497.77 193.238 497.518C193.49 497.266 193.802 497.14 194.174 497.14C194.534 497.14 194.84 497.266 195.092 497.518C195.344 497.77 195.47 498.082 195.47 498.454C195.47 498.826 195.344 499.138 195.092 499.39C194.84 499.642 194.534 499.768 194.174 499.768ZM195.182 501.082V511H193.13V501.082H195.182ZM201.458 511.162C200.522 511.162 199.676 510.952 198.92 510.532C198.164 510.1 197.57 509.5 197.138 508.732C196.706 507.952 196.49 507.052 196.49 506.032C196.49 505.024 196.712 504.13 197.156 503.35C197.6 502.57 198.206 501.97 198.974 501.55C199.742 501.13 200.6 500.92 201.548 500.92C202.496 500.92 203.354 501.13 204.122 501.55C204.89 501.97 205.496 502.57 205.94 503.35C206.384 504.13 206.606 505.024 206.606 506.032C206.606 507.04 206.378 507.934 205.922 508.714C205.466 509.494 204.842 510.1 204.05 510.532C203.27 510.952 202.406 511.162 201.458 511.162ZM201.458 509.38C201.986 509.38 202.478 509.254 202.934 509.002C203.402 508.75 203.78 508.372 204.068 507.868C204.356 507.364 204.5 506.752 204.5 506.032C204.5 505.312 204.362 504.706 204.086 504.214C203.81 503.71 203.444 503.332 202.988 503.08C202.532 502.828 202.04 502.702 201.512 502.702C200.984 502.702 200.492 502.828 200.036 503.08C199.592 503.332 199.238 503.71 198.974 504.214C198.71 504.706 198.578 505.312 198.578 506.032C198.578 507.1 198.848 507.928 199.388 508.516C199.94 509.092 200.63 509.38 201.458 509.38ZM212.918 500.92C213.698 500.92 214.394 501.082 215.006 501.406C215.63 501.73 216.116 502.21 216.464 502.846C216.812 503.482 216.986 504.25 216.986 505.15V511H214.952V505.456C214.952 504.568 214.73 503.89 214.286 503.422C213.842 502.942 213.236 502.702 212.468 502.702C211.7 502.702 211.088 502.942 210.632 503.422C210.188 503.89 209.966 504.568 209.966 505.456V511H207.914V501.082H209.966V502.216C210.302 501.808 210.728 501.49 211.244 501.262C211.772 501.034 212.33 500.92 212.918 500.92ZM222.318 508.264V506.716L228.366 498.04H230.85V506.482H232.524V508.264H230.85V511H228.834V508.264H222.318ZM228.924 500.128L224.676 506.482H228.924V500.128Z" fill="#402B3A"/>
<path d="M124.364 532.126C123.536 532.126 122.792 531.982 122.132 531.694C121.484 531.394 120.974 530.986 120.602 530.47C120.23 529.942 120.038 529.336 120.026 528.652H121.772C121.832 529.24 122.072 529.738 122.492 530.146C122.924 530.542 123.548 530.74 124.364 530.74C125.144 530.74 125.756 530.548 126.2 530.164C126.656 529.768 126.884 529.264 126.884 528.652C126.884 528.172 126.752 527.782 126.488 527.482C126.224 527.182 125.894 526.954 125.498 526.798C125.102 526.642 124.568 526.474 123.896 526.294C123.068 526.078 122.402 525.862 121.898 525.646C121.406 525.43 120.98 525.094 120.62 524.638C120.272 524.17 120.098 523.546 120.098 522.766C120.098 522.082 120.272 521.476 120.62 520.948C120.968 520.42 121.454 520.012 122.078 519.724C122.714 519.436 123.44 519.292 124.256 519.292C125.432 519.292 126.392 519.586 127.136 520.174C127.892 520.762 128.318 521.542 128.414 522.514H126.614C126.554 522.034 126.302 521.614 125.858 521.254C125.414 520.882 124.826 520.696 124.094 520.696C123.41 520.696 122.852 520.876 122.42 521.236C121.988 521.584 121.772 522.076 121.772 522.712C121.772 523.168 121.898 523.54 122.15 523.828C122.414 524.116 122.732 524.338 123.104 524.494C123.488 524.638 124.022 524.806 124.706 524.998C125.534 525.226 126.2 525.454 126.704 525.682C127.208 525.898 127.64 526.24 128 526.708C128.36 527.164 128.54 527.788 128.54 528.58C128.54 529.192 128.378 529.768 128.054 530.308C127.73 530.848 127.25 531.286 126.614 531.622C125.978 531.958 125.228 532.126 124.364 532.126ZM134.532 532.162C133.608 532.162 132.768 531.952 132.012 531.532C131.268 531.112 130.68 530.518 130.248 529.75C129.828 528.97 129.618 528.07 129.618 527.05C129.618 526.042 129.834 525.154 130.266 524.386C130.71 523.606 131.31 523.012 132.066 522.604C132.822 522.184 133.668 521.974 134.604 521.974C135.54 521.974 136.386 522.184 137.142 522.604C137.898 523.012 138.492 523.6 138.924 524.368C139.368 525.136 139.59 526.03 139.59 527.05C139.59 528.07 139.362 528.97 138.906 529.75C138.462 530.518 137.856 531.112 137.088 531.532C136.32 531.952 135.468 532.162 134.532 532.162ZM134.532 530.722C135.12 530.722 135.672 530.584 136.188 530.308C136.704 530.032 137.118 529.618 137.43 529.066C137.754 528.514 137.916 527.842 137.916 527.05C137.916 526.258 137.76 525.586 137.448 525.034C137.136 524.482 136.728 524.074 136.224 523.81C135.72 523.534 135.174 523.396 134.586 523.396C133.986 523.396 133.434 523.534 132.93 523.81C132.438 524.074 132.042 524.482 131.742 525.034C131.442 525.586 131.292 526.258 131.292 527.05C131.292 527.854 131.436 528.532 131.724 529.084C132.024 529.636 132.42 530.05 132.912 530.326C133.404 530.59 133.944 530.722 134.532 530.722ZM145.83 521.956C147.03 521.956 148.002 522.322 148.746 523.054C149.49 523.774 149.862 524.818 149.862 526.186V532H148.242V526.42C148.242 525.436 147.996 524.686 147.504 524.17C147.012 523.642 146.34 523.378 145.488 523.378C144.624 523.378 143.934 523.648 143.418 524.188C142.914 524.728 142.662 525.514 142.662 526.546V532H141.024V522.136H142.662V523.54C142.986 523.036 143.424 522.646 143.976 522.37C144.54 522.094 145.158 521.956 145.83 521.956ZM160.314 522.136L154.374 536.644H152.682L154.626 531.892L150.648 522.136H152.466L155.562 530.128L158.622 522.136H160.314Z" fill="#D6589F"/>
<rect x="242" y="521" width="120" height="40" rx="20" fill="#402B3A"/>
<rect x="283" y="521" width="1" height="40" fill="#C4E4FF"/>
<rect x="324" y="521" width="1" height="40" fill="#C4E4FF"/>
<path d="M267.5 543H266.71L266.43 542.73C267.444 541.554 268.001 540.053 268 538.5C268 537.214 267.619 535.958 266.905 534.889C266.19 533.82 265.175 532.987 263.987 532.495C262.8 532.003 261.493 531.874 260.232 532.125C258.971 532.376 257.813 532.995 256.904 533.904C255.995 534.813 255.376 535.971 255.125 537.232C254.874 538.493 255.003 539.8 255.495 540.987C255.987 542.175 256.82 543.19 257.889 543.905C258.958 544.619 260.214 545 261.5 545C263.11 545 264.59 544.41 265.73 543.43L266 543.71V544.5L271 549.49L272.49 548L267.5 543ZM261.5 543C259.01 543 257 540.99 257 538.5C257 536.01 259.01 534 261.5 534C263.99 534 266 536.01 266 538.5C266 540.99 263.99 543 261.5 543Z" fill="#D20062"/>
<path d="M307.06 538L308 538.94L298.92 548H298V547.08L307.06 538ZM310.66 532C310.41 532 310.15 532.1 309.96 532.29L308.13 534.12L311.88 537.87L313.71 536.04C314.1 535.65 314.1 535 313.71 534.63L311.37 532.29C311.17 532.09 310.92 532 310.66 532ZM307.06 535.19L296 546.25V550H299.75L310.81 538.94L307.06 535.19Z" fill="#D20062"/>
<path d="M349.25 533.5H345.5V532.75C345.5 532.153 345.263 531.581 344.841 531.159C344.419 530.737 343.847 530.5 343.25 530.5H338.75C338.153 530.5 337.581 530.737 337.159 531.159C336.737 531.581 336.5 532.153 336.5 532.75V533.5H332.75C332.551 533.5 332.36 533.579 332.22 533.72C332.079 533.86 332 534.051 332 534.25C332 534.449 332.079 534.64 332.22 534.78C332.36 534.921 332.551 535 332.75 535H333.5V548.5C333.5 548.898 333.658 549.279 333.939 549.561C334.221 549.842 334.602 550 335 550H347C347.398 550 347.779 549.842 348.061 549.561C348.342 549.279 348.5 548.898 348.5 548.5V535H349.25C349.449 535 349.64 534.921 349.78 534.78C349.921 534.64 350 534.449 350 534.25C350 534.051 349.921 533.86 349.78 533.72C349.64 533.579 349.449 533.5 349.25 533.5ZM338 532.75C338 532.551 338.079 532.36 338.22 532.22C338.36 532.079 338.551 532 338.75 532H343.25C343.449 532 343.64 532.079 343.78 532.22C343.921 532.36 344 532.551 344 532.75V533.5H338V532.75ZM347 548.5H335V535H347V548.5ZM339.5 538.75V544.75C339.5 544.949 339.421 545.14 339.28 545.28C339.14 545.421 338.949 545.5 338.75 545.5C338.551 545.5 338.36 545.421 338.22 545.28C338.079 545.14 338 544.949 338 544.75V538.75C338 538.551 338.079 538.36 338.22 538.22C338.36 538.079 338.551 538 338.75 538C338.949 538 339.14 538.079 339.28 538.22C339.421 538.36 339.5 538.551 339.5 538.75ZM344 538.75V544.75C344 544.949 343.921 545.14 343.78 545.28C343.64 545.421 343.449 545.5 343.25 545.5C343.051 545.5 342.86 545.421 342.72 545.28C342.579 545.14 342.5 544.949 342.5 544.75V538.75C342.5 538.551 342.579 538.36 342.72 538.22C342.86 538.079 343.051 538 343.25 538C343.449 538 343.64 538.079 343.78 538.22C343.921 538.36 344 538.551 344 538.75Z" fill="#D20062"/>
<path d="M67.5 512L79 493L90.5 512H67.5Z" fill="#D895DA"/>
<rect x="60" y="517" width="17" height="17" fill="#D63484"/>
<circle cx="90.5" cy="525.5" r="9.5" fill="#D6589F"/>
<rect x="30" y="588" width="340" height="100" rx="20" fill="#A3B6CE"/>
<path d="M74.75 602.186C77.3799 600.667 80.6201 600.667 83.25 602.186L107.891 616.412C110.521 617.931 112.141 620.737 112.141 623.774V652.226C112.141 655.263 110.521 658.069 107.891 659.588L83.25 673.814C80.6201 675.333 77.3799 675.333 74.75 673.814L50.109 659.588C47.4791 658.069 45.859 655.263 45.859 652.226V623.774C45.859 620.737 47.4791 617.931 50.109 616.412L74.75 602.186Z" fill="#A3B6CE" stroke="#402B3A" stroke-width="3"/>
<path d="M67.5 631L79 612L90.5 631H67.5Z" fill="#D895DA"/>
<rect x="60" y="636" width="17" height="17" fill="#D63484"/>
<circle cx="90.5" cy="644.5" r="9.5" fill="#D6589F"/>
<path d="M126.092 624.754L129.98 631H127.676L124.85 626.464L122.204 631H119.918L123.806 624.754L119.9 618.49H122.204L125.048 623.062L127.712 618.49H129.998L126.092 624.754ZM133.565 622.558C133.913 622.078 134.387 621.688 134.987 621.388C135.599 621.076 136.277 620.92 137.021 620.92C137.897 620.92 138.689 621.13 139.397 621.55C140.105 621.97 140.663 622.57 141.071 623.35C141.479 624.118 141.683 625 141.683 625.996C141.683 626.992 141.479 627.886 141.071 628.678C140.663 629.458 140.099 630.07 139.379 630.514C138.671 630.946 137.885 631.162 137.021 631.162C136.253 631.162 135.569 631.012 134.969 630.712C134.381 630.412 133.913 630.028 133.565 629.56V631H131.513V617.68H133.565V622.558ZM139.595 625.996C139.595 625.312 139.451 624.724 139.163 624.232C138.887 623.728 138.515 623.35 138.047 623.098C137.591 622.834 137.099 622.702 136.571 622.702C136.055 622.702 135.563 622.834 135.095 623.098C134.639 623.362 134.267 623.746 133.979 624.25C133.703 624.754 133.565 625.348 133.565 626.032C133.565 626.716 133.703 627.316 133.979 627.832C134.267 628.336 134.639 628.72 135.095 628.984C135.563 629.248 136.055 629.38 136.571 629.38C137.099 629.38 137.591 629.248 138.047 628.984C138.515 628.708 138.887 628.312 139.163 627.796C139.451 627.28 139.595 626.68 139.595 625.996ZM147.294 631.162C146.358 631.162 145.512 630.952 144.756 630.532C144 630.1 143.406 629.5 142.974 628.732C142.542 627.952 142.326 627.052 142.326 626.032C142.326 625.024 142.548 624.13 142.992 623.35C143.436 622.57 144.042 621.97 144.81 621.55C145.578 621.13 146.436 620.92 147.384 620.92C148.332 620.92 149.19 621.13 149.958 621.55C150.726 621.97 151.332 622.57 151.776 623.35C152.22 624.13 152.442 625.024 152.442 626.032C152.442 627.04 152.214 627.934 151.758 628.714C151.302 629.494 150.678 630.1 149.886 630.532C149.106 630.952 148.242 631.162 147.294 631.162ZM147.294 629.38C147.822 629.38 148.314 629.254 148.77 629.002C149.238 628.75 149.616 628.372 149.904 627.868C150.192 627.364 150.336 626.752 150.336 626.032C150.336 625.312 150.198 624.706 149.922 624.214C149.646 623.71 149.28 623.332 148.824 623.08C148.368 622.828 147.876 622.702 147.348 622.702C146.82 622.702 146.328 622.828 145.872 623.08C145.428 623.332 145.074 623.71 144.81 624.214C144.546 624.706 144.414 625.312 144.414 626.032C144.414 627.1 144.684 627.928 145.224 628.516C145.776 629.092 146.466 629.38 147.294 629.38ZM157.999 625.978L161.203 631H158.881L156.739 627.634L154.723 631H152.581L155.785 626.122L152.581 621.082H154.903L157.045 624.448L159.061 621.082H161.203L157.999 625.978ZM170.091 631.126C169.251 631.126 168.495 630.982 167.823 630.694C167.151 630.394 166.623 629.974 166.239 629.434C165.855 628.894 165.663 628.264 165.663 627.544H167.859C167.907 628.084 168.117 628.528 168.489 628.876C168.873 629.224 169.407 629.398 170.091 629.398C170.799 629.398 171.351 629.23 171.747 628.894C172.143 628.546 172.341 628.102 172.341 627.562C172.341 627.142 172.215 626.8 171.963 626.536C171.723 626.272 171.417 626.068 171.045 625.924C170.685 625.78 170.181 625.624 169.533 625.456C168.717 625.24 168.051 625.024 167.535 624.808C167.031 624.58 166.599 624.232 166.239 623.764C165.879 623.296 165.699 622.672 165.699 621.892C165.699 621.172 165.879 620.542 166.239 620.002C166.599 619.462 167.103 619.048 167.751 618.76C168.399 618.472 169.149 618.328 170.001 618.328C171.213 618.328 172.203 618.634 172.971 619.246C173.751 619.846 174.183 620.674 174.267 621.73H171.999C171.963 621.274 171.747 620.884 171.351 620.56C170.955 620.236 170.433 620.074 169.785 620.074C169.197 620.074 168.717 620.224 168.345 620.524C167.973 620.824 167.787 621.256 167.787 621.82C167.787 622.204 167.901 622.522 168.129 622.774C168.369 623.014 168.669 623.206 169.029 623.35C169.389 623.494 169.881 623.65 170.505 623.818C171.333 624.046 172.005 624.274 172.521 624.502C173.049 624.73 173.493 625.084 173.853 625.564C174.225 626.032 174.411 626.662 174.411 627.454C174.411 628.09 174.237 628.69 173.889 629.254C173.553 629.818 173.055 630.274 172.395 630.622C171.747 630.958 170.979 631.126 170.091 631.126ZM185.202 625.798C185.202 626.17 185.178 626.506 185.13 626.806H177.552C177.612 627.598 177.906 628.234 178.434 628.714C178.962 629.194 179.61 629.434 180.378 629.434C181.482 629.434 182.262 628.972 182.718 628.048H184.932C184.632 628.96 184.086 629.71 183.294 630.298C182.514 630.874 181.542 631.162 180.378 631.162C179.43 631.162 178.578 630.952 177.822 630.532C177.078 630.1 176.49 629.5 176.058 628.732C175.638 627.952 175.428 627.052 175.428 626.032C175.428 625.012 175.632 624.118 176.04 623.35C176.46 622.57 177.042 621.97 177.786 621.55C178.542 621.13 179.406 620.92 180.378 620.92C181.314 620.92 182.148 621.124 182.88 621.532C183.612 621.94 184.182 622.516 184.59 623.26C184.998 623.992 185.202 624.838 185.202 625.798ZM183.06 625.15C183.048 624.394 182.778 623.788 182.25 623.332C181.722 622.876 181.068 622.648 180.288 622.648C179.58 622.648 178.974 622.876 178.47 623.332C177.966 623.776 177.666 624.382 177.57 625.15H183.06ZM188.553 622.522C188.853 622.018 189.249 621.628 189.741 621.352C190.245 621.064 190.839 620.92 191.523 620.92V623.044H191.001C190.197 623.044 189.585 623.248 189.165 623.656C188.757 624.064 188.553 624.772 188.553 625.78V631H186.501V621.082H188.553V622.522ZM193.734 619.768C193.362 619.768 193.05 619.642 192.798 619.39C192.546 619.138 192.42 618.826 192.42 618.454C192.42 618.082 192.546 617.77 192.798 617.518C193.05 617.266 193.362 617.14 193.734 617.14C194.094 617.14 194.4 617.266 194.652 617.518C194.904 617.77 195.03 618.082 195.03 618.454C195.03 618.826 194.904 619.138 194.652 619.39C194.4 619.642 194.094 619.768 193.734 619.768ZM194.742 621.082V631H192.69V621.082H194.742ZM205.806 625.798C205.806 626.17 205.782 626.506 205.734 626.806H198.156C198.216 627.598 198.51 628.234 199.038 628.714C199.566 629.194 200.214 629.434 200.982 629.434C202.086 629.434 202.866 628.972 203.322 628.048H205.536C205.236 628.96 204.69 629.71 203.898 630.298C203.118 630.874 202.146 631.162 200.982 631.162C200.034 631.162 199.182 630.952 198.426 630.532C197.682 630.1 197.094 629.5 196.662 628.732C196.242 627.952 196.032 627.052 196.032 626.032C196.032 625.012 196.236 624.118 196.644 623.35C197.064 622.57 197.646 621.97 198.39 621.55C199.146 621.13 200.01 620.92 200.982 620.92C201.918 620.92 202.752 621.124 203.484 621.532C204.216 621.94 204.786 622.516 205.194 623.26C205.602 623.992 205.806 624.838 205.806 625.798ZM203.664 625.15C203.652 624.394 203.382 623.788 202.854 623.332C202.326 622.876 201.672 622.648 200.892 622.648C200.184 622.648 199.578 622.876 199.074 623.332C198.57 623.776 198.27 624.382 198.174 625.15H203.664ZM210.705 631.162C209.925 631.162 209.223 631.024 208.599 630.748C207.987 630.46 207.501 630.076 207.141 629.596C206.781 629.104 206.589 628.558 206.565 627.958H208.689C208.725 628.378 208.923 628.732 209.283 629.02C209.655 629.296 210.117 629.434 210.669 629.434C211.245 629.434 211.689 629.326 212.001 629.11C212.325 628.882 212.487 628.594 212.487 628.246C212.487 627.874 212.307 627.598 211.947 627.418C211.599 627.238 211.041 627.04 210.273 626.824C209.529 626.62 208.923 626.422 208.455 626.23C207.987 626.038 207.579 625.744 207.231 625.348C206.895 624.952 206.727 624.43 206.727 623.782C206.727 623.254 206.883 622.774 207.195 622.342C207.507 621.898 207.951 621.55 208.527 621.298C209.115 621.046 209.787 620.92 210.543 620.92C211.671 620.92 212.577 621.208 213.261 621.784C213.957 622.348 214.329 623.122 214.377 624.106H212.325C212.289 623.662 212.109 623.308 211.785 623.044C211.461 622.78 211.023 622.648 210.471 622.648C209.931 622.648 209.517 622.75 209.229 622.954C208.941 623.158 208.797 623.428 208.797 623.764C208.797 624.028 208.893 624.25 209.085 624.43C209.277 624.61 209.511 624.754 209.787 624.862C210.063 624.958 210.471 625.084 211.011 625.24C211.731 625.432 212.319 625.63 212.775 625.834C213.243 626.026 213.645 626.314 213.981 626.698C214.317 627.082 214.491 627.592 214.503 628.228C214.503 628.792 214.347 629.296 214.035 629.74C213.723 630.184 213.279 630.532 212.703 630.784C212.139 631.036 211.473 631.162 210.705 631.162ZM224.078 631.126C223.238 631.126 222.482 630.982 221.81 630.694C221.138 630.394 220.61 629.974 220.226 629.434C219.842 628.894 219.65 628.264 219.65 627.544H221.846C221.894 628.084 222.104 628.528 222.476 628.876C222.86 629.224 223.394 629.398 224.078 629.398C224.786 629.398 225.338 629.23 225.734 628.894C226.13 628.546 226.328 628.102 226.328 627.562C226.328 627.142 226.202 626.8 225.95 626.536C225.71 626.272 225.404 626.068 225.032 625.924C224.672 625.78 224.168 625.624 223.52 625.456C222.704 625.24 222.038 625.024 221.522 624.808C221.018 624.58 220.586 624.232 220.226 623.764C219.866 623.296 219.686 622.672 219.686 621.892C219.686 621.172 219.866 620.542 220.226 620.002C220.586 619.462 221.09 619.048 221.738 618.76C222.386 618.472 223.136 618.328 223.988 618.328C225.2 618.328 226.19 618.634 226.958 619.246C227.738 619.846 228.17 620.674 228.254 621.73H225.986C225.95 621.274 225.734 620.884 225.338 620.56C224.942 620.236 224.42 620.074 223.772 620.074C223.184 620.074 222.704 620.224 222.332 620.524C221.96 620.824 221.774 621.256 221.774 621.82C221.774 622.204 221.888 622.522 222.116 622.774C222.356 623.014 222.656 623.206 223.016 623.35C223.376 623.494 223.868 623.65 224.492 623.818C225.32 624.046 225.992 624.274 226.508 624.502C227.036 624.73 227.48 625.084 227.84 625.564C228.212 626.032 228.398 626.662 228.398 627.454C228.398 628.09 228.224 628.69 227.876 629.254C227.54 629.818 227.042 630.274 226.382 630.622C225.734 630.958 224.966 631.126 224.078 631.126Z" fill="#402B3A"/>
<path d="M133.112 639.544V652H131.474V642.712L127.334 652H126.182L122.024 642.694V652H120.386V639.544H122.15L126.758 649.84L131.366 639.544H133.112ZM136.016 640.534C135.704 640.534 135.44 640.426 135.224 640.21C135.008 639.994 134.9 639.73 134.9 639.418C134.9 639.106 135.008 638.842 135.224 638.626C135.44 638.41 135.704 638.302 136.016 638.302C136.316 638.302 136.568 638.41 136.772 638.626C136.988 638.842 137.096 639.106 137.096 639.418C137.096 639.73 136.988 639.994 136.772 640.21C136.568 640.426 136.316 640.534 136.016 640.534ZM136.808 642.136V652H135.17V642.136H136.808ZM138.268 647.05C138.268 646.03 138.472 645.142 138.88 644.386C139.288 643.618 139.852 643.024 140.572 642.604C141.304 642.184 142.138 641.974 143.074 641.974C144.286 641.974 145.282 642.268 146.062 642.856C146.854 643.444 147.376 644.26 147.628 645.304H145.864C145.696 644.704 145.366 644.23 144.874 643.882C144.394 643.534 143.794 643.36 143.074 643.36C142.138 643.36 141.382 643.684 140.806 644.332C140.23 644.968 139.942 645.874 139.942 647.05C139.942 648.238 140.23 649.156 140.806 649.804C141.382 650.452 142.138 650.776 143.074 650.776C143.794 650.776 144.394 650.608 144.874 650.272C145.354 649.936 145.684 649.456 145.864 648.832H147.628C147.364 649.84 146.836 650.65 146.044 651.262C145.252 651.862 144.262 652.162 143.074 652.162C142.138 652.162 141.304 651.952 140.572 651.532C139.852 651.112 139.288 650.518 138.88 649.75C138.472 648.982 138.268 648.082 138.268 647.05ZM150.731 643.738C151.019 643.174 151.427 642.736 151.955 642.424C152.495 642.112 153.149 641.956 153.917 641.956V643.648H153.485C151.649 643.648 150.731 644.644 150.731 646.636V652H149.093V642.136H150.731V643.738ZM159.39 652.162C158.466 652.162 157.626 651.952 156.87 651.532C156.126 651.112 155.538 650.518 155.106 649.75C154.686 648.97 154.476 648.07 154.476 647.05C154.476 646.042 154.692 645.154 155.124 644.386C155.568 643.606 156.168 643.012 156.924 642.604C157.68 642.184 158.526 641.974 159.462 641.974C160.398 641.974 161.244 642.184 162 642.604C162.756 643.012 163.35 643.6 163.782 644.368C164.226 645.136 164.448 646.03 164.448 647.05C164.448 648.07 164.22 648.97 163.764 649.75C163.32 650.518 162.714 651.112 161.946 651.532C161.178 651.952 160.326 652.162 159.39 652.162ZM159.39 650.722C159.978 650.722 160.53 650.584 161.046 650.308C161.562 650.032 161.976 649.618 162.288 649.066C162.612 648.514 162.774 647.842 162.774 647.05C162.774 646.258 162.618 645.586 162.306 645.034C161.994 644.482 161.586 644.074 161.082 643.81C160.578 643.534 160.032 643.396 159.444 643.396C158.844 643.396 158.292 643.534 157.788 643.81C157.296 644.074 156.9 644.482 156.6 645.034C156.3 645.586 156.15 646.258 156.15 647.05C156.15 647.854 156.294 648.532 156.582 649.084C156.882 649.636 157.278 650.05 157.77 650.326C158.262 650.59 158.802 650.722 159.39 650.722ZM169.374 652.162C168.618 652.162 167.94 652.036 167.34 651.784C166.74 651.52 166.266 651.16 165.918 650.704C165.57 650.236 165.378 649.702 165.342 649.102H167.034C167.082 649.594 167.31 649.996 167.718 650.308C168.138 650.62 168.684 650.776 169.356 650.776C169.98 650.776 170.472 650.638 170.832 650.362C171.192 650.086 171.372 649.738 171.372 649.318C171.372 648.886 171.18 648.568 170.796 648.364C170.412 648.148 169.818 647.938 169.014 647.734C168.282 647.542 167.682 647.35 167.214 647.158C166.758 646.954 166.362 646.66 166.026 646.276C165.702 645.88 165.54 645.364 165.54 644.728C165.54 644.224 165.69 643.762 165.99 643.342C166.29 642.922 166.716 642.592 167.268 642.352C167.82 642.1 168.45 641.974 169.158 641.974C170.25 641.974 171.132 642.25 171.804 642.802C172.476 643.354 172.836 644.11 172.884 645.07H171.246C171.21 644.554 171 644.14 170.616 643.828C170.244 643.516 169.74 643.36 169.104 643.36C168.516 643.36 168.048 643.486 167.7 643.738C167.352 643.99 167.178 644.32 167.178 644.728C167.178 645.052 167.28 645.322 167.484 645.538C167.7 645.742 167.964 645.91 168.276 646.042C168.6 646.162 169.044 646.3 169.608 646.456C170.316 646.648 170.892 646.84 171.336 647.032C171.78 647.212 172.158 647.488 172.47 647.86C172.794 648.232 172.962 648.718 172.974 649.318C172.974 649.858 172.824 650.344 172.524 650.776C172.224 651.208 171.798 651.55 171.246 651.802C170.706 652.042 170.082 652.162 169.374 652.162ZM178.868 652.162C177.944 652.162 177.104 651.952 176.348 651.532C175.604 651.112 175.016 650.518 174.584 649.75C174.164 648.97 173.954 648.07 173.954 647.05C173.954 646.042 174.17 645.154 174.602 644.386C175.046 643.606 175.646 643.012 176.402 642.604C177.158 642.184 178.004 641.974 178.94 641.974C179.876 641.974 180.722 642.184 181.478 642.604C182.234 643.012 182.828 643.6 183.26 644.368C183.704 645.136 183.926 646.03 183.926 647.05C183.926 648.07 183.698 648.97 183.242 649.75C182.798 650.518 182.192 651.112 181.424 651.532C180.656 651.952 179.804 652.162 178.868 652.162ZM178.868 650.722C179.456 650.722 180.008 650.584 180.524 650.308C181.04 650.032 181.454 649.618 181.766 649.066C182.09 648.514 182.252 647.842 182.252 647.05C182.252 646.258 182.096 645.586 181.784 645.034C181.472 644.482 181.064 644.074 180.56 643.81C180.056 643.534 179.51 643.396 178.922 643.396C178.322 643.396 177.77 643.534 177.266 643.81C176.774 644.074 176.378 644.482 176.078 645.034C175.778 645.586 175.628 646.258 175.628 647.05C175.628 647.854 175.772 648.532 176.06 649.084C176.36 649.636 176.756 650.05 177.248 650.326C177.74 650.59 178.28 650.722 178.868 650.722ZM189.374 643.486H187.304V652H185.666V643.486H184.388V642.136H185.666V641.434C185.666 640.33 185.948 639.526 186.512 639.022C187.088 638.506 188.006 638.248 189.266 638.248V639.616C188.546 639.616 188.036 639.76 187.736 640.048C187.448 640.324 187.304 640.786 187.304 641.434V642.136H189.374V643.486ZM192.561 643.486V649.3C192.561 649.78 192.663 650.122 192.867 650.326C193.071 650.518 193.425 650.614 193.929 650.614H195.135V652H193.659C192.747 652 192.063 651.79 191.607 651.37C191.151 650.95 190.923 650.26 190.923 649.3V643.486H189.645V642.136H190.923V639.652H192.561V642.136H195.135V643.486H192.561Z" fill="#D6589F"/>
<rect x="242" y="641" width="120" height="40" rx="20" fill="#402B3A"/>
<rect x="283" y="641" width="1" height="40" fill="#A3B6CE"/>
<rect x="324" y="641" width="1" height="40" fill="#A3B6CE"/>
<path d="M267.5 663H266.71L266.43 662.73C267.444 661.554 268.001 660.053 268 658.5C268 657.214 267.619 655.958 266.905 654.889C266.19 653.82 265.175 652.987 263.987 652.495C262.8 652.003 261.493 651.874 260.232 652.125C258.971 652.376 257.813 652.995 256.904 653.904C255.995 654.813 255.376 655.971 255.125 657.232C254.874 658.493 255.003 659.8 255.495 660.987C255.987 662.175 256.82 663.19 257.889 663.905C258.958 664.619 260.214 665 261.5 665C263.11 665 264.59 664.41 265.73 663.43L266 663.71V664.5L271 669.49L272.49 668L267.5 663ZM261.5 663C259.01 663 257 660.99 257 658.5C257 656.01 259.01 654 261.5 654C263.99 654 266 656.01 266 658.5C266 660.99 263.99 663 261.5 663Z" fill="#D20062" fill-opacity="0.75"/>
<path d="M307.06 658L308 658.94L298.92 668H298V667.08L307.06 658ZM310.66 652C310.41 652 310.15 652.1 309.96 652.29L308.13 654.12L311.88 657.87L313.71 656.04C314.1 655.65 314.1 655 313.71 654.63L311.37 652.29C311.17 652.09 310.92 652 310.66 652ZM307.06 655.19L296 666.25V670H299.75L310.81 658.94L307.06 655.19Z" fill="#D20062" fill-opacity="0.75"/>
<path d="M349.25 653.5H345.5V652.75C345.5 652.153 345.263 651.581 344.841 651.159C344.419 650.737 343.847 650.5 343.25 650.5H338.75C338.153 650.5 337.581 650.737 337.159 651.159C336.737 651.581 336.5 652.153 336.5 652.75V653.5H332.75C332.551 653.5 332.36 653.579 332.22 653.72C332.079 653.86 332 654.051 332 654.25C332 654.449 332.079 654.64 332.22 654.78C332.36 654.921 332.551 655 332.75 655H333.5V668.5C333.5 668.898 333.658 669.279 333.939 669.561C334.221 669.842 334.602 670 335 670H347C347.398 670 347.779 669.842 348.061 669.561C348.342 669.279 348.5 668.898 348.5 668.5V655H349.25C349.449 655 349.64 654.921 349.78 654.78C349.921 654.64 350 654.449 350 654.25C350 654.051 349.921 653.86 349.78 653.72C349.64 653.579 349.449 653.5 349.25 653.5ZM338 652.75C338 652.551 338.079 652.36 338.22 652.22C338.36 652.079 338.551 652 338.75 652H343.25C343.449 652 343.64 652.079 343.78 652.22C343.921 652.36 344 652.551 344 652.75V653.5H338V652.75ZM347 668.5H335V655H347V668.5ZM339.5 658.75V664.75C339.5 664.949 339.421 665.14 339.28 665.28C339.14 665.421 338.949 665.5 338.75 665.5C338.551 665.5 338.36 665.421 338.22 665.28C338.079 665.14 338 664.949 338 664.75V658.75C338 658.551 338.079 658.36 338.22 658.22C338.36 658.079 338.551 658 338.75 658C338.949 658 339.14 658.079 339.28 658.22C339.421 658.36 339.5 658.551 339.5 658.75ZM344 658.75V664.75C344 664.949 343.921 665.14 343.78 665.28C343.64 665.421 343.449 665.5 343.25 665.5C343.051 665.5 342.86 665.421 342.72 665.28C342.579 665.14 342.5 664.949 342.5 664.75V658.75C342.5 658.551 342.579 658.36 342.72 658.22C342.86 658.079 343.051 658 343.25 658C343.449 658 343.64 658.079 343.78 658.22C343.921 658.36 344 658.551 344 658.75Z" fill="#D20062" fill-opacity="0.75"/>
<path d="M52.0521 734.042L52.0521 731.917L41.8187 731.917L46.1937 727.542L44.7604 726.108L37.9083 732.96L44.7604 739.85L46.1937 738.417L41.8187 734.042L52.0521 734.042ZM63.75 732.994C63.75 735.585 63.2583 738.023 62.275 740.306C61.2903 742.588 59.9542 744.574 58.2667 746.262C56.5806 747.951 54.5972 749.288 52.3167 750.273C50.0361 751.258 47.5993 751.75 45.0063 751.75C42.4146 751.75 39.9771 751.258 37.6937 750.275C35.4118 749.29 33.4264 747.954 31.7375 746.267C30.0486 744.581 28.7118 742.597 27.7271 740.317C26.7424 738.036 26.25 735.599 26.25 733.006C26.25 730.415 26.7417 727.977 27.725 725.694C28.7097 723.412 30.0458 721.426 31.7333 719.738C33.4194 718.049 35.4028 716.712 37.6833 715.727C39.9639 714.742 42.4007 714.25 44.9937 714.25C47.5854 714.25 50.0229 714.742 52.3062 715.725C54.5882 716.71 56.5736 718.046 58.2625 719.733C59.9514 721.419 61.2882 723.403 62.2729 725.683C63.2576 727.964 63.75 730.401 63.75 732.994Z" fill="#D6589F"/>
<path d="M337.948 734.042L337.948 731.917L348.181 731.917L343.806 727.542L345.24 726.108L352.092 732.96L345.24 739.85L343.806 738.417L348.181 734.042L337.948 734.042ZM326.25 732.994C326.25 735.585 326.742 738.023 327.725 740.306C328.71 742.588 330.046 744.574 331.733 746.262C333.419 747.951 335.403 749.288 337.683 750.273C339.964 751.258 342.401 751.75 344.994 751.75C347.585 751.75 350.023 751.258 352.306 750.275C354.588 749.29 356.574 747.954 358.263 746.267C359.951 744.581 361.288 742.597 362.273 740.317C363.258 738.036 363.75 735.599 363.75 733.006C363.75 730.415 363.258 727.977 362.275 725.694C361.29 723.412 359.954 721.426 358.267 719.738C356.581 718.049 354.597 716.712 352.317 715.727C350.036 714.742 347.599 714.25 345.006 714.25C342.415 714.25 339.977 714.742 337.694 715.725C335.412 716.71 333.426 718.046 331.738 719.733C330.049 721.419 328.712 723.403 327.727 725.683C326.742 727.964 326.25 730.401 326.25 732.994Z" fill="#D6589F"/>
<path d="M177.992 733.096C177.992 731.261 178.291 729.832 178.888 728.808C179.485 727.773 180.531 727.256 182.024 727.256C183.507 727.256 184.547 727.773 185.144 728.808C185.741 729.832 186.04 731.261 186.04 733.096C186.04 734.963 185.741 736.413 185.144 737.448C184.547 738.483 183.507 739 182.024 739C180.531 739 179.485 738.483 178.888 737.448C178.291 736.413 177.992 734.963 177.992 733.096ZM184.6 733.096C184.6 732.168 184.536 731.384 184.408 730.744C184.291 730.093 184.04 729.571 183.656 729.176C183.283 728.781 182.739 728.584 182.024 728.584C181.299 728.584 180.744 728.781 180.36 729.176C179.987 729.571 179.736 730.093 179.608 730.744C179.491 731.384 179.432 732.168 179.432 733.096C179.432 734.056 179.491 734.861 179.608 735.512C179.736 736.163 179.987 736.685 180.36 737.08C180.744 737.475 181.299 737.672 182.024 737.672C182.739 737.672 183.283 737.475 183.656 737.08C184.04 736.685 184.291 736.163 184.408 735.512C184.536 734.861 184.6 734.056 184.6 733.096ZM187.015 728.76V727.432H190.023V739H188.551V728.76H187.015ZM197.564 723.928L193.18 741.72H191.74L196.108 723.928H197.564ZM198.853 733.096C198.853 731.261 199.152 729.832 199.749 728.808C200.347 727.773 201.392 727.256 202.885 727.256C204.368 727.256 205.408 727.773 206.005 728.808C206.603 729.832 206.901 731.261 206.901 733.096C206.901 734.963 206.603 736.413 206.005 737.448C205.408 738.483 204.368 739 202.885 739C201.392 739 200.347 738.483 199.749 737.448C199.152 736.413 198.853 734.963 198.853 733.096ZM205.461 733.096C205.461 732.168 205.397 731.384 205.269 730.744C205.152 730.093 204.901 729.571 204.517 729.176C204.144 728.781 203.6 728.584 202.885 728.584C202.16 728.584 201.605 728.781 201.221 729.176C200.848 729.571 200.597 730.093 200.469 730.744C200.352 731.384 200.293 732.168 200.293 733.096C200.293 734.056 200.352 734.861 200.469 735.512C200.597 736.163 200.848 736.685 201.221 737.08C201.605 737.475 202.16 737.672 202.885 737.672C203.6 737.672 204.144 737.475 204.517 737.08C204.901 736.685 205.152 736.163 205.269 735.512C205.397 734.861 205.461 734.056 205.461 733.096ZM208.084 737.832C209.439 736.744 210.5 735.853 211.268 735.16C212.036 734.456 212.681 733.725 213.204 732.968C213.737 732.2 214.004 731.448 214.004 730.712C214.004 730.019 213.833 729.475 213.492 729.08C213.161 728.675 212.623 728.472 211.876 728.472C211.151 728.472 210.585 728.701 210.18 729.16C209.785 729.608 209.572 730.211 209.54 730.968H208.132C208.175 729.773 208.537 728.851 209.22 728.2C209.903 727.549 210.783 727.224 211.86 727.224C212.959 727.224 213.828 727.528 214.468 728.136C215.119 728.744 215.444 729.581 215.444 730.648C215.444 731.533 215.177 732.397 214.644 733.24C214.121 734.072 213.524 734.808 212.852 735.448C212.18 736.077 211.321 736.813 210.276 737.656H215.78V738.872H208.084V737.832Z" fill="#C4E4FF"/>
</svg>
