<?xml version="1.0" encoding="UTF-8" standalone="no"?>
<svg
   viewBox="0 0 474.004 454.004"
   version="1.1"
   id="svg2"
   sodipodi:docname="board_games.svg"
   width="474.004"
   height="454.004"
   xmlns:inkscape="http://www.inkscape.org/namespaces/inkscape"
   xmlns:sodipodi="http://sodipodi.sourceforge.net/DTD/sodipodi-0.dtd"
   xmlns="http://www.w3.org/2000/svg"
   xmlns:svg="http://www.w3.org/2000/svg">
  <defs
     id="defs2" />
  <sodipodi:namedview
     id="namedview2"
     pagecolor="#ffffff"
     bordercolor="#000000"
     borderopacity="0.25"
     inkscape:showpageshadow="2"
     inkscape:pageopacity="0.0"
     inkscape:pagecheckerboard="0"
     inkscape:deskcolor="#d1d1d1" />
  <g
     class=""
     transform="translate(144.6353,-55.315914)"
     id="g2"
     style="fill:#d20062;fill-opacity:1">
    <path
       d="m -42.635298,55.315914 v 37.943 c 15.222,10.529996 25.002,30.336996 25.002,52.059996 0,13.71 -3.901,26.65 -10.598,36.985 3.465,1.35 7.106,2.85 10.15,4.172 l 122.351998,-22.783 5.918,54.842 -111.747998,23.219 c -0.862,16.261 -2.45,32.262 -5.289,51.566 H 329.3687 V 55.315914 Z m -24.998,47.999996 c -16.595,0 -32.002,17.747 -32.002,42.004 0,24.257 15.407,42.002 32.002,42.002 16.595,0 32.002,-17.745 32.002,-42.002 0,-24.257 -15.407,-42.004 -32.002,-42.004 z m 156.096,81.629 -108.592,20.22 c -14.24,-5.602 -4.956,-3.035 -21.469,-8.517 -7.476,5.469 -16.33,8.672 -26.035,8.672 -8.6,0 -16.53,-2.523 -23.428,-6.9 -8.59,3.564 -17.655002,8.09 -25.736002,12.654 -12.992,7.338 -23.722,13.211 -27.838,16.033 v 130.213 h 20.004 v -111.002 h 17.996 v 263.002 h 30.004002 v -169.002 h 17.996 v 169.002 h 26.004 v -171.84 l 0.154,-0.824 c 9.514,-50.64 12.588,-77.384 13.461,-109.656 l 109.56,-22.766 z m -98.153,126.375 c -0.952,5.682 -1.991,11.64 -3.146,17.996 H 314.3667 v -17.996 z m 54.057,47.996 c -16.595,0 -32.002,17.747 -32.002,42.004 0,18.198 8.67,32.73 20.01,38.855 3.599,-1.662 7.482,-2.706 11.68,-2.851 4.633,-0.16 8.98,0.767 13.052,2.42 10.968,-6.352 19.262,-20.63 19.262,-38.424 0,-24.257 -15.407,-42.004 -32.002,-42.004 z m 111.999998,0 c -16.595,0 -32.002,17.747 -32.002,42.004 0,18.198 8.67,32.73 20.01,38.855 3.599,-1.662 7.482,-2.706 11.68,-2.851 4.633,-0.16 8.98,0.767 13.052,2.42 10.968,-6.352 19.262,-20.63 19.262,-38.424 0,-24.257 -15.407,-42.004 -32.002,-42.004 z m 112,0 c -16.595,0 -32.002,17.747 -32.002,42.004 0,18.198 8.67,32.73 20.01,38.855 3.599,-1.662 7.482,-2.706 11.68,-2.851 4.633,-0.16 8.98,0.767 13.052,2.42 10.968,-6.352 19.262,-20.63 19.262,-38.424 0,-24.257 -15.407,-42.004 -32.002,-42.004 z m -223.687998,95.996 c -3.844,0.133 -8.907,2.93 -14.3,8.785 -5.394,5.855 -10.696,14.25 -15.125,22.76 -4.226,8.12 -7.609,16.16 -10.06,22.463 h 85.339 c -3.04,-6.436 -7.138,-14.549 -12.133,-22.711 -5.298,-8.658 -11.511,-17.138 -17.668,-22.957 -6.157,-5.819 -11.8,-8.487 -16.053,-8.34 z m 111.999998,0 c -3.844,0.133 -8.907,2.93 -14.3,8.785 -5.394,5.855 -10.696,14.25 -15.125,22.76 -4.226,8.12 -7.609,16.16 -10.06,22.463 h 85.339 c -3.04,-6.436 -7.138,-14.549 -12.133,-22.711 -5.298,-8.658 -11.511,-17.138 -17.668,-22.957 -6.157,-5.819 -11.8,-8.487 -16.052,-8.34 z m 112,0 c -3.844,0.133 -8.907,2.93 -14.3,8.785 -5.394,5.855 -10.696,14.25 -15.125,22.76 -4.226,8.12 -7.609,16.16 -10.06,22.463 h 85.339 c -3.04,-6.436 -7.138,-14.549 -12.133,-22.711 -5.298,-8.658 -11.511,-17.138 -17.668,-22.957 -6.157,-5.819 -11.8,-8.487 -16.052,-8.34 z"
       fill="#ffffff"
       fill-opacity="1"
       id="path2"
       style="fill:#d20062;fill-opacity:1" />
  </g>
</svg>
