<?xml version="1.0" encoding="UTF-8" standalone="no"?>
<svg
   viewBox="0 0 1439.5447 1446.5278"
   version="1.1"
   id="svg2"
   width="1439.5447"
   height="1446.5278"
   xmlns="http://www.w3.org/2000/svg"
   xmlns:svg="http://www.w3.org/2000/svg">
  <defs
     id="defs2" />
  <g
     class=""
     transform="matrix(3.2861741,0,0,3.2861741,-118.30227,-117.78962)"
     style="stroke-width:0.304305"
     id="g2">
    <path
       d="M 169.344,35.844 A 9.5,9.5 0 0 0 160,45.47 V 162.813 H 45.5 a 9.5,9.5 0 1 0 0,19 H 160 v 151 H 45.5 a 9.5,9.5 0 1 0 0,19 H 160 V 466.5 a 9.5,9.5 0 1 0 19,0 V 351.812 H 330 V 466.5 a 9.5,9.5 0 1 0 19,0 V 351.812 h 117.406 a 9.5,9.5 0 1 0 0,-19 H 349 v -151 h 115.563 a 9.5,9.5 0 1 0 0,-19 H 349 V 45.47 A 9.5,9.5 0 0 0 339.344,35.844 9.5,9.5 0 0 0 330,45.47 V 162.813 H 179 V 45.47 a 9.5,9.5 0 0 0 -9.656,-9.626 z M 86,35.97 C 72.93,35.97 60.23,40.91 50.844,49.813 41.458,58.715 36,71.06 36,83.874 c 0,12.814 5.458,25.16 14.844,34.063 9.386,8.903 22.086,13.873 35.156,13.873 13.07,0 25.77,-4.97 35.156,-13.875 C 130.542,109.034 136,96.69 136,83.876 136,71.062 130.542,58.716 121.156,49.813 111.77,40.91 99.07,35.97 86,35.97 Z m 170,0 c -13.07,0 -25.77,4.94 -35.156,13.843 C 211.458,58.715 206,71.06 206,83.874 c 0,12.814 5.458,25.16 14.844,34.063 9.386,8.903 22.086,13.873 35.156,13.873 13.07,0 25.77,-4.97 35.156,-13.875 C 300.542,109.034 306,96.69 306,83.876 306,71.062 300.542,58.716 291.156,49.813 281.77,40.91 269.07,35.97 256,35.97 Z m 138.844,9.218 A 9.5,9.5 0 0 0 388.25,61.5 L 410.625,83.875 389,105.5 a 9.5021009,9.5021009 0 1 0 13.438,13.438 l 21.625,-21.626 22.375,22.407 a 9.5024545,9.5024545 0 1 0 13.437,-13.44 L 437.5,83.876 459.125,62.251 a 9.5,9.5 0 0 0 -6.906,-16.313 9.5,9.5 0 0 0 -6.533,2.876 L 424.061,70.438 401.686,48.064 a 9.5,9.5 0 0 0 -6.843,-2.876 z M 86,54.968 c 8.137,0 16.485,3.337 22.094,8.657 5.608,5.32 8.937,12.95 8.937,20.25 0,7.3 -3.328,14.96 -8.936,20.28 -5.61,5.32 -13.957,8.626 -22.094,8.626 -8.137,0 -16.485,-3.304 -22.094,-8.624 -5.608,-5.32 -8.937,-12.98 -8.937,-20.28 0,-7.302 3.328,-14.93 8.936,-20.25 C 69.516,58.307 77.863,54.97 86,54.97 Z m 170,0 c 8.137,0 16.485,3.337 22.094,8.657 5.608,5.32 8.937,12.95 8.937,20.25 0,7.3 -3.328,14.96 -8.936,20.28 -5.61,5.32 -13.957,8.626 -22.094,8.626 -8.137,0 -16.485,-3.304 -22.094,-8.624 -5.608,-5.32 -8.937,-12.98 -8.937,-20.28 0,-7.302 3.328,-14.93 8.936,-20.25 5.61,-5.32 13.957,-8.657 22.094,-8.657 z m -77,126.844 h 151 v 151 H 179 Z m 245.063,26.282 c -13.07,0 -25.77,4.94 -35.157,13.844 -9.386,8.903 -14.844,21.248 -14.844,34.062 0,12.814 5.458,25.16 14.844,34.063 9.386,8.903 22.087,13.875 35.156,13.875 13.07,0 25.77,-4.972 35.157,-13.875 9.385,-8.904 14.842,-21.25 14.842,-34.063 0,-12.814 -5.457,-25.16 -14.843,-34.063 -9.387,-8.903 -22.088,-13.843 -35.158,-13.843 z m -197.25,9.22 a 9.5,9.5 0 0 0 -6.625,16.31 L 242.563,256 220.938,277.625 a 9.502,9.502 0 1 0 13.437,13.438 L 256,269.438 l 22.375,22.375 a 9.5021009,9.5021009 0 1 0 13.438,-13.438 L 269.438,256 291.063,234.375 a 9.5,9.5 0 0 0 -6.907,-16.313 9.5,9.5 0 0 0 -6.53,2.875 L 256,242.563 233.625,220.188 a 9.5,9.5 0 0 0 -6.813,-2.875 z m 197.25,9.78 c 8.136,0 16.485,3.305 22.093,8.625 5.61,5.32 8.938,12.98 8.938,20.28 0,7.3 -3.33,14.93 -8.938,20.25 -5.608,5.32 -13.957,8.656 -22.094,8.656 -8.136,0 -16.485,-3.336 -22.093,-8.656 -5.61,-5.32 -8.94,-12.95 -8.94,-20.25 0,-7.3 3.33,-14.96 8.94,-20.28 5.607,-5.32 13.956,-8.626 22.092,-8.626 z M 256,380.156 c -13.07,0 -25.77,4.94 -35.156,13.844 -9.386,8.903 -14.844,21.25 -14.844,34.063 0,12.813 5.458,25.19 14.844,34.093 9.386,8.904 22.086,13.874 35.156,13.874 13.07,0 25.77,-4.97 35.156,-13.874 C 300.542,453.253 306,440.876 306,428.062 306,415.249 300.542,402.902 291.156,394 281.77,385.097 269.069,380.156 256,380.156 Z m -199.188,9.22 a 9.5,9.5 0 0 0 -6.624,16.312 L 72.562,428.094 50.94,449.72 a 9.502,9.502 0 1 0 13.437,13.436 L 86,441.53 l 22.375,22.376 a 9.502,9.502 0 1 0 13.438,-13.437 l -22.376,-22.376 21.626,-21.625 a 9.5,9.5 0 0 0 -6.907,-16.314 9.5,9.5 0 0 0 -6.53,2.875 L 86,414.657 63.625,392.25 a 9.5,9.5 0 0 0 -6.813,-2.875 z M 256,399.187 c 8.137,0 16.485,3.304 22.094,8.625 5.608,5.32 8.937,12.948 8.937,20.25 0,7.3 -3.328,14.96 -8.936,20.28 -5.61,5.32 -13.957,8.626 -22.094,8.626 -8.137,0 -16.485,-3.306 -22.094,-8.626 -5.608,-5.32 -8.937,-12.98 -8.937,-20.28 0,-7.303 3.328,-14.93 8.936,-20.252 5.61,-5.32 13.957,-8.625 22.094,-8.625 z"
       fill="#fff"
       fill-opacity="1"
       id="path2"
       style="fill:#d20062;fill-opacity:1;stroke-width:0.304305" />
  </g>
</svg>
