<?xml version="1.0" encoding="UTF-8" standalone="no"?>
<svg
   viewBox="0 0 500.20013 488.20175"
   version="1.1"
   id="svg2"
   sodipodi:docname="educational.svg"
   width="500.20013"
   height="488.20175"
   xmlns:inkscape="http://www.inkscape.org/namespaces/inkscape"
   xmlns:sodipodi="http://sodipodi.sourceforge.net/DTD/sodipodi-0.dtd"
   xmlns="http://www.w3.org/2000/svg"
   xmlns:svg="http://www.w3.org/2000/svg">
  <defs
     id="defs2" />
  <sodipodi:namedview
     id="namedview2"
     pagecolor="#ffffff"
     bordercolor="#000000"
     borderopacity="0.25"
     inkscape:showpageshadow="2"
     inkscape:pageopacity="0.0"
     inkscape:pagecheckerboard="0"
     inkscape:deskcolor="#d1d1d1" />
  <g
     class=""
     id="g2"
     transform="translate(-10.864511,-18.863424)">
    <path
       d="m 119.436,36 c -16.126,0 -29.2,17.237 -29.2,38.5 v 363 c 0,21.263 13.074,38.5 29.2,38.5 h 275.298 c 16.126,0 29.198,-17.237 29.198,-38.5 V 74.5 C 423.932,53.237 410.86,36 394.734,36 Z m 57.214,16.174 h 0.002 c 13.612,-0.318 26.502,9.855 27.073,28.043 0.976,31.09 -47.738,52.945 -52.31,70.015 -4.998,-18.649 -51.414,-37.573 -52.45,-70.015 -0.995,-31.155 37.401,-37.909 52.45,-11.848 6.26,-10.845 15.922,-15.977 25.235,-16.195 z m 51.666,116.515 h 77.743 v 8.915 h -11.055 c -4.359,0 -7.489,0.793 -9.39,2.378 -1.823,1.585 -2.735,3.883 -2.735,6.895 v 113.998 c 0,8.797 -2.139,16.76 -6.418,23.893 -4.28,7.053 -10.541,12.68 -18.783,16.88 -8.242,4.121 -17.552,6.182 -27.934,6.182 -14.106,0 -25.637,-4.121 -34.592,-12.363 -8.955,-8.321 -13.433,-18.465 -13.433,-30.432 0,-8.876 2.258,-15.968 6.775,-21.277 4.517,-5.31 10.065,-7.965 16.643,-7.965 5.389,0 9.827,1.744 13.314,5.23 3.487,3.408 5.23,7.767 5.23,13.077 0,4.596 -1.426,8.478 -4.279,11.648 -2.853,3.09 -6.142,4.637 -9.867,4.637 -1.426,0 -3.407,-0.397 -5.943,-1.19 -2.14,-0.634 -3.566,-0.95 -4.28,-0.95 -1.347,0 -2.416,0.554 -3.208,1.663 -0.872,1.11 -1.31,2.775 -1.31,4.994 0,5.944 2.973,11.372 8.917,16.286 6.023,4.834 13.392,7.25 22.11,7.25 9.905,0 17.711,-3.408 23.417,-10.223 5.706,-6.895 8.559,-16.484 8.559,-28.768 v -112.57 c 0,-3.09 -1.07,-5.389 -3.21,-6.895 -2.06,-1.585 -5.626,-2.378 -10.698,-2.378 H 228.316 Z M 360.73,361.77 c 4.572,17.071 53.289,38.924 52.312,70.014 -0.57,18.189 -13.462,28.362 -27.074,28.043 -9.314,-0.217 -18.975,-5.349 -25.237,-16.195 -15.048,26.061 -53.445,19.307 -52.45,-11.848 1.036,-32.442 47.451,-51.364 52.449,-70.013 z"
       fill="#fff"
       fill-opacity="1"
       id="path2"
       style="fill:#d20062;fill-opacity:1" />
  </g>
</svg>
