<?xml version="1.0" encoding="UTF-8" standalone="no"?>
<svg
   viewBox="0 0 458.04099 462"
   version="1.1"
   id="svg2"
   width="458.04099"
   height="462"
   xmlns="http://www.w3.org/2000/svg"
   xmlns:svg="http://www.w3.org/2000/svg">
  <defs
     id="defs2" />
  <g
     class=""
     style="fill:#d20062;fill-opacity:1"
     id="g2"
     transform="translate(-26.979,-25)">
    <path
       d="m 55.379,25 -28.4,142 H 172.27 L 256,83.271 339.729,167 H 485.02 L 456.62,25 Z M 256,108.727 179.729,185 H 41 v 302 h 158 v -87 c 0,-18.25 7.166,-33.077 18.021,-42.727 C 227.877,347.624 242,343 256,343 c 14,0 28.123,4.624 38.979,14.273 C 305.834,366.923 313,381.75 313,400 v 87 H 471 V 185 H 332.271 Z m 0,38.544 57,57 V 297 H 199 v -92.729 z m 0,25.456 -39,39 V 279 h 78 V 211.729 Z M 71,199 h 98 v 98 H 71 Z m 272,0 h 98 v 98 H 343 Z M 89,217 v 30 h 62 v -30 z m 272,0 v 30 h 62 V 217 Z M 89,265 v 14 h 62 v -14 z m 272,0 v 14 h 62 V 265 Z M 71,359 h 98 v 98 H 71 Z m 272,0 h 98 v 98 h -98 z m -87,2 c -10,0 -19.877,3.376 -27.021,9.727 C 221.834,377.077 217,386.25 217,400 v 87 h 78 v -87 c 0,-13.75 -4.834,-22.923 -11.979,-29.273 C 275.877,364.376 266,361 256,361 Z M 89,377 v 62 h 62 v -62 z m 272,0 v 62 h 62 v -62 z"
       fill="#fff"
       fill-opacity="1"
       id="path2"
       style="fill:#d20062;fill-opacity:1" />
  </g>
</svg>
