<svg width="44" height="44" viewBox="0 0 44 44" fill="none" xmlns="http://www.w3.org/2000/svg">
<circle cx="21.5" cy="21.5" r="18.5" fill="#C4E4FF"/>
<path d="M26.6942 31.0558L17.6412 22L26.6956 12.9442L24.75 11L13.75 22L24.75 33L26.6942 31.0558Z" fill="#402B3A"/>
<path d="M22 2.75C32.615 2.75 41.25 11.385 41.25 22C41.25 32.615 32.615 41.25 22 41.25C11.385 41.25 2.75 32.615 2.75 22C2.75 11.385 11.385 2.75 22 2.75ZM22 38.5C31.0984 38.5 38.5 31.0984 38.5 22C38.5 12.9016 31.0984 5.5 22 5.5C12.9016 5.5 5.5 12.9016 5.5 22C5.5 31.0984 12.9016 38.5 22 38.5Z" fill="#402B3A"/>
</svg>
