<svg width="149" height="36" viewBox="0 0 149 36" fill="none" xmlns="http://www.w3.org/2000/svg">
<path d="M42.032 19.4C42.032 18.04 42.304 16.856 42.848 15.848C43.392 14.824 44.144 14.032 45.104 13.472C46.08 12.912 47.192 12.632 48.44 12.632C50.056 12.632 51.384 13.024 52.424 13.808C53.48 14.592 54.176 15.68 54.512 17.072H52.16C51.936 16.272 51.496 15.64 50.84 15.176C50.2 14.712 49.4 14.48 48.44 14.48C47.192 14.48 46.184 14.912 45.416 15.776C44.648 16.624 44.264 17.832 44.264 19.4C44.264 20.984 44.648 22.208 45.416 23.072C46.184 23.936 47.192 24.368 48.44 24.368C49.4 24.368 50.2 24.144 50.84 23.696C51.48 23.248 51.92 22.608 52.16 21.776H54.512C54.16 23.12 53.456 24.2 52.4 25.016C51.344 25.816 50.024 26.216 48.44 26.216C47.192 26.216 46.08 25.936 45.104 25.376C44.144 24.816 43.392 24.024 42.848 23C42.304 21.976 42.032 20.776 42.032 19.4ZM62.2021 26.216C60.9701 26.216 59.8501 25.936 58.8421 25.376C57.8501 24.816 57.0661 24.024 56.4901 23C55.9301 21.96 55.6501 20.76 55.6501 19.4C55.6501 18.056 55.9381 16.872 56.5141 15.848C57.1061 14.808 57.9061 14.016 58.9141 13.472C59.9221 12.912 61.0501 12.632 62.2981 12.632C63.5461 12.632 64.6741 12.912 65.6821 13.472C66.6901 14.016 67.4821 14.8 68.0581 15.824C68.6501 16.848 68.9461 18.04 68.9461 19.4C68.9461 20.76 68.6421 21.96 68.0341 23C67.4421 24.024 66.6341 24.816 65.6101 25.376C64.5861 25.936 63.4501 26.216 62.2021 26.216ZM62.2021 24.296C62.9861 24.296 63.7221 24.112 64.4101 23.744C65.0981 23.376 65.6501 22.824 66.0661 22.088C66.4981 21.352 66.7141 20.456 66.7141 19.4C66.7141 18.344 66.5061 17.448 66.0901 16.712C65.6741 15.976 65.1301 15.432 64.4581 15.08C63.7861 14.712 63.0581 14.528 62.2741 14.528C61.4741 14.528 60.7381 14.712 60.0661 15.08C59.4101 15.432 58.8821 15.976 58.4821 16.712C58.0821 17.448 57.8821 18.344 57.8821 19.4C57.8821 20.472 58.0741 21.376 58.4581 22.112C58.8581 22.848 59.3861 23.4 60.0421 23.768C60.6981 24.12 61.4181 24.296 62.2021 24.296ZM73.0417 8.24V26H70.8577V8.24H73.0417ZM77.9879 8.24V26H75.8039V8.24H77.9879ZM92.7502 18.92C92.7502 19.336 92.7262 19.776 92.6782 20.24H82.1662C82.2462 21.536 82.6862 22.552 83.4862 23.288C84.3022 24.008 85.2862 24.368 86.4382 24.368C87.3822 24.368 88.1662 24.152 88.7902 23.72C89.4302 23.272 89.8782 22.68 90.1342 21.944H92.4862C92.1342 23.208 91.4302 24.24 90.3742 25.04C89.3182 25.824 88.0062 26.216 86.4382 26.216C85.1902 26.216 84.0702 25.936 83.0782 25.376C82.1022 24.816 81.3342 24.024 80.7742 23C80.2142 21.96 79.9342 20.76 79.9342 19.4C79.9342 18.04 80.2062 16.848 80.7502 15.824C81.2942 14.8 82.0542 14.016 83.0302 13.472C84.0222 12.912 85.1582 12.632 86.4382 12.632C87.6862 12.632 88.7902 12.904 89.7502 13.448C90.7102 13.992 91.4462 14.744 91.9582 15.704C92.4862 16.648 92.7502 17.72 92.7502 18.92ZM90.4942 18.464C90.4942 17.632 90.3102 16.92 89.9422 16.328C89.5742 15.72 89.0702 15.264 88.4302 14.96C87.8062 14.64 87.1102 14.48 86.3422 14.48C85.2382 14.48 84.2942 14.832 83.5102 15.536C82.7422 16.24 82.3022 17.216 82.1902 18.464H90.4942ZM93.857 19.4C93.857 18.04 94.129 16.856 94.673 15.848C95.217 14.824 95.969 14.032 96.929 13.472C97.905 12.912 99.017 12.632 100.265 12.632C101.881 12.632 103.209 13.024 104.249 13.808C105.305 14.592 106.001 15.68 106.337 17.072H103.985C103.761 16.272 103.321 15.64 102.665 15.176C102.025 14.712 101.225 14.48 100.265 14.48C99.017 14.48 98.009 14.912 97.241 15.776C96.473 16.624 96.089 17.832 96.089 19.4C96.089 20.984 96.473 22.208 97.241 23.072C98.009 23.936 99.017 24.368 100.265 24.368C101.225 24.368 102.025 24.144 102.665 23.696C103.305 23.248 103.745 22.608 103.985 21.776H106.337C105.985 23.12 105.281 24.2 104.225 25.016C103.169 25.816 101.849 26.216 100.265 26.216C99.017 26.216 97.905 25.936 96.929 25.376C95.969 24.816 95.217 24.024 94.673 23C94.129 21.976 93.857 20.776 93.857 19.4ZM110.955 14.648V22.4C110.955 23.04 111.091 23.496 111.363 23.768C111.635 24.024 112.107 24.152 112.779 24.152H114.387V26H112.419C111.203 26 110.291 25.72 109.683 25.16C109.075 24.6 108.771 23.68 108.771 22.4V14.648H107.067V12.848H108.771V9.536H110.955V12.848H114.387V14.648H110.955ZM117.201 10.712C116.785 10.712 116.433 10.568 116.145 10.28C115.857 9.992 115.713 9.64 115.713 9.224C115.713 8.808 115.857 8.456 116.145 8.168C116.433 7.88 116.785 7.736 117.201 7.736C117.601 7.736 117.937 7.88 118.209 8.168C118.497 8.456 118.641 8.808 118.641 9.224C118.641 9.64 118.497 9.992 118.209 10.28C117.937 10.568 117.601 10.712 117.201 10.712ZM118.257 12.848V26H116.073V12.848H118.257ZM126.756 26.216C125.524 26.216 124.404 25.936 123.396 25.376C122.404 24.816 121.62 24.024 121.044 23C120.484 21.96 120.204 20.76 120.204 19.4C120.204 18.056 120.492 16.872 121.068 15.848C121.66 14.808 122.46 14.016 123.468 13.472C124.476 12.912 125.604 12.632 126.852 12.632C128.1 12.632 129.228 12.912 130.236 13.472C131.244 14.016 132.036 14.8 132.612 15.824C133.204 16.848 133.5 18.04 133.5 19.4C133.5 20.76 133.196 21.96 132.588 23C131.996 24.024 131.188 24.816 130.164 25.376C129.14 25.936 128.004 26.216 126.756 26.216ZM126.756 24.296C127.54 24.296 128.276 24.112 128.964 23.744C129.652 23.376 130.204 22.824 130.62 22.088C131.052 21.352 131.268 20.456 131.268 19.4C131.268 18.344 131.06 17.448 130.644 16.712C130.228 15.976 129.684 15.432 129.012 15.08C128.34 14.712 127.612 14.528 126.828 14.528C126.028 14.528 125.292 14.712 124.62 15.08C123.964 15.432 123.436 15.976 123.036 16.712C122.636 17.448 122.436 18.344 122.436 19.4C122.436 20.472 122.628 21.376 123.012 22.112C123.412 22.848 123.94 23.4 124.596 23.768C125.252 24.12 125.972 24.296 126.756 24.296ZM141.819 12.608C143.419 12.608 144.715 13.096 145.707 14.072C146.699 15.032 147.195 16.424 147.195 18.248V26H145.035V18.56C145.035 17.248 144.707 16.248 144.051 15.56C143.395 14.856 142.499 14.504 141.363 14.504C140.211 14.504 139.291 14.864 138.603 15.584C137.931 16.304 137.595 17.352 137.595 18.728V26H135.411V12.848H137.595V14.72C138.027 14.048 138.611 13.528 139.347 13.16C140.099 12.792 140.923 12.608 141.819 12.608Z" fill="#D20062"/>
<path d="M24 19.3306H17.3334V25.9973C17.3334 26.3509 17.1929 26.69 16.9428 26.9401C16.6928 27.1901 16.3536 27.3306 16 27.3306C15.6464 27.3306 15.3073 27.1901 15.0572 26.9401C14.8072 26.69 14.6667 26.3509 14.6667 25.9973V19.3306H8.00002C7.6464 19.3306 7.30726 19.1901 7.05721 18.9401C6.80716 18.69 6.66669 18.3509 6.66669 17.9973C6.66669 17.6437 6.80716 17.3045 7.05721 17.0545C7.30726 16.8044 7.6464 16.6639 8.00002 16.6639H14.6667V9.99727C14.6667 9.64365 14.8072 9.30451 15.0572 9.05446C15.3073 8.80442 15.6464 8.66394 16 8.66394C16.3536 8.66394 16.6928 8.80442 16.9428 9.05446C17.1929 9.30451 17.3334 9.64365 17.3334 9.99727V16.6639H24C24.3536 16.6639 24.6928 16.8044 24.9428 17.0545C25.1929 17.3045 25.3334 17.6437 25.3334 17.9973C25.3334 18.3509 25.1929 18.69 24.9428 18.9401C24.6928 19.1901 24.3536 19.3306 24 19.3306Z" fill="#D6589F"/>
</svg>
