<svg width="20" height="25" viewBox="0 0 20 25" fill="none" xmlns="http://www.w3.org/2000/svg">
<path d="M9.99996 18.8333C10.6188 18.8333 11.2123 18.5875 11.6499 18.1499C12.0875 17.7123 12.3333 17.1188 12.3333 16.5C12.3333 15.8812 12.0875 15.2877 11.6499 14.8501C11.2123 14.4125 10.6188 14.1667 9.99996 14.1667C9.38112 14.1667 8.78763 14.4125 8.35004 14.8501C7.91246 15.2877 7.66663 15.8812 7.66663 16.5C7.66663 17.1188 7.91246 17.7123 8.35004 18.1499C8.78763 18.5875 9.38112 18.8333 9.99996 18.8333ZM17 8.33332C17.6188 8.33332 18.2123 8.57916 18.6499 9.01674C19.0875 9.45433 19.3333 10.0478 19.3333 10.6667V22.3333C19.3333 22.9522 19.0875 23.5457 18.6499 23.9832C18.2123 24.4208 17.6188 24.6667 17 24.6667H2.99996C2.38112 24.6667 1.78763 24.4208 1.35004 23.9832C0.912458 23.5457 0.666626 22.9522 0.666626 22.3333V10.6667C0.666626 10.0478 0.912458 9.45433 1.35004 9.01674C1.78763 8.57916 2.38112 8.33332 2.99996 8.33332H4.16663V5.99999C4.16663 4.45289 4.78121 2.96916 5.87517 1.8752C6.96913 0.781238 8.45286 0.166656 9.99996 0.166656C10.766 0.166656 11.5245 0.31754 12.2323 0.610693C12.94 0.903845 13.5831 1.33353 14.1247 1.8752C14.6664 2.41688 15.0961 3.05994 15.3893 3.76767C15.6824 4.4754 15.8333 5.23395 15.8333 5.99999V8.33332H17ZM9.99996 2.49999C9.0717 2.49999 8.18146 2.86874 7.52508 3.52512C6.86871 4.18149 6.49996 5.07173 6.49996 5.99999V8.33332H13.5V5.99999C13.5 5.07173 13.1312 4.18149 12.4748 3.52512C11.8185 2.86874 10.9282 2.49999 9.99996 2.49999Z" fill="#402B3A"/>
</svg>
