<svg width="40" height="40" viewBox="0 0 40 40" fill="none" xmlns="http://www.w3.org/2000/svg">
<rect x="1.5" y="1.5" width="37" height="37" rx="8.5" fill="#C4E4FF" stroke="#D895DA" stroke-width="3"/>
<path d="M6 6H11L11.5 32H6V6Z" fill="#402B3A" fill-opacity="0.92"/>
<path d="M13 12.5H18L17.5 31.5H13V12.5Z" fill="#4B3A4A"/>
<path d="M20.5 8L27 8.5L25.5 32H19L20.5 8Z" fill="#4B3A4A"/>
<path d="M28 13H34L32.5 32.5L27 32L28 13Z" fill="#4B3A4A"/>
<path d="M6 34H32.9718M11.6158 32.3351L6.0791 32.4865L6.23729 6L11.2203 6.07568M11.6158 32.3351L11.2203 6.07568M11.6158 32.3351L12.6441 31.9568M11.2203 6.07568L12.7232 8.64865L12.8023 12.1297M12.6441 31.9568L12.8814 12.0541L18.4181 12.2054L17.7853 31.8054L12.6441 31.9568ZM28.7006 12.5838C29.2103 11.8455 29.8739 11.2157 30.6496 10.734C31.4254 10.2522 32.2967 9.92871 33.209 9.78378M20 7.81622L18.8927 32.1838L25.774 32.1081L27.1186 8.19459L20 7.81622ZM27.9096 12.5838L26.7232 32.4865L32.8927 32.5622L34 12.6595L27.9096 12.5838Z" stroke="#402B3A" stroke-linecap="round" stroke-linejoin="round"/>
</svg>
