<svg width="40" height="40" viewBox="0 0 40 40" fill="none" xmlns="http://www.w3.org/2000/svg">
<rect x="1.5" y="1.5" width="37" height="37" rx="8.5" fill="#C4E4FF" stroke="#D895DA" stroke-width="3"/>
<path d="M23.4064 20.9984C18.4332 20.9984 13.4599 25.3672 13.4599 29.9312V33.35H33.3529V29.9312C33.3529 25.3672 28.3797 20.9984 23.4064 20.9984ZM12.2166 16.2563V11.1281H9.72995V16.2563H6V19.675H9.72995V24.8031H12.2166V19.675H15.9465V16.2563M23.4064 19.675C24.7254 19.675 25.9904 18.9546 26.923 17.6723C27.8557 16.3901 28.3797 14.6509 28.3797 12.8375C28.3797 11.0241 27.8557 9.28494 26.923 8.00266C25.9904 6.72038 24.7254 6 23.4064 6C22.0874 6 20.8225 6.72038 19.8898 8.00266C18.9571 9.28494 18.4332 11.0241 18.4332 12.8375C18.4332 14.6509 18.9571 16.3901 19.8898 17.6723C20.8225 18.9546 22.0874 19.675 23.4064 19.675Z" fill="#402B3A"/>
</svg>
