<svg width="300" height="300" viewBox="0 0 300 300" fill="none" xmlns="http://www.w3.org/2000/svg">
<rect x="0.5" y="0.5" width="299" height="299" rx="15.5" fill="#C4E4FF"/>
<rect x="0.5" y="0.5" width="299" height="299" rx="15.5" stroke="#D895DA"/>
<path fill-rule="evenodd" clip-rule="evenodd" d="M70.9971 71.8965L94.0133 71.8583L93.6376 48.2894L71.0974 47.7524L71.117 25.2079L138.742 25L138.698 47.1938L115.175 47.4275L114.995 71.5709L154.777 71.7598L186.845 71.7078L186.654 47.8655L162.745 47.4973L162.654 26.2841L231.48 25.7182L231.583 47.3103L208.61 47.6789L208.413 71.6727L231.721 71.6345L232.517 95.037L255.061 94.5169L254.795 160.564L232.252 160.824L232.119 184.096L208.913 184.226L208.134 230.237L185.987 230.04L185.84 205.809L161.47 205.718L160.921 251.758H140.807L140.783 206.649L115.161 206.849L115.369 230.137H92.952L93.0156 182.667L71.0027 182.927L70.4721 159.524L48.1941 160.044L47.929 95.0376L70.4724 94.7777L70.9971 71.8965Z" fill="#1E0F3A" stroke="black" stroke-width="9.49999" stroke-linecap="round" stroke-linejoin="round"/>
<path d="M44.4839 160.022H28.7707C26.6882 160.022 25 161.677 25 163.718V201.188C25 203.23 26.6882 204.885 28.7707 204.885H44.4839C46.5664 204.885 48.2546 203.23 48.2546 201.188V163.718C48.2546 161.677 46.5664 160.022 44.4839 160.022Z" fill="#1E0F3A" stroke="black" stroke-width="9.49999" stroke-linecap="round" stroke-linejoin="round"/>
<path d="M89.1798 230.136H73.4665C71.3841 230.136 69.6959 231.792 69.6959 233.833V271.303C69.6959 273.345 71.3841 275 73.4665 275H89.1798C91.2622 275 92.9505 273.345 92.9505 271.303V233.833C92.9505 231.792 91.2622 230.136 89.1798 230.136Z" fill="#1E0F3A" stroke="black" stroke-width="9.49999" stroke-linecap="round" stroke-linejoin="round"/>
<path d="M224.302 230.237H211.904C209.822 230.237 208.133 231.892 208.133 233.933V269.323C208.133 271.365 209.822 273.02 211.904 273.02H224.302C226.385 273.02 228.073 271.365 228.073 269.323V233.933C228.073 231.892 226.385 230.237 224.302 230.237Z" fill="#1E0F3A" stroke="black" stroke-width="9.49999" stroke-linecap="round" stroke-linejoin="round"/>
<path d="M271.229 160.564H258.566C256.484 160.564 254.795 162.219 254.795 164.261V199.39C254.795 201.432 256.484 203.087 258.566 203.087H271.229C273.312 203.087 275 201.432 275 199.39V164.261C275 162.219 273.312 160.564 271.229 160.564Z" fill="#1E0F3A" stroke="black" stroke-width="9.49999" stroke-linecap="round" stroke-linejoin="round"/>
<g filter="url(#filter0_f_100_891)">
<path d="M207.546 116.813H186.167V137.982H207.546V116.813Z" fill="#C4E4FF"/>
<path d="M207.546 116.813H186.167V137.982H207.546V116.813Z" stroke="black" stroke-width="9.49999" stroke-linecap="round" stroke-linejoin="round"/>
</g>
<g filter="url(#filter1_f_100_891)">
<path d="M115.454 116.813H94.0748V137.982H115.454V116.813Z" fill="#C4E4FF"/>
<path d="M115.454 116.813H94.0748V137.982H115.454V116.813Z" stroke="black" stroke-width="9.49999" stroke-linecap="round" stroke-linejoin="round"/>
</g>
<path d="M180.151 251.758H160.921V270.305H180.151V251.758Z" fill="#1E0F3A" stroke="black" stroke-width="9.49999" stroke-linecap="round" stroke-linejoin="round"/>
<defs>
<filter id="filter0_f_100_891" x="176.904" y="107.551" width="39.904" height="39.6941" filterUnits="userSpaceOnUse" color-interpolation-filters="sRGB">
<feFlood flood-opacity="0" result="BackgroundImageFix"/>
<feBlend mode="normal" in="SourceGraphic" in2="BackgroundImageFix" result="shape"/>
<feGaussianBlur stdDeviation="2.25619" result="effect1_foregroundBlur_100_891"/>
</filter>
<filter id="filter1_f_100_891" x="84.8124" y="107.551" width="39.904" height="39.6941" filterUnits="userSpaceOnUse" color-interpolation-filters="sRGB">
<feFlood flood-opacity="0" result="BackgroundImageFix"/>
<feBlend mode="normal" in="SourceGraphic" in2="BackgroundImageFix" result="shape"/>
<feGaussianBlur stdDeviation="2.25619" result="effect1_foregroundBlur_100_891"/>
</filter>
</defs>
</svg>
